G04 MADE WITH FRITZING*
G04 WWW.FRITZING.ORG*
G04 DOUBLE SIDED*
G04 HOLES PLATED*
G04 CONTOUR ON CENTER OF CONTOUR VECTOR*
%ASAXBY*%
%FSLAX23Y23*%
%MOIN*%
%OFA0B0*%
%SFA1.0B1.0*%
%ADD10C,0.049370*%
%ADD11C,0.084000*%
%ADD12C,0.148425*%
%ADD13C,0.076000*%
%ADD14C,0.090000*%
%ADD15C,0.083667*%
%ADD16C,0.080000*%
%ADD17C,0.095000*%
%ADD18C,0.088000*%
%ADD19C,0.135985*%
%ADD20R,0.090000X0.090000*%
%ADD21R,0.088000X0.088000*%
%ADD22R,0.001000X0.001000*%
%LNMASK0*%
G90*
G70*
G54D10*
X4296Y478D03*
X3996Y478D03*
X1796Y1578D03*
X1596Y1478D03*
X1196Y778D03*
X1196Y593D03*
X1196Y78D03*
X1196Y378D03*
X1996Y1478D03*
X196Y1378D03*
X196Y1178D03*
X4302Y981D03*
X3796Y778D03*
X4796Y578D03*
X4596Y578D03*
G54D11*
X496Y3078D03*
X596Y3078D03*
X696Y3078D03*
X796Y3078D03*
G54D10*
X4096Y2278D03*
X4096Y2078D03*
X4996Y2278D03*
X4396Y2878D03*
X4096Y2878D03*
X4396Y2678D03*
X2404Y1382D03*
X3996Y1378D03*
X4196Y778D03*
X4296Y1578D03*
X4296Y772D03*
X1796Y678D03*
X1596Y678D03*
X1696Y378D03*
X1796Y2078D03*
X1996Y2078D03*
X1993Y1682D03*
X1796Y1678D03*
X2396Y1978D03*
X1811Y1978D03*
X4396Y2378D03*
X4396Y2078D03*
X4096Y378D03*
X4096Y978D03*
X4596Y2078D03*
X4596Y2278D03*
X696Y2178D03*
X696Y1978D03*
X296Y2878D03*
X296Y2678D03*
X4196Y2178D03*
X3796Y2178D03*
X2996Y1778D03*
X2696Y3078D03*
X2696Y2378D03*
X2865Y2082D03*
X3161Y2078D03*
X1396Y878D03*
X1396Y578D03*
X1596Y378D03*
X1596Y78D03*
X4996Y3078D03*
X4796Y3078D03*
X396Y578D03*
X396Y378D03*
X896Y2378D03*
X896Y2578D03*
X1796Y2578D03*
X2096Y2778D03*
X3396Y2778D03*
X3396Y2278D03*
X1896Y3478D03*
X1896Y3078D03*
X2396Y878D03*
X2796Y878D03*
X1783Y2382D03*
X2001Y2382D03*
X296Y1378D03*
X296Y1178D03*
X4396Y978D03*
X4696Y978D03*
G54D12*
X1546Y3478D03*
G54D13*
X1696Y3078D03*
X1596Y3078D03*
X1496Y3078D03*
X1396Y3078D03*
G54D14*
X4796Y2378D03*
X4796Y2278D03*
G54D15*
X4696Y1678D03*
X4796Y1678D03*
X4696Y1578D03*
X4796Y1578D03*
X4696Y1478D03*
X4796Y1478D03*
X4696Y1378D03*
X4796Y1378D03*
X4696Y1278D03*
X4796Y1278D03*
G54D16*
X3496Y1478D03*
X3596Y1478D03*
X3696Y1478D03*
X3796Y1478D03*
X3896Y1478D03*
X3396Y1078D03*
X3496Y1078D03*
X3596Y1078D03*
X3696Y1078D03*
X3796Y1078D03*
X3896Y1078D03*
X3396Y1478D03*
G54D17*
X3504Y2478D03*
X3504Y2281D03*
X3996Y2281D03*
X3996Y2478D03*
X2804Y2478D03*
X2804Y2281D03*
X3296Y2281D03*
X3296Y2478D03*
X2104Y2478D03*
X2104Y2281D03*
X2596Y2281D03*
X2596Y2478D03*
G54D13*
X4496Y3878D03*
X4496Y3778D03*
X4496Y3678D03*
X4096Y3678D03*
X4096Y3778D03*
X4096Y3878D03*
G54D18*
X4696Y3178D03*
X4696Y3078D03*
G54D16*
X2796Y3878D03*
X3396Y3878D03*
G54D19*
X2416Y2995D03*
G54D16*
X2896Y3878D03*
G54D19*
X2416Y3881D03*
G54D16*
X2996Y3878D03*
G54D19*
X3676Y3881D03*
G54D16*
X3096Y3878D03*
G54D19*
X3676Y2995D03*
G54D16*
X3196Y3878D03*
X3296Y3878D03*
X2696Y3878D03*
G54D12*
X2696Y1128D03*
G54D16*
X2296Y1078D03*
X2296Y1178D03*
X2296Y1278D03*
X2296Y1378D03*
G54D12*
X2696Y1728D03*
G54D16*
X2296Y1478D03*
X2296Y1578D03*
X2296Y1678D03*
X2296Y1778D03*
G54D20*
X4796Y2378D03*
G54D21*
X4696Y3178D03*
G54D22*
X488Y3194D02*
X504Y3194D01*
X588Y3194D02*
X604Y3194D01*
X688Y3194D02*
X704Y3194D01*
X788Y3194D02*
X804Y3194D01*
X484Y3193D02*
X507Y3193D01*
X584Y3193D02*
X607Y3193D01*
X684Y3193D02*
X707Y3193D01*
X784Y3193D02*
X807Y3193D01*
X481Y3192D02*
X510Y3192D01*
X581Y3192D02*
X610Y3192D01*
X681Y3192D02*
X710Y3192D01*
X781Y3192D02*
X810Y3192D01*
X479Y3191D02*
X513Y3191D01*
X579Y3191D02*
X613Y3191D01*
X679Y3191D02*
X713Y3191D01*
X779Y3191D02*
X813Y3191D01*
X477Y3190D02*
X515Y3190D01*
X577Y3190D02*
X615Y3190D01*
X677Y3190D02*
X715Y3190D01*
X777Y3190D02*
X815Y3190D01*
X475Y3189D02*
X516Y3189D01*
X575Y3189D02*
X616Y3189D01*
X675Y3189D02*
X716Y3189D01*
X775Y3189D02*
X816Y3189D01*
X473Y3188D02*
X518Y3188D01*
X573Y3188D02*
X618Y3188D01*
X673Y3188D02*
X718Y3188D01*
X773Y3188D02*
X818Y3188D01*
X472Y3187D02*
X520Y3187D01*
X572Y3187D02*
X620Y3187D01*
X672Y3187D02*
X720Y3187D01*
X772Y3187D02*
X820Y3187D01*
X470Y3186D02*
X521Y3186D01*
X570Y3186D02*
X621Y3186D01*
X670Y3186D02*
X721Y3186D01*
X770Y3186D02*
X821Y3186D01*
X469Y3185D02*
X522Y3185D01*
X569Y3185D02*
X622Y3185D01*
X669Y3185D02*
X722Y3185D01*
X769Y3185D02*
X822Y3185D01*
X468Y3184D02*
X523Y3184D01*
X568Y3184D02*
X623Y3184D01*
X668Y3184D02*
X723Y3184D01*
X768Y3184D02*
X823Y3184D01*
X467Y3183D02*
X524Y3183D01*
X567Y3183D02*
X624Y3183D01*
X667Y3183D02*
X724Y3183D01*
X767Y3183D02*
X824Y3183D01*
X466Y3182D02*
X525Y3182D01*
X566Y3182D02*
X625Y3182D01*
X666Y3182D02*
X725Y3182D01*
X766Y3182D02*
X825Y3182D01*
X465Y3181D02*
X526Y3181D01*
X565Y3181D02*
X626Y3181D01*
X665Y3181D02*
X726Y3181D01*
X765Y3181D02*
X826Y3181D01*
X464Y3180D02*
X527Y3180D01*
X564Y3180D02*
X627Y3180D01*
X664Y3180D02*
X727Y3180D01*
X764Y3180D02*
X827Y3180D01*
X463Y3179D02*
X528Y3179D01*
X563Y3179D02*
X628Y3179D01*
X663Y3179D02*
X728Y3179D01*
X763Y3179D02*
X828Y3179D01*
X463Y3178D02*
X529Y3178D01*
X563Y3178D02*
X629Y3178D01*
X663Y3178D02*
X729Y3178D01*
X763Y3178D02*
X829Y3178D01*
X462Y3177D02*
X530Y3177D01*
X562Y3177D02*
X630Y3177D01*
X662Y3177D02*
X729Y3177D01*
X762Y3177D02*
X829Y3177D01*
X461Y3176D02*
X530Y3176D01*
X561Y3176D02*
X630Y3176D01*
X661Y3176D02*
X730Y3176D01*
X761Y3176D02*
X830Y3176D01*
X461Y3175D02*
X531Y3175D01*
X561Y3175D02*
X631Y3175D01*
X661Y3175D02*
X731Y3175D01*
X761Y3175D02*
X831Y3175D01*
X460Y3174D02*
X531Y3174D01*
X560Y3174D02*
X631Y3174D01*
X660Y3174D02*
X731Y3174D01*
X760Y3174D02*
X831Y3174D01*
X459Y3173D02*
X532Y3173D01*
X559Y3173D02*
X632Y3173D01*
X659Y3173D02*
X732Y3173D01*
X759Y3173D02*
X832Y3173D01*
X459Y3172D02*
X532Y3172D01*
X559Y3172D02*
X632Y3172D01*
X659Y3172D02*
X732Y3172D01*
X759Y3172D02*
X832Y3172D01*
X458Y3171D02*
X533Y3171D01*
X558Y3171D02*
X633Y3171D01*
X658Y3171D02*
X733Y3171D01*
X758Y3171D02*
X833Y3171D01*
X458Y3170D02*
X533Y3170D01*
X558Y3170D02*
X633Y3170D01*
X658Y3170D02*
X733Y3170D01*
X758Y3170D02*
X833Y3170D01*
X458Y3169D02*
X534Y3169D01*
X558Y3169D02*
X634Y3169D01*
X657Y3169D02*
X734Y3169D01*
X757Y3169D02*
X834Y3169D01*
X457Y3168D02*
X534Y3168D01*
X557Y3168D02*
X634Y3168D01*
X657Y3168D02*
X734Y3168D01*
X757Y3168D02*
X834Y3168D01*
X457Y3167D02*
X535Y3167D01*
X557Y3167D02*
X635Y3167D01*
X657Y3167D02*
X735Y3167D01*
X757Y3167D02*
X835Y3167D01*
X456Y3166D02*
X535Y3166D01*
X556Y3166D02*
X635Y3166D01*
X656Y3166D02*
X735Y3166D01*
X756Y3166D02*
X835Y3166D01*
X456Y3165D02*
X535Y3165D01*
X556Y3165D02*
X635Y3165D01*
X656Y3165D02*
X735Y3165D01*
X756Y3165D02*
X835Y3165D01*
X456Y3164D02*
X536Y3164D01*
X556Y3164D02*
X636Y3164D01*
X656Y3164D02*
X736Y3164D01*
X756Y3164D02*
X836Y3164D01*
X456Y3163D02*
X536Y3163D01*
X556Y3163D02*
X636Y3163D01*
X656Y3163D02*
X736Y3163D01*
X755Y3163D02*
X836Y3163D01*
X455Y3162D02*
X536Y3162D01*
X555Y3162D02*
X636Y3162D01*
X655Y3162D02*
X736Y3162D01*
X755Y3162D02*
X836Y3162D01*
X455Y3161D02*
X536Y3161D01*
X555Y3161D02*
X636Y3161D01*
X655Y3161D02*
X736Y3161D01*
X755Y3161D02*
X836Y3161D01*
X455Y3160D02*
X537Y3160D01*
X555Y3160D02*
X637Y3160D01*
X655Y3160D02*
X736Y3160D01*
X755Y3160D02*
X836Y3160D01*
X455Y3159D02*
X537Y3159D01*
X555Y3159D02*
X637Y3159D01*
X655Y3159D02*
X737Y3159D01*
X755Y3159D02*
X837Y3159D01*
X455Y3158D02*
X537Y3158D01*
X555Y3158D02*
X637Y3158D01*
X655Y3158D02*
X737Y3158D01*
X755Y3158D02*
X837Y3158D01*
X454Y3157D02*
X537Y3157D01*
X554Y3157D02*
X637Y3157D01*
X654Y3157D02*
X737Y3157D01*
X754Y3157D02*
X837Y3157D01*
X454Y3156D02*
X537Y3156D01*
X554Y3156D02*
X637Y3156D01*
X654Y3156D02*
X737Y3156D01*
X754Y3156D02*
X837Y3156D01*
X454Y3155D02*
X537Y3155D01*
X554Y3155D02*
X637Y3155D01*
X654Y3155D02*
X737Y3155D01*
X754Y3155D02*
X837Y3155D01*
X454Y3154D02*
X537Y3154D01*
X554Y3154D02*
X637Y3154D01*
X654Y3154D02*
X737Y3154D01*
X754Y3154D02*
X837Y3154D01*
X454Y3153D02*
X537Y3153D01*
X554Y3153D02*
X637Y3153D01*
X654Y3153D02*
X737Y3153D01*
X754Y3153D02*
X837Y3153D01*
X454Y3152D02*
X537Y3152D01*
X554Y3152D02*
X637Y3152D01*
X654Y3152D02*
X737Y3152D01*
X754Y3152D02*
X837Y3152D01*
X454Y3151D02*
X537Y3151D01*
X554Y3151D02*
X637Y3151D01*
X654Y3151D02*
X737Y3151D01*
X754Y3151D02*
X837Y3151D01*
X454Y3150D02*
X537Y3150D01*
X554Y3150D02*
X637Y3150D01*
X654Y3150D02*
X737Y3150D01*
X754Y3150D02*
X837Y3150D01*
X454Y3149D02*
X537Y3149D01*
X554Y3149D02*
X637Y3149D01*
X654Y3149D02*
X737Y3149D01*
X754Y3149D02*
X837Y3149D01*
X454Y3148D02*
X537Y3148D01*
X554Y3148D02*
X637Y3148D01*
X654Y3148D02*
X737Y3148D01*
X754Y3148D02*
X837Y3148D01*
X454Y3147D02*
X537Y3147D01*
X554Y3147D02*
X637Y3147D01*
X654Y3147D02*
X737Y3147D01*
X754Y3147D02*
X837Y3147D01*
X454Y3146D02*
X537Y3146D01*
X554Y3146D02*
X637Y3146D01*
X654Y3146D02*
X737Y3146D01*
X754Y3146D02*
X837Y3146D01*
X454Y3145D02*
X537Y3145D01*
X554Y3145D02*
X637Y3145D01*
X654Y3145D02*
X737Y3145D01*
X754Y3145D02*
X837Y3145D01*
X454Y3144D02*
X537Y3144D01*
X554Y3144D02*
X637Y3144D01*
X654Y3144D02*
X737Y3144D01*
X754Y3144D02*
X837Y3144D01*
X454Y3143D02*
X537Y3143D01*
X554Y3143D02*
X637Y3143D01*
X654Y3143D02*
X737Y3143D01*
X754Y3143D02*
X837Y3143D01*
X454Y3142D02*
X537Y3142D01*
X554Y3142D02*
X637Y3142D01*
X654Y3142D02*
X737Y3142D01*
X754Y3142D02*
X837Y3142D01*
X454Y3141D02*
X537Y3141D01*
X554Y3141D02*
X637Y3141D01*
X654Y3141D02*
X737Y3141D01*
X754Y3141D02*
X837Y3141D01*
X454Y3140D02*
X537Y3140D01*
X554Y3140D02*
X637Y3140D01*
X654Y3140D02*
X737Y3140D01*
X754Y3140D02*
X837Y3140D01*
X454Y3139D02*
X537Y3139D01*
X554Y3139D02*
X637Y3139D01*
X654Y3139D02*
X737Y3139D01*
X754Y3139D02*
X837Y3139D01*
X454Y3138D02*
X537Y3138D01*
X554Y3138D02*
X637Y3138D01*
X654Y3138D02*
X737Y3138D01*
X754Y3138D02*
X837Y3138D01*
X454Y3137D02*
X537Y3137D01*
X554Y3137D02*
X637Y3137D01*
X654Y3137D02*
X737Y3137D01*
X754Y3137D02*
X837Y3137D01*
X454Y3136D02*
X537Y3136D01*
X554Y3136D02*
X637Y3136D01*
X654Y3136D02*
X737Y3136D01*
X754Y3136D02*
X837Y3136D01*
X454Y3135D02*
X537Y3135D01*
X554Y3135D02*
X637Y3135D01*
X654Y3135D02*
X737Y3135D01*
X754Y3135D02*
X837Y3135D01*
X454Y3134D02*
X537Y3134D01*
X554Y3134D02*
X637Y3134D01*
X654Y3134D02*
X737Y3134D01*
X754Y3134D02*
X837Y3134D01*
X454Y3133D02*
X537Y3133D01*
X554Y3133D02*
X637Y3133D01*
X654Y3133D02*
X737Y3133D01*
X754Y3133D02*
X837Y3133D01*
X454Y3132D02*
X537Y3132D01*
X554Y3132D02*
X637Y3132D01*
X654Y3132D02*
X737Y3132D01*
X754Y3132D02*
X837Y3132D01*
X454Y3131D02*
X537Y3131D01*
X554Y3131D02*
X637Y3131D01*
X654Y3131D02*
X737Y3131D01*
X754Y3131D02*
X837Y3131D01*
X454Y3130D02*
X537Y3130D01*
X554Y3130D02*
X637Y3130D01*
X654Y3130D02*
X737Y3130D01*
X754Y3130D02*
X837Y3130D01*
X454Y3129D02*
X537Y3129D01*
X554Y3129D02*
X637Y3129D01*
X654Y3129D02*
X737Y3129D01*
X754Y3129D02*
X837Y3129D01*
X454Y3128D02*
X537Y3128D01*
X554Y3128D02*
X637Y3128D01*
X654Y3128D02*
X737Y3128D01*
X754Y3128D02*
X837Y3128D01*
X454Y3127D02*
X537Y3127D01*
X554Y3127D02*
X637Y3127D01*
X654Y3127D02*
X737Y3127D01*
X754Y3127D02*
X837Y3127D01*
X454Y3126D02*
X537Y3126D01*
X554Y3126D02*
X637Y3126D01*
X654Y3126D02*
X737Y3126D01*
X754Y3126D02*
X837Y3126D01*
X454Y3125D02*
X537Y3125D01*
X554Y3125D02*
X637Y3125D01*
X654Y3125D02*
X737Y3125D01*
X754Y3125D02*
X837Y3125D01*
X454Y3124D02*
X537Y3124D01*
X554Y3124D02*
X637Y3124D01*
X654Y3124D02*
X737Y3124D01*
X754Y3124D02*
X837Y3124D01*
X454Y3123D02*
X537Y3123D01*
X554Y3123D02*
X637Y3123D01*
X654Y3123D02*
X737Y3123D01*
X754Y3123D02*
X837Y3123D01*
X454Y3122D02*
X537Y3122D01*
X554Y3122D02*
X637Y3122D01*
X654Y3122D02*
X737Y3122D01*
X754Y3122D02*
X837Y3122D01*
X454Y3121D02*
X537Y3121D01*
X554Y3121D02*
X637Y3121D01*
X654Y3121D02*
X737Y3121D01*
X754Y3121D02*
X837Y3121D01*
X454Y3120D02*
X537Y3120D01*
X554Y3120D02*
X637Y3120D01*
X654Y3120D02*
X737Y3120D01*
X754Y3120D02*
X837Y3120D01*
X454Y3119D02*
X537Y3119D01*
X554Y3119D02*
X637Y3119D01*
X654Y3119D02*
X737Y3119D01*
X754Y3119D02*
X837Y3119D01*
X454Y3118D02*
X537Y3118D01*
X554Y3118D02*
X637Y3118D01*
X654Y3118D02*
X737Y3118D01*
X754Y3118D02*
X837Y3118D01*
X454Y3117D02*
X537Y3117D01*
X554Y3117D02*
X637Y3117D01*
X654Y3117D02*
X737Y3117D01*
X754Y3117D02*
X837Y3117D01*
X454Y3116D02*
X537Y3116D01*
X554Y3116D02*
X637Y3116D01*
X654Y3116D02*
X737Y3116D01*
X754Y3116D02*
X837Y3116D01*
X454Y3115D02*
X537Y3115D01*
X554Y3115D02*
X637Y3115D01*
X654Y3115D02*
X737Y3115D01*
X754Y3115D02*
X837Y3115D01*
X454Y3114D02*
X537Y3114D01*
X554Y3114D02*
X637Y3114D01*
X654Y3114D02*
X737Y3114D01*
X754Y3114D02*
X837Y3114D01*
X454Y3113D02*
X537Y3113D01*
X554Y3113D02*
X637Y3113D01*
X654Y3113D02*
X737Y3113D01*
X754Y3113D02*
X837Y3113D01*
X454Y3112D02*
X537Y3112D01*
X554Y3112D02*
X637Y3112D01*
X654Y3112D02*
X737Y3112D01*
X754Y3112D02*
X837Y3112D01*
X454Y3111D02*
X537Y3111D01*
X554Y3111D02*
X637Y3111D01*
X654Y3111D02*
X737Y3111D01*
X754Y3111D02*
X837Y3111D01*
X454Y3110D02*
X537Y3110D01*
X554Y3110D02*
X637Y3110D01*
X654Y3110D02*
X737Y3110D01*
X754Y3110D02*
X837Y3110D01*
X454Y3109D02*
X537Y3109D01*
X554Y3109D02*
X637Y3109D01*
X654Y3109D02*
X737Y3109D01*
X754Y3109D02*
X837Y3109D01*
X454Y3108D02*
X537Y3108D01*
X554Y3108D02*
X637Y3108D01*
X654Y3108D02*
X737Y3108D01*
X754Y3108D02*
X837Y3108D01*
X454Y3107D02*
X537Y3107D01*
X554Y3107D02*
X637Y3107D01*
X654Y3107D02*
X737Y3107D01*
X754Y3107D02*
X837Y3107D01*
X454Y3106D02*
X537Y3106D01*
X554Y3106D02*
X637Y3106D01*
X654Y3106D02*
X737Y3106D01*
X754Y3106D02*
X837Y3106D01*
X454Y3105D02*
X537Y3105D01*
X554Y3105D02*
X637Y3105D01*
X654Y3105D02*
X737Y3105D01*
X754Y3105D02*
X837Y3105D01*
X454Y3104D02*
X537Y3104D01*
X554Y3104D02*
X637Y3104D01*
X654Y3104D02*
X737Y3104D01*
X754Y3104D02*
X837Y3104D01*
X454Y3103D02*
X537Y3103D01*
X554Y3103D02*
X637Y3103D01*
X654Y3103D02*
X737Y3103D01*
X754Y3103D02*
X837Y3103D01*
X454Y3102D02*
X537Y3102D01*
X554Y3102D02*
X637Y3102D01*
X654Y3102D02*
X737Y3102D01*
X754Y3102D02*
X837Y3102D01*
X454Y3101D02*
X537Y3101D01*
X554Y3101D02*
X637Y3101D01*
X654Y3101D02*
X737Y3101D01*
X754Y3101D02*
X837Y3101D01*
X454Y3100D02*
X537Y3100D01*
X554Y3100D02*
X637Y3100D01*
X654Y3100D02*
X737Y3100D01*
X754Y3100D02*
X837Y3100D01*
X454Y3099D02*
X537Y3099D01*
X554Y3099D02*
X637Y3099D01*
X654Y3099D02*
X737Y3099D01*
X754Y3099D02*
X837Y3099D01*
X454Y3098D02*
X537Y3098D01*
X554Y3098D02*
X637Y3098D01*
X654Y3098D02*
X737Y3098D01*
X754Y3098D02*
X837Y3098D01*
X454Y3097D02*
X537Y3097D01*
X554Y3097D02*
X637Y3097D01*
X654Y3097D02*
X737Y3097D01*
X754Y3097D02*
X837Y3097D01*
X454Y3096D02*
X537Y3096D01*
X554Y3096D02*
X637Y3096D01*
X654Y3096D02*
X737Y3096D01*
X754Y3096D02*
X837Y3096D01*
X454Y3095D02*
X490Y3095D01*
X502Y3095D02*
X537Y3095D01*
X554Y3095D02*
X590Y3095D01*
X602Y3095D02*
X637Y3095D01*
X654Y3095D02*
X690Y3095D01*
X702Y3095D02*
X737Y3095D01*
X754Y3095D02*
X790Y3095D01*
X802Y3095D02*
X837Y3095D01*
X454Y3094D02*
X487Y3094D01*
X504Y3094D02*
X537Y3094D01*
X554Y3094D02*
X587Y3094D01*
X604Y3094D02*
X637Y3094D01*
X654Y3094D02*
X687Y3094D01*
X704Y3094D02*
X737Y3094D01*
X754Y3094D02*
X787Y3094D01*
X804Y3094D02*
X837Y3094D01*
X454Y3093D02*
X486Y3093D01*
X506Y3093D02*
X537Y3093D01*
X554Y3093D02*
X586Y3093D01*
X606Y3093D02*
X637Y3093D01*
X654Y3093D02*
X686Y3093D01*
X706Y3093D02*
X737Y3093D01*
X754Y3093D02*
X786Y3093D01*
X806Y3093D02*
X837Y3093D01*
X454Y3092D02*
X484Y3092D01*
X507Y3092D02*
X537Y3092D01*
X554Y3092D02*
X584Y3092D01*
X607Y3092D02*
X637Y3092D01*
X654Y3092D02*
X684Y3092D01*
X707Y3092D02*
X737Y3092D01*
X754Y3092D02*
X784Y3092D01*
X807Y3092D02*
X837Y3092D01*
X454Y3091D02*
X483Y3091D01*
X508Y3091D02*
X537Y3091D01*
X554Y3091D02*
X583Y3091D01*
X608Y3091D02*
X637Y3091D01*
X654Y3091D02*
X683Y3091D01*
X708Y3091D02*
X737Y3091D01*
X754Y3091D02*
X783Y3091D01*
X808Y3091D02*
X837Y3091D01*
X454Y3090D02*
X482Y3090D01*
X509Y3090D02*
X537Y3090D01*
X554Y3090D02*
X582Y3090D01*
X609Y3090D02*
X637Y3090D01*
X654Y3090D02*
X682Y3090D01*
X709Y3090D02*
X737Y3090D01*
X754Y3090D02*
X782Y3090D01*
X809Y3090D02*
X837Y3090D01*
X454Y3089D02*
X482Y3089D01*
X510Y3089D02*
X537Y3089D01*
X554Y3089D02*
X582Y3089D01*
X610Y3089D02*
X637Y3089D01*
X654Y3089D02*
X682Y3089D01*
X710Y3089D02*
X737Y3089D01*
X754Y3089D02*
X781Y3089D01*
X810Y3089D02*
X837Y3089D01*
X454Y3088D02*
X481Y3088D01*
X511Y3088D02*
X537Y3088D01*
X554Y3088D02*
X581Y3088D01*
X611Y3088D02*
X637Y3088D01*
X654Y3088D02*
X681Y3088D01*
X711Y3088D02*
X737Y3088D01*
X754Y3088D02*
X781Y3088D01*
X811Y3088D02*
X837Y3088D01*
X454Y3087D02*
X480Y3087D01*
X511Y3087D02*
X537Y3087D01*
X554Y3087D02*
X580Y3087D01*
X611Y3087D02*
X637Y3087D01*
X654Y3087D02*
X680Y3087D01*
X711Y3087D02*
X737Y3087D01*
X754Y3087D02*
X780Y3087D01*
X811Y3087D02*
X837Y3087D01*
X454Y3086D02*
X480Y3086D01*
X512Y3086D02*
X537Y3086D01*
X554Y3086D02*
X580Y3086D01*
X612Y3086D02*
X637Y3086D01*
X654Y3086D02*
X680Y3086D01*
X712Y3086D02*
X737Y3086D01*
X754Y3086D02*
X780Y3086D01*
X812Y3086D02*
X837Y3086D01*
X454Y3085D02*
X479Y3085D01*
X512Y3085D02*
X537Y3085D01*
X554Y3085D02*
X579Y3085D01*
X612Y3085D02*
X637Y3085D01*
X654Y3085D02*
X679Y3085D01*
X712Y3085D02*
X737Y3085D01*
X754Y3085D02*
X779Y3085D01*
X812Y3085D02*
X837Y3085D01*
X454Y3084D02*
X479Y3084D01*
X512Y3084D02*
X537Y3084D01*
X554Y3084D02*
X579Y3084D01*
X612Y3084D02*
X637Y3084D01*
X654Y3084D02*
X679Y3084D01*
X712Y3084D02*
X737Y3084D01*
X754Y3084D02*
X779Y3084D01*
X812Y3084D02*
X837Y3084D01*
X454Y3083D02*
X479Y3083D01*
X513Y3083D02*
X537Y3083D01*
X554Y3083D02*
X579Y3083D01*
X613Y3083D02*
X637Y3083D01*
X654Y3083D02*
X679Y3083D01*
X713Y3083D02*
X737Y3083D01*
X754Y3083D02*
X779Y3083D01*
X813Y3083D02*
X837Y3083D01*
X454Y3082D02*
X478Y3082D01*
X513Y3082D02*
X537Y3082D01*
X554Y3082D02*
X578Y3082D01*
X613Y3082D02*
X637Y3082D01*
X654Y3082D02*
X678Y3082D01*
X713Y3082D02*
X737Y3082D01*
X754Y3082D02*
X778Y3082D01*
X813Y3082D02*
X837Y3082D01*
X454Y3081D02*
X478Y3081D01*
X513Y3081D02*
X537Y3081D01*
X554Y3081D02*
X578Y3081D01*
X613Y3081D02*
X637Y3081D01*
X654Y3081D02*
X678Y3081D01*
X713Y3081D02*
X737Y3081D01*
X754Y3081D02*
X778Y3081D01*
X813Y3081D02*
X837Y3081D01*
X454Y3080D02*
X478Y3080D01*
X513Y3080D02*
X537Y3080D01*
X554Y3080D02*
X578Y3080D01*
X613Y3080D02*
X637Y3080D01*
X654Y3080D02*
X678Y3080D01*
X713Y3080D02*
X737Y3080D01*
X754Y3080D02*
X778Y3080D01*
X813Y3080D02*
X837Y3080D01*
X454Y3079D02*
X478Y3079D01*
X513Y3079D02*
X537Y3079D01*
X554Y3079D02*
X578Y3079D01*
X613Y3079D02*
X637Y3079D01*
X654Y3079D02*
X678Y3079D01*
X713Y3079D02*
X737Y3079D01*
X754Y3079D02*
X778Y3079D01*
X813Y3079D02*
X837Y3079D01*
X454Y3078D02*
X478Y3078D01*
X513Y3078D02*
X537Y3078D01*
X554Y3078D02*
X578Y3078D01*
X613Y3078D02*
X637Y3078D01*
X654Y3078D02*
X678Y3078D01*
X713Y3078D02*
X737Y3078D01*
X754Y3078D02*
X778Y3078D01*
X813Y3078D02*
X837Y3078D01*
X454Y3077D02*
X478Y3077D01*
X513Y3077D02*
X537Y3077D01*
X554Y3077D02*
X578Y3077D01*
X613Y3077D02*
X637Y3077D01*
X654Y3077D02*
X678Y3077D01*
X713Y3077D02*
X737Y3077D01*
X754Y3077D02*
X778Y3077D01*
X813Y3077D02*
X837Y3077D01*
X454Y3076D02*
X478Y3076D01*
X513Y3076D02*
X537Y3076D01*
X554Y3076D02*
X578Y3076D01*
X613Y3076D02*
X637Y3076D01*
X654Y3076D02*
X678Y3076D01*
X713Y3076D02*
X737Y3076D01*
X754Y3076D02*
X778Y3076D01*
X813Y3076D02*
X837Y3076D01*
X454Y3075D02*
X479Y3075D01*
X513Y3075D02*
X537Y3075D01*
X554Y3075D02*
X579Y3075D01*
X613Y3075D02*
X637Y3075D01*
X654Y3075D02*
X679Y3075D01*
X713Y3075D02*
X737Y3075D01*
X754Y3075D02*
X779Y3075D01*
X813Y3075D02*
X837Y3075D01*
X455Y3074D02*
X479Y3074D01*
X512Y3074D02*
X537Y3074D01*
X555Y3074D02*
X579Y3074D01*
X612Y3074D02*
X637Y3074D01*
X655Y3074D02*
X679Y3074D01*
X712Y3074D02*
X737Y3074D01*
X754Y3074D02*
X779Y3074D01*
X812Y3074D02*
X837Y3074D01*
X455Y3073D02*
X479Y3073D01*
X512Y3073D02*
X537Y3073D01*
X555Y3073D02*
X579Y3073D01*
X612Y3073D02*
X637Y3073D01*
X655Y3073D02*
X679Y3073D01*
X712Y3073D02*
X737Y3073D01*
X755Y3073D02*
X779Y3073D01*
X812Y3073D02*
X837Y3073D01*
X455Y3072D02*
X480Y3072D01*
X512Y3072D02*
X537Y3072D01*
X555Y3072D02*
X580Y3072D01*
X612Y3072D02*
X637Y3072D01*
X655Y3072D02*
X680Y3072D01*
X712Y3072D02*
X737Y3072D01*
X755Y3072D02*
X780Y3072D01*
X812Y3072D02*
X836Y3072D01*
X455Y3071D02*
X480Y3071D01*
X511Y3071D02*
X536Y3071D01*
X555Y3071D02*
X580Y3071D01*
X611Y3071D02*
X636Y3071D01*
X655Y3071D02*
X680Y3071D01*
X711Y3071D02*
X736Y3071D01*
X755Y3071D02*
X780Y3071D01*
X811Y3071D02*
X836Y3071D01*
X455Y3070D02*
X481Y3070D01*
X511Y3070D02*
X536Y3070D01*
X555Y3070D02*
X581Y3070D01*
X611Y3070D02*
X636Y3070D01*
X655Y3070D02*
X681Y3070D01*
X711Y3070D02*
X736Y3070D01*
X755Y3070D02*
X781Y3070D01*
X811Y3070D02*
X836Y3070D01*
X456Y3069D02*
X481Y3069D01*
X510Y3069D02*
X536Y3069D01*
X555Y3069D02*
X581Y3069D01*
X610Y3069D02*
X636Y3069D01*
X655Y3069D02*
X681Y3069D01*
X710Y3069D02*
X736Y3069D01*
X755Y3069D02*
X781Y3069D01*
X810Y3069D02*
X836Y3069D01*
X456Y3068D02*
X482Y3068D01*
X509Y3068D02*
X536Y3068D01*
X556Y3068D02*
X582Y3068D01*
X609Y3068D02*
X636Y3068D01*
X656Y3068D02*
X682Y3068D01*
X709Y3068D02*
X736Y3068D01*
X756Y3068D02*
X782Y3068D01*
X809Y3068D02*
X836Y3068D01*
X456Y3067D02*
X483Y3067D01*
X508Y3067D02*
X535Y3067D01*
X556Y3067D02*
X583Y3067D01*
X608Y3067D02*
X635Y3067D01*
X656Y3067D02*
X683Y3067D01*
X708Y3067D02*
X735Y3067D01*
X756Y3067D02*
X783Y3067D01*
X808Y3067D02*
X835Y3067D01*
X456Y3066D02*
X484Y3066D01*
X507Y3066D02*
X535Y3066D01*
X556Y3066D02*
X584Y3066D01*
X607Y3066D02*
X635Y3066D01*
X656Y3066D02*
X684Y3066D01*
X707Y3066D02*
X735Y3066D01*
X756Y3066D02*
X784Y3066D01*
X807Y3066D02*
X835Y3066D01*
X457Y3065D02*
X485Y3065D01*
X506Y3065D02*
X535Y3065D01*
X557Y3065D02*
X585Y3065D01*
X606Y3065D02*
X635Y3065D01*
X657Y3065D02*
X685Y3065D01*
X706Y3065D02*
X735Y3065D01*
X757Y3065D02*
X785Y3065D01*
X806Y3065D02*
X835Y3065D01*
X457Y3064D02*
X487Y3064D01*
X504Y3064D02*
X534Y3064D01*
X557Y3064D02*
X587Y3064D01*
X604Y3064D02*
X634Y3064D01*
X657Y3064D02*
X687Y3064D01*
X704Y3064D02*
X734Y3064D01*
X757Y3064D02*
X787Y3064D01*
X804Y3064D02*
X834Y3064D01*
X457Y3063D02*
X489Y3063D01*
X502Y3063D02*
X534Y3063D01*
X557Y3063D02*
X589Y3063D01*
X602Y3063D02*
X634Y3063D01*
X657Y3063D02*
X689Y3063D01*
X702Y3063D02*
X734Y3063D01*
X757Y3063D02*
X789Y3063D01*
X802Y3063D02*
X834Y3063D01*
X458Y3062D02*
X495Y3062D01*
X497Y3062D02*
X534Y3062D01*
X558Y3062D02*
X595Y3062D01*
X597Y3062D02*
X634Y3062D01*
X658Y3062D02*
X695Y3062D01*
X697Y3062D02*
X733Y3062D01*
X758Y3062D02*
X795Y3062D01*
X797Y3062D02*
X833Y3062D01*
X458Y3061D02*
X533Y3061D01*
X558Y3061D02*
X633Y3061D01*
X658Y3061D02*
X733Y3061D01*
X758Y3061D02*
X833Y3061D01*
X459Y3060D02*
X533Y3060D01*
X559Y3060D02*
X633Y3060D01*
X659Y3060D02*
X733Y3060D01*
X759Y3060D02*
X833Y3060D01*
X459Y3059D02*
X532Y3059D01*
X559Y3059D02*
X632Y3059D01*
X659Y3059D02*
X732Y3059D01*
X759Y3059D02*
X832Y3059D01*
X460Y3058D02*
X531Y3058D01*
X560Y3058D02*
X631Y3058D01*
X660Y3058D02*
X731Y3058D01*
X760Y3058D02*
X831Y3058D01*
X461Y3057D02*
X531Y3057D01*
X561Y3057D02*
X631Y3057D01*
X660Y3057D02*
X731Y3057D01*
X760Y3057D02*
X831Y3057D01*
X461Y3056D02*
X530Y3056D01*
X561Y3056D02*
X630Y3056D01*
X661Y3056D02*
X730Y3056D01*
X761Y3056D02*
X830Y3056D01*
X462Y3055D02*
X530Y3055D01*
X562Y3055D02*
X630Y3055D01*
X662Y3055D02*
X730Y3055D01*
X762Y3055D02*
X830Y3055D01*
X463Y3054D02*
X529Y3054D01*
X563Y3054D02*
X629Y3054D01*
X662Y3054D02*
X729Y3054D01*
X762Y3054D02*
X829Y3054D01*
X463Y3053D02*
X528Y3053D01*
X563Y3053D02*
X628Y3053D01*
X663Y3053D02*
X728Y3053D01*
X763Y3053D02*
X828Y3053D01*
X464Y3052D02*
X527Y3052D01*
X564Y3052D02*
X627Y3052D01*
X664Y3052D02*
X727Y3052D01*
X764Y3052D02*
X827Y3052D01*
X465Y3051D02*
X526Y3051D01*
X565Y3051D02*
X626Y3051D01*
X665Y3051D02*
X726Y3051D01*
X765Y3051D02*
X826Y3051D01*
X466Y3050D02*
X526Y3050D01*
X566Y3050D02*
X626Y3050D01*
X666Y3050D02*
X726Y3050D01*
X766Y3050D02*
X826Y3050D01*
X467Y3049D02*
X525Y3049D01*
X567Y3049D02*
X625Y3049D01*
X667Y3049D02*
X725Y3049D01*
X767Y3049D02*
X825Y3049D01*
X468Y3048D02*
X524Y3048D01*
X568Y3048D02*
X624Y3048D01*
X668Y3048D02*
X723Y3048D01*
X768Y3048D02*
X823Y3048D01*
X469Y3047D02*
X522Y3047D01*
X569Y3047D02*
X622Y3047D01*
X669Y3047D02*
X722Y3047D01*
X769Y3047D02*
X822Y3047D01*
X470Y3046D02*
X521Y3046D01*
X570Y3046D02*
X621Y3046D01*
X670Y3046D02*
X721Y3046D01*
X770Y3046D02*
X821Y3046D01*
X472Y3045D02*
X520Y3045D01*
X572Y3045D02*
X620Y3045D01*
X672Y3045D02*
X720Y3045D01*
X772Y3045D02*
X820Y3045D01*
X473Y3044D02*
X518Y3044D01*
X573Y3044D02*
X618Y3044D01*
X673Y3044D02*
X718Y3044D01*
X773Y3044D02*
X818Y3044D01*
X475Y3043D02*
X517Y3043D01*
X575Y3043D02*
X617Y3043D01*
X675Y3043D02*
X717Y3043D01*
X775Y3043D02*
X817Y3043D01*
X476Y3042D02*
X515Y3042D01*
X576Y3042D02*
X615Y3042D01*
X676Y3042D02*
X715Y3042D01*
X776Y3042D02*
X815Y3042D01*
X479Y3041D02*
X513Y3041D01*
X578Y3041D02*
X613Y3041D01*
X678Y3041D02*
X713Y3041D01*
X778Y3041D02*
X813Y3041D01*
X481Y3040D02*
X511Y3040D01*
X581Y3040D02*
X611Y3040D01*
X681Y3040D02*
X711Y3040D01*
X781Y3040D02*
X811Y3040D01*
X483Y3039D02*
X508Y3039D01*
X583Y3039D02*
X608Y3039D01*
X683Y3039D02*
X708Y3039D01*
X783Y3039D02*
X808Y3039D01*
X487Y3038D02*
X504Y3038D01*
X587Y3038D02*
X604Y3038D01*
X687Y3038D02*
X704Y3038D01*
X787Y3038D02*
X804Y3038D01*
X495Y3037D02*
X496Y3037D01*
X595Y3037D02*
X596Y3037D01*
X695Y3037D02*
X696Y3037D01*
X795Y3037D02*
X796Y3037D01*
X495Y2218D02*
X497Y2218D01*
X1195Y2218D02*
X1196Y2218D01*
X488Y2217D02*
X504Y2217D01*
X1187Y2217D02*
X1203Y2217D01*
X484Y2216D02*
X507Y2216D01*
X1184Y2216D02*
X1207Y2216D01*
X481Y2215D02*
X510Y2215D01*
X1181Y2215D02*
X1210Y2215D01*
X479Y2214D02*
X512Y2214D01*
X1179Y2214D02*
X1212Y2214D01*
X477Y2213D02*
X514Y2213D01*
X1177Y2213D02*
X1214Y2213D01*
X475Y2212D02*
X516Y2212D01*
X1175Y2212D02*
X1216Y2212D01*
X474Y2211D02*
X517Y2211D01*
X1173Y2211D02*
X1217Y2211D01*
X472Y2210D02*
X519Y2210D01*
X1172Y2210D02*
X1219Y2210D01*
X471Y2209D02*
X520Y2209D01*
X1171Y2209D02*
X1220Y2209D01*
X470Y2208D02*
X521Y2208D01*
X1170Y2208D02*
X1221Y2208D01*
X469Y2207D02*
X523Y2207D01*
X1168Y2207D02*
X1222Y2207D01*
X468Y2206D02*
X523Y2206D01*
X1167Y2206D02*
X1223Y2206D01*
X467Y2205D02*
X524Y2205D01*
X1167Y2205D02*
X1224Y2205D01*
X466Y2204D02*
X525Y2204D01*
X1166Y2204D02*
X1225Y2204D01*
X465Y2203D02*
X526Y2203D01*
X1165Y2203D02*
X1226Y2203D01*
X464Y2202D02*
X527Y2202D01*
X1164Y2202D02*
X1227Y2202D01*
X464Y2201D02*
X527Y2201D01*
X1164Y2201D02*
X1227Y2201D01*
X463Y2200D02*
X528Y2200D01*
X1163Y2200D02*
X1228Y2200D01*
X463Y2199D02*
X529Y2199D01*
X1163Y2199D02*
X1229Y2199D01*
X462Y2198D02*
X529Y2198D01*
X1162Y2198D02*
X1229Y2198D01*
X462Y2197D02*
X530Y2197D01*
X1161Y2197D02*
X1230Y2197D01*
X461Y2196D02*
X530Y2196D01*
X1161Y2196D02*
X1230Y2196D01*
X461Y2195D02*
X531Y2195D01*
X1161Y2195D02*
X1231Y2195D01*
X460Y2194D02*
X531Y2194D01*
X1160Y2194D02*
X1231Y2194D01*
X460Y2193D02*
X532Y2193D01*
X1160Y2193D02*
X1232Y2193D01*
X460Y2192D02*
X532Y2192D01*
X1159Y2192D02*
X1232Y2192D01*
X459Y2191D02*
X532Y2191D01*
X1159Y2191D02*
X1232Y2191D01*
X459Y2190D02*
X533Y2190D01*
X1159Y2190D02*
X1232Y2190D01*
X459Y2189D02*
X533Y2189D01*
X1159Y2189D02*
X1233Y2189D01*
X458Y2188D02*
X533Y2188D01*
X1158Y2188D02*
X1233Y2188D01*
X458Y2187D02*
X533Y2187D01*
X1158Y2187D02*
X1233Y2187D01*
X458Y2186D02*
X534Y2186D01*
X1158Y2186D02*
X1233Y2186D01*
X458Y2185D02*
X534Y2185D01*
X1158Y2185D02*
X1234Y2185D01*
X458Y2184D02*
X534Y2184D01*
X1157Y2184D02*
X1234Y2184D01*
X457Y2183D02*
X534Y2183D01*
X1157Y2183D02*
X1234Y2183D01*
X457Y2182D02*
X534Y2182D01*
X1157Y2182D02*
X1234Y2182D01*
X457Y2181D02*
X534Y2181D01*
X1157Y2181D02*
X1234Y2181D01*
X457Y2180D02*
X534Y2180D01*
X1157Y2180D02*
X1234Y2180D01*
X457Y2179D02*
X534Y2179D01*
X1157Y2179D02*
X1234Y2179D01*
X457Y2178D02*
X534Y2178D01*
X1157Y2178D02*
X1234Y2178D01*
X457Y2177D02*
X534Y2177D01*
X1157Y2177D02*
X1234Y2177D01*
X457Y2176D02*
X534Y2176D01*
X1157Y2176D02*
X1234Y2176D01*
X457Y2175D02*
X534Y2175D01*
X1157Y2175D02*
X1234Y2175D01*
X458Y2174D02*
X534Y2174D01*
X1158Y2174D02*
X1234Y2174D01*
X458Y2173D02*
X534Y2173D01*
X1158Y2173D02*
X1233Y2173D01*
X458Y2172D02*
X533Y2172D01*
X1158Y2172D02*
X1233Y2172D01*
X458Y2171D02*
X533Y2171D01*
X1158Y2171D02*
X1233Y2171D01*
X458Y2170D02*
X533Y2170D01*
X1158Y2170D02*
X1233Y2170D01*
X459Y2169D02*
X533Y2169D01*
X1159Y2169D02*
X1232Y2169D01*
X459Y2168D02*
X532Y2168D01*
X1159Y2168D02*
X1232Y2168D01*
X459Y2167D02*
X532Y2167D01*
X1159Y2167D02*
X1232Y2167D01*
X460Y2166D02*
X532Y2166D01*
X1160Y2166D02*
X1231Y2166D01*
X460Y2165D02*
X531Y2165D01*
X1160Y2165D02*
X1231Y2165D01*
X460Y2164D02*
X531Y2164D01*
X1160Y2164D02*
X1231Y2164D01*
X461Y2163D02*
X530Y2163D01*
X1161Y2163D02*
X1230Y2163D01*
X461Y2162D02*
X530Y2162D01*
X1161Y2162D02*
X1230Y2162D01*
X462Y2161D02*
X529Y2161D01*
X1162Y2161D02*
X1229Y2161D01*
X462Y2160D02*
X529Y2160D01*
X1162Y2160D02*
X1229Y2160D01*
X463Y2159D02*
X528Y2159D01*
X1163Y2159D02*
X1228Y2159D01*
X464Y2158D02*
X528Y2158D01*
X1163Y2158D02*
X1227Y2158D01*
X464Y2157D02*
X527Y2157D01*
X1164Y2157D02*
X1227Y2157D01*
X465Y2156D02*
X526Y2156D01*
X1165Y2156D02*
X1226Y2156D01*
X466Y2155D02*
X526Y2155D01*
X1165Y2155D02*
X1225Y2155D01*
X466Y2154D02*
X525Y2154D01*
X1166Y2154D02*
X1225Y2154D01*
X467Y2153D02*
X524Y2153D01*
X1167Y2153D02*
X1224Y2153D01*
X468Y2152D02*
X523Y2152D01*
X1168Y2152D02*
X1223Y2152D01*
X469Y2151D02*
X522Y2151D01*
X1169Y2151D02*
X1222Y2151D01*
X470Y2150D02*
X521Y2150D01*
X1170Y2150D02*
X1221Y2150D01*
X471Y2149D02*
X520Y2149D01*
X1171Y2149D02*
X1219Y2149D01*
X473Y2148D02*
X518Y2148D01*
X1173Y2148D02*
X1218Y2148D01*
X474Y2147D02*
X517Y2147D01*
X1174Y2147D02*
X1217Y2147D01*
X476Y2146D02*
X515Y2146D01*
X1175Y2146D02*
X1215Y2146D01*
X477Y2145D02*
X513Y2145D01*
X1177Y2145D02*
X1213Y2145D01*
X479Y2144D02*
X511Y2144D01*
X1179Y2144D02*
X1211Y2144D01*
X481Y2143D02*
X509Y2143D01*
X1181Y2143D02*
X1209Y2143D01*
X484Y2142D02*
X506Y2142D01*
X1184Y2142D02*
X1206Y2142D01*
X488Y2141D02*
X503Y2141D01*
X1188Y2141D02*
X1203Y2141D01*
X494Y2118D02*
X497Y2118D01*
X1194Y2118D02*
X1197Y2118D01*
X488Y2117D02*
X504Y2117D01*
X1187Y2117D02*
X1203Y2117D01*
X484Y2116D02*
X507Y2116D01*
X1184Y2116D02*
X1207Y2116D01*
X481Y2115D02*
X510Y2115D01*
X1181Y2115D02*
X1210Y2115D01*
X479Y2114D02*
X512Y2114D01*
X1179Y2114D02*
X1212Y2114D01*
X477Y2113D02*
X514Y2113D01*
X1177Y2113D02*
X1214Y2113D01*
X475Y2112D02*
X516Y2112D01*
X1175Y2112D02*
X1216Y2112D01*
X473Y2111D02*
X518Y2111D01*
X1173Y2111D02*
X1217Y2111D01*
X472Y2110D02*
X519Y2110D01*
X1172Y2110D02*
X1219Y2110D01*
X471Y2109D02*
X520Y2109D01*
X1171Y2109D02*
X1220Y2109D01*
X470Y2108D02*
X521Y2108D01*
X1170Y2108D02*
X1221Y2108D01*
X469Y2107D02*
X523Y2107D01*
X1168Y2107D02*
X1222Y2107D01*
X468Y2106D02*
X523Y2106D01*
X1167Y2106D02*
X1223Y2106D01*
X467Y2105D02*
X524Y2105D01*
X1167Y2105D02*
X1224Y2105D01*
X466Y2104D02*
X525Y2104D01*
X1166Y2104D02*
X1225Y2104D01*
X465Y2103D02*
X526Y2103D01*
X1165Y2103D02*
X1226Y2103D01*
X464Y2102D02*
X527Y2102D01*
X1164Y2102D02*
X1227Y2102D01*
X464Y2101D02*
X527Y2101D01*
X1164Y2101D02*
X1227Y2101D01*
X463Y2100D02*
X528Y2100D01*
X1163Y2100D02*
X1228Y2100D01*
X463Y2099D02*
X529Y2099D01*
X1163Y2099D02*
X1229Y2099D01*
X462Y2098D02*
X529Y2098D01*
X1162Y2098D02*
X1229Y2098D01*
X462Y2097D02*
X530Y2097D01*
X1161Y2097D02*
X1230Y2097D01*
X461Y2096D02*
X530Y2096D01*
X1161Y2096D02*
X1230Y2096D01*
X461Y2095D02*
X531Y2095D01*
X1161Y2095D02*
X1231Y2095D01*
X460Y2094D02*
X531Y2094D01*
X1160Y2094D02*
X1231Y2094D01*
X460Y2093D02*
X532Y2093D01*
X1160Y2093D02*
X1232Y2093D01*
X460Y2092D02*
X532Y2092D01*
X1159Y2092D02*
X1232Y2092D01*
X459Y2091D02*
X532Y2091D01*
X1159Y2091D02*
X1232Y2091D01*
X459Y2090D02*
X533Y2090D01*
X1159Y2090D02*
X1232Y2090D01*
X459Y2089D02*
X533Y2089D01*
X1159Y2089D02*
X1233Y2089D01*
X458Y2088D02*
X533Y2088D01*
X1158Y2088D02*
X1233Y2088D01*
X458Y2087D02*
X533Y2087D01*
X1158Y2087D02*
X1233Y2087D01*
X458Y2086D02*
X534Y2086D01*
X1158Y2086D02*
X1233Y2086D01*
X458Y2085D02*
X534Y2085D01*
X1158Y2085D02*
X1234Y2085D01*
X458Y2084D02*
X534Y2084D01*
X1157Y2084D02*
X1234Y2084D01*
X457Y2083D02*
X534Y2083D01*
X1157Y2083D02*
X1234Y2083D01*
X457Y2082D02*
X534Y2082D01*
X1157Y2082D02*
X1234Y2082D01*
X457Y2081D02*
X534Y2081D01*
X1157Y2081D02*
X1234Y2081D01*
X457Y2080D02*
X534Y2080D01*
X1157Y2080D02*
X1234Y2080D01*
X457Y2079D02*
X534Y2079D01*
X1157Y2079D02*
X1234Y2079D01*
X457Y2078D02*
X534Y2078D01*
X1157Y2078D02*
X1234Y2078D01*
X457Y2077D02*
X534Y2077D01*
X1157Y2077D02*
X1234Y2077D01*
X457Y2076D02*
X534Y2076D01*
X1157Y2076D02*
X1234Y2076D01*
X458Y2075D02*
X534Y2075D01*
X1157Y2075D02*
X1234Y2075D01*
X458Y2074D02*
X534Y2074D01*
X1158Y2074D02*
X1234Y2074D01*
X458Y2073D02*
X534Y2073D01*
X1158Y2073D02*
X1233Y2073D01*
X458Y2072D02*
X533Y2072D01*
X1158Y2072D02*
X1233Y2072D01*
X458Y2071D02*
X533Y2071D01*
X1158Y2071D02*
X1233Y2071D01*
X458Y2070D02*
X533Y2070D01*
X1158Y2070D02*
X1233Y2070D01*
X459Y2069D02*
X533Y2069D01*
X1159Y2069D02*
X1232Y2069D01*
X459Y2068D02*
X532Y2068D01*
X1159Y2068D02*
X1232Y2068D01*
X459Y2067D02*
X532Y2067D01*
X1159Y2067D02*
X1232Y2067D01*
X460Y2066D02*
X532Y2066D01*
X1160Y2066D02*
X1231Y2066D01*
X460Y2065D02*
X531Y2065D01*
X1160Y2065D02*
X1231Y2065D01*
X460Y2064D02*
X531Y2064D01*
X1160Y2064D02*
X1231Y2064D01*
X461Y2063D02*
X530Y2063D01*
X1161Y2063D02*
X1230Y2063D01*
X461Y2062D02*
X530Y2062D01*
X1161Y2062D02*
X1230Y2062D01*
X462Y2061D02*
X529Y2061D01*
X1162Y2061D02*
X1229Y2061D01*
X462Y2060D02*
X529Y2060D01*
X1162Y2060D02*
X1229Y2060D01*
X463Y2059D02*
X528Y2059D01*
X1163Y2059D02*
X1228Y2059D01*
X464Y2058D02*
X528Y2058D01*
X1163Y2058D02*
X1227Y2058D01*
X464Y2057D02*
X527Y2057D01*
X1164Y2057D02*
X1227Y2057D01*
X465Y2056D02*
X526Y2056D01*
X1165Y2056D02*
X1226Y2056D01*
X466Y2055D02*
X526Y2055D01*
X1165Y2055D02*
X1225Y2055D01*
X466Y2054D02*
X525Y2054D01*
X1166Y2054D02*
X1225Y2054D01*
X467Y2053D02*
X524Y2053D01*
X1167Y2053D02*
X1224Y2053D01*
X468Y2052D02*
X523Y2052D01*
X1168Y2052D02*
X1223Y2052D01*
X469Y2051D02*
X522Y2051D01*
X1169Y2051D02*
X1222Y2051D01*
X470Y2050D02*
X521Y2050D01*
X1170Y2050D02*
X1221Y2050D01*
X471Y2049D02*
X520Y2049D01*
X1171Y2049D02*
X1219Y2049D01*
X473Y2048D02*
X518Y2048D01*
X1173Y2048D02*
X1218Y2048D01*
X474Y2047D02*
X517Y2047D01*
X1174Y2047D02*
X1217Y2047D01*
X476Y2046D02*
X515Y2046D01*
X1176Y2046D02*
X1215Y2046D01*
X477Y2045D02*
X513Y2045D01*
X1177Y2045D02*
X1213Y2045D01*
X479Y2044D02*
X511Y2044D01*
X1179Y2044D02*
X1211Y2044D01*
X481Y2043D02*
X509Y2043D01*
X1181Y2043D02*
X1209Y2043D01*
X484Y2042D02*
X506Y2042D01*
X1184Y2042D02*
X1206Y2042D01*
X488Y2041D02*
X503Y2041D01*
X1188Y2041D02*
X1203Y2041D01*
X494Y2018D02*
X497Y2018D01*
X1194Y2018D02*
X1197Y2018D01*
X487Y2017D02*
X504Y2017D01*
X1187Y2017D02*
X1204Y2017D01*
X484Y2016D02*
X507Y2016D01*
X1184Y2016D02*
X1207Y2016D01*
X481Y2015D02*
X510Y2015D01*
X1181Y2015D02*
X1210Y2015D01*
X479Y2014D02*
X512Y2014D01*
X1179Y2014D02*
X1212Y2014D01*
X477Y2013D02*
X514Y2013D01*
X1177Y2013D02*
X1214Y2013D01*
X475Y2012D02*
X516Y2012D01*
X1175Y2012D02*
X1216Y2012D01*
X473Y2011D02*
X518Y2011D01*
X1173Y2011D02*
X1217Y2011D01*
X472Y2010D02*
X519Y2010D01*
X1172Y2010D02*
X1219Y2010D01*
X471Y2009D02*
X520Y2009D01*
X1171Y2009D02*
X1220Y2009D01*
X470Y2008D02*
X521Y2008D01*
X1169Y2008D02*
X1221Y2008D01*
X468Y2007D02*
X523Y2007D01*
X1168Y2007D02*
X1222Y2007D01*
X468Y2006D02*
X523Y2006D01*
X1167Y2006D02*
X1223Y2006D01*
X467Y2005D02*
X524Y2005D01*
X1167Y2005D02*
X1224Y2005D01*
X466Y2004D02*
X525Y2004D01*
X1166Y2004D02*
X1225Y2004D01*
X465Y2003D02*
X526Y2003D01*
X1165Y2003D02*
X1226Y2003D01*
X464Y2002D02*
X527Y2002D01*
X1164Y2002D02*
X1227Y2002D01*
X464Y2001D02*
X527Y2001D01*
X1164Y2001D02*
X1227Y2001D01*
X463Y2000D02*
X528Y2000D01*
X1163Y2000D02*
X1228Y2000D01*
X463Y1999D02*
X529Y1999D01*
X1163Y1999D02*
X1229Y1999D01*
X462Y1998D02*
X529Y1998D01*
X1162Y1998D02*
X1229Y1998D01*
X462Y1997D02*
X530Y1997D01*
X1161Y1997D02*
X1230Y1997D01*
X461Y1996D02*
X530Y1996D01*
X1161Y1996D02*
X1230Y1996D01*
X461Y1995D02*
X531Y1995D01*
X1161Y1995D02*
X1231Y1995D01*
X460Y1994D02*
X531Y1994D01*
X1160Y1994D02*
X1231Y1994D01*
X460Y1993D02*
X532Y1993D01*
X1160Y1993D02*
X1232Y1993D01*
X460Y1992D02*
X532Y1992D01*
X1159Y1992D02*
X1232Y1992D01*
X459Y1991D02*
X532Y1991D01*
X1159Y1991D02*
X1232Y1991D01*
X459Y1990D02*
X533Y1990D01*
X1159Y1990D02*
X1232Y1990D01*
X459Y1989D02*
X533Y1989D01*
X1159Y1989D02*
X1233Y1989D01*
X458Y1988D02*
X533Y1988D01*
X1158Y1988D02*
X1233Y1988D01*
X458Y1987D02*
X533Y1987D01*
X1158Y1987D02*
X1233Y1987D01*
X458Y1986D02*
X534Y1986D01*
X1158Y1986D02*
X1233Y1986D01*
X458Y1985D02*
X534Y1985D01*
X1158Y1985D02*
X1234Y1985D01*
X458Y1984D02*
X534Y1984D01*
X1157Y1984D02*
X1234Y1984D01*
X457Y1983D02*
X534Y1983D01*
X1157Y1983D02*
X1234Y1983D01*
X457Y1982D02*
X534Y1982D01*
X1157Y1982D02*
X1234Y1982D01*
X457Y1981D02*
X534Y1981D01*
X1157Y1981D02*
X1234Y1981D01*
X457Y1980D02*
X534Y1980D01*
X1157Y1980D02*
X1234Y1980D01*
X457Y1979D02*
X534Y1979D01*
X1157Y1979D02*
X1234Y1979D01*
X457Y1978D02*
X534Y1978D01*
X1157Y1978D02*
X1234Y1978D01*
X457Y1977D02*
X534Y1977D01*
X1157Y1977D02*
X1234Y1977D01*
X457Y1976D02*
X534Y1976D01*
X1157Y1976D02*
X1234Y1976D01*
X458Y1975D02*
X534Y1975D01*
X1157Y1975D02*
X1234Y1975D01*
X458Y1974D02*
X534Y1974D01*
X1158Y1974D02*
X1234Y1974D01*
X458Y1973D02*
X534Y1973D01*
X1158Y1973D02*
X1233Y1973D01*
X458Y1972D02*
X533Y1972D01*
X1158Y1972D02*
X1233Y1972D01*
X458Y1971D02*
X533Y1971D01*
X1158Y1971D02*
X1233Y1971D01*
X458Y1970D02*
X533Y1970D01*
X1158Y1970D02*
X1233Y1970D01*
X459Y1969D02*
X533Y1969D01*
X1159Y1969D02*
X1232Y1969D01*
X459Y1968D02*
X532Y1968D01*
X1159Y1968D02*
X1232Y1968D01*
X459Y1967D02*
X532Y1967D01*
X1159Y1967D02*
X1232Y1967D01*
X460Y1966D02*
X532Y1966D01*
X1160Y1966D02*
X1231Y1966D01*
X460Y1965D02*
X531Y1965D01*
X1160Y1965D02*
X1231Y1965D01*
X461Y1964D02*
X531Y1964D01*
X1160Y1964D02*
X1231Y1964D01*
X461Y1963D02*
X530Y1963D01*
X1161Y1963D02*
X1230Y1963D01*
X461Y1962D02*
X530Y1962D01*
X1161Y1962D02*
X1230Y1962D01*
X462Y1961D02*
X529Y1961D01*
X1162Y1961D02*
X1229Y1961D01*
X462Y1960D02*
X529Y1960D01*
X1162Y1960D02*
X1229Y1960D01*
X463Y1959D02*
X528Y1959D01*
X1163Y1959D02*
X1228Y1959D01*
X464Y1958D02*
X528Y1958D01*
X1163Y1958D02*
X1227Y1958D01*
X464Y1957D02*
X527Y1957D01*
X1164Y1957D02*
X1227Y1957D01*
X465Y1956D02*
X526Y1956D01*
X1165Y1956D02*
X1226Y1956D01*
X466Y1955D02*
X526Y1955D01*
X1165Y1955D02*
X1225Y1955D01*
X466Y1954D02*
X525Y1954D01*
X1166Y1954D02*
X1225Y1954D01*
X467Y1953D02*
X524Y1953D01*
X1167Y1953D02*
X1224Y1953D01*
X468Y1952D02*
X523Y1952D01*
X1168Y1952D02*
X1223Y1952D01*
X469Y1951D02*
X522Y1951D01*
X1169Y1951D02*
X1222Y1951D01*
X470Y1950D02*
X521Y1950D01*
X1170Y1950D02*
X1221Y1950D01*
X471Y1949D02*
X520Y1949D01*
X1171Y1949D02*
X1219Y1949D01*
X473Y1948D02*
X518Y1948D01*
X1173Y1948D02*
X1218Y1948D01*
X474Y1947D02*
X517Y1947D01*
X1174Y1947D02*
X1217Y1947D01*
X476Y1946D02*
X515Y1946D01*
X1176Y1946D02*
X1215Y1946D01*
X477Y1945D02*
X513Y1945D01*
X1177Y1945D02*
X1213Y1945D01*
X479Y1944D02*
X511Y1944D01*
X1179Y1944D02*
X1211Y1944D01*
X481Y1943D02*
X509Y1943D01*
X1181Y1943D02*
X1209Y1943D01*
X484Y1942D02*
X506Y1942D01*
X1184Y1942D02*
X1206Y1942D01*
X488Y1941D02*
X503Y1941D01*
X1188Y1941D02*
X1202Y1941D01*
X494Y1918D02*
X497Y1918D01*
X1194Y1918D02*
X1197Y1918D01*
X487Y1917D02*
X504Y1917D01*
X1187Y1917D02*
X1204Y1917D01*
X484Y1916D02*
X507Y1916D01*
X1184Y1916D02*
X1207Y1916D01*
X481Y1915D02*
X510Y1915D01*
X1181Y1915D02*
X1210Y1915D01*
X479Y1914D02*
X512Y1914D01*
X1179Y1914D02*
X1212Y1914D01*
X477Y1913D02*
X514Y1913D01*
X1177Y1913D02*
X1214Y1913D01*
X475Y1912D02*
X516Y1912D01*
X1175Y1912D02*
X1216Y1912D01*
X473Y1911D02*
X518Y1911D01*
X1173Y1911D02*
X1217Y1911D01*
X472Y1910D02*
X519Y1910D01*
X1172Y1910D02*
X1219Y1910D01*
X471Y1909D02*
X520Y1909D01*
X1171Y1909D02*
X1220Y1909D01*
X470Y1908D02*
X521Y1908D01*
X1169Y1908D02*
X1221Y1908D01*
X468Y1907D02*
X523Y1907D01*
X1168Y1907D02*
X1222Y1907D01*
X468Y1906D02*
X523Y1906D01*
X1167Y1906D02*
X1223Y1906D01*
X467Y1905D02*
X524Y1905D01*
X1167Y1905D02*
X1224Y1905D01*
X466Y1904D02*
X525Y1904D01*
X1166Y1904D02*
X1225Y1904D01*
X465Y1903D02*
X526Y1903D01*
X1165Y1903D02*
X1226Y1903D01*
X464Y1902D02*
X527Y1902D01*
X1164Y1902D02*
X1227Y1902D01*
X464Y1901D02*
X527Y1901D01*
X1164Y1901D02*
X1227Y1901D01*
X463Y1900D02*
X528Y1900D01*
X1163Y1900D02*
X1228Y1900D01*
X463Y1899D02*
X529Y1899D01*
X1162Y1899D02*
X1229Y1899D01*
X462Y1898D02*
X529Y1898D01*
X1162Y1898D02*
X1229Y1898D01*
X462Y1897D02*
X530Y1897D01*
X1161Y1897D02*
X1230Y1897D01*
X461Y1896D02*
X530Y1896D01*
X1161Y1896D02*
X1230Y1896D01*
X461Y1895D02*
X531Y1895D01*
X1161Y1895D02*
X1231Y1895D01*
X460Y1894D02*
X531Y1894D01*
X1160Y1894D02*
X1231Y1894D01*
X460Y1893D02*
X532Y1893D01*
X1160Y1893D02*
X1232Y1893D01*
X460Y1892D02*
X532Y1892D01*
X1159Y1892D02*
X1232Y1892D01*
X459Y1891D02*
X532Y1891D01*
X1159Y1891D02*
X1232Y1891D01*
X459Y1890D02*
X533Y1890D01*
X1159Y1890D02*
X1233Y1890D01*
X459Y1889D02*
X533Y1889D01*
X1159Y1889D02*
X1233Y1889D01*
X458Y1888D02*
X533Y1888D01*
X1158Y1888D02*
X1233Y1888D01*
X458Y1887D02*
X533Y1887D01*
X1158Y1887D02*
X1233Y1887D01*
X458Y1886D02*
X534Y1886D01*
X1158Y1886D02*
X1233Y1886D01*
X458Y1885D02*
X534Y1885D01*
X1158Y1885D02*
X1234Y1885D01*
X458Y1884D02*
X534Y1884D01*
X1157Y1884D02*
X1234Y1884D01*
X457Y1883D02*
X534Y1883D01*
X1157Y1883D02*
X1234Y1883D01*
X457Y1882D02*
X534Y1882D01*
X1157Y1882D02*
X1234Y1882D01*
X457Y1881D02*
X534Y1881D01*
X1157Y1881D02*
X1234Y1881D01*
X457Y1880D02*
X534Y1880D01*
X1157Y1880D02*
X1234Y1880D01*
X457Y1879D02*
X534Y1879D01*
X1157Y1879D02*
X1234Y1879D01*
X457Y1878D02*
X534Y1878D01*
X1157Y1878D02*
X1234Y1878D01*
X457Y1877D02*
X534Y1877D01*
X1157Y1877D02*
X1234Y1877D01*
X457Y1876D02*
X534Y1876D01*
X1157Y1876D02*
X1234Y1876D01*
X458Y1875D02*
X534Y1875D01*
X1157Y1875D02*
X1234Y1875D01*
X458Y1874D02*
X534Y1874D01*
X1158Y1874D02*
X1234Y1874D01*
X458Y1873D02*
X534Y1873D01*
X1158Y1873D02*
X1233Y1873D01*
X458Y1872D02*
X533Y1872D01*
X1158Y1872D02*
X1233Y1872D01*
X458Y1871D02*
X533Y1871D01*
X1158Y1871D02*
X1233Y1871D01*
X459Y1870D02*
X533Y1870D01*
X1158Y1870D02*
X1233Y1870D01*
X459Y1869D02*
X533Y1869D01*
X1159Y1869D02*
X1232Y1869D01*
X459Y1868D02*
X532Y1868D01*
X1159Y1868D02*
X1232Y1868D01*
X459Y1867D02*
X532Y1867D01*
X1159Y1867D02*
X1232Y1867D01*
X460Y1866D02*
X532Y1866D01*
X1160Y1866D02*
X1231Y1866D01*
X460Y1865D02*
X531Y1865D01*
X1160Y1865D02*
X1231Y1865D01*
X461Y1864D02*
X531Y1864D01*
X1160Y1864D02*
X1231Y1864D01*
X461Y1863D02*
X530Y1863D01*
X1161Y1863D02*
X1230Y1863D01*
X461Y1862D02*
X530Y1862D01*
X1161Y1862D02*
X1230Y1862D01*
X462Y1861D02*
X529Y1861D01*
X1162Y1861D02*
X1229Y1861D01*
X462Y1860D02*
X529Y1860D01*
X1162Y1860D02*
X1229Y1860D01*
X463Y1859D02*
X528Y1859D01*
X1163Y1859D02*
X1228Y1859D01*
X464Y1858D02*
X528Y1858D01*
X1163Y1858D02*
X1227Y1858D01*
X464Y1857D02*
X527Y1857D01*
X1164Y1857D02*
X1227Y1857D01*
X465Y1856D02*
X526Y1856D01*
X1165Y1856D02*
X1226Y1856D01*
X466Y1855D02*
X525Y1855D01*
X1165Y1855D02*
X1225Y1855D01*
X466Y1854D02*
X525Y1854D01*
X1166Y1854D02*
X1225Y1854D01*
X467Y1853D02*
X524Y1853D01*
X1167Y1853D02*
X1224Y1853D01*
X468Y1852D02*
X523Y1852D01*
X1168Y1852D02*
X1223Y1852D01*
X469Y1851D02*
X522Y1851D01*
X1169Y1851D02*
X1222Y1851D01*
X470Y1850D02*
X521Y1850D01*
X1170Y1850D02*
X1221Y1850D01*
X471Y1849D02*
X520Y1849D01*
X1171Y1849D02*
X1219Y1849D01*
X473Y1848D02*
X518Y1848D01*
X1173Y1848D02*
X1218Y1848D01*
X474Y1847D02*
X517Y1847D01*
X1174Y1847D02*
X1217Y1847D01*
X476Y1846D02*
X515Y1846D01*
X1176Y1846D02*
X1215Y1846D01*
X477Y1845D02*
X513Y1845D01*
X1177Y1845D02*
X1213Y1845D01*
X479Y1844D02*
X511Y1844D01*
X1179Y1844D02*
X1211Y1844D01*
X481Y1843D02*
X509Y1843D01*
X1181Y1843D02*
X1209Y1843D01*
X484Y1842D02*
X506Y1842D01*
X1184Y1842D02*
X1206Y1842D01*
X488Y1841D02*
X502Y1841D01*
X1188Y1841D02*
X1202Y1841D01*
X494Y1818D02*
X498Y1818D01*
X1194Y1818D02*
X1198Y1818D01*
X487Y1817D02*
X504Y1817D01*
X1187Y1817D02*
X1204Y1817D01*
X484Y1816D02*
X507Y1816D01*
X1184Y1816D02*
X1207Y1816D01*
X481Y1815D02*
X510Y1815D01*
X1181Y1815D02*
X1210Y1815D01*
X479Y1814D02*
X512Y1814D01*
X1179Y1814D02*
X1212Y1814D01*
X477Y1813D02*
X514Y1813D01*
X1177Y1813D02*
X1214Y1813D01*
X475Y1812D02*
X516Y1812D01*
X1175Y1812D02*
X1216Y1812D01*
X473Y1811D02*
X518Y1811D01*
X1173Y1811D02*
X1217Y1811D01*
X472Y1810D02*
X519Y1810D01*
X1172Y1810D02*
X1219Y1810D01*
X471Y1809D02*
X520Y1809D01*
X1171Y1809D02*
X1220Y1809D01*
X470Y1808D02*
X521Y1808D01*
X1169Y1808D02*
X1221Y1808D01*
X468Y1807D02*
X523Y1807D01*
X1168Y1807D02*
X1222Y1807D01*
X468Y1806D02*
X524Y1806D01*
X1167Y1806D02*
X1223Y1806D01*
X467Y1805D02*
X524Y1805D01*
X1167Y1805D02*
X1224Y1805D01*
X466Y1804D02*
X525Y1804D01*
X1166Y1804D02*
X1225Y1804D01*
X465Y1803D02*
X526Y1803D01*
X1165Y1803D02*
X1226Y1803D01*
X464Y1802D02*
X527Y1802D01*
X1164Y1802D02*
X1227Y1802D01*
X464Y1801D02*
X528Y1801D01*
X1164Y1801D02*
X1227Y1801D01*
X463Y1800D02*
X528Y1800D01*
X1163Y1800D02*
X1228Y1800D01*
X463Y1799D02*
X529Y1799D01*
X1162Y1799D02*
X1229Y1799D01*
X462Y1798D02*
X529Y1798D01*
X1162Y1798D02*
X1229Y1798D01*
X462Y1797D02*
X530Y1797D01*
X1161Y1797D02*
X1230Y1797D01*
X461Y1796D02*
X530Y1796D01*
X1161Y1796D02*
X1230Y1796D01*
X461Y1795D02*
X531Y1795D01*
X1161Y1795D02*
X1231Y1795D01*
X460Y1794D02*
X531Y1794D01*
X1160Y1794D02*
X1231Y1794D01*
X460Y1793D02*
X532Y1793D01*
X1160Y1793D02*
X1232Y1793D01*
X460Y1792D02*
X532Y1792D01*
X1159Y1792D02*
X1232Y1792D01*
X459Y1791D02*
X532Y1791D01*
X1159Y1791D02*
X1232Y1791D01*
X459Y1790D02*
X533Y1790D01*
X1159Y1790D02*
X1233Y1790D01*
X459Y1789D02*
X533Y1789D01*
X1159Y1789D02*
X1233Y1789D01*
X458Y1788D02*
X533Y1788D01*
X1158Y1788D02*
X1233Y1788D01*
X458Y1787D02*
X533Y1787D01*
X1158Y1787D02*
X1233Y1787D01*
X458Y1786D02*
X534Y1786D01*
X1158Y1786D02*
X1233Y1786D01*
X458Y1785D02*
X534Y1785D01*
X1158Y1785D02*
X1234Y1785D01*
X458Y1784D02*
X534Y1784D01*
X1157Y1784D02*
X1234Y1784D01*
X457Y1783D02*
X534Y1783D01*
X1157Y1783D02*
X1234Y1783D01*
X457Y1782D02*
X534Y1782D01*
X1157Y1782D02*
X1234Y1782D01*
X457Y1781D02*
X534Y1781D01*
X1157Y1781D02*
X1234Y1781D01*
X457Y1780D02*
X534Y1780D01*
X1157Y1780D02*
X1234Y1780D01*
X457Y1779D02*
X534Y1779D01*
X1157Y1779D02*
X1234Y1779D01*
X457Y1778D02*
X534Y1778D01*
X1157Y1778D02*
X1234Y1778D01*
X457Y1777D02*
X534Y1777D01*
X1157Y1777D02*
X1234Y1777D01*
X457Y1776D02*
X534Y1776D01*
X1157Y1776D02*
X1234Y1776D01*
X458Y1775D02*
X534Y1775D01*
X1157Y1775D02*
X1234Y1775D01*
X458Y1774D02*
X534Y1774D01*
X1158Y1774D02*
X1234Y1774D01*
X458Y1773D02*
X534Y1773D01*
X1158Y1773D02*
X1233Y1773D01*
X458Y1772D02*
X533Y1772D01*
X1158Y1772D02*
X1233Y1772D01*
X458Y1771D02*
X533Y1771D01*
X1158Y1771D02*
X1233Y1771D01*
X459Y1770D02*
X533Y1770D01*
X1158Y1770D02*
X1233Y1770D01*
X459Y1769D02*
X533Y1769D01*
X1159Y1769D02*
X1232Y1769D01*
X459Y1768D02*
X532Y1768D01*
X1159Y1768D02*
X1232Y1768D01*
X459Y1767D02*
X532Y1767D01*
X1159Y1767D02*
X1232Y1767D01*
X460Y1766D02*
X532Y1766D01*
X1160Y1766D02*
X1231Y1766D01*
X460Y1765D02*
X531Y1765D01*
X1160Y1765D02*
X1231Y1765D01*
X461Y1764D02*
X531Y1764D01*
X1160Y1764D02*
X1231Y1764D01*
X461Y1763D02*
X530Y1763D01*
X1161Y1763D02*
X1230Y1763D01*
X461Y1762D02*
X530Y1762D01*
X1161Y1762D02*
X1230Y1762D01*
X462Y1761D02*
X529Y1761D01*
X1162Y1761D02*
X1229Y1761D01*
X462Y1760D02*
X529Y1760D01*
X1162Y1760D02*
X1229Y1760D01*
X463Y1759D02*
X528Y1759D01*
X1163Y1759D02*
X1228Y1759D01*
X464Y1758D02*
X528Y1758D01*
X1163Y1758D02*
X1227Y1758D01*
X464Y1757D02*
X527Y1757D01*
X1164Y1757D02*
X1227Y1757D01*
X465Y1756D02*
X526Y1756D01*
X1165Y1756D02*
X1226Y1756D01*
X466Y1755D02*
X525Y1755D01*
X1166Y1755D02*
X1225Y1755D01*
X466Y1754D02*
X525Y1754D01*
X1166Y1754D02*
X1225Y1754D01*
X467Y1753D02*
X524Y1753D01*
X1167Y1753D02*
X1224Y1753D01*
X468Y1752D02*
X523Y1752D01*
X1168Y1752D02*
X1223Y1752D01*
X469Y1751D02*
X522Y1751D01*
X1169Y1751D02*
X1222Y1751D01*
X470Y1750D02*
X521Y1750D01*
X1170Y1750D02*
X1221Y1750D01*
X471Y1749D02*
X520Y1749D01*
X1171Y1749D02*
X1219Y1749D01*
X473Y1748D02*
X518Y1748D01*
X1173Y1748D02*
X1218Y1748D01*
X474Y1747D02*
X517Y1747D01*
X1174Y1747D02*
X1217Y1747D01*
X476Y1746D02*
X515Y1746D01*
X1176Y1746D02*
X1215Y1746D01*
X477Y1745D02*
X513Y1745D01*
X1177Y1745D02*
X1213Y1745D01*
X479Y1744D02*
X511Y1744D01*
X1179Y1744D02*
X1211Y1744D01*
X482Y1743D02*
X509Y1743D01*
X1181Y1743D02*
X1209Y1743D01*
X484Y1742D02*
X506Y1742D01*
X1184Y1742D02*
X1206Y1742D01*
X488Y1741D02*
X502Y1741D01*
X1188Y1741D02*
X1202Y1741D01*
X493Y1718D02*
X498Y1718D01*
X1193Y1718D02*
X1198Y1718D01*
X487Y1717D02*
X504Y1717D01*
X1187Y1717D02*
X1204Y1717D01*
X484Y1716D02*
X507Y1716D01*
X1184Y1716D02*
X1207Y1716D01*
X481Y1715D02*
X510Y1715D01*
X1181Y1715D02*
X1210Y1715D01*
X479Y1714D02*
X512Y1714D01*
X1179Y1714D02*
X1212Y1714D01*
X477Y1713D02*
X514Y1713D01*
X1177Y1713D02*
X1214Y1713D01*
X475Y1712D02*
X516Y1712D01*
X1175Y1712D02*
X1216Y1712D01*
X473Y1711D02*
X518Y1711D01*
X1173Y1711D02*
X1217Y1711D01*
X472Y1710D02*
X519Y1710D01*
X1172Y1710D02*
X1219Y1710D01*
X471Y1709D02*
X520Y1709D01*
X1171Y1709D02*
X1220Y1709D01*
X470Y1708D02*
X521Y1708D01*
X1169Y1708D02*
X1221Y1708D01*
X468Y1707D02*
X523Y1707D01*
X1168Y1707D02*
X1222Y1707D01*
X468Y1706D02*
X524Y1706D01*
X1167Y1706D02*
X1223Y1706D01*
X467Y1705D02*
X524Y1705D01*
X1167Y1705D02*
X1224Y1705D01*
X466Y1704D02*
X525Y1704D01*
X1166Y1704D02*
X1225Y1704D01*
X465Y1703D02*
X526Y1703D01*
X1165Y1703D02*
X1226Y1703D01*
X464Y1702D02*
X527Y1702D01*
X1164Y1702D02*
X1227Y1702D01*
X464Y1701D02*
X528Y1701D01*
X1164Y1701D02*
X1227Y1701D01*
X463Y1700D02*
X528Y1700D01*
X1163Y1700D02*
X1228Y1700D01*
X463Y1699D02*
X529Y1699D01*
X1162Y1699D02*
X1229Y1699D01*
X462Y1698D02*
X529Y1698D01*
X1162Y1698D02*
X1229Y1698D01*
X462Y1697D02*
X530Y1697D01*
X1161Y1697D02*
X1230Y1697D01*
X461Y1696D02*
X530Y1696D01*
X1161Y1696D02*
X1230Y1696D01*
X461Y1695D02*
X531Y1695D01*
X1161Y1695D02*
X1231Y1695D01*
X460Y1694D02*
X531Y1694D01*
X1160Y1694D02*
X1231Y1694D01*
X460Y1693D02*
X532Y1693D01*
X1160Y1693D02*
X1232Y1693D01*
X460Y1692D02*
X532Y1692D01*
X1159Y1692D02*
X1232Y1692D01*
X459Y1691D02*
X532Y1691D01*
X1159Y1691D02*
X1232Y1691D01*
X459Y1690D02*
X533Y1690D01*
X1159Y1690D02*
X1233Y1690D01*
X459Y1689D02*
X533Y1689D01*
X1158Y1689D02*
X1233Y1689D01*
X458Y1688D02*
X533Y1688D01*
X1158Y1688D02*
X1233Y1688D01*
X458Y1687D02*
X533Y1687D01*
X1158Y1687D02*
X1233Y1687D01*
X458Y1686D02*
X534Y1686D01*
X1158Y1686D02*
X1233Y1686D01*
X458Y1685D02*
X534Y1685D01*
X1158Y1685D02*
X1234Y1685D01*
X458Y1684D02*
X534Y1684D01*
X1157Y1684D02*
X1234Y1684D01*
X457Y1683D02*
X534Y1683D01*
X1157Y1683D02*
X1234Y1683D01*
X457Y1682D02*
X534Y1682D01*
X1157Y1682D02*
X1234Y1682D01*
X457Y1681D02*
X534Y1681D01*
X1157Y1681D02*
X1234Y1681D01*
X457Y1680D02*
X534Y1680D01*
X1157Y1680D02*
X1234Y1680D01*
X457Y1679D02*
X534Y1679D01*
X1157Y1679D02*
X1234Y1679D01*
X457Y1678D02*
X534Y1678D01*
X1157Y1678D02*
X1234Y1678D01*
X457Y1677D02*
X534Y1677D01*
X1157Y1677D02*
X1234Y1677D01*
X457Y1676D02*
X534Y1676D01*
X1157Y1676D02*
X1234Y1676D01*
X458Y1675D02*
X534Y1675D01*
X1157Y1675D02*
X1234Y1675D01*
X458Y1674D02*
X534Y1674D01*
X1158Y1674D02*
X1234Y1674D01*
X458Y1673D02*
X534Y1673D01*
X1158Y1673D02*
X1233Y1673D01*
X458Y1672D02*
X533Y1672D01*
X1158Y1672D02*
X1233Y1672D01*
X458Y1671D02*
X533Y1671D01*
X1158Y1671D02*
X1233Y1671D01*
X459Y1670D02*
X533Y1670D01*
X1158Y1670D02*
X1233Y1670D01*
X459Y1669D02*
X533Y1669D01*
X1159Y1669D02*
X1232Y1669D01*
X459Y1668D02*
X532Y1668D01*
X1159Y1668D02*
X1232Y1668D01*
X459Y1667D02*
X532Y1667D01*
X1159Y1667D02*
X1232Y1667D01*
X460Y1666D02*
X532Y1666D01*
X1160Y1666D02*
X1231Y1666D01*
X460Y1665D02*
X531Y1665D01*
X1160Y1665D02*
X1231Y1665D01*
X461Y1664D02*
X531Y1664D01*
X1160Y1664D02*
X1231Y1664D01*
X461Y1663D02*
X530Y1663D01*
X1161Y1663D02*
X1230Y1663D01*
X461Y1662D02*
X530Y1662D01*
X1161Y1662D02*
X1230Y1662D01*
X462Y1661D02*
X529Y1661D01*
X1162Y1661D02*
X1229Y1661D01*
X462Y1660D02*
X529Y1660D01*
X1162Y1660D02*
X1229Y1660D01*
X463Y1659D02*
X528Y1659D01*
X1163Y1659D02*
X1228Y1659D01*
X464Y1658D02*
X528Y1658D01*
X1163Y1658D02*
X1227Y1658D01*
X464Y1657D02*
X527Y1657D01*
X1164Y1657D02*
X1227Y1657D01*
X465Y1656D02*
X526Y1656D01*
X1165Y1656D02*
X1226Y1656D01*
X466Y1655D02*
X525Y1655D01*
X1166Y1655D02*
X1225Y1655D01*
X466Y1654D02*
X525Y1654D01*
X1166Y1654D02*
X1225Y1654D01*
X467Y1653D02*
X524Y1653D01*
X1167Y1653D02*
X1224Y1653D01*
X468Y1652D02*
X523Y1652D01*
X1168Y1652D02*
X1223Y1652D01*
X469Y1651D02*
X522Y1651D01*
X1169Y1651D02*
X1222Y1651D01*
X470Y1650D02*
X521Y1650D01*
X1170Y1650D02*
X1221Y1650D01*
X471Y1649D02*
X519Y1649D01*
X1171Y1649D02*
X1219Y1649D01*
X473Y1648D02*
X518Y1648D01*
X1173Y1648D02*
X1218Y1648D01*
X474Y1647D02*
X517Y1647D01*
X1174Y1647D02*
X1217Y1647D01*
X476Y1646D02*
X515Y1646D01*
X1176Y1646D02*
X1215Y1646D01*
X477Y1645D02*
X513Y1645D01*
X1177Y1645D02*
X1213Y1645D01*
X479Y1644D02*
X511Y1644D01*
X1179Y1644D02*
X1211Y1644D01*
X482Y1643D02*
X509Y1643D01*
X1181Y1643D02*
X1209Y1643D01*
X484Y1642D02*
X506Y1642D01*
X1184Y1642D02*
X1206Y1642D01*
X488Y1641D02*
X502Y1641D01*
X1188Y1641D02*
X1202Y1641D01*
X493Y1618D02*
X498Y1618D01*
X1193Y1618D02*
X1198Y1618D01*
X487Y1617D02*
X504Y1617D01*
X1187Y1617D02*
X1204Y1617D01*
X484Y1616D02*
X507Y1616D01*
X1184Y1616D02*
X1207Y1616D01*
X481Y1615D02*
X510Y1615D01*
X1181Y1615D02*
X1210Y1615D01*
X479Y1614D02*
X512Y1614D01*
X1179Y1614D02*
X1212Y1614D01*
X477Y1613D02*
X514Y1613D01*
X1177Y1613D02*
X1214Y1613D01*
X475Y1612D02*
X516Y1612D01*
X1175Y1612D02*
X1216Y1612D01*
X473Y1611D02*
X518Y1611D01*
X1173Y1611D02*
X1217Y1611D01*
X472Y1610D02*
X519Y1610D01*
X1172Y1610D02*
X1219Y1610D01*
X471Y1609D02*
X520Y1609D01*
X1171Y1609D02*
X1220Y1609D01*
X470Y1608D02*
X521Y1608D01*
X1169Y1608D02*
X1221Y1608D01*
X468Y1607D02*
X523Y1607D01*
X1168Y1607D02*
X1222Y1607D01*
X468Y1606D02*
X524Y1606D01*
X1167Y1606D02*
X1223Y1606D01*
X467Y1605D02*
X524Y1605D01*
X1167Y1605D02*
X1224Y1605D01*
X466Y1604D02*
X525Y1604D01*
X1166Y1604D02*
X1225Y1604D01*
X465Y1603D02*
X526Y1603D01*
X1165Y1603D02*
X1226Y1603D01*
X464Y1602D02*
X527Y1602D01*
X1164Y1602D02*
X1227Y1602D01*
X464Y1601D02*
X528Y1601D01*
X1164Y1601D02*
X1227Y1601D01*
X463Y1600D02*
X528Y1600D01*
X1163Y1600D02*
X1228Y1600D01*
X463Y1599D02*
X529Y1599D01*
X1162Y1599D02*
X1229Y1599D01*
X462Y1598D02*
X529Y1598D01*
X1162Y1598D02*
X1229Y1598D01*
X462Y1597D02*
X530Y1597D01*
X1161Y1597D02*
X1230Y1597D01*
X461Y1596D02*
X530Y1596D01*
X1161Y1596D02*
X1230Y1596D01*
X461Y1595D02*
X531Y1595D01*
X1161Y1595D02*
X1231Y1595D01*
X460Y1594D02*
X531Y1594D01*
X1160Y1594D02*
X1231Y1594D01*
X460Y1593D02*
X532Y1593D01*
X1160Y1593D02*
X1232Y1593D01*
X460Y1592D02*
X532Y1592D01*
X1159Y1592D02*
X1232Y1592D01*
X459Y1591D02*
X532Y1591D01*
X1159Y1591D02*
X1232Y1591D01*
X459Y1590D02*
X533Y1590D01*
X1159Y1590D02*
X1233Y1590D01*
X459Y1589D02*
X533Y1589D01*
X1158Y1589D02*
X1233Y1589D01*
X458Y1588D02*
X533Y1588D01*
X1158Y1588D02*
X1233Y1588D01*
X458Y1587D02*
X533Y1587D01*
X1158Y1587D02*
X1233Y1587D01*
X458Y1586D02*
X534Y1586D01*
X1158Y1586D02*
X1233Y1586D01*
X458Y1585D02*
X534Y1585D01*
X1158Y1585D02*
X1234Y1585D01*
X458Y1584D02*
X534Y1584D01*
X1157Y1584D02*
X1234Y1584D01*
X457Y1583D02*
X534Y1583D01*
X1157Y1583D02*
X1234Y1583D01*
X457Y1582D02*
X534Y1582D01*
X1157Y1582D02*
X1234Y1582D01*
X457Y1581D02*
X534Y1581D01*
X1157Y1581D02*
X1234Y1581D01*
X457Y1580D02*
X534Y1580D01*
X1157Y1580D02*
X1234Y1580D01*
X457Y1579D02*
X534Y1579D01*
X1157Y1579D02*
X1234Y1579D01*
X457Y1578D02*
X534Y1578D01*
X1157Y1578D02*
X1234Y1578D01*
X457Y1577D02*
X534Y1577D01*
X1157Y1577D02*
X1234Y1577D01*
X457Y1576D02*
X534Y1576D01*
X1157Y1576D02*
X1234Y1576D01*
X458Y1575D02*
X534Y1575D01*
X1157Y1575D02*
X1234Y1575D01*
X458Y1574D02*
X534Y1574D01*
X1158Y1574D02*
X1234Y1574D01*
X458Y1573D02*
X534Y1573D01*
X1158Y1573D02*
X1233Y1573D01*
X458Y1572D02*
X533Y1572D01*
X1158Y1572D02*
X1233Y1572D01*
X458Y1571D02*
X533Y1571D01*
X1158Y1571D02*
X1233Y1571D01*
X459Y1570D02*
X533Y1570D01*
X1158Y1570D02*
X1233Y1570D01*
X459Y1569D02*
X533Y1569D01*
X1159Y1569D02*
X1232Y1569D01*
X459Y1568D02*
X532Y1568D01*
X1159Y1568D02*
X1232Y1568D01*
X459Y1567D02*
X532Y1567D01*
X1159Y1567D02*
X1232Y1567D01*
X460Y1566D02*
X532Y1566D01*
X1160Y1566D02*
X1231Y1566D01*
X460Y1565D02*
X531Y1565D01*
X1160Y1565D02*
X1231Y1565D01*
X461Y1564D02*
X531Y1564D01*
X1160Y1564D02*
X1231Y1564D01*
X461Y1563D02*
X530Y1563D01*
X1161Y1563D02*
X1230Y1563D01*
X461Y1562D02*
X530Y1562D01*
X1161Y1562D02*
X1230Y1562D01*
X462Y1561D02*
X529Y1561D01*
X1162Y1561D02*
X1229Y1561D01*
X462Y1560D02*
X529Y1560D01*
X1162Y1560D02*
X1229Y1560D01*
X463Y1559D02*
X528Y1559D01*
X1163Y1559D02*
X1228Y1559D01*
X464Y1558D02*
X528Y1558D01*
X1163Y1558D02*
X1227Y1558D01*
X464Y1557D02*
X527Y1557D01*
X1164Y1557D02*
X1227Y1557D01*
X465Y1556D02*
X526Y1556D01*
X1165Y1556D02*
X1226Y1556D01*
X466Y1555D02*
X525Y1555D01*
X1166Y1555D02*
X1225Y1555D01*
X466Y1554D02*
X525Y1554D01*
X1166Y1554D02*
X1225Y1554D01*
X467Y1553D02*
X524Y1553D01*
X1167Y1553D02*
X1224Y1553D01*
X468Y1552D02*
X523Y1552D01*
X1168Y1552D02*
X1223Y1552D01*
X469Y1551D02*
X522Y1551D01*
X1169Y1551D02*
X1222Y1551D01*
X470Y1550D02*
X521Y1550D01*
X1170Y1550D02*
X1221Y1550D01*
X471Y1549D02*
X519Y1549D01*
X1171Y1549D02*
X1219Y1549D01*
X473Y1548D02*
X518Y1548D01*
X1173Y1548D02*
X1218Y1548D01*
X474Y1547D02*
X517Y1547D01*
X1174Y1547D02*
X1217Y1547D01*
X476Y1546D02*
X515Y1546D01*
X1176Y1546D02*
X1215Y1546D01*
X477Y1545D02*
X513Y1545D01*
X1177Y1545D02*
X1213Y1545D01*
X479Y1544D02*
X511Y1544D01*
X1179Y1544D02*
X1211Y1544D01*
X482Y1543D02*
X509Y1543D01*
X1182Y1543D02*
X1209Y1543D01*
X484Y1542D02*
X506Y1542D01*
X1184Y1542D02*
X1206Y1542D01*
X489Y1541D02*
X502Y1541D01*
X1188Y1541D02*
X1202Y1541D01*
X493Y1518D02*
X498Y1518D01*
X1193Y1518D02*
X1198Y1518D01*
X487Y1517D02*
X504Y1517D01*
X1187Y1517D02*
X1204Y1517D01*
X484Y1516D02*
X507Y1516D01*
X1184Y1516D02*
X1207Y1516D01*
X481Y1515D02*
X510Y1515D01*
X1181Y1515D02*
X1210Y1515D01*
X479Y1514D02*
X512Y1514D01*
X1179Y1514D02*
X1212Y1514D01*
X477Y1513D02*
X514Y1513D01*
X1177Y1513D02*
X1214Y1513D01*
X475Y1512D02*
X516Y1512D01*
X1175Y1512D02*
X1216Y1512D01*
X473Y1511D02*
X518Y1511D01*
X1173Y1511D02*
X1218Y1511D01*
X472Y1510D02*
X519Y1510D01*
X1172Y1510D02*
X1219Y1510D01*
X471Y1509D02*
X520Y1509D01*
X1171Y1509D02*
X1220Y1509D01*
X469Y1508D02*
X522Y1508D01*
X1169Y1508D02*
X1221Y1508D01*
X468Y1507D02*
X523Y1507D01*
X1168Y1507D02*
X1223Y1507D01*
X467Y1506D02*
X524Y1506D01*
X1167Y1506D02*
X1223Y1506D01*
X467Y1505D02*
X524Y1505D01*
X1166Y1505D02*
X1224Y1505D01*
X466Y1504D02*
X525Y1504D01*
X1166Y1504D02*
X1225Y1504D01*
X465Y1503D02*
X526Y1503D01*
X1165Y1503D02*
X1226Y1503D01*
X464Y1502D02*
X527Y1502D01*
X1164Y1502D02*
X1227Y1502D01*
X464Y1501D02*
X528Y1501D01*
X1164Y1501D02*
X1227Y1501D01*
X463Y1500D02*
X528Y1500D01*
X1163Y1500D02*
X1228Y1500D01*
X463Y1499D02*
X529Y1499D01*
X1162Y1499D02*
X1229Y1499D01*
X462Y1498D02*
X529Y1498D01*
X1162Y1498D02*
X1229Y1498D01*
X462Y1497D02*
X530Y1497D01*
X1161Y1497D02*
X1230Y1497D01*
X461Y1496D02*
X530Y1496D01*
X1161Y1496D02*
X1230Y1496D01*
X461Y1495D02*
X531Y1495D01*
X1161Y1495D02*
X1231Y1495D01*
X460Y1494D02*
X531Y1494D01*
X1160Y1494D02*
X1231Y1494D01*
X460Y1493D02*
X532Y1493D01*
X1160Y1493D02*
X1232Y1493D01*
X460Y1492D02*
X532Y1492D01*
X1159Y1492D02*
X1232Y1492D01*
X459Y1491D02*
X532Y1491D01*
X1159Y1491D02*
X1232Y1491D01*
X459Y1490D02*
X533Y1490D01*
X1159Y1490D02*
X1233Y1490D01*
X459Y1489D02*
X533Y1489D01*
X1158Y1489D02*
X1233Y1489D01*
X458Y1488D02*
X533Y1488D01*
X1158Y1488D02*
X1233Y1488D01*
X458Y1487D02*
X533Y1487D01*
X1158Y1487D02*
X1233Y1487D01*
X458Y1486D02*
X534Y1486D01*
X1158Y1486D02*
X1233Y1486D01*
X458Y1485D02*
X534Y1485D01*
X1158Y1485D02*
X1234Y1485D01*
X458Y1484D02*
X534Y1484D01*
X1157Y1484D02*
X1234Y1484D01*
X457Y1483D02*
X534Y1483D01*
X1157Y1483D02*
X1234Y1483D01*
X457Y1482D02*
X534Y1482D01*
X1157Y1482D02*
X1234Y1482D01*
X457Y1481D02*
X534Y1481D01*
X1157Y1481D02*
X1234Y1481D01*
X457Y1480D02*
X534Y1480D01*
X1157Y1480D02*
X1234Y1480D01*
X457Y1479D02*
X534Y1479D01*
X1157Y1479D02*
X1234Y1479D01*
X457Y1478D02*
X534Y1478D01*
X1157Y1478D02*
X1234Y1478D01*
X457Y1477D02*
X534Y1477D01*
X1157Y1477D02*
X1234Y1477D01*
X457Y1476D02*
X534Y1476D01*
X1157Y1476D02*
X1234Y1476D01*
X458Y1475D02*
X534Y1475D01*
X1157Y1475D02*
X1234Y1475D01*
X458Y1474D02*
X534Y1474D01*
X1158Y1474D02*
X1234Y1474D01*
X458Y1473D02*
X534Y1473D01*
X1158Y1473D02*
X1233Y1473D01*
X458Y1472D02*
X533Y1472D01*
X1158Y1472D02*
X1233Y1472D01*
X458Y1471D02*
X533Y1471D01*
X1158Y1471D02*
X1233Y1471D01*
X459Y1470D02*
X533Y1470D01*
X1158Y1470D02*
X1233Y1470D01*
X459Y1469D02*
X533Y1469D01*
X1159Y1469D02*
X1232Y1469D01*
X459Y1468D02*
X532Y1468D01*
X1159Y1468D02*
X1232Y1468D01*
X459Y1467D02*
X532Y1467D01*
X1159Y1467D02*
X1232Y1467D01*
X460Y1466D02*
X532Y1466D01*
X1160Y1466D02*
X1231Y1466D01*
X460Y1465D02*
X531Y1465D01*
X1160Y1465D02*
X1231Y1465D01*
X461Y1464D02*
X531Y1464D01*
X1160Y1464D02*
X1231Y1464D01*
X461Y1463D02*
X530Y1463D01*
X1161Y1463D02*
X1230Y1463D01*
X461Y1462D02*
X530Y1462D01*
X1161Y1462D02*
X1230Y1462D01*
X462Y1461D02*
X529Y1461D01*
X1162Y1461D02*
X1229Y1461D01*
X462Y1460D02*
X529Y1460D01*
X1162Y1460D02*
X1229Y1460D01*
X463Y1459D02*
X528Y1459D01*
X1163Y1459D02*
X1228Y1459D01*
X464Y1458D02*
X528Y1458D01*
X1163Y1458D02*
X1227Y1458D01*
X464Y1457D02*
X527Y1457D01*
X1164Y1457D02*
X1227Y1457D01*
X465Y1456D02*
X526Y1456D01*
X1165Y1456D02*
X1226Y1456D01*
X466Y1455D02*
X525Y1455D01*
X1166Y1455D02*
X1225Y1455D01*
X466Y1454D02*
X525Y1454D01*
X1166Y1454D02*
X1225Y1454D01*
X467Y1453D02*
X524Y1453D01*
X1167Y1453D02*
X1224Y1453D01*
X468Y1452D02*
X523Y1452D01*
X1168Y1452D02*
X1223Y1452D01*
X469Y1451D02*
X522Y1451D01*
X1169Y1451D02*
X1222Y1451D01*
X470Y1450D02*
X521Y1450D01*
X1170Y1450D02*
X1221Y1450D01*
X472Y1449D02*
X519Y1449D01*
X1171Y1449D02*
X1219Y1449D01*
X473Y1448D02*
X518Y1448D01*
X1173Y1448D02*
X1218Y1448D01*
X474Y1447D02*
X517Y1447D01*
X1174Y1447D02*
X1216Y1447D01*
X476Y1446D02*
X515Y1446D01*
X1176Y1446D02*
X1215Y1446D01*
X477Y1445D02*
X513Y1445D01*
X1177Y1445D02*
X1213Y1445D01*
X479Y1444D02*
X511Y1444D01*
X1179Y1444D02*
X1211Y1444D01*
X482Y1443D02*
X509Y1443D01*
X1182Y1443D02*
X1209Y1443D01*
X485Y1442D02*
X506Y1442D01*
X1184Y1442D02*
X1206Y1442D01*
X489Y1441D02*
X502Y1441D01*
X1189Y1441D02*
X1202Y1441D01*
X493Y1418D02*
X499Y1418D01*
X1193Y1418D02*
X1199Y1418D01*
X487Y1417D02*
X504Y1417D01*
X1187Y1417D02*
X1204Y1417D01*
X484Y1416D02*
X507Y1416D01*
X1184Y1416D02*
X1207Y1416D01*
X481Y1415D02*
X510Y1415D01*
X1181Y1415D02*
X1210Y1415D01*
X479Y1414D02*
X512Y1414D01*
X1179Y1414D02*
X1212Y1414D01*
X477Y1413D02*
X514Y1413D01*
X1177Y1413D02*
X1214Y1413D01*
X475Y1412D02*
X516Y1412D01*
X1175Y1412D02*
X1216Y1412D01*
X473Y1411D02*
X518Y1411D01*
X1173Y1411D02*
X1218Y1411D01*
X472Y1410D02*
X519Y1410D01*
X1172Y1410D02*
X1219Y1410D01*
X471Y1409D02*
X520Y1409D01*
X1171Y1409D02*
X1220Y1409D01*
X469Y1408D02*
X522Y1408D01*
X1169Y1408D02*
X1221Y1408D01*
X468Y1407D02*
X523Y1407D01*
X1168Y1407D02*
X1223Y1407D01*
X467Y1406D02*
X524Y1406D01*
X1167Y1406D02*
X1223Y1406D01*
X467Y1405D02*
X524Y1405D01*
X1166Y1405D02*
X1224Y1405D01*
X466Y1404D02*
X525Y1404D01*
X1166Y1404D02*
X1225Y1404D01*
X465Y1403D02*
X526Y1403D01*
X1165Y1403D02*
X1226Y1403D01*
X464Y1402D02*
X527Y1402D01*
X1164Y1402D02*
X1227Y1402D01*
X464Y1401D02*
X528Y1401D01*
X1164Y1401D02*
X1227Y1401D01*
X463Y1400D02*
X528Y1400D01*
X1163Y1400D02*
X1228Y1400D01*
X463Y1399D02*
X529Y1399D01*
X1162Y1399D02*
X1229Y1399D01*
X462Y1398D02*
X529Y1398D01*
X1162Y1398D02*
X1229Y1398D01*
X462Y1397D02*
X530Y1397D01*
X1161Y1397D02*
X1230Y1397D01*
X461Y1396D02*
X530Y1396D01*
X1161Y1396D02*
X1230Y1396D01*
X461Y1395D02*
X531Y1395D01*
X1161Y1395D02*
X1231Y1395D01*
X460Y1394D02*
X531Y1394D01*
X1160Y1394D02*
X1231Y1394D01*
X460Y1393D02*
X532Y1393D01*
X1160Y1393D02*
X1232Y1393D01*
X459Y1392D02*
X532Y1392D01*
X1159Y1392D02*
X1232Y1392D01*
X459Y1391D02*
X532Y1391D01*
X1159Y1391D02*
X1232Y1391D01*
X459Y1390D02*
X533Y1390D01*
X1159Y1390D02*
X1233Y1390D01*
X459Y1389D02*
X533Y1389D01*
X1158Y1389D02*
X1233Y1389D01*
X458Y1388D02*
X533Y1388D01*
X1158Y1388D02*
X1233Y1388D01*
X458Y1387D02*
X533Y1387D01*
X1158Y1387D02*
X1233Y1387D01*
X458Y1386D02*
X534Y1386D01*
X1158Y1386D02*
X1233Y1386D01*
X458Y1385D02*
X534Y1385D01*
X1158Y1385D02*
X1234Y1385D01*
X458Y1384D02*
X534Y1384D01*
X1157Y1384D02*
X1234Y1384D01*
X457Y1383D02*
X534Y1383D01*
X1157Y1383D02*
X1234Y1383D01*
X457Y1382D02*
X534Y1382D01*
X1157Y1382D02*
X1234Y1382D01*
X457Y1381D02*
X534Y1381D01*
X1157Y1381D02*
X1234Y1381D01*
X457Y1380D02*
X534Y1380D01*
X1157Y1380D02*
X1234Y1380D01*
X457Y1379D02*
X534Y1379D01*
X1157Y1379D02*
X1234Y1379D01*
X457Y1378D02*
X534Y1378D01*
X1157Y1378D02*
X1234Y1378D01*
X457Y1377D02*
X534Y1377D01*
X1157Y1377D02*
X1234Y1377D01*
X457Y1376D02*
X534Y1376D01*
X1157Y1376D02*
X1234Y1376D01*
X458Y1375D02*
X534Y1375D01*
X1157Y1375D02*
X1234Y1375D01*
X458Y1374D02*
X534Y1374D01*
X1158Y1374D02*
X1234Y1374D01*
X458Y1373D02*
X534Y1373D01*
X1158Y1373D02*
X1233Y1373D01*
X458Y1372D02*
X533Y1372D01*
X1158Y1372D02*
X1233Y1372D01*
X458Y1371D02*
X533Y1371D01*
X1158Y1371D02*
X1233Y1371D01*
X459Y1370D02*
X533Y1370D01*
X1158Y1370D02*
X1233Y1370D01*
X459Y1369D02*
X533Y1369D01*
X1159Y1369D02*
X1232Y1369D01*
X459Y1368D02*
X532Y1368D01*
X1159Y1368D02*
X1232Y1368D01*
X459Y1367D02*
X532Y1367D01*
X1159Y1367D02*
X1232Y1367D01*
X460Y1366D02*
X532Y1366D01*
X1160Y1366D02*
X1231Y1366D01*
X460Y1365D02*
X531Y1365D01*
X1160Y1365D02*
X1231Y1365D01*
X461Y1364D02*
X531Y1364D01*
X1160Y1364D02*
X1231Y1364D01*
X461Y1363D02*
X530Y1363D01*
X1161Y1363D02*
X1230Y1363D01*
X461Y1362D02*
X530Y1362D01*
X1161Y1362D02*
X1230Y1362D01*
X462Y1361D02*
X529Y1361D01*
X1162Y1361D02*
X1229Y1361D01*
X462Y1360D02*
X529Y1360D01*
X1162Y1360D02*
X1229Y1360D01*
X463Y1359D02*
X528Y1359D01*
X1163Y1359D02*
X1228Y1359D01*
X464Y1358D02*
X528Y1358D01*
X1164Y1358D02*
X1227Y1358D01*
X464Y1357D02*
X527Y1357D01*
X1164Y1357D02*
X1227Y1357D01*
X465Y1356D02*
X526Y1356D01*
X1165Y1356D02*
X1226Y1356D01*
X466Y1355D02*
X525Y1355D01*
X1166Y1355D02*
X1225Y1355D01*
X466Y1354D02*
X525Y1354D01*
X1166Y1354D02*
X1225Y1354D01*
X467Y1353D02*
X524Y1353D01*
X1167Y1353D02*
X1224Y1353D01*
X468Y1352D02*
X523Y1352D01*
X1168Y1352D02*
X1223Y1352D01*
X469Y1351D02*
X522Y1351D01*
X1169Y1351D02*
X1222Y1351D01*
X470Y1350D02*
X521Y1350D01*
X1170Y1350D02*
X1221Y1350D01*
X472Y1349D02*
X519Y1349D01*
X1171Y1349D02*
X1219Y1349D01*
X473Y1348D02*
X518Y1348D01*
X1173Y1348D02*
X1218Y1348D01*
X474Y1347D02*
X517Y1347D01*
X1174Y1347D02*
X1216Y1347D01*
X476Y1346D02*
X515Y1346D01*
X1176Y1346D02*
X1215Y1346D01*
X477Y1345D02*
X513Y1345D01*
X1177Y1345D02*
X1213Y1345D01*
X479Y1344D02*
X511Y1344D01*
X1179Y1344D02*
X1211Y1344D01*
X482Y1343D02*
X509Y1343D01*
X1182Y1343D02*
X1209Y1343D01*
X485Y1342D02*
X506Y1342D01*
X1184Y1342D02*
X1206Y1342D01*
X489Y1341D02*
X502Y1341D01*
X1189Y1341D02*
X1202Y1341D01*
X492Y1318D02*
X499Y1318D01*
X1192Y1318D02*
X1199Y1318D01*
X487Y1317D02*
X504Y1317D01*
X1187Y1317D02*
X1204Y1317D01*
X484Y1316D02*
X507Y1316D01*
X1183Y1316D02*
X1207Y1316D01*
X481Y1315D02*
X510Y1315D01*
X1181Y1315D02*
X1210Y1315D01*
X479Y1314D02*
X512Y1314D01*
X1179Y1314D02*
X1212Y1314D01*
X477Y1313D02*
X514Y1313D01*
X1177Y1313D02*
X1214Y1313D01*
X475Y1312D02*
X516Y1312D01*
X1175Y1312D02*
X1216Y1312D01*
X473Y1311D02*
X518Y1311D01*
X1173Y1311D02*
X1218Y1311D01*
X472Y1310D02*
X519Y1310D01*
X1172Y1310D02*
X1219Y1310D01*
X471Y1309D02*
X520Y1309D01*
X1170Y1309D02*
X1220Y1309D01*
X469Y1308D02*
X522Y1308D01*
X1169Y1308D02*
X1221Y1308D01*
X468Y1307D02*
X523Y1307D01*
X1168Y1307D02*
X1223Y1307D01*
X467Y1306D02*
X524Y1306D01*
X1167Y1306D02*
X1223Y1306D01*
X467Y1305D02*
X525Y1305D01*
X1166Y1305D02*
X1224Y1305D01*
X466Y1304D02*
X525Y1304D01*
X1166Y1304D02*
X1225Y1304D01*
X465Y1303D02*
X526Y1303D01*
X1165Y1303D02*
X1226Y1303D01*
X464Y1302D02*
X527Y1302D01*
X1164Y1302D02*
X1227Y1302D01*
X464Y1301D02*
X528Y1301D01*
X1164Y1301D02*
X1227Y1301D01*
X463Y1300D02*
X528Y1300D01*
X1163Y1300D02*
X1228Y1300D01*
X463Y1299D02*
X529Y1299D01*
X1162Y1299D02*
X1229Y1299D01*
X462Y1298D02*
X529Y1298D01*
X1162Y1298D02*
X1229Y1298D01*
X462Y1297D02*
X530Y1297D01*
X1161Y1297D02*
X1230Y1297D01*
X461Y1296D02*
X530Y1296D01*
X1161Y1296D02*
X1230Y1296D01*
X461Y1295D02*
X531Y1295D01*
X1160Y1295D02*
X1231Y1295D01*
X460Y1294D02*
X531Y1294D01*
X1160Y1294D02*
X1231Y1294D01*
X460Y1293D02*
X532Y1293D01*
X1160Y1293D02*
X1232Y1293D01*
X459Y1292D02*
X532Y1292D01*
X1159Y1292D02*
X1232Y1292D01*
X459Y1291D02*
X532Y1291D01*
X1159Y1291D02*
X1232Y1291D01*
X459Y1290D02*
X533Y1290D01*
X1159Y1290D02*
X1233Y1290D01*
X459Y1289D02*
X533Y1289D01*
X1158Y1289D02*
X1233Y1289D01*
X458Y1288D02*
X533Y1288D01*
X1158Y1288D02*
X1233Y1288D01*
X458Y1287D02*
X533Y1287D01*
X1158Y1287D02*
X1233Y1287D01*
X458Y1286D02*
X534Y1286D01*
X1158Y1286D02*
X1233Y1286D01*
X458Y1285D02*
X534Y1285D01*
X1158Y1285D02*
X1234Y1285D01*
X458Y1284D02*
X534Y1284D01*
X1157Y1284D02*
X1234Y1284D01*
X457Y1283D02*
X534Y1283D01*
X1157Y1283D02*
X1234Y1283D01*
X457Y1282D02*
X534Y1282D01*
X1157Y1282D02*
X1234Y1282D01*
X457Y1281D02*
X534Y1281D01*
X1157Y1281D02*
X1234Y1281D01*
X457Y1280D02*
X534Y1280D01*
X1157Y1280D02*
X1234Y1280D01*
X457Y1279D02*
X534Y1279D01*
X1157Y1279D02*
X1234Y1279D01*
X457Y1278D02*
X534Y1278D01*
X1157Y1278D02*
X1234Y1278D01*
X457Y1277D02*
X534Y1277D01*
X1157Y1277D02*
X1234Y1277D01*
X457Y1276D02*
X534Y1276D01*
X1157Y1276D02*
X1234Y1276D01*
X458Y1275D02*
X534Y1275D01*
X1157Y1275D02*
X1234Y1275D01*
X458Y1274D02*
X534Y1274D01*
X1158Y1274D02*
X1234Y1274D01*
X458Y1273D02*
X534Y1273D01*
X1158Y1273D02*
X1233Y1273D01*
X458Y1272D02*
X533Y1272D01*
X1158Y1272D02*
X1233Y1272D01*
X458Y1271D02*
X533Y1271D01*
X1158Y1271D02*
X1233Y1271D01*
X459Y1270D02*
X533Y1270D01*
X1158Y1270D02*
X1233Y1270D01*
X459Y1269D02*
X533Y1269D01*
X1159Y1269D02*
X1232Y1269D01*
X459Y1268D02*
X532Y1268D01*
X1159Y1268D02*
X1232Y1268D01*
X459Y1267D02*
X532Y1267D01*
X1159Y1267D02*
X1232Y1267D01*
X460Y1266D02*
X532Y1266D01*
X1160Y1266D02*
X1231Y1266D01*
X460Y1265D02*
X531Y1265D01*
X1160Y1265D02*
X1231Y1265D01*
X461Y1264D02*
X531Y1264D01*
X1160Y1264D02*
X1231Y1264D01*
X461Y1263D02*
X530Y1263D01*
X1161Y1263D02*
X1230Y1263D01*
X461Y1262D02*
X530Y1262D01*
X1161Y1262D02*
X1230Y1262D01*
X462Y1261D02*
X529Y1261D01*
X1162Y1261D02*
X1229Y1261D01*
X462Y1260D02*
X529Y1260D01*
X1162Y1260D02*
X1229Y1260D01*
X463Y1259D02*
X528Y1259D01*
X1163Y1259D02*
X1228Y1259D01*
X464Y1258D02*
X528Y1258D01*
X1164Y1258D02*
X1227Y1258D01*
X464Y1257D02*
X527Y1257D01*
X1164Y1257D02*
X1227Y1257D01*
X465Y1256D02*
X526Y1256D01*
X1165Y1256D02*
X1226Y1256D01*
X466Y1255D02*
X525Y1255D01*
X1166Y1255D02*
X1225Y1255D01*
X466Y1254D02*
X525Y1254D01*
X1166Y1254D02*
X1224Y1254D01*
X467Y1253D02*
X524Y1253D01*
X1167Y1253D02*
X1224Y1253D01*
X468Y1252D02*
X523Y1252D01*
X1168Y1252D02*
X1223Y1252D01*
X469Y1251D02*
X522Y1251D01*
X1169Y1251D02*
X1222Y1251D01*
X470Y1250D02*
X521Y1250D01*
X1170Y1250D02*
X1221Y1250D01*
X472Y1249D02*
X519Y1249D01*
X1171Y1249D02*
X1219Y1249D01*
X473Y1248D02*
X518Y1248D01*
X1173Y1248D02*
X1218Y1248D01*
X474Y1247D02*
X517Y1247D01*
X1174Y1247D02*
X1216Y1247D01*
X476Y1246D02*
X515Y1246D01*
X1176Y1246D02*
X1215Y1246D01*
X477Y1245D02*
X513Y1245D01*
X1177Y1245D02*
X1213Y1245D01*
X479Y1244D02*
X511Y1244D01*
X1179Y1244D02*
X1211Y1244D01*
X482Y1243D02*
X509Y1243D01*
X1182Y1243D02*
X1208Y1243D01*
X485Y1242D02*
X506Y1242D01*
X1185Y1242D02*
X1206Y1242D01*
X489Y1241D02*
X502Y1241D01*
X1189Y1241D02*
X1202Y1241D01*
X492Y1218D02*
X499Y1218D01*
X1192Y1218D02*
X1199Y1218D01*
X487Y1217D02*
X504Y1217D01*
X1187Y1217D02*
X1204Y1217D01*
X484Y1216D02*
X508Y1216D01*
X1183Y1216D02*
X1207Y1216D01*
X481Y1215D02*
X510Y1215D01*
X1181Y1215D02*
X1210Y1215D01*
X479Y1214D02*
X512Y1214D01*
X1178Y1214D02*
X1212Y1214D01*
X477Y1213D02*
X514Y1213D01*
X1176Y1213D02*
X1214Y1213D01*
X475Y1212D02*
X516Y1212D01*
X1175Y1212D02*
X1216Y1212D01*
X473Y1211D02*
X518Y1211D01*
X1173Y1211D02*
X1218Y1211D01*
X472Y1210D02*
X519Y1210D01*
X1172Y1210D02*
X1219Y1210D01*
X471Y1209D02*
X520Y1209D01*
X1170Y1209D02*
X1220Y1209D01*
X469Y1208D02*
X522Y1208D01*
X1169Y1208D02*
X1221Y1208D01*
X468Y1207D02*
X523Y1207D01*
X1168Y1207D02*
X1223Y1207D01*
X467Y1206D02*
X524Y1206D01*
X1167Y1206D02*
X1223Y1206D01*
X467Y1205D02*
X525Y1205D01*
X1166Y1205D02*
X1224Y1205D01*
X466Y1204D02*
X525Y1204D01*
X1166Y1204D02*
X1225Y1204D01*
X465Y1203D02*
X526Y1203D01*
X1165Y1203D02*
X1226Y1203D01*
X464Y1202D02*
X527Y1202D01*
X1164Y1202D02*
X1227Y1202D01*
X464Y1201D02*
X528Y1201D01*
X1164Y1201D02*
X1227Y1201D01*
X463Y1200D02*
X528Y1200D01*
X1163Y1200D02*
X1228Y1200D01*
X463Y1199D02*
X529Y1199D01*
X1162Y1199D02*
X1229Y1199D01*
X462Y1198D02*
X529Y1198D01*
X1162Y1198D02*
X1229Y1198D01*
X462Y1197D02*
X530Y1197D01*
X1161Y1197D02*
X1230Y1197D01*
X461Y1196D02*
X530Y1196D01*
X1161Y1196D02*
X1230Y1196D01*
X461Y1195D02*
X531Y1195D01*
X1160Y1195D02*
X1231Y1195D01*
X460Y1194D02*
X531Y1194D01*
X1160Y1194D02*
X1231Y1194D01*
X460Y1193D02*
X532Y1193D01*
X1160Y1193D02*
X1232Y1193D01*
X459Y1192D02*
X532Y1192D01*
X1159Y1192D02*
X1232Y1192D01*
X459Y1191D02*
X532Y1191D01*
X1159Y1191D02*
X1232Y1191D01*
X459Y1190D02*
X533Y1190D01*
X1159Y1190D02*
X1233Y1190D01*
X459Y1189D02*
X533Y1189D01*
X1158Y1189D02*
X1233Y1189D01*
X458Y1188D02*
X533Y1188D01*
X1158Y1188D02*
X1233Y1188D01*
X458Y1187D02*
X533Y1187D01*
X1158Y1187D02*
X1233Y1187D01*
X458Y1186D02*
X534Y1186D01*
X1158Y1186D02*
X1233Y1186D01*
X458Y1185D02*
X534Y1185D01*
X1158Y1185D02*
X1234Y1185D01*
X458Y1184D02*
X534Y1184D01*
X1157Y1184D02*
X1234Y1184D01*
X457Y1183D02*
X534Y1183D01*
X1157Y1183D02*
X1234Y1183D01*
X457Y1182D02*
X534Y1182D01*
X1157Y1182D02*
X1234Y1182D01*
X457Y1181D02*
X534Y1181D01*
X1157Y1181D02*
X1234Y1181D01*
X457Y1180D02*
X534Y1180D01*
X1157Y1180D02*
X1234Y1180D01*
X457Y1179D02*
X534Y1179D01*
X1157Y1179D02*
X1234Y1179D01*
X457Y1178D02*
X534Y1178D01*
X1157Y1178D02*
X1234Y1178D01*
X457Y1177D02*
X534Y1177D01*
X1157Y1177D02*
X1234Y1177D01*
X457Y1176D02*
X534Y1176D01*
X1157Y1176D02*
X1234Y1176D01*
X458Y1175D02*
X534Y1175D01*
X1157Y1175D02*
X1234Y1175D01*
X458Y1174D02*
X534Y1174D01*
X1158Y1174D02*
X1234Y1174D01*
X458Y1173D02*
X534Y1173D01*
X1158Y1173D02*
X1233Y1173D01*
X458Y1172D02*
X533Y1172D01*
X1158Y1172D02*
X1233Y1172D01*
X458Y1171D02*
X533Y1171D01*
X1158Y1171D02*
X1233Y1171D01*
X459Y1170D02*
X533Y1170D01*
X1158Y1170D02*
X1233Y1170D01*
X459Y1169D02*
X533Y1169D01*
X1159Y1169D02*
X1232Y1169D01*
X459Y1168D02*
X532Y1168D01*
X1159Y1168D02*
X1232Y1168D01*
X459Y1167D02*
X532Y1167D01*
X1159Y1167D02*
X1232Y1167D01*
X460Y1166D02*
X531Y1166D01*
X1160Y1166D02*
X1231Y1166D01*
X460Y1165D02*
X531Y1165D01*
X1160Y1165D02*
X1231Y1165D01*
X461Y1164D02*
X531Y1164D01*
X1160Y1164D02*
X1231Y1164D01*
X461Y1163D02*
X530Y1163D01*
X1161Y1163D02*
X1230Y1163D01*
X461Y1162D02*
X530Y1162D01*
X1161Y1162D02*
X1230Y1162D01*
X462Y1161D02*
X529Y1161D01*
X1162Y1161D02*
X1229Y1161D01*
X463Y1160D02*
X529Y1160D01*
X1162Y1160D02*
X1229Y1160D01*
X463Y1159D02*
X528Y1159D01*
X1163Y1159D02*
X1228Y1159D01*
X464Y1158D02*
X527Y1158D01*
X1164Y1158D02*
X1227Y1158D01*
X464Y1157D02*
X527Y1157D01*
X1164Y1157D02*
X1227Y1157D01*
X465Y1156D02*
X526Y1156D01*
X1165Y1156D02*
X1226Y1156D01*
X466Y1155D02*
X525Y1155D01*
X1166Y1155D02*
X1225Y1155D01*
X466Y1154D02*
X525Y1154D01*
X1166Y1154D02*
X1224Y1154D01*
X467Y1153D02*
X524Y1153D01*
X1167Y1153D02*
X1224Y1153D01*
X468Y1152D02*
X523Y1152D01*
X1168Y1152D02*
X1223Y1152D01*
X469Y1151D02*
X522Y1151D01*
X1169Y1151D02*
X1222Y1151D01*
X470Y1150D02*
X521Y1150D01*
X1170Y1150D02*
X1220Y1150D01*
X472Y1149D02*
X519Y1149D01*
X1171Y1149D02*
X1219Y1149D01*
X473Y1148D02*
X518Y1148D01*
X1173Y1148D02*
X1218Y1148D01*
X474Y1147D02*
X517Y1147D01*
X1174Y1147D02*
X1216Y1147D01*
X476Y1146D02*
X515Y1146D01*
X1176Y1146D02*
X1215Y1146D01*
X478Y1145D02*
X513Y1145D01*
X1177Y1145D02*
X1213Y1145D01*
X479Y1144D02*
X511Y1144D01*
X1179Y1144D02*
X1211Y1144D01*
X482Y1143D02*
X509Y1143D01*
X1182Y1143D02*
X1208Y1143D01*
X485Y1142D02*
X506Y1142D01*
X1185Y1142D02*
X1206Y1142D01*
X489Y1141D02*
X502Y1141D01*
X1189Y1141D02*
X1202Y1141D01*
X492Y1118D02*
X499Y1118D01*
X1192Y1118D02*
X1199Y1118D01*
X487Y1117D02*
X504Y1117D01*
X1187Y1117D02*
X1204Y1117D01*
X483Y1116D02*
X508Y1116D01*
X1183Y1116D02*
X1207Y1116D01*
X481Y1115D02*
X510Y1115D01*
X1181Y1115D02*
X1210Y1115D01*
X479Y1114D02*
X512Y1114D01*
X1178Y1114D02*
X1212Y1114D01*
X477Y1113D02*
X514Y1113D01*
X1176Y1113D02*
X1214Y1113D01*
X475Y1112D02*
X516Y1112D01*
X1175Y1112D02*
X1216Y1112D01*
X473Y1111D02*
X518Y1111D01*
X1173Y1111D02*
X1218Y1111D01*
X472Y1110D02*
X519Y1110D01*
X1172Y1110D02*
X1219Y1110D01*
X471Y1109D02*
X520Y1109D01*
X1170Y1109D02*
X1220Y1109D01*
X469Y1108D02*
X522Y1108D01*
X1169Y1108D02*
X1221Y1108D01*
X468Y1107D02*
X523Y1107D01*
X1168Y1107D02*
X1223Y1107D01*
X467Y1106D02*
X524Y1106D01*
X1167Y1106D02*
X1224Y1106D01*
X467Y1105D02*
X525Y1105D01*
X1166Y1105D02*
X1224Y1105D01*
X466Y1104D02*
X525Y1104D01*
X1166Y1104D02*
X1225Y1104D01*
X465Y1103D02*
X526Y1103D01*
X1165Y1103D02*
X1226Y1103D01*
X464Y1102D02*
X527Y1102D01*
X1164Y1102D02*
X1227Y1102D01*
X464Y1101D02*
X528Y1101D01*
X1164Y1101D02*
X1227Y1101D01*
X463Y1100D02*
X528Y1100D01*
X1163Y1100D02*
X1228Y1100D01*
X463Y1099D02*
X529Y1099D01*
X1162Y1099D02*
X1229Y1099D01*
X462Y1098D02*
X529Y1098D01*
X1162Y1098D02*
X1229Y1098D01*
X462Y1097D02*
X530Y1097D01*
X1161Y1097D02*
X1230Y1097D01*
X461Y1096D02*
X530Y1096D01*
X1161Y1096D02*
X1230Y1096D01*
X461Y1095D02*
X531Y1095D01*
X1160Y1095D02*
X1231Y1095D01*
X460Y1094D02*
X531Y1094D01*
X1160Y1094D02*
X1231Y1094D01*
X460Y1093D02*
X532Y1093D01*
X1160Y1093D02*
X1232Y1093D01*
X459Y1092D02*
X532Y1092D01*
X1159Y1092D02*
X1232Y1092D01*
X459Y1091D02*
X532Y1091D01*
X1159Y1091D02*
X1232Y1091D01*
X459Y1090D02*
X533Y1090D01*
X1159Y1090D02*
X1233Y1090D01*
X459Y1089D02*
X533Y1089D01*
X1158Y1089D02*
X1233Y1089D01*
X458Y1088D02*
X533Y1088D01*
X1158Y1088D02*
X1233Y1088D01*
X458Y1087D02*
X533Y1087D01*
X1158Y1087D02*
X1233Y1087D01*
X458Y1086D02*
X534Y1086D01*
X1158Y1086D02*
X1233Y1086D01*
X458Y1085D02*
X534Y1085D01*
X1158Y1085D02*
X1234Y1085D01*
X458Y1084D02*
X534Y1084D01*
X1157Y1084D02*
X1234Y1084D01*
X457Y1083D02*
X534Y1083D01*
X1157Y1083D02*
X1234Y1083D01*
X457Y1082D02*
X534Y1082D01*
X1157Y1082D02*
X1234Y1082D01*
X457Y1081D02*
X534Y1081D01*
X1157Y1081D02*
X1234Y1081D01*
X457Y1080D02*
X534Y1080D01*
X1157Y1080D02*
X1234Y1080D01*
X457Y1079D02*
X534Y1079D01*
X1157Y1079D02*
X1234Y1079D01*
X457Y1078D02*
X534Y1078D01*
X1157Y1078D02*
X1234Y1078D01*
X457Y1077D02*
X534Y1077D01*
X1157Y1077D02*
X1234Y1077D01*
X457Y1076D02*
X534Y1076D01*
X1157Y1076D02*
X1234Y1076D01*
X458Y1075D02*
X534Y1075D01*
X1157Y1075D02*
X1234Y1075D01*
X458Y1074D02*
X534Y1074D01*
X1158Y1074D02*
X1234Y1074D01*
X458Y1073D02*
X534Y1073D01*
X1158Y1073D02*
X1233Y1073D01*
X458Y1072D02*
X533Y1072D01*
X1158Y1072D02*
X1233Y1072D01*
X458Y1071D02*
X533Y1071D01*
X1158Y1071D02*
X1233Y1071D01*
X459Y1070D02*
X533Y1070D01*
X1158Y1070D02*
X1233Y1070D01*
X459Y1069D02*
X533Y1069D01*
X1159Y1069D02*
X1232Y1069D01*
X459Y1068D02*
X532Y1068D01*
X1159Y1068D02*
X1232Y1068D01*
X459Y1067D02*
X532Y1067D01*
X1159Y1067D02*
X1232Y1067D01*
X460Y1066D02*
X531Y1066D01*
X1160Y1066D02*
X1231Y1066D01*
X460Y1065D02*
X531Y1065D01*
X1160Y1065D02*
X1231Y1065D01*
X461Y1064D02*
X531Y1064D01*
X1160Y1064D02*
X1231Y1064D01*
X461Y1063D02*
X530Y1063D01*
X1161Y1063D02*
X1230Y1063D01*
X461Y1062D02*
X530Y1062D01*
X1161Y1062D02*
X1230Y1062D01*
X462Y1061D02*
X529Y1061D01*
X1162Y1061D02*
X1229Y1061D01*
X463Y1060D02*
X529Y1060D01*
X1162Y1060D02*
X1229Y1060D01*
X463Y1059D02*
X528Y1059D01*
X1163Y1059D02*
X1228Y1059D01*
X464Y1058D02*
X527Y1058D01*
X1164Y1058D02*
X1227Y1058D01*
X464Y1057D02*
X527Y1057D01*
X1164Y1057D02*
X1227Y1057D01*
X465Y1056D02*
X526Y1056D01*
X1165Y1056D02*
X1226Y1056D01*
X466Y1055D02*
X525Y1055D01*
X1166Y1055D02*
X1225Y1055D01*
X466Y1054D02*
X525Y1054D01*
X1166Y1054D02*
X1224Y1054D01*
X467Y1053D02*
X524Y1053D01*
X1167Y1053D02*
X1224Y1053D01*
X468Y1052D02*
X523Y1052D01*
X1168Y1052D02*
X1223Y1052D01*
X469Y1051D02*
X522Y1051D01*
X1169Y1051D02*
X1222Y1051D01*
X470Y1050D02*
X521Y1050D01*
X1170Y1050D02*
X1220Y1050D01*
X472Y1049D02*
X519Y1049D01*
X1171Y1049D02*
X1219Y1049D01*
X473Y1048D02*
X518Y1048D01*
X1173Y1048D02*
X1218Y1048D01*
X474Y1047D02*
X516Y1047D01*
X1174Y1047D02*
X1216Y1047D01*
X476Y1046D02*
X515Y1046D01*
X1176Y1046D02*
X1215Y1046D01*
X478Y1045D02*
X513Y1045D01*
X1177Y1045D02*
X1213Y1045D01*
X480Y1044D02*
X511Y1044D01*
X1179Y1044D02*
X1211Y1044D01*
X482Y1043D02*
X509Y1043D01*
X1182Y1043D02*
X1208Y1043D01*
X485Y1042D02*
X506Y1042D01*
X1185Y1042D02*
X1206Y1042D01*
X489Y1041D02*
X502Y1041D01*
X1189Y1041D02*
X1202Y1041D01*
D02*
G04 End of Mask0*
M02*