; NON-PLATED HOLES START AT T1
; THROUGH (PLATED) HOLES START AT T100
M48
INCH
T100C0.098425
T101C0.039370
T102C0.040000
T103C0.047244
T104C0.015748
T105C0.036000
T106C0.040333
T107C0.044000
T108C0.038000
%
T100
X036762Y029948
X024163Y038806
X026962Y017279
X036762Y038806
X024163Y029948
X026962Y011279
X015462Y034779
T101
X022962Y011779
X029962Y038779
X032962Y038779
X026962Y038779
X022962Y016779
X016962Y030779
X022962Y013779
X015962Y030779
X022962Y010779
X013962Y030779
X033962Y038779
X028962Y038779
X022962Y015779
X031962Y038779
X027962Y038779
X030962Y038779
X022962Y012779
X014962Y030779
X022962Y017779
X022962Y014779
T102
X036962Y010779
X037962Y014779
X047962Y023779
X035962Y010779
X040962Y036779
X034962Y014779
X033962Y014779
X044962Y038779
X047962Y022779
X040962Y038779
X038962Y010779
X037962Y010779
X036962Y014779
X034962Y010779
X044962Y037779
X035962Y014779
X033962Y010779
X040962Y037779
X044962Y036779
X038962Y014779
T103
X028041Y022810
X021041Y022810
X025963Y022810
X035041Y024779
X039963Y024779
X032963Y024779
X035041Y022810
X028041Y024779
X021041Y024779
X025963Y024779
X039963Y022810
X032963Y022810
T104
X018962Y034779
X043018Y009807
X024037Y013816
X008962Y025779
X017962Y006779
X017962Y025779
X040962Y020779
X018111Y019779
X011962Y003779
X047962Y030779
X037962Y021779
X043962Y020779
X001962Y013779
X023962Y019779
X033962Y027779
X008962Y023779
X019962Y020779
X049962Y022779
X026962Y023779
X027962Y008779
X003962Y005779
X039962Y013779
X047962Y005779
X018962Y030779
X031607Y020779
X015962Y006779
X001962Y011779
X011962Y000779
X020007Y023823
X041962Y021779
X040962Y009779
X040962Y028779
X019962Y014779
X013962Y008779
X003962Y003779
X017962Y020779
X017829Y023823
X043962Y009779
X006962Y019779
X017962Y016779
X043962Y028779
X002962Y013779
X042962Y004779
X015962Y003779
X029962Y017779
X045962Y005779
X002962Y028779
X017962Y015779
X046962Y009779
X033962Y022779
X006962Y021779
X013962Y005779
X042962Y007723
X043962Y026779
X002962Y011779
X020962Y027779
X039962Y004779
X019925Y016816
X045962Y022779
X037962Y007779
X002962Y026779
X011962Y007779
X011962Y005927
X023962Y008779
X015962Y000779
X049962Y030779
X028651Y020823
X040962Y003779
X045962Y020779
X040962Y022779
X043962Y023779
X016962Y003779
X042962Y015779
X041962Y007779
X015962Y014779
X026962Y030779
T105
X011962Y016779
X011962Y020779
X004962Y019779
X011962Y013779
X004962Y016779
X011962Y010779
X004962Y020779
X004962Y013779
X011962Y018779
X004962Y010779
X011962Y015779
X004962Y018779
X011962Y012779
X004962Y015779
X004962Y012779
X011962Y017779
X011962Y021779
X011962Y014779
X004962Y017779
X011962Y011779
X004962Y021779
X004962Y014779
X011962Y019779
X004962Y011779
T106
X046962Y013779
X047962Y013779
X046962Y014779
X047962Y014779
X046962Y015779
X047962Y015779
X046962Y016779
X047962Y016779
X046962Y012779
X047962Y012779
T107
X007962Y030779
X006962Y030779
X005962Y030779
X004962Y030779
T108
X046962Y031779
X046962Y030779
T00
M30
