; NON-PLATED HOLES START AT T1
; THROUGH (PLATED) HOLES START AT T100
M48
INCH
T100C0.015748
T101C0.036000
T102C0.040333
T103C0.044000
T104C0.038000
T105C0.098425
T106C0.039370
T107C0.040000
T108C0.047244
%
T100
X021285Y025111
X044240Y009011
X045240Y028066
X042240Y011066
X020240Y036066
X015240Y010066
X042240Y030066
X022240Y029066
X047240Y024066
X039240Y009066
X010240Y027066
X004240Y028066
X013240Y009066
X045240Y011066
X013240Y007215
X008240Y021066
X045240Y030066
X017240Y002066
X004240Y030066
X048240Y011066
X042240Y005066
X047240Y022066
X042240Y024066
X010240Y025066
X021240Y022066
X052240Y032066
X045240Y025066
X018240Y005066
X051240Y024066
X044240Y017066
X043240Y009066
X002351Y013029
X017240Y016066
X019388Y021066
X028240Y032066
X041240Y015066
X020240Y032066
X019240Y027066
X042240Y022066
X029929Y022111
X051240Y003066
X044296Y011094
X003240Y016066
X013240Y005066
X025240Y010066
X050314Y032066
X021240Y016066
X019240Y007066
X039240Y023066
X045240Y022066
X035240Y029066
X005240Y011066
X051240Y001066
X002314Y015029
X028240Y025066
X018240Y001066
X031240Y019066
X013240Y002066
X043240Y023066
X049240Y006066
X017240Y007066
X003240Y012066
X021203Y018103
X025240Y021066
X019240Y022066
X019107Y025111
X005240Y004066
X019240Y018066
X029240Y010066
X017240Y005066
X019240Y017066
X025314Y015103
X035240Y024066
X032885Y022066
X008240Y023066
X047240Y006066
X015240Y007066
T101
X013240Y012066
X006240Y019066
X006240Y023066
X006240Y016066
X013240Y017066
X006240Y020066
X013240Y021066
X006240Y013066
X013240Y014066
X006240Y018066
X013240Y019066
X006240Y022066
X013240Y023066
X006240Y015066
X013240Y016066
X013240Y020066
X006240Y012066
X013240Y013066
X006240Y017066
X013240Y018066
X006240Y021066
X013240Y022066
X006240Y014066
X013240Y015066
T102
X048240Y015066
X049240Y014066
X048240Y016066
X049240Y015066
X048240Y017066
X049240Y016066
X048240Y018066
X049240Y017066
X049240Y018066
X048240Y014066
T103
X009240Y032066
X008240Y032066
X007240Y032066
X006240Y032066
T104
X049240Y033066
X049240Y032066
T105
X028240Y018566
X025441Y031236
X038039Y031236
X025441Y040094
X038039Y040094
X016740Y036066
X028240Y012566
T106
X030240Y040066
X018240Y032066
X016240Y032066
X024240Y019066
X015240Y032066
X024240Y016066
X035240Y040066
X024240Y013066
X029240Y040066
X032240Y040066
X028240Y040066
X031240Y040066
X024240Y018066
X024240Y015066
X017240Y032066
X024240Y012066
X034240Y040066
X033240Y040066
X024240Y017066
X024240Y014066
T107
X042240Y039066
X042240Y040066
X039240Y016066
X049240Y025066
X037240Y012066
X040240Y012066
X038240Y016066
X046240Y039066
X042240Y038066
X036240Y016066
X035240Y016066
X046240Y040066
X049240Y024066
X039240Y012066
X046240Y038066
X038240Y012066
X036240Y012066
X037240Y016066
X035240Y012066
X040240Y016066
T108
X034240Y024098
X027240Y024098
X041240Y026066
X036319Y026066
X041240Y024098
X029319Y026066
X036319Y024098
X022319Y026066
X034240Y026066
X029319Y024098
X022319Y024098
X027240Y026066
T00
M30
