; NON-PLATED HOLES START AT T1
; THROUGH (PLATED) HOLES START AT T100
M48
INCH
T100C0.036000
T101C0.040333
T102C0.044000
T103C0.038000
T104C0.098425
T105C0.039370
T106C0.040000
T107C0.047244
T108C0.015748
T109C0.165354
%
T100
X011974Y017312
X011974Y021312
X011974Y014312
X004974Y017312
X011974Y011312
X004974Y021312
X004974Y014312
X011974Y019312
X004974Y011312
X011974Y016312
X011974Y020312
X004974Y019312
X011974Y013312
X004974Y016312
X004974Y020312
X004974Y013312
X011974Y018312
X011974Y022312
X011974Y015312
X004974Y018312
X011974Y012312
X004974Y022312
X004974Y015312
X004974Y012312
T101
X047974Y014312
X046973Y015312
X047974Y015312
X046973Y016312
X047974Y016312
X046973Y017312
X047974Y017312
X046973Y013312
X047974Y013312
X046973Y014312
T102
X005974Y031312
X004974Y031312
X007974Y031312
X006974Y031312
T103
X046974Y031312
X046974Y032312
T104
X036773Y030482
X026974Y011812
X024174Y039340
X015474Y035312
X026974Y017812
X024174Y030482
X036773Y039340
T105
X033974Y039312
X022974Y012312
X029974Y039312
X032974Y039312
X027974Y039312
X030974Y039312
X026974Y039312
X022974Y017312
X016974Y031312
X022974Y014312
X022974Y011312
X013974Y031312
X028974Y039312
X022974Y016312
X031974Y039312
X022974Y013312
X015974Y031312
X014974Y031312
X022974Y018312
X022974Y015312
T106
X035974Y015312
X033974Y011312
X034974Y015312
X044974Y039312
X040974Y038312
X038974Y011312
X037974Y015312
X047974Y024312
X035974Y011312
X036974Y015312
X034974Y011312
X044974Y038312
X040974Y037312
X033974Y015312
X047974Y023312
X040974Y039312
X037974Y011312
X044974Y037312
X038974Y015312
X036974Y011312
T107
X035052Y025312
X039974Y025312
X032974Y025312
X035052Y023344
X039974Y023344
X032974Y023344
X028052Y025312
X021052Y025312
X025974Y025312
X028052Y023344
X021052Y023344
X025974Y023344
T108
X008973Y024312
X017974Y007312
X042974Y008257
X017974Y026312
X040974Y021312
X011974Y004312
X028662Y021357
X047974Y031312
X019937Y017349
X031618Y021312
X001973Y012312
X037974Y022312
X043974Y021312
X018122Y020312
X019974Y021312
X033974Y028312
X049974Y023312
X024048Y014349
X026974Y024312
X011974Y006460
X017840Y024357
X039974Y014312
X027974Y009312
X047974Y006312
X018974Y031312
X015974Y007312
X011974Y001312
X041974Y022312
X002973Y014312
X019974Y015312
X013974Y009312
X040974Y029312
X002973Y029312
X006973Y022312
X023974Y020312
X017974Y021312
X017974Y017312
X043974Y029312
X002973Y012312
X042974Y005312
X029974Y018312
X015974Y004312
X045974Y006312
X020018Y024357
X002973Y027312
X043029Y010340
X017974Y016312
X033974Y023312
X006973Y020312
X013974Y006312
X043974Y027312
X040974Y010312
X020974Y028312
X039974Y005312
X045974Y023312
X037974Y008312
X011974Y008312
X043974Y010312
X023974Y009312
X015974Y001312
X049974Y031312
X008973Y026312
X046974Y010312
X040974Y004312
X045974Y021312
X040974Y023312
X043974Y024312
X016974Y004312
X042974Y016312
X041974Y008312
X003973Y008312
X015974Y015312
X026974Y031312
X018974Y035312
X001973Y014312
T109
X002390Y002340
X049894Y041169
T00
M30
