G04 MADE WITH FRITZING*
G04 WWW.FRITZING.ORG*
G04 DOUBLE SIDED*
G04 HOLES PLATED*
G04 CONTOUR ON CENTER OF CONTOUR VECTOR*
%ASAXBY*%
%FSLAX23Y23*%
%MOIN*%
%OFA0B0*%
%SFA1.0B1.0*%
%ADD10C,0.244094*%
%ADD11C,0.039370*%
%ADD12C,0.074000*%
%ADD13C,0.138425*%
%ADD14C,0.066000*%
%ADD15C,0.080000*%
%ADD16C,0.073667*%
%ADD17C,0.070000*%
%ADD18C,0.068000*%
%ADD19C,0.085000*%
%ADD20C,0.078000*%
%ADD21C,0.125984*%
%ADD22R,0.080000X0.080000*%
%ADD23R,0.078000X0.078000*%
%ADD24C,0.024000*%
%ADD25R,0.001000X0.001000*%
%LNCOPPER1*%
G90*
G70*
G54D10*
X239Y234D03*
X4989Y4117D03*
G54D11*
X4297Y531D03*
X3997Y531D03*
X1797Y1631D03*
X1597Y1531D03*
X1197Y831D03*
X1197Y646D03*
X1197Y131D03*
X1197Y431D03*
X1997Y1531D03*
X197Y1431D03*
X197Y1231D03*
X4303Y1034D03*
X3797Y831D03*
X4797Y631D03*
X4597Y631D03*
G54D12*
X497Y3131D03*
X497Y3131D03*
X597Y3131D03*
X597Y3131D03*
X697Y3131D03*
X697Y3131D03*
X797Y3131D03*
X797Y3131D03*
G54D11*
X4097Y2331D03*
X4097Y2131D03*
X4997Y2331D03*
X4397Y2931D03*
X4097Y2931D03*
X4397Y2731D03*
X2405Y1435D03*
X3997Y1431D03*
X4197Y831D03*
X4297Y1631D03*
X4297Y826D03*
X1797Y731D03*
X1597Y731D03*
X1697Y431D03*
X1797Y2131D03*
X1997Y2131D03*
X1994Y1735D03*
X1797Y1731D03*
X2397Y2031D03*
X1812Y2031D03*
X4397Y2431D03*
X4397Y2131D03*
X4097Y431D03*
X4097Y1031D03*
X4597Y2131D03*
X4597Y2331D03*
X697Y2231D03*
X697Y2031D03*
X297Y2931D03*
X297Y2731D03*
X4197Y2231D03*
X3797Y2231D03*
X2997Y1831D03*
X2697Y3131D03*
X2697Y2431D03*
X2866Y2136D03*
X3162Y2131D03*
X1397Y931D03*
X1397Y631D03*
X1597Y431D03*
X1597Y131D03*
X4997Y3131D03*
X4797Y3131D03*
X397Y831D03*
X897Y2431D03*
X897Y2631D03*
X1797Y2631D03*
X2097Y2831D03*
X3397Y2831D03*
X3397Y2331D03*
X1897Y3531D03*
X1897Y3131D03*
X2397Y931D03*
X2797Y931D03*
X1784Y2436D03*
X2002Y2436D03*
X297Y1431D03*
X297Y1231D03*
X4397Y1031D03*
X4697Y1031D03*
G54D13*
X1547Y3531D03*
G54D14*
X1697Y3131D03*
X1597Y3131D03*
X1497Y3131D03*
X1397Y3131D03*
G54D15*
X4797Y2431D03*
X4797Y2331D03*
G54D16*
X4697Y1731D03*
X4797Y1731D03*
X4697Y1631D03*
X4797Y1631D03*
X4697Y1531D03*
X4797Y1531D03*
X4697Y1431D03*
X4797Y1431D03*
X4697Y1331D03*
X4797Y1331D03*
G54D17*
X3497Y1531D03*
X3597Y1531D03*
X3697Y1531D03*
X3797Y1531D03*
X3897Y1531D03*
X3397Y1131D03*
X3497Y1131D03*
X3597Y1131D03*
X3697Y1131D03*
X3797Y1131D03*
X3897Y1131D03*
X3397Y1531D03*
G54D18*
X497Y2031D03*
X497Y1931D03*
X497Y2131D03*
X497Y2231D03*
X497Y1831D03*
X497Y1731D03*
X497Y1631D03*
X497Y1531D03*
X497Y1431D03*
X497Y1331D03*
X497Y1231D03*
X497Y1131D03*
X1197Y1931D03*
X1197Y2031D03*
X1197Y2131D03*
X1197Y2231D03*
X1197Y1831D03*
X1197Y1731D03*
X1197Y1631D03*
X1197Y1531D03*
X1197Y1331D03*
X1197Y1431D03*
X1197Y1231D03*
X1197Y1131D03*
G54D19*
X3505Y2531D03*
X3505Y2334D03*
X3997Y2334D03*
X3997Y2531D03*
X3505Y2531D03*
X3505Y2334D03*
X3997Y2334D03*
X3997Y2531D03*
X2805Y2531D03*
X2805Y2334D03*
X3297Y2334D03*
X3297Y2531D03*
X2805Y2531D03*
X2805Y2334D03*
X3297Y2334D03*
X3297Y2531D03*
X2105Y2531D03*
X2105Y2334D03*
X2597Y2334D03*
X2597Y2531D03*
X2105Y2531D03*
X2105Y2334D03*
X2597Y2334D03*
X2597Y2531D03*
G54D14*
X4497Y3931D03*
X4497Y3831D03*
X4497Y3731D03*
X4097Y3731D03*
X4097Y3831D03*
X4097Y3931D03*
G54D20*
X4697Y3231D03*
X4697Y3131D03*
G54D17*
X2797Y3931D03*
X3397Y3931D03*
G54D21*
X2417Y3048D03*
G54D17*
X2897Y3931D03*
G54D21*
X2417Y3934D03*
G54D17*
X2997Y3931D03*
G54D21*
X3677Y3934D03*
G54D17*
X3097Y3931D03*
G54D21*
X3677Y3048D03*
G54D17*
X3197Y3931D03*
X3297Y3931D03*
X2697Y3931D03*
G54D13*
X2697Y1181D03*
G54D17*
X2297Y1131D03*
X2297Y1231D03*
X2297Y1331D03*
X2297Y1431D03*
G54D13*
X2697Y1781D03*
G54D17*
X2297Y1531D03*
X2297Y1631D03*
X2297Y1731D03*
X2297Y1831D03*
G54D22*
X4797Y2431D03*
G54D23*
X4697Y3231D03*
G54D24*
X4278Y531D02*
X4016Y531D01*
D02*
X197Y1212D02*
X197Y431D01*
D02*
X1197Y450D02*
X1197Y627D01*
D02*
X2097Y1531D02*
X2267Y1531D01*
D02*
X2097Y1631D02*
X2097Y1531D01*
D02*
X1216Y831D02*
X1597Y831D01*
D02*
X1597Y831D02*
X1597Y1512D01*
D02*
X197Y2131D02*
X197Y1450D01*
D02*
X897Y131D02*
X1178Y131D01*
D02*
X897Y431D02*
X897Y131D01*
D02*
X197Y431D02*
X897Y431D01*
D02*
X1816Y1631D02*
X2097Y1631D01*
D02*
X468Y2131D02*
X197Y2131D01*
D02*
X1984Y1545D02*
X1997Y1531D01*
D02*
X4178Y831D02*
X3816Y831D01*
D02*
X4097Y2312D02*
X4097Y2150D01*
D02*
X4116Y2931D02*
X4378Y2931D01*
D02*
X4997Y2731D02*
X4416Y2731D01*
D02*
X4997Y2350D02*
X4997Y2731D01*
D02*
X3978Y1431D02*
X2424Y1435D01*
D02*
X4298Y1612D02*
X4303Y1053D01*
D02*
X1697Y1631D02*
X1697Y450D01*
D02*
X1227Y1631D02*
X1697Y1631D01*
D02*
X1978Y2131D02*
X1816Y2131D01*
D02*
X1816Y1732D02*
X1975Y1735D01*
D02*
X4597Y731D02*
X4397Y731D01*
D02*
X4597Y1131D02*
X4597Y731D01*
D02*
X4597Y1431D02*
X4597Y1131D01*
D02*
X1997Y731D02*
X1997Y1531D01*
D02*
X4397Y731D02*
X1997Y731D01*
D02*
X4666Y1431D02*
X4597Y1431D01*
D02*
X2378Y2031D02*
X1831Y2031D01*
D02*
X4416Y2431D02*
X4797Y2431D01*
D02*
X4616Y2131D02*
X4697Y2131D01*
D02*
X4697Y2131D02*
X4697Y1763D01*
D02*
X4297Y2331D02*
X4578Y2331D01*
D02*
X4297Y2831D02*
X4297Y2331D01*
D02*
X4897Y2831D02*
X4297Y2831D01*
D02*
X4529Y3731D02*
X4897Y3731D01*
D02*
X4897Y3731D02*
X4897Y2831D01*
D02*
X4097Y1731D02*
X3797Y1731D01*
D02*
X4597Y1731D02*
X4666Y1731D01*
D02*
X4497Y1731D02*
X4597Y1731D01*
D02*
X4497Y931D02*
X4497Y1731D01*
D02*
X3897Y931D02*
X4497Y931D01*
D02*
X3897Y1100D02*
X3897Y931D01*
D02*
X3797Y1731D02*
X3797Y1562D01*
D02*
X697Y1731D02*
X1168Y1731D01*
D02*
X3597Y531D02*
X3597Y431D01*
D02*
X1897Y531D02*
X3597Y531D01*
D02*
X697Y631D02*
X1097Y631D01*
D02*
X1097Y631D02*
X1097Y331D01*
D02*
X1097Y331D02*
X1897Y331D01*
D02*
X697Y831D02*
X697Y631D01*
D02*
X3197Y931D02*
X2816Y931D01*
D02*
X3897Y931D02*
X3197Y931D01*
D02*
X4097Y1050D02*
X4097Y1731D01*
D02*
X3897Y1100D02*
X3897Y931D01*
D02*
X2885Y2135D02*
X3143Y2132D01*
D02*
X2697Y2450D02*
X2697Y3112D01*
D02*
X3366Y1531D02*
X2997Y1531D01*
D02*
X2997Y1531D02*
X2997Y1812D01*
D02*
X2997Y4231D02*
X1697Y4231D01*
D02*
X1697Y4231D02*
X1697Y3831D01*
D02*
X1197Y3531D02*
X297Y3531D01*
D02*
X1197Y3831D02*
X1197Y3531D01*
D02*
X1697Y3831D02*
X1197Y3831D01*
D02*
X297Y2931D02*
X316Y2929D01*
D02*
X297Y3531D02*
X297Y2931D01*
D02*
X316Y2731D02*
X697Y2731D01*
D02*
X697Y2731D02*
X697Y2250D01*
D02*
X697Y2012D02*
X697Y1731D01*
D02*
X2997Y3962D02*
X2997Y4231D01*
D02*
X3997Y2031D02*
X2416Y2031D01*
D02*
X5097Y3131D02*
X5097Y131D01*
D02*
X5016Y3131D02*
X5097Y3131D01*
D02*
X5097Y131D02*
X1616Y131D01*
D02*
X3997Y2300D02*
X3997Y2031D01*
D02*
X4728Y3131D02*
X4778Y3131D01*
D02*
X1397Y431D02*
X1578Y431D01*
D02*
X1397Y631D02*
X1397Y431D01*
D02*
X1227Y1531D02*
X1397Y1531D01*
D02*
X1397Y1531D02*
X1397Y950D01*
D02*
X2597Y1631D02*
X2497Y1731D01*
D02*
X2497Y1731D02*
X2328Y1731D01*
D02*
X2897Y1631D02*
X2597Y1631D01*
D02*
X2897Y1831D02*
X2897Y1631D01*
D02*
X2978Y1831D02*
X2897Y1831D01*
D02*
X4997Y1431D02*
X4797Y1431D01*
D02*
X4997Y2231D02*
X4997Y1431D01*
D02*
X4216Y2231D02*
X4997Y2231D01*
D02*
X1227Y2231D02*
X3778Y2231D01*
D02*
X3397Y2350D02*
X3397Y2812D01*
D02*
X2082Y2821D02*
X1813Y2642D01*
D02*
X897Y2612D02*
X897Y2450D01*
D02*
X416Y831D02*
X697Y831D01*
D02*
X4397Y1931D02*
X4397Y2112D01*
D02*
X2097Y1931D02*
X4397Y1931D01*
D02*
X2097Y1831D02*
X2097Y1931D01*
D02*
X1227Y1831D02*
X2097Y1831D01*
D02*
X2778Y931D02*
X2416Y931D01*
D02*
X1897Y3150D02*
X1897Y3512D01*
D02*
X4397Y1050D02*
X4397Y1831D01*
D02*
X4397Y1831D02*
X3597Y1831D01*
D02*
X3597Y1831D02*
X3597Y1562D01*
D02*
X4697Y331D02*
X4697Y1012D01*
D02*
X1997Y231D02*
X1997Y331D01*
D02*
X1997Y331D02*
X4697Y331D01*
D02*
X997Y531D02*
X997Y231D01*
D02*
X997Y231D02*
X1997Y231D01*
D02*
X297Y531D02*
X997Y531D01*
D02*
X297Y1212D02*
X297Y531D01*
D02*
X297Y2031D02*
X297Y1450D01*
D02*
X1983Y2436D02*
X1803Y2436D01*
D02*
X468Y2031D02*
X297Y2031D01*
D02*
X2797Y4131D02*
X1797Y4131D01*
D02*
X1797Y2731D02*
X997Y2731D01*
D02*
X1797Y4131D02*
X1797Y2731D01*
D02*
X997Y2731D02*
X997Y2331D01*
D02*
X997Y2331D02*
X997Y2131D01*
D02*
X997Y2131D02*
X527Y2131D01*
D02*
X2797Y3962D02*
X2797Y4131D01*
D02*
X97Y1331D02*
X468Y1331D01*
D02*
X97Y2831D02*
X97Y1331D01*
D02*
X1497Y2831D02*
X97Y2831D01*
D02*
X1497Y3100D02*
X1497Y2831D01*
D02*
X4697Y1231D02*
X4697Y1300D01*
D02*
X4797Y1231D02*
X4697Y1231D01*
D02*
X4797Y650D02*
X4797Y1231D01*
D02*
X1797Y712D02*
X1797Y631D01*
D02*
X797Y731D02*
X1597Y731D01*
D02*
X797Y1531D02*
X797Y731D01*
D02*
X527Y1531D02*
X797Y1531D01*
D02*
X3597Y431D02*
X4078Y431D01*
D02*
X1897Y331D02*
X1897Y531D01*
D02*
X1797Y631D02*
X4578Y631D01*
G54D25*
X493Y3243D02*
X501Y3243D01*
X593Y3243D02*
X601Y3243D01*
X693Y3243D02*
X701Y3243D01*
X793Y3243D02*
X800Y3243D01*
X488Y3242D02*
X506Y3242D01*
X588Y3242D02*
X606Y3242D01*
X688Y3242D02*
X706Y3242D01*
X788Y3242D02*
X806Y3242D01*
X485Y3241D02*
X509Y3241D01*
X585Y3241D02*
X609Y3241D01*
X685Y3241D02*
X709Y3241D01*
X785Y3241D02*
X809Y3241D01*
X482Y3240D02*
X511Y3240D01*
X582Y3240D02*
X611Y3240D01*
X682Y3240D02*
X711Y3240D01*
X782Y3240D02*
X811Y3240D01*
X480Y3239D02*
X514Y3239D01*
X580Y3239D02*
X613Y3239D01*
X680Y3239D02*
X713Y3239D01*
X780Y3239D02*
X813Y3239D01*
X478Y3238D02*
X515Y3238D01*
X578Y3238D02*
X615Y3238D01*
X678Y3238D02*
X715Y3238D01*
X778Y3238D02*
X815Y3238D01*
X477Y3237D02*
X517Y3237D01*
X577Y3237D02*
X617Y3237D01*
X677Y3237D02*
X717Y3237D01*
X777Y3237D02*
X817Y3237D01*
X475Y3236D02*
X518Y3236D01*
X575Y3236D02*
X618Y3236D01*
X675Y3236D02*
X718Y3236D01*
X775Y3236D02*
X818Y3236D01*
X474Y3235D02*
X520Y3235D01*
X574Y3235D02*
X620Y3235D01*
X674Y3235D02*
X720Y3235D01*
X774Y3235D02*
X820Y3235D01*
X473Y3234D02*
X521Y3234D01*
X573Y3234D02*
X621Y3234D01*
X673Y3234D02*
X721Y3234D01*
X773Y3234D02*
X821Y3234D01*
X472Y3233D02*
X522Y3233D01*
X572Y3233D02*
X622Y3233D01*
X672Y3233D02*
X722Y3233D01*
X772Y3233D02*
X822Y3233D01*
X471Y3232D02*
X523Y3232D01*
X571Y3232D02*
X623Y3232D01*
X671Y3232D02*
X723Y3232D01*
X771Y3232D02*
X823Y3232D01*
X470Y3231D02*
X524Y3231D01*
X570Y3231D02*
X624Y3231D01*
X670Y3231D02*
X724Y3231D01*
X770Y3231D02*
X824Y3231D01*
X469Y3230D02*
X525Y3230D01*
X569Y3230D02*
X625Y3230D01*
X669Y3230D02*
X725Y3230D01*
X769Y3230D02*
X825Y3230D01*
X468Y3229D02*
X525Y3229D01*
X568Y3229D02*
X625Y3229D01*
X668Y3229D02*
X725Y3229D01*
X768Y3229D02*
X825Y3229D01*
X467Y3228D02*
X526Y3228D01*
X567Y3228D02*
X626Y3228D01*
X667Y3228D02*
X726Y3228D01*
X767Y3228D02*
X826Y3228D01*
X467Y3227D02*
X527Y3227D01*
X567Y3227D02*
X627Y3227D01*
X667Y3227D02*
X727Y3227D01*
X767Y3227D02*
X827Y3227D01*
X466Y3226D02*
X528Y3226D01*
X566Y3226D02*
X628Y3226D01*
X666Y3226D02*
X728Y3226D01*
X766Y3226D02*
X828Y3226D01*
X465Y3225D02*
X528Y3225D01*
X565Y3225D02*
X628Y3225D01*
X665Y3225D02*
X728Y3225D01*
X765Y3225D02*
X828Y3225D01*
X465Y3224D02*
X529Y3224D01*
X565Y3224D02*
X629Y3224D01*
X665Y3224D02*
X729Y3224D01*
X765Y3224D02*
X829Y3224D01*
X464Y3223D02*
X529Y3223D01*
X564Y3223D02*
X629Y3223D01*
X664Y3223D02*
X729Y3223D01*
X764Y3223D02*
X829Y3223D01*
X464Y3222D02*
X530Y3222D01*
X564Y3222D02*
X630Y3222D01*
X664Y3222D02*
X730Y3222D01*
X764Y3222D02*
X830Y3222D01*
X463Y3221D02*
X530Y3221D01*
X563Y3221D02*
X630Y3221D01*
X663Y3221D02*
X730Y3221D01*
X763Y3221D02*
X830Y3221D01*
X463Y3220D02*
X531Y3220D01*
X563Y3220D02*
X631Y3220D01*
X663Y3220D02*
X731Y3220D01*
X763Y3220D02*
X831Y3220D01*
X463Y3219D02*
X531Y3219D01*
X563Y3219D02*
X631Y3219D01*
X663Y3219D02*
X731Y3219D01*
X763Y3219D02*
X831Y3219D01*
X462Y3218D02*
X531Y3218D01*
X562Y3218D02*
X631Y3218D01*
X662Y3218D02*
X731Y3218D01*
X762Y3218D02*
X831Y3218D01*
X462Y3217D02*
X532Y3217D01*
X562Y3217D02*
X632Y3217D01*
X662Y3217D02*
X732Y3217D01*
X762Y3217D02*
X832Y3217D01*
X462Y3216D02*
X532Y3216D01*
X562Y3216D02*
X632Y3216D01*
X662Y3216D02*
X732Y3216D01*
X762Y3216D02*
X832Y3216D01*
X461Y3215D02*
X532Y3215D01*
X561Y3215D02*
X632Y3215D01*
X661Y3215D02*
X732Y3215D01*
X761Y3215D02*
X832Y3215D01*
X461Y3214D02*
X532Y3214D01*
X561Y3214D02*
X632Y3214D01*
X661Y3214D02*
X732Y3214D01*
X761Y3214D02*
X832Y3214D01*
X461Y3213D02*
X533Y3213D01*
X561Y3213D02*
X633Y3213D01*
X661Y3213D02*
X733Y3213D01*
X761Y3213D02*
X833Y3213D01*
X461Y3212D02*
X533Y3212D01*
X561Y3212D02*
X633Y3212D01*
X661Y3212D02*
X733Y3212D01*
X761Y3212D02*
X833Y3212D01*
X461Y3211D02*
X533Y3211D01*
X561Y3211D02*
X633Y3211D01*
X661Y3211D02*
X733Y3211D01*
X761Y3211D02*
X833Y3211D01*
X461Y3210D02*
X533Y3210D01*
X561Y3210D02*
X633Y3210D01*
X660Y3210D02*
X733Y3210D01*
X760Y3210D02*
X833Y3210D01*
X460Y3209D02*
X533Y3209D01*
X560Y3209D02*
X633Y3209D01*
X660Y3209D02*
X733Y3209D01*
X760Y3209D02*
X833Y3209D01*
X460Y3208D02*
X533Y3208D01*
X560Y3208D02*
X633Y3208D01*
X660Y3208D02*
X733Y3208D01*
X760Y3208D02*
X833Y3208D01*
X460Y3207D02*
X533Y3207D01*
X560Y3207D02*
X633Y3207D01*
X660Y3207D02*
X733Y3207D01*
X760Y3207D02*
X833Y3207D01*
X460Y3206D02*
X533Y3206D01*
X560Y3206D02*
X633Y3206D01*
X660Y3206D02*
X733Y3206D01*
X760Y3206D02*
X833Y3206D01*
X460Y3205D02*
X533Y3205D01*
X560Y3205D02*
X633Y3205D01*
X660Y3205D02*
X733Y3205D01*
X760Y3205D02*
X833Y3205D01*
X460Y3204D02*
X533Y3204D01*
X560Y3204D02*
X633Y3204D01*
X660Y3204D02*
X733Y3204D01*
X760Y3204D02*
X833Y3204D01*
X460Y3203D02*
X533Y3203D01*
X560Y3203D02*
X633Y3203D01*
X660Y3203D02*
X733Y3203D01*
X760Y3203D02*
X833Y3203D01*
X460Y3202D02*
X533Y3202D01*
X560Y3202D02*
X633Y3202D01*
X660Y3202D02*
X733Y3202D01*
X760Y3202D02*
X833Y3202D01*
X460Y3201D02*
X533Y3201D01*
X560Y3201D02*
X633Y3201D01*
X660Y3201D02*
X733Y3201D01*
X760Y3201D02*
X833Y3201D01*
X460Y3200D02*
X533Y3200D01*
X560Y3200D02*
X633Y3200D01*
X660Y3200D02*
X733Y3200D01*
X760Y3200D02*
X833Y3200D01*
X460Y3199D02*
X533Y3199D01*
X560Y3199D02*
X633Y3199D01*
X660Y3199D02*
X733Y3199D01*
X760Y3199D02*
X833Y3199D01*
X460Y3198D02*
X533Y3198D01*
X560Y3198D02*
X633Y3198D01*
X660Y3198D02*
X733Y3198D01*
X760Y3198D02*
X833Y3198D01*
X460Y3197D02*
X533Y3197D01*
X560Y3197D02*
X633Y3197D01*
X660Y3197D02*
X733Y3197D01*
X760Y3197D02*
X833Y3197D01*
X460Y3196D02*
X533Y3196D01*
X560Y3196D02*
X633Y3196D01*
X660Y3196D02*
X733Y3196D01*
X760Y3196D02*
X833Y3196D01*
X460Y3195D02*
X533Y3195D01*
X560Y3195D02*
X633Y3195D01*
X660Y3195D02*
X733Y3195D01*
X760Y3195D02*
X833Y3195D01*
X460Y3194D02*
X533Y3194D01*
X560Y3194D02*
X633Y3194D01*
X660Y3194D02*
X733Y3194D01*
X760Y3194D02*
X833Y3194D01*
X460Y3193D02*
X533Y3193D01*
X560Y3193D02*
X633Y3193D01*
X660Y3193D02*
X733Y3193D01*
X760Y3193D02*
X833Y3193D01*
X460Y3192D02*
X533Y3192D01*
X560Y3192D02*
X633Y3192D01*
X660Y3192D02*
X733Y3192D01*
X760Y3192D02*
X833Y3192D01*
X460Y3191D02*
X533Y3191D01*
X560Y3191D02*
X633Y3191D01*
X660Y3191D02*
X733Y3191D01*
X760Y3191D02*
X833Y3191D01*
X460Y3190D02*
X533Y3190D01*
X560Y3190D02*
X633Y3190D01*
X660Y3190D02*
X733Y3190D01*
X760Y3190D02*
X833Y3190D01*
X460Y3189D02*
X533Y3189D01*
X560Y3189D02*
X633Y3189D01*
X660Y3189D02*
X733Y3189D01*
X760Y3189D02*
X833Y3189D01*
X460Y3188D02*
X533Y3188D01*
X560Y3188D02*
X633Y3188D01*
X660Y3188D02*
X733Y3188D01*
X760Y3188D02*
X833Y3188D01*
X460Y3187D02*
X533Y3187D01*
X560Y3187D02*
X633Y3187D01*
X660Y3187D02*
X733Y3187D01*
X760Y3187D02*
X833Y3187D01*
X460Y3186D02*
X533Y3186D01*
X560Y3186D02*
X633Y3186D01*
X660Y3186D02*
X733Y3186D01*
X760Y3186D02*
X833Y3186D01*
X460Y3185D02*
X533Y3185D01*
X560Y3185D02*
X633Y3185D01*
X660Y3185D02*
X733Y3185D01*
X760Y3185D02*
X833Y3185D01*
X460Y3184D02*
X533Y3184D01*
X560Y3184D02*
X633Y3184D01*
X660Y3184D02*
X733Y3184D01*
X760Y3184D02*
X833Y3184D01*
X460Y3183D02*
X533Y3183D01*
X560Y3183D02*
X633Y3183D01*
X660Y3183D02*
X733Y3183D01*
X760Y3183D02*
X833Y3183D01*
X460Y3182D02*
X533Y3182D01*
X560Y3182D02*
X633Y3182D01*
X660Y3182D02*
X733Y3182D01*
X760Y3182D02*
X833Y3182D01*
X460Y3181D02*
X533Y3181D01*
X560Y3181D02*
X633Y3181D01*
X660Y3181D02*
X733Y3181D01*
X760Y3181D02*
X833Y3181D01*
X460Y3180D02*
X533Y3180D01*
X560Y3180D02*
X633Y3180D01*
X660Y3180D02*
X733Y3180D01*
X760Y3180D02*
X833Y3180D01*
X460Y3179D02*
X533Y3179D01*
X560Y3179D02*
X633Y3179D01*
X660Y3179D02*
X733Y3179D01*
X760Y3179D02*
X833Y3179D01*
X460Y3178D02*
X533Y3178D01*
X560Y3178D02*
X633Y3178D01*
X660Y3178D02*
X733Y3178D01*
X760Y3178D02*
X833Y3178D01*
X460Y3177D02*
X533Y3177D01*
X560Y3177D02*
X633Y3177D01*
X660Y3177D02*
X733Y3177D01*
X760Y3177D02*
X833Y3177D01*
X460Y3176D02*
X533Y3176D01*
X560Y3176D02*
X633Y3176D01*
X660Y3176D02*
X733Y3176D01*
X760Y3176D02*
X833Y3176D01*
X460Y3175D02*
X533Y3175D01*
X560Y3175D02*
X633Y3175D01*
X660Y3175D02*
X733Y3175D01*
X760Y3175D02*
X833Y3175D01*
X460Y3174D02*
X533Y3174D01*
X560Y3174D02*
X633Y3174D01*
X660Y3174D02*
X733Y3174D01*
X760Y3174D02*
X833Y3174D01*
X460Y3173D02*
X533Y3173D01*
X560Y3173D02*
X633Y3173D01*
X660Y3173D02*
X733Y3173D01*
X760Y3173D02*
X833Y3173D01*
X460Y3172D02*
X533Y3172D01*
X560Y3172D02*
X633Y3172D01*
X660Y3172D02*
X733Y3172D01*
X760Y3172D02*
X833Y3172D01*
X460Y3171D02*
X533Y3171D01*
X560Y3171D02*
X633Y3171D01*
X660Y3171D02*
X733Y3171D01*
X760Y3171D02*
X833Y3171D01*
X460Y3170D02*
X533Y3170D01*
X560Y3170D02*
X633Y3170D01*
X660Y3170D02*
X733Y3170D01*
X760Y3170D02*
X833Y3170D01*
X460Y3169D02*
X533Y3169D01*
X560Y3169D02*
X633Y3169D01*
X660Y3169D02*
X733Y3169D01*
X760Y3169D02*
X833Y3169D01*
X460Y3168D02*
X533Y3168D01*
X560Y3168D02*
X633Y3168D01*
X660Y3168D02*
X733Y3168D01*
X760Y3168D02*
X833Y3168D01*
X460Y3167D02*
X533Y3167D01*
X560Y3167D02*
X633Y3167D01*
X660Y3167D02*
X733Y3167D01*
X760Y3167D02*
X833Y3167D01*
X460Y3166D02*
X533Y3166D01*
X560Y3166D02*
X633Y3166D01*
X660Y3166D02*
X733Y3166D01*
X760Y3166D02*
X833Y3166D01*
X460Y3165D02*
X533Y3165D01*
X560Y3165D02*
X633Y3165D01*
X660Y3165D02*
X733Y3165D01*
X760Y3165D02*
X833Y3165D01*
X460Y3164D02*
X533Y3164D01*
X560Y3164D02*
X633Y3164D01*
X660Y3164D02*
X733Y3164D01*
X760Y3164D02*
X833Y3164D01*
X460Y3163D02*
X533Y3163D01*
X560Y3163D02*
X633Y3163D01*
X660Y3163D02*
X733Y3163D01*
X760Y3163D02*
X833Y3163D01*
X460Y3162D02*
X533Y3162D01*
X560Y3162D02*
X633Y3162D01*
X660Y3162D02*
X733Y3162D01*
X760Y3162D02*
X833Y3162D01*
X460Y3161D02*
X533Y3161D01*
X560Y3161D02*
X633Y3161D01*
X660Y3161D02*
X733Y3161D01*
X760Y3161D02*
X833Y3161D01*
X460Y3160D02*
X533Y3160D01*
X560Y3160D02*
X633Y3160D01*
X660Y3160D02*
X733Y3160D01*
X760Y3160D02*
X833Y3160D01*
X460Y3159D02*
X533Y3159D01*
X560Y3159D02*
X633Y3159D01*
X660Y3159D02*
X733Y3159D01*
X760Y3159D02*
X833Y3159D01*
X460Y3158D02*
X533Y3158D01*
X560Y3158D02*
X633Y3158D01*
X660Y3158D02*
X733Y3158D01*
X760Y3158D02*
X833Y3158D01*
X460Y3157D02*
X533Y3157D01*
X560Y3157D02*
X633Y3157D01*
X660Y3157D02*
X733Y3157D01*
X760Y3157D02*
X833Y3157D01*
X460Y3156D02*
X533Y3156D01*
X560Y3156D02*
X633Y3156D01*
X660Y3156D02*
X733Y3156D01*
X760Y3156D02*
X833Y3156D01*
X460Y3155D02*
X533Y3155D01*
X560Y3155D02*
X633Y3155D01*
X660Y3155D02*
X733Y3155D01*
X760Y3155D02*
X833Y3155D01*
X460Y3154D02*
X493Y3154D01*
X501Y3154D02*
X533Y3154D01*
X560Y3154D02*
X593Y3154D01*
X601Y3154D02*
X633Y3154D01*
X660Y3154D02*
X693Y3154D01*
X701Y3154D02*
X733Y3154D01*
X760Y3154D02*
X793Y3154D01*
X801Y3154D02*
X833Y3154D01*
X460Y3153D02*
X489Y3153D01*
X504Y3153D02*
X533Y3153D01*
X560Y3153D02*
X589Y3153D01*
X604Y3153D02*
X633Y3153D01*
X660Y3153D02*
X689Y3153D01*
X704Y3153D02*
X733Y3153D01*
X760Y3153D02*
X789Y3153D01*
X804Y3153D02*
X833Y3153D01*
X460Y3152D02*
X487Y3152D01*
X507Y3152D02*
X533Y3152D01*
X560Y3152D02*
X587Y3152D01*
X607Y3152D02*
X633Y3152D01*
X660Y3152D02*
X687Y3152D01*
X707Y3152D02*
X733Y3152D01*
X760Y3152D02*
X787Y3152D01*
X807Y3152D02*
X833Y3152D01*
X460Y3151D02*
X485Y3151D01*
X509Y3151D02*
X533Y3151D01*
X560Y3151D02*
X585Y3151D01*
X609Y3151D02*
X633Y3151D01*
X660Y3151D02*
X685Y3151D01*
X709Y3151D02*
X733Y3151D01*
X760Y3151D02*
X785Y3151D01*
X809Y3151D02*
X833Y3151D01*
X460Y3150D02*
X483Y3150D01*
X510Y3150D02*
X533Y3150D01*
X560Y3150D02*
X583Y3150D01*
X610Y3150D02*
X633Y3150D01*
X660Y3150D02*
X683Y3150D01*
X710Y3150D02*
X733Y3150D01*
X760Y3150D02*
X783Y3150D01*
X810Y3150D02*
X833Y3150D01*
X460Y3149D02*
X482Y3149D01*
X511Y3149D02*
X533Y3149D01*
X560Y3149D02*
X582Y3149D01*
X611Y3149D02*
X633Y3149D01*
X660Y3149D02*
X682Y3149D01*
X711Y3149D02*
X733Y3149D01*
X760Y3149D02*
X782Y3149D01*
X811Y3149D02*
X833Y3149D01*
X460Y3148D02*
X481Y3148D01*
X513Y3148D02*
X533Y3148D01*
X560Y3148D02*
X581Y3148D01*
X613Y3148D02*
X633Y3148D01*
X660Y3148D02*
X681Y3148D01*
X713Y3148D02*
X733Y3148D01*
X760Y3148D02*
X781Y3148D01*
X813Y3148D02*
X833Y3148D01*
X460Y3147D02*
X480Y3147D01*
X514Y3147D02*
X533Y3147D01*
X560Y3147D02*
X580Y3147D01*
X614Y3147D02*
X633Y3147D01*
X660Y3147D02*
X680Y3147D01*
X714Y3147D02*
X733Y3147D01*
X760Y3147D02*
X780Y3147D01*
X814Y3147D02*
X833Y3147D01*
X460Y3146D02*
X479Y3146D01*
X514Y3146D02*
X533Y3146D01*
X560Y3146D02*
X579Y3146D01*
X614Y3146D02*
X633Y3146D01*
X660Y3146D02*
X679Y3146D01*
X714Y3146D02*
X733Y3146D01*
X760Y3146D02*
X779Y3146D01*
X814Y3146D02*
X833Y3146D01*
X460Y3145D02*
X478Y3145D01*
X515Y3145D02*
X533Y3145D01*
X560Y3145D02*
X578Y3145D01*
X615Y3145D02*
X633Y3145D01*
X660Y3145D02*
X678Y3145D01*
X715Y3145D02*
X733Y3145D01*
X760Y3145D02*
X778Y3145D01*
X815Y3145D02*
X833Y3145D01*
X460Y3144D02*
X478Y3144D01*
X516Y3144D02*
X533Y3144D01*
X560Y3144D02*
X578Y3144D01*
X616Y3144D02*
X633Y3144D01*
X660Y3144D02*
X678Y3144D01*
X716Y3144D02*
X733Y3144D01*
X760Y3144D02*
X778Y3144D01*
X816Y3144D02*
X833Y3144D01*
X460Y3143D02*
X477Y3143D01*
X516Y3143D02*
X533Y3143D01*
X560Y3143D02*
X577Y3143D01*
X616Y3143D02*
X633Y3143D01*
X660Y3143D02*
X677Y3143D01*
X716Y3143D02*
X733Y3143D01*
X760Y3143D02*
X777Y3143D01*
X816Y3143D02*
X833Y3143D01*
X460Y3142D02*
X477Y3142D01*
X517Y3142D02*
X533Y3142D01*
X560Y3142D02*
X577Y3142D01*
X617Y3142D02*
X633Y3142D01*
X660Y3142D02*
X677Y3142D01*
X717Y3142D02*
X733Y3142D01*
X760Y3142D02*
X777Y3142D01*
X817Y3142D02*
X833Y3142D01*
X460Y3141D02*
X476Y3141D01*
X517Y3141D02*
X533Y3141D01*
X560Y3141D02*
X576Y3141D01*
X617Y3141D02*
X633Y3141D01*
X660Y3141D02*
X676Y3141D01*
X717Y3141D02*
X733Y3141D01*
X760Y3141D02*
X776Y3141D01*
X817Y3141D02*
X833Y3141D01*
X460Y3140D02*
X476Y3140D01*
X518Y3140D02*
X533Y3140D01*
X560Y3140D02*
X576Y3140D01*
X618Y3140D02*
X633Y3140D01*
X660Y3140D02*
X676Y3140D01*
X718Y3140D02*
X733Y3140D01*
X760Y3140D02*
X776Y3140D01*
X818Y3140D02*
X833Y3140D01*
X460Y3139D02*
X475Y3139D01*
X518Y3139D02*
X533Y3139D01*
X560Y3139D02*
X575Y3139D01*
X618Y3139D02*
X633Y3139D01*
X660Y3139D02*
X675Y3139D01*
X718Y3139D02*
X733Y3139D01*
X760Y3139D02*
X775Y3139D01*
X818Y3139D02*
X833Y3139D01*
X460Y3138D02*
X475Y3138D01*
X518Y3138D02*
X533Y3138D01*
X560Y3138D02*
X575Y3138D01*
X618Y3138D02*
X633Y3138D01*
X660Y3138D02*
X675Y3138D01*
X718Y3138D02*
X733Y3138D01*
X760Y3138D02*
X775Y3138D01*
X818Y3138D02*
X833Y3138D01*
X460Y3137D02*
X475Y3137D01*
X519Y3137D02*
X533Y3137D01*
X560Y3137D02*
X575Y3137D01*
X619Y3137D02*
X633Y3137D01*
X660Y3137D02*
X675Y3137D01*
X719Y3137D02*
X733Y3137D01*
X760Y3137D02*
X775Y3137D01*
X819Y3137D02*
X833Y3137D01*
X460Y3136D02*
X475Y3136D01*
X519Y3136D02*
X533Y3136D01*
X560Y3136D02*
X575Y3136D01*
X619Y3136D02*
X633Y3136D01*
X660Y3136D02*
X675Y3136D01*
X719Y3136D02*
X733Y3136D01*
X760Y3136D02*
X775Y3136D01*
X819Y3136D02*
X833Y3136D01*
X460Y3135D02*
X475Y3135D01*
X519Y3135D02*
X533Y3135D01*
X560Y3135D02*
X574Y3135D01*
X619Y3135D02*
X633Y3135D01*
X660Y3135D02*
X674Y3135D01*
X719Y3135D02*
X733Y3135D01*
X760Y3135D02*
X774Y3135D01*
X819Y3135D02*
X833Y3135D01*
X460Y3134D02*
X474Y3134D01*
X519Y3134D02*
X533Y3134D01*
X560Y3134D02*
X574Y3134D01*
X619Y3134D02*
X633Y3134D01*
X660Y3134D02*
X674Y3134D01*
X719Y3134D02*
X733Y3134D01*
X760Y3134D02*
X774Y3134D01*
X819Y3134D02*
X833Y3134D01*
X460Y3133D02*
X474Y3133D01*
X519Y3133D02*
X533Y3133D01*
X560Y3133D02*
X574Y3133D01*
X619Y3133D02*
X633Y3133D01*
X660Y3133D02*
X674Y3133D01*
X719Y3133D02*
X733Y3133D01*
X760Y3133D02*
X774Y3133D01*
X819Y3133D02*
X833Y3133D01*
X460Y3132D02*
X474Y3132D01*
X519Y3132D02*
X533Y3132D01*
X560Y3132D02*
X574Y3132D01*
X619Y3132D02*
X633Y3132D01*
X660Y3132D02*
X674Y3132D01*
X719Y3132D02*
X733Y3132D01*
X760Y3132D02*
X774Y3132D01*
X819Y3132D02*
X833Y3132D01*
X460Y3131D02*
X474Y3131D01*
X519Y3131D02*
X533Y3131D01*
X560Y3131D02*
X574Y3131D01*
X619Y3131D02*
X633Y3131D01*
X660Y3131D02*
X674Y3131D01*
X719Y3131D02*
X733Y3131D01*
X760Y3131D02*
X774Y3131D01*
X819Y3131D02*
X833Y3131D01*
X460Y3130D02*
X474Y3130D01*
X519Y3130D02*
X533Y3130D01*
X560Y3130D02*
X574Y3130D01*
X619Y3130D02*
X633Y3130D01*
X660Y3130D02*
X674Y3130D01*
X719Y3130D02*
X733Y3130D01*
X760Y3130D02*
X774Y3130D01*
X819Y3130D02*
X833Y3130D01*
X460Y3129D02*
X475Y3129D01*
X519Y3129D02*
X533Y3129D01*
X560Y3129D02*
X575Y3129D01*
X619Y3129D02*
X633Y3129D01*
X660Y3129D02*
X675Y3129D01*
X719Y3129D02*
X733Y3129D01*
X760Y3129D02*
X775Y3129D01*
X819Y3129D02*
X833Y3129D01*
X461Y3128D02*
X475Y3128D01*
X519Y3128D02*
X533Y3128D01*
X561Y3128D02*
X575Y3128D01*
X619Y3128D02*
X633Y3128D01*
X661Y3128D02*
X675Y3128D01*
X719Y3128D02*
X733Y3128D01*
X761Y3128D02*
X775Y3128D01*
X819Y3128D02*
X833Y3128D01*
X461Y3127D02*
X475Y3127D01*
X519Y3127D02*
X533Y3127D01*
X561Y3127D02*
X575Y3127D01*
X619Y3127D02*
X633Y3127D01*
X661Y3127D02*
X675Y3127D01*
X719Y3127D02*
X733Y3127D01*
X761Y3127D02*
X775Y3127D01*
X819Y3127D02*
X833Y3127D01*
X461Y3126D02*
X475Y3126D01*
X518Y3126D02*
X533Y3126D01*
X561Y3126D02*
X575Y3126D01*
X618Y3126D02*
X633Y3126D01*
X661Y3126D02*
X675Y3126D01*
X718Y3126D02*
X733Y3126D01*
X761Y3126D02*
X775Y3126D01*
X818Y3126D02*
X833Y3126D01*
X461Y3125D02*
X476Y3125D01*
X518Y3125D02*
X533Y3125D01*
X561Y3125D02*
X576Y3125D01*
X618Y3125D02*
X633Y3125D01*
X661Y3125D02*
X676Y3125D01*
X718Y3125D02*
X733Y3125D01*
X761Y3125D02*
X776Y3125D01*
X818Y3125D02*
X833Y3125D01*
X461Y3124D02*
X476Y3124D01*
X518Y3124D02*
X532Y3124D01*
X561Y3124D02*
X576Y3124D01*
X618Y3124D02*
X632Y3124D01*
X661Y3124D02*
X676Y3124D01*
X718Y3124D02*
X732Y3124D01*
X761Y3124D02*
X776Y3124D01*
X818Y3124D02*
X832Y3124D01*
X462Y3123D02*
X476Y3123D01*
X517Y3123D02*
X532Y3123D01*
X562Y3123D02*
X576Y3123D01*
X617Y3123D02*
X632Y3123D01*
X662Y3123D02*
X676Y3123D01*
X717Y3123D02*
X732Y3123D01*
X761Y3123D02*
X776Y3123D01*
X817Y3123D02*
X832Y3123D01*
X462Y3122D02*
X477Y3122D01*
X517Y3122D02*
X532Y3122D01*
X562Y3122D02*
X577Y3122D01*
X617Y3122D02*
X632Y3122D01*
X662Y3122D02*
X677Y3122D01*
X717Y3122D02*
X732Y3122D01*
X762Y3122D02*
X777Y3122D01*
X817Y3122D02*
X832Y3122D01*
X462Y3121D02*
X478Y3121D01*
X516Y3121D02*
X532Y3121D01*
X562Y3121D02*
X578Y3121D01*
X616Y3121D02*
X632Y3121D01*
X662Y3121D02*
X677Y3121D01*
X716Y3121D02*
X732Y3121D01*
X762Y3121D02*
X777Y3121D01*
X816Y3121D02*
X831Y3121D01*
X462Y3120D02*
X478Y3120D01*
X516Y3120D02*
X531Y3120D01*
X562Y3120D02*
X578Y3120D01*
X616Y3120D02*
X631Y3120D01*
X662Y3120D02*
X678Y3120D01*
X716Y3120D02*
X731Y3120D01*
X762Y3120D02*
X778Y3120D01*
X815Y3120D02*
X831Y3120D01*
X463Y3119D02*
X479Y3119D01*
X515Y3119D02*
X531Y3119D01*
X563Y3119D02*
X579Y3119D01*
X615Y3119D02*
X631Y3119D01*
X663Y3119D02*
X679Y3119D01*
X715Y3119D02*
X731Y3119D01*
X763Y3119D02*
X779Y3119D01*
X815Y3119D02*
X831Y3119D01*
X463Y3118D02*
X480Y3118D01*
X514Y3118D02*
X530Y3118D01*
X563Y3118D02*
X580Y3118D01*
X614Y3118D02*
X630Y3118D01*
X663Y3118D02*
X680Y3118D01*
X714Y3118D02*
X730Y3118D01*
X763Y3118D02*
X780Y3118D01*
X814Y3118D02*
X830Y3118D01*
X464Y3117D02*
X481Y3117D01*
X513Y3117D02*
X530Y3117D01*
X564Y3117D02*
X581Y3117D01*
X613Y3117D02*
X630Y3117D01*
X664Y3117D02*
X681Y3117D01*
X713Y3117D02*
X730Y3117D01*
X764Y3117D02*
X780Y3117D01*
X813Y3117D02*
X830Y3117D01*
X464Y3116D02*
X482Y3116D01*
X512Y3116D02*
X530Y3116D01*
X564Y3116D02*
X582Y3116D01*
X612Y3116D02*
X629Y3116D01*
X664Y3116D02*
X682Y3116D01*
X712Y3116D02*
X729Y3116D01*
X764Y3116D02*
X782Y3116D01*
X812Y3116D02*
X829Y3116D01*
X465Y3115D02*
X483Y3115D01*
X511Y3115D02*
X529Y3115D01*
X565Y3115D02*
X583Y3115D01*
X611Y3115D02*
X629Y3115D01*
X665Y3115D02*
X683Y3115D01*
X711Y3115D02*
X729Y3115D01*
X765Y3115D02*
X783Y3115D01*
X811Y3115D02*
X829Y3115D01*
X465Y3114D02*
X484Y3114D01*
X510Y3114D02*
X528Y3114D01*
X565Y3114D02*
X584Y3114D01*
X609Y3114D02*
X628Y3114D01*
X665Y3114D02*
X684Y3114D01*
X709Y3114D02*
X728Y3114D01*
X765Y3114D02*
X784Y3114D01*
X809Y3114D02*
X828Y3114D01*
X466Y3113D02*
X486Y3113D01*
X508Y3113D02*
X528Y3113D01*
X566Y3113D02*
X586Y3113D01*
X608Y3113D02*
X628Y3113D01*
X666Y3113D02*
X686Y3113D01*
X708Y3113D02*
X728Y3113D01*
X766Y3113D02*
X786Y3113D01*
X808Y3113D02*
X828Y3113D01*
X466Y3112D02*
X488Y3112D01*
X506Y3112D02*
X527Y3112D01*
X566Y3112D02*
X588Y3112D01*
X606Y3112D02*
X627Y3112D01*
X666Y3112D02*
X688Y3112D01*
X706Y3112D02*
X727Y3112D01*
X766Y3112D02*
X788Y3112D01*
X806Y3112D02*
X827Y3112D01*
X467Y3111D02*
X491Y3111D01*
X503Y3111D02*
X527Y3111D01*
X567Y3111D02*
X591Y3111D01*
X603Y3111D02*
X627Y3111D01*
X667Y3111D02*
X691Y3111D01*
X703Y3111D02*
X727Y3111D01*
X767Y3111D02*
X791Y3111D01*
X803Y3111D02*
X827Y3111D01*
X468Y3110D02*
X526Y3110D01*
X568Y3110D02*
X626Y3110D01*
X668Y3110D02*
X726Y3110D01*
X768Y3110D02*
X826Y3110D01*
X469Y3109D02*
X525Y3109D01*
X569Y3109D02*
X625Y3109D01*
X669Y3109D02*
X725Y3109D01*
X769Y3109D02*
X825Y3109D01*
X469Y3108D02*
X524Y3108D01*
X569Y3108D02*
X624Y3108D01*
X669Y3108D02*
X724Y3108D01*
X769Y3108D02*
X824Y3108D01*
X470Y3107D02*
X523Y3107D01*
X570Y3107D02*
X623Y3107D01*
X670Y3107D02*
X723Y3107D01*
X770Y3107D02*
X823Y3107D01*
X471Y3106D02*
X522Y3106D01*
X571Y3106D02*
X622Y3106D01*
X671Y3106D02*
X722Y3106D01*
X771Y3106D02*
X822Y3106D01*
X472Y3105D02*
X521Y3105D01*
X572Y3105D02*
X621Y3105D01*
X672Y3105D02*
X721Y3105D01*
X772Y3105D02*
X821Y3105D01*
X473Y3104D02*
X520Y3104D01*
X573Y3104D02*
X620Y3104D01*
X673Y3104D02*
X720Y3104D01*
X773Y3104D02*
X820Y3104D01*
X475Y3103D02*
X519Y3103D01*
X575Y3103D02*
X619Y3103D01*
X675Y3103D02*
X719Y3103D01*
X775Y3103D02*
X819Y3103D01*
X476Y3102D02*
X518Y3102D01*
X576Y3102D02*
X618Y3102D01*
X676Y3102D02*
X718Y3102D01*
X776Y3102D02*
X817Y3102D01*
X478Y3101D02*
X516Y3101D01*
X578Y3101D02*
X616Y3101D01*
X678Y3101D02*
X716Y3101D01*
X778Y3101D02*
X816Y3101D01*
X479Y3100D02*
X514Y3100D01*
X579Y3100D02*
X614Y3100D01*
X679Y3100D02*
X714Y3100D01*
X779Y3100D02*
X814Y3100D01*
X481Y3099D02*
X512Y3099D01*
X581Y3099D02*
X612Y3099D01*
X681Y3099D02*
X712Y3099D01*
X781Y3099D02*
X812Y3099D01*
X483Y3098D02*
X510Y3098D01*
X583Y3098D02*
X610Y3098D01*
X683Y3098D02*
X710Y3098D01*
X783Y3098D02*
X810Y3098D01*
X486Y3097D02*
X507Y3097D01*
X586Y3097D02*
X607Y3097D01*
X686Y3097D02*
X707Y3097D01*
X786Y3097D02*
X807Y3097D01*
X490Y3096D02*
X504Y3096D01*
X590Y3096D02*
X604Y3096D01*
X690Y3096D02*
X704Y3096D01*
X790Y3096D02*
X804Y3096D01*
X492Y2266D02*
X501Y2266D01*
X1192Y2266D02*
X1201Y2266D01*
X488Y2265D02*
X506Y2265D01*
X1188Y2265D02*
X1205Y2265D01*
X485Y2264D02*
X509Y2264D01*
X1185Y2264D02*
X1208Y2264D01*
X482Y2263D02*
X511Y2263D01*
X1182Y2263D02*
X1211Y2263D01*
X480Y2262D02*
X513Y2262D01*
X1180Y2262D02*
X1213Y2262D01*
X479Y2261D02*
X515Y2261D01*
X1178Y2261D02*
X1214Y2261D01*
X477Y2260D02*
X516Y2260D01*
X1177Y2260D02*
X1216Y2260D01*
X476Y2259D02*
X518Y2259D01*
X1176Y2259D02*
X1217Y2259D01*
X475Y2258D02*
X519Y2258D01*
X1174Y2258D02*
X1219Y2258D01*
X473Y2257D02*
X520Y2257D01*
X1173Y2257D02*
X1220Y2257D01*
X472Y2256D02*
X521Y2256D01*
X1172Y2256D02*
X1221Y2256D01*
X472Y2255D02*
X522Y2255D01*
X1171Y2255D02*
X1222Y2255D01*
X471Y2254D02*
X523Y2254D01*
X1171Y2254D02*
X1222Y2254D01*
X470Y2253D02*
X523Y2253D01*
X1170Y2253D02*
X1223Y2253D01*
X469Y2252D02*
X524Y2252D01*
X1169Y2252D02*
X1224Y2252D01*
X469Y2251D02*
X525Y2251D01*
X1169Y2251D02*
X1225Y2251D01*
X468Y2250D02*
X492Y2250D01*
X501Y2250D02*
X525Y2250D01*
X1168Y2250D02*
X1192Y2250D01*
X1201Y2250D02*
X1225Y2250D01*
X468Y2249D02*
X489Y2249D01*
X505Y2249D02*
X526Y2249D01*
X1167Y2249D02*
X1188Y2249D01*
X1205Y2249D02*
X1226Y2249D01*
X467Y2248D02*
X487Y2248D01*
X507Y2248D02*
X526Y2248D01*
X1167Y2248D02*
X1187Y2248D01*
X1206Y2248D02*
X1226Y2248D01*
X467Y2247D02*
X485Y2247D01*
X508Y2247D02*
X527Y2247D01*
X1166Y2247D02*
X1185Y2247D01*
X1208Y2247D02*
X1227Y2247D01*
X466Y2246D02*
X484Y2246D01*
X509Y2246D02*
X527Y2246D01*
X1166Y2246D02*
X1184Y2246D01*
X1209Y2246D02*
X1227Y2246D01*
X466Y2245D02*
X483Y2245D01*
X510Y2245D02*
X528Y2245D01*
X1166Y2245D02*
X1183Y2245D01*
X1210Y2245D02*
X1228Y2245D01*
X465Y2244D02*
X482Y2244D01*
X511Y2244D02*
X528Y2244D01*
X1165Y2244D02*
X1182Y2244D01*
X1211Y2244D02*
X1228Y2244D01*
X465Y2243D02*
X481Y2243D01*
X512Y2243D02*
X529Y2243D01*
X1165Y2243D02*
X1181Y2243D01*
X1212Y2243D02*
X1228Y2243D01*
X465Y2242D02*
X481Y2242D01*
X513Y2242D02*
X529Y2242D01*
X1165Y2242D02*
X1181Y2242D01*
X1213Y2242D02*
X1229Y2242D01*
X464Y2241D02*
X480Y2241D01*
X513Y2241D02*
X529Y2241D01*
X1164Y2241D02*
X1180Y2241D01*
X1213Y2241D02*
X1229Y2241D01*
X464Y2240D02*
X480Y2240D01*
X514Y2240D02*
X529Y2240D01*
X1164Y2240D02*
X1180Y2240D01*
X1214Y2240D02*
X1229Y2240D01*
X464Y2239D02*
X479Y2239D01*
X514Y2239D02*
X530Y2239D01*
X1164Y2239D02*
X1179Y2239D01*
X1214Y2239D02*
X1229Y2239D01*
X464Y2238D02*
X479Y2238D01*
X515Y2238D02*
X530Y2238D01*
X1164Y2238D02*
X1179Y2238D01*
X1214Y2238D02*
X1230Y2238D01*
X464Y2237D02*
X479Y2237D01*
X515Y2237D02*
X530Y2237D01*
X1164Y2237D02*
X1179Y2237D01*
X1215Y2237D02*
X1230Y2237D01*
X464Y2236D02*
X479Y2236D01*
X515Y2236D02*
X530Y2236D01*
X1163Y2236D02*
X1178Y2236D01*
X1215Y2236D02*
X1230Y2236D01*
X463Y2235D02*
X479Y2235D01*
X515Y2235D02*
X530Y2235D01*
X1163Y2235D02*
X1178Y2235D01*
X1215Y2235D02*
X1230Y2235D01*
X463Y2234D02*
X478Y2234D01*
X515Y2234D02*
X530Y2234D01*
X1163Y2234D02*
X1178Y2234D01*
X1215Y2234D02*
X1230Y2234D01*
X463Y2233D02*
X478Y2233D01*
X515Y2233D02*
X530Y2233D01*
X1163Y2233D02*
X1178Y2233D01*
X1215Y2233D02*
X1230Y2233D01*
X463Y2232D02*
X478Y2232D01*
X515Y2232D02*
X530Y2232D01*
X1163Y2232D02*
X1178Y2232D01*
X1215Y2232D02*
X1230Y2232D01*
X463Y2231D02*
X478Y2231D01*
X515Y2231D02*
X530Y2231D01*
X1163Y2231D02*
X1178Y2231D01*
X1215Y2231D02*
X1230Y2231D01*
X463Y2230D02*
X479Y2230D01*
X515Y2230D02*
X530Y2230D01*
X1163Y2230D02*
X1178Y2230D01*
X1215Y2230D02*
X1230Y2230D01*
X464Y2229D02*
X479Y2229D01*
X515Y2229D02*
X530Y2229D01*
X1163Y2229D02*
X1178Y2229D01*
X1215Y2229D02*
X1230Y2229D01*
X464Y2228D02*
X479Y2228D01*
X515Y2228D02*
X530Y2228D01*
X1164Y2228D02*
X1179Y2228D01*
X1215Y2228D02*
X1230Y2228D01*
X464Y2227D02*
X479Y2227D01*
X514Y2227D02*
X530Y2227D01*
X1164Y2227D02*
X1179Y2227D01*
X1214Y2227D02*
X1230Y2227D01*
X464Y2226D02*
X479Y2226D01*
X514Y2226D02*
X530Y2226D01*
X1164Y2226D02*
X1179Y2226D01*
X1214Y2226D02*
X1229Y2226D01*
X464Y2225D02*
X480Y2225D01*
X514Y2225D02*
X529Y2225D01*
X1164Y2225D02*
X1180Y2225D01*
X1214Y2225D02*
X1229Y2225D01*
X465Y2224D02*
X480Y2224D01*
X513Y2224D02*
X529Y2224D01*
X1164Y2224D02*
X1180Y2224D01*
X1213Y2224D02*
X1229Y2224D01*
X465Y2223D02*
X481Y2223D01*
X513Y2223D02*
X529Y2223D01*
X1165Y2223D02*
X1181Y2223D01*
X1212Y2223D02*
X1229Y2223D01*
X465Y2222D02*
X482Y2222D01*
X512Y2222D02*
X528Y2222D01*
X1165Y2222D02*
X1181Y2222D01*
X1212Y2222D02*
X1228Y2222D01*
X465Y2221D02*
X482Y2221D01*
X511Y2221D02*
X528Y2221D01*
X1165Y2221D02*
X1182Y2221D01*
X1211Y2221D02*
X1228Y2221D01*
X466Y2220D02*
X483Y2220D01*
X510Y2220D02*
X528Y2220D01*
X1166Y2220D02*
X1183Y2220D01*
X1210Y2220D02*
X1228Y2220D01*
X466Y2219D02*
X484Y2219D01*
X509Y2219D02*
X527Y2219D01*
X1166Y2219D02*
X1184Y2219D01*
X1209Y2219D02*
X1227Y2219D01*
X467Y2218D02*
X485Y2218D01*
X508Y2218D02*
X527Y2218D01*
X1167Y2218D02*
X1185Y2218D01*
X1208Y2218D02*
X1227Y2218D01*
X467Y2217D02*
X487Y2217D01*
X506Y2217D02*
X526Y2217D01*
X1167Y2217D02*
X1187Y2217D01*
X1206Y2217D02*
X1226Y2217D01*
X468Y2216D02*
X489Y2216D01*
X505Y2216D02*
X526Y2216D01*
X1168Y2216D02*
X1188Y2216D01*
X1205Y2216D02*
X1226Y2216D01*
X468Y2215D02*
X491Y2215D01*
X502Y2215D02*
X525Y2215D01*
X1168Y2215D02*
X1191Y2215D01*
X1202Y2215D02*
X1225Y2215D01*
X469Y2214D02*
X525Y2214D01*
X1169Y2214D02*
X1224Y2214D01*
X469Y2213D02*
X524Y2213D01*
X1169Y2213D02*
X1224Y2213D01*
X470Y2212D02*
X523Y2212D01*
X1170Y2212D02*
X1223Y2212D01*
X471Y2211D02*
X522Y2211D01*
X1171Y2211D02*
X1222Y2211D01*
X472Y2210D02*
X522Y2210D01*
X1172Y2210D02*
X1221Y2210D01*
X473Y2209D02*
X521Y2209D01*
X1172Y2209D02*
X1221Y2209D01*
X474Y2208D02*
X520Y2208D01*
X1173Y2208D02*
X1220Y2208D01*
X475Y2207D02*
X519Y2207D01*
X1175Y2207D02*
X1218Y2207D01*
X476Y2206D02*
X517Y2206D01*
X1176Y2206D02*
X1217Y2206D01*
X477Y2205D02*
X516Y2205D01*
X1177Y2205D02*
X1216Y2205D01*
X479Y2204D02*
X514Y2204D01*
X1179Y2204D02*
X1214Y2204D01*
X480Y2203D02*
X513Y2203D01*
X1180Y2203D02*
X1213Y2203D01*
X482Y2202D02*
X511Y2202D01*
X1182Y2202D02*
X1211Y2202D01*
X485Y2201D02*
X509Y2201D01*
X1185Y2201D02*
X1208Y2201D01*
X487Y2200D02*
X506Y2200D01*
X1187Y2200D02*
X1206Y2200D01*
X492Y2199D02*
X502Y2199D01*
X1191Y2199D02*
X1202Y2199D01*
X492Y2166D02*
X501Y2166D01*
X1192Y2166D02*
X1201Y2166D01*
X488Y2165D02*
X506Y2165D01*
X1188Y2165D02*
X1206Y2165D01*
X485Y2164D02*
X509Y2164D01*
X1185Y2164D02*
X1208Y2164D01*
X482Y2163D02*
X511Y2163D01*
X1182Y2163D02*
X1211Y2163D01*
X480Y2162D02*
X513Y2162D01*
X1180Y2162D02*
X1213Y2162D01*
X479Y2161D02*
X515Y2161D01*
X1178Y2161D02*
X1215Y2161D01*
X477Y2160D02*
X516Y2160D01*
X1177Y2160D02*
X1216Y2160D01*
X476Y2159D02*
X518Y2159D01*
X1176Y2159D02*
X1217Y2159D01*
X474Y2158D02*
X519Y2158D01*
X1174Y2158D02*
X1219Y2158D01*
X473Y2157D02*
X520Y2157D01*
X1173Y2157D02*
X1220Y2157D01*
X472Y2156D02*
X521Y2156D01*
X1172Y2156D02*
X1221Y2156D01*
X472Y2155D02*
X522Y2155D01*
X1171Y2155D02*
X1222Y2155D01*
X471Y2154D02*
X523Y2154D01*
X1171Y2154D02*
X1223Y2154D01*
X470Y2153D02*
X523Y2153D01*
X1170Y2153D02*
X1223Y2153D01*
X469Y2152D02*
X524Y2152D01*
X1169Y2152D02*
X1224Y2152D01*
X469Y2151D02*
X525Y2151D01*
X1169Y2151D02*
X1225Y2151D01*
X468Y2150D02*
X492Y2150D01*
X501Y2150D02*
X525Y2150D01*
X1168Y2150D02*
X1192Y2150D01*
X1201Y2150D02*
X1225Y2150D01*
X468Y2149D02*
X489Y2149D01*
X505Y2149D02*
X526Y2149D01*
X1167Y2149D02*
X1188Y2149D01*
X1205Y2149D02*
X1226Y2149D01*
X467Y2148D02*
X487Y2148D01*
X507Y2148D02*
X526Y2148D01*
X1167Y2148D02*
X1187Y2148D01*
X1206Y2148D02*
X1226Y2148D01*
X467Y2147D02*
X485Y2147D01*
X508Y2147D02*
X527Y2147D01*
X1166Y2147D02*
X1185Y2147D01*
X1208Y2147D02*
X1227Y2147D01*
X466Y2146D02*
X484Y2146D01*
X509Y2146D02*
X527Y2146D01*
X1166Y2146D02*
X1184Y2146D01*
X1209Y2146D02*
X1227Y2146D01*
X466Y2145D02*
X483Y2145D01*
X510Y2145D02*
X528Y2145D01*
X1166Y2145D02*
X1183Y2145D01*
X1210Y2145D02*
X1228Y2145D01*
X465Y2144D02*
X482Y2144D01*
X511Y2144D02*
X528Y2144D01*
X1165Y2144D02*
X1182Y2144D01*
X1211Y2144D02*
X1228Y2144D01*
X465Y2143D02*
X481Y2143D01*
X512Y2143D02*
X529Y2143D01*
X1165Y2143D02*
X1181Y2143D01*
X1212Y2143D02*
X1228Y2143D01*
X465Y2142D02*
X481Y2142D01*
X513Y2142D02*
X529Y2142D01*
X1165Y2142D02*
X1181Y2142D01*
X1213Y2142D02*
X1229Y2142D01*
X464Y2141D02*
X480Y2141D01*
X513Y2141D02*
X529Y2141D01*
X1164Y2141D02*
X1180Y2141D01*
X1213Y2141D02*
X1229Y2141D01*
X464Y2140D02*
X480Y2140D01*
X514Y2140D02*
X529Y2140D01*
X1164Y2140D02*
X1180Y2140D01*
X1214Y2140D02*
X1229Y2140D01*
X464Y2139D02*
X479Y2139D01*
X514Y2139D02*
X530Y2139D01*
X1164Y2139D02*
X1179Y2139D01*
X1214Y2139D02*
X1229Y2139D01*
X464Y2138D02*
X479Y2138D01*
X515Y2138D02*
X530Y2138D01*
X1164Y2138D02*
X1179Y2138D01*
X1214Y2138D02*
X1230Y2138D01*
X464Y2137D02*
X479Y2137D01*
X515Y2137D02*
X530Y2137D01*
X1164Y2137D02*
X1179Y2137D01*
X1215Y2137D02*
X1230Y2137D01*
X464Y2136D02*
X479Y2136D01*
X515Y2136D02*
X530Y2136D01*
X1163Y2136D02*
X1178Y2136D01*
X1215Y2136D02*
X1230Y2136D01*
X463Y2135D02*
X479Y2135D01*
X515Y2135D02*
X530Y2135D01*
X1163Y2135D02*
X1178Y2135D01*
X1215Y2135D02*
X1230Y2135D01*
X463Y2134D02*
X478Y2134D01*
X515Y2134D02*
X530Y2134D01*
X1163Y2134D02*
X1178Y2134D01*
X1215Y2134D02*
X1230Y2134D01*
X463Y2133D02*
X478Y2133D01*
X515Y2133D02*
X530Y2133D01*
X1163Y2133D02*
X1178Y2133D01*
X1215Y2133D02*
X1230Y2133D01*
X463Y2132D02*
X478Y2132D01*
X515Y2132D02*
X530Y2132D01*
X1163Y2132D02*
X1178Y2132D01*
X1215Y2132D02*
X1230Y2132D01*
X463Y2131D02*
X478Y2131D01*
X515Y2131D02*
X530Y2131D01*
X1163Y2131D02*
X1178Y2131D01*
X1215Y2131D02*
X1230Y2131D01*
X463Y2130D02*
X479Y2130D01*
X515Y2130D02*
X530Y2130D01*
X1163Y2130D02*
X1178Y2130D01*
X1215Y2130D02*
X1230Y2130D01*
X464Y2129D02*
X479Y2129D01*
X515Y2129D02*
X530Y2129D01*
X1163Y2129D02*
X1178Y2129D01*
X1215Y2129D02*
X1230Y2129D01*
X464Y2128D02*
X479Y2128D01*
X515Y2128D02*
X530Y2128D01*
X1164Y2128D02*
X1179Y2128D01*
X1215Y2128D02*
X1230Y2128D01*
X464Y2127D02*
X479Y2127D01*
X514Y2127D02*
X530Y2127D01*
X1164Y2127D02*
X1179Y2127D01*
X1214Y2127D02*
X1230Y2127D01*
X464Y2126D02*
X479Y2126D01*
X514Y2126D02*
X530Y2126D01*
X1164Y2126D02*
X1179Y2126D01*
X1214Y2126D02*
X1229Y2126D01*
X464Y2125D02*
X480Y2125D01*
X514Y2125D02*
X529Y2125D01*
X1164Y2125D02*
X1180Y2125D01*
X1214Y2125D02*
X1229Y2125D01*
X465Y2124D02*
X480Y2124D01*
X513Y2124D02*
X529Y2124D01*
X1164Y2124D02*
X1180Y2124D01*
X1213Y2124D02*
X1229Y2124D01*
X465Y2123D02*
X481Y2123D01*
X513Y2123D02*
X529Y2123D01*
X1165Y2123D02*
X1181Y2123D01*
X1212Y2123D02*
X1229Y2123D01*
X465Y2122D02*
X482Y2122D01*
X512Y2122D02*
X528Y2122D01*
X1165Y2122D02*
X1181Y2122D01*
X1212Y2122D02*
X1228Y2122D01*
X465Y2121D02*
X482Y2121D01*
X511Y2121D02*
X528Y2121D01*
X1165Y2121D02*
X1182Y2121D01*
X1211Y2121D02*
X1228Y2121D01*
X466Y2120D02*
X483Y2120D01*
X510Y2120D02*
X528Y2120D01*
X1166Y2120D02*
X1183Y2120D01*
X1210Y2120D02*
X1228Y2120D01*
X466Y2119D02*
X484Y2119D01*
X509Y2119D02*
X527Y2119D01*
X1166Y2119D02*
X1184Y2119D01*
X1209Y2119D02*
X1227Y2119D01*
X467Y2118D02*
X485Y2118D01*
X508Y2118D02*
X527Y2118D01*
X1167Y2118D02*
X1185Y2118D01*
X1208Y2118D02*
X1227Y2118D01*
X467Y2117D02*
X487Y2117D01*
X506Y2117D02*
X526Y2117D01*
X1167Y2117D02*
X1187Y2117D01*
X1206Y2117D02*
X1226Y2117D01*
X468Y2116D02*
X489Y2116D01*
X505Y2116D02*
X526Y2116D01*
X1168Y2116D02*
X1188Y2116D01*
X1205Y2116D02*
X1226Y2116D01*
X468Y2115D02*
X492Y2115D01*
X502Y2115D02*
X525Y2115D01*
X1168Y2115D02*
X1191Y2115D01*
X1202Y2115D02*
X1225Y2115D01*
X469Y2114D02*
X525Y2114D01*
X1169Y2114D02*
X1224Y2114D01*
X469Y2113D02*
X524Y2113D01*
X1169Y2113D02*
X1224Y2113D01*
X470Y2112D02*
X523Y2112D01*
X1170Y2112D02*
X1223Y2112D01*
X471Y2111D02*
X522Y2111D01*
X1171Y2111D02*
X1222Y2111D01*
X472Y2110D02*
X522Y2110D01*
X1172Y2110D02*
X1221Y2110D01*
X473Y2109D02*
X521Y2109D01*
X1173Y2109D02*
X1221Y2109D01*
X474Y2108D02*
X520Y2108D01*
X1174Y2108D02*
X1220Y2108D01*
X475Y2107D02*
X519Y2107D01*
X1175Y2107D02*
X1218Y2107D01*
X476Y2106D02*
X517Y2106D01*
X1176Y2106D02*
X1217Y2106D01*
X477Y2105D02*
X516Y2105D01*
X1177Y2105D02*
X1216Y2105D01*
X479Y2104D02*
X514Y2104D01*
X1179Y2104D02*
X1214Y2104D01*
X480Y2103D02*
X513Y2103D01*
X1180Y2103D02*
X1213Y2103D01*
X482Y2102D02*
X511Y2102D01*
X1182Y2102D02*
X1211Y2102D01*
X485Y2101D02*
X509Y2101D01*
X1185Y2101D02*
X1208Y2101D01*
X487Y2100D02*
X506Y2100D01*
X1187Y2100D02*
X1206Y2100D01*
X492Y2099D02*
X502Y2099D01*
X1192Y2099D02*
X1202Y2099D01*
X492Y2066D02*
X501Y2066D01*
X1192Y2066D02*
X1201Y2066D01*
X488Y2065D02*
X506Y2065D01*
X1188Y2065D02*
X1206Y2065D01*
X485Y2064D02*
X509Y2064D01*
X1185Y2064D02*
X1208Y2064D01*
X482Y2063D02*
X511Y2063D01*
X1182Y2063D02*
X1211Y2063D01*
X480Y2062D02*
X513Y2062D01*
X1180Y2062D02*
X1213Y2062D01*
X479Y2061D02*
X515Y2061D01*
X1178Y2061D02*
X1215Y2061D01*
X477Y2060D02*
X516Y2060D01*
X1177Y2060D02*
X1216Y2060D01*
X476Y2059D02*
X518Y2059D01*
X1176Y2059D02*
X1217Y2059D01*
X474Y2058D02*
X519Y2058D01*
X1174Y2058D02*
X1219Y2058D01*
X473Y2057D02*
X520Y2057D01*
X1173Y2057D02*
X1220Y2057D01*
X472Y2056D02*
X521Y2056D01*
X1172Y2056D02*
X1221Y2056D01*
X472Y2055D02*
X522Y2055D01*
X1171Y2055D02*
X1222Y2055D01*
X471Y2054D02*
X523Y2054D01*
X1171Y2054D02*
X1223Y2054D01*
X470Y2053D02*
X523Y2053D01*
X1170Y2053D02*
X1223Y2053D01*
X469Y2052D02*
X524Y2052D01*
X1169Y2052D02*
X1224Y2052D01*
X469Y2051D02*
X525Y2051D01*
X1169Y2051D02*
X1225Y2051D01*
X468Y2050D02*
X492Y2050D01*
X502Y2050D02*
X525Y2050D01*
X1168Y2050D02*
X1192Y2050D01*
X1201Y2050D02*
X1225Y2050D01*
X467Y2049D02*
X488Y2049D01*
X505Y2049D02*
X526Y2049D01*
X1167Y2049D02*
X1188Y2049D01*
X1205Y2049D02*
X1226Y2049D01*
X467Y2048D02*
X487Y2048D01*
X507Y2048D02*
X526Y2048D01*
X1167Y2048D02*
X1187Y2048D01*
X1206Y2048D02*
X1226Y2048D01*
X467Y2047D02*
X485Y2047D01*
X508Y2047D02*
X527Y2047D01*
X1166Y2047D02*
X1185Y2047D01*
X1208Y2047D02*
X1227Y2047D01*
X466Y2046D02*
X484Y2046D01*
X509Y2046D02*
X527Y2046D01*
X1166Y2046D02*
X1184Y2046D01*
X1209Y2046D02*
X1227Y2046D01*
X466Y2045D02*
X483Y2045D01*
X510Y2045D02*
X528Y2045D01*
X1166Y2045D02*
X1183Y2045D01*
X1210Y2045D02*
X1228Y2045D01*
X465Y2044D02*
X482Y2044D01*
X511Y2044D02*
X528Y2044D01*
X1165Y2044D02*
X1182Y2044D01*
X1211Y2044D02*
X1228Y2044D01*
X465Y2043D02*
X481Y2043D01*
X512Y2043D02*
X529Y2043D01*
X1165Y2043D02*
X1181Y2043D01*
X1212Y2043D02*
X1228Y2043D01*
X465Y2042D02*
X481Y2042D01*
X513Y2042D02*
X529Y2042D01*
X1165Y2042D02*
X1181Y2042D01*
X1213Y2042D02*
X1229Y2042D01*
X464Y2041D02*
X480Y2041D01*
X513Y2041D02*
X529Y2041D01*
X1164Y2041D02*
X1180Y2041D01*
X1213Y2041D02*
X1229Y2041D01*
X464Y2040D02*
X480Y2040D01*
X514Y2040D02*
X529Y2040D01*
X1164Y2040D02*
X1180Y2040D01*
X1214Y2040D02*
X1229Y2040D01*
X464Y2039D02*
X479Y2039D01*
X514Y2039D02*
X530Y2039D01*
X1164Y2039D02*
X1179Y2039D01*
X1214Y2039D02*
X1229Y2039D01*
X464Y2038D02*
X479Y2038D01*
X515Y2038D02*
X530Y2038D01*
X1164Y2038D02*
X1179Y2038D01*
X1214Y2038D02*
X1230Y2038D01*
X464Y2037D02*
X479Y2037D01*
X515Y2037D02*
X530Y2037D01*
X1164Y2037D02*
X1179Y2037D01*
X1215Y2037D02*
X1230Y2037D01*
X464Y2036D02*
X479Y2036D01*
X515Y2036D02*
X530Y2036D01*
X1163Y2036D02*
X1178Y2036D01*
X1215Y2036D02*
X1230Y2036D01*
X463Y2035D02*
X479Y2035D01*
X515Y2035D02*
X530Y2035D01*
X1163Y2035D02*
X1178Y2035D01*
X1215Y2035D02*
X1230Y2035D01*
X463Y2034D02*
X478Y2034D01*
X515Y2034D02*
X530Y2034D01*
X1163Y2034D02*
X1178Y2034D01*
X1215Y2034D02*
X1230Y2034D01*
X463Y2033D02*
X478Y2033D01*
X515Y2033D02*
X530Y2033D01*
X1163Y2033D02*
X1178Y2033D01*
X1215Y2033D02*
X1230Y2033D01*
X463Y2032D02*
X478Y2032D01*
X515Y2032D02*
X530Y2032D01*
X1163Y2032D02*
X1178Y2032D01*
X1215Y2032D02*
X1230Y2032D01*
X463Y2031D02*
X478Y2031D01*
X515Y2031D02*
X530Y2031D01*
X1163Y2031D02*
X1178Y2031D01*
X1215Y2031D02*
X1230Y2031D01*
X463Y2030D02*
X479Y2030D01*
X515Y2030D02*
X530Y2030D01*
X1163Y2030D02*
X1178Y2030D01*
X1215Y2030D02*
X1230Y2030D01*
X464Y2029D02*
X479Y2029D01*
X515Y2029D02*
X530Y2029D01*
X1163Y2029D02*
X1178Y2029D01*
X1215Y2029D02*
X1230Y2029D01*
X464Y2028D02*
X479Y2028D01*
X515Y2028D02*
X530Y2028D01*
X1164Y2028D02*
X1179Y2028D01*
X1215Y2028D02*
X1230Y2028D01*
X464Y2027D02*
X479Y2027D01*
X514Y2027D02*
X530Y2027D01*
X1164Y2027D02*
X1179Y2027D01*
X1214Y2027D02*
X1230Y2027D01*
X464Y2026D02*
X479Y2026D01*
X514Y2026D02*
X530Y2026D01*
X1164Y2026D02*
X1179Y2026D01*
X1214Y2026D02*
X1229Y2026D01*
X464Y2025D02*
X480Y2025D01*
X514Y2025D02*
X529Y2025D01*
X1164Y2025D02*
X1180Y2025D01*
X1214Y2025D02*
X1229Y2025D01*
X465Y2024D02*
X480Y2024D01*
X513Y2024D02*
X529Y2024D01*
X1164Y2024D02*
X1180Y2024D01*
X1213Y2024D02*
X1229Y2024D01*
X465Y2023D02*
X481Y2023D01*
X513Y2023D02*
X529Y2023D01*
X1165Y2023D02*
X1181Y2023D01*
X1212Y2023D02*
X1229Y2023D01*
X465Y2022D02*
X482Y2022D01*
X512Y2022D02*
X528Y2022D01*
X1165Y2022D02*
X1181Y2022D01*
X1212Y2022D02*
X1228Y2022D01*
X465Y2021D02*
X482Y2021D01*
X511Y2021D02*
X528Y2021D01*
X1165Y2021D02*
X1182Y2021D01*
X1211Y2021D02*
X1228Y2021D01*
X466Y2020D02*
X483Y2020D01*
X510Y2020D02*
X528Y2020D01*
X1166Y2020D02*
X1183Y2020D01*
X1210Y2020D02*
X1228Y2020D01*
X466Y2019D02*
X484Y2019D01*
X509Y2019D02*
X527Y2019D01*
X1166Y2019D02*
X1184Y2019D01*
X1209Y2019D02*
X1227Y2019D01*
X467Y2018D02*
X485Y2018D01*
X508Y2018D02*
X527Y2018D01*
X1167Y2018D02*
X1185Y2018D01*
X1208Y2018D02*
X1227Y2018D01*
X467Y2017D02*
X487Y2017D01*
X506Y2017D02*
X526Y2017D01*
X1167Y2017D02*
X1187Y2017D01*
X1206Y2017D02*
X1226Y2017D01*
X468Y2016D02*
X489Y2016D01*
X505Y2016D02*
X526Y2016D01*
X1168Y2016D02*
X1188Y2016D01*
X1204Y2016D02*
X1226Y2016D01*
X468Y2015D02*
X492Y2015D01*
X502Y2015D02*
X525Y2015D01*
X1168Y2015D02*
X1191Y2015D01*
X1202Y2015D02*
X1225Y2015D01*
X469Y2014D02*
X525Y2014D01*
X1169Y2014D02*
X1224Y2014D01*
X469Y2013D02*
X524Y2013D01*
X1169Y2013D02*
X1224Y2013D01*
X470Y2012D02*
X523Y2012D01*
X1170Y2012D02*
X1223Y2012D01*
X471Y2011D02*
X522Y2011D01*
X1171Y2011D02*
X1222Y2011D01*
X472Y2010D02*
X522Y2010D01*
X1172Y2010D02*
X1221Y2010D01*
X473Y2009D02*
X521Y2009D01*
X1173Y2009D02*
X1221Y2009D01*
X474Y2008D02*
X520Y2008D01*
X1174Y2008D02*
X1220Y2008D01*
X475Y2007D02*
X519Y2007D01*
X1175Y2007D02*
X1218Y2007D01*
X476Y2006D02*
X517Y2006D01*
X1176Y2006D02*
X1217Y2006D01*
X477Y2005D02*
X516Y2005D01*
X1177Y2005D02*
X1216Y2005D01*
X479Y2004D02*
X514Y2004D01*
X1179Y2004D02*
X1214Y2004D01*
X480Y2003D02*
X513Y2003D01*
X1180Y2003D02*
X1213Y2003D01*
X482Y2002D02*
X511Y2002D01*
X1182Y2002D02*
X1211Y2002D01*
X485Y2001D02*
X508Y2001D01*
X1185Y2001D02*
X1208Y2001D01*
X488Y2000D02*
X506Y2000D01*
X1187Y2000D02*
X1206Y2000D01*
X492Y1999D02*
X502Y1999D01*
X1192Y1999D02*
X1202Y1999D01*
X492Y1966D02*
X501Y1966D01*
X1192Y1966D02*
X1201Y1966D01*
X488Y1965D02*
X506Y1965D01*
X1187Y1965D02*
X1206Y1965D01*
X485Y1964D02*
X509Y1964D01*
X1184Y1964D02*
X1209Y1964D01*
X482Y1963D02*
X511Y1963D01*
X1182Y1963D02*
X1211Y1963D01*
X480Y1962D02*
X513Y1962D01*
X1180Y1962D02*
X1213Y1962D01*
X479Y1961D02*
X515Y1961D01*
X1178Y1961D02*
X1215Y1961D01*
X477Y1960D02*
X516Y1960D01*
X1177Y1960D02*
X1216Y1960D01*
X476Y1959D02*
X518Y1959D01*
X1176Y1959D02*
X1217Y1959D01*
X474Y1958D02*
X519Y1958D01*
X1174Y1958D02*
X1219Y1958D01*
X473Y1957D02*
X520Y1957D01*
X1173Y1957D02*
X1220Y1957D01*
X472Y1956D02*
X521Y1956D01*
X1172Y1956D02*
X1221Y1956D01*
X471Y1955D02*
X522Y1955D01*
X1171Y1955D02*
X1222Y1955D01*
X471Y1954D02*
X523Y1954D01*
X1171Y1954D02*
X1223Y1954D01*
X470Y1953D02*
X523Y1953D01*
X1170Y1953D02*
X1223Y1953D01*
X469Y1952D02*
X524Y1952D01*
X1169Y1952D02*
X1224Y1952D01*
X469Y1951D02*
X525Y1951D01*
X1169Y1951D02*
X1225Y1951D01*
X468Y1950D02*
X492Y1950D01*
X502Y1950D02*
X525Y1950D01*
X1168Y1950D02*
X1192Y1950D01*
X1202Y1950D02*
X1225Y1950D01*
X467Y1949D02*
X488Y1949D01*
X505Y1949D02*
X526Y1949D01*
X1167Y1949D02*
X1188Y1949D01*
X1205Y1949D02*
X1226Y1949D01*
X467Y1948D02*
X487Y1948D01*
X507Y1948D02*
X526Y1948D01*
X1167Y1948D02*
X1186Y1948D01*
X1206Y1948D02*
X1226Y1948D01*
X467Y1947D02*
X485Y1947D01*
X508Y1947D02*
X527Y1947D01*
X1166Y1947D02*
X1185Y1947D01*
X1208Y1947D02*
X1227Y1947D01*
X466Y1946D02*
X484Y1946D01*
X509Y1946D02*
X527Y1946D01*
X1166Y1946D02*
X1184Y1946D01*
X1209Y1946D02*
X1227Y1946D01*
X466Y1945D02*
X483Y1945D01*
X510Y1945D02*
X528Y1945D01*
X1166Y1945D02*
X1183Y1945D01*
X1210Y1945D02*
X1228Y1945D01*
X465Y1944D02*
X482Y1944D01*
X511Y1944D02*
X528Y1944D01*
X1165Y1944D02*
X1182Y1944D01*
X1211Y1944D02*
X1228Y1944D01*
X465Y1943D02*
X481Y1943D01*
X512Y1943D02*
X529Y1943D01*
X1165Y1943D02*
X1181Y1943D01*
X1212Y1943D02*
X1228Y1943D01*
X465Y1942D02*
X481Y1942D01*
X513Y1942D02*
X529Y1942D01*
X1165Y1942D02*
X1181Y1942D01*
X1213Y1942D02*
X1229Y1942D01*
X464Y1941D02*
X480Y1941D01*
X513Y1941D02*
X529Y1941D01*
X1164Y1941D02*
X1180Y1941D01*
X1213Y1941D02*
X1229Y1941D01*
X464Y1940D02*
X480Y1940D01*
X514Y1940D02*
X529Y1940D01*
X1164Y1940D02*
X1180Y1940D01*
X1214Y1940D02*
X1229Y1940D01*
X464Y1939D02*
X479Y1939D01*
X514Y1939D02*
X530Y1939D01*
X1164Y1939D02*
X1179Y1939D01*
X1214Y1939D02*
X1229Y1939D01*
X464Y1938D02*
X479Y1938D01*
X515Y1938D02*
X530Y1938D01*
X1164Y1938D02*
X1179Y1938D01*
X1214Y1938D02*
X1230Y1938D01*
X464Y1937D02*
X479Y1937D01*
X515Y1937D02*
X530Y1937D01*
X1164Y1937D02*
X1179Y1937D01*
X1215Y1937D02*
X1230Y1937D01*
X464Y1936D02*
X479Y1936D01*
X515Y1936D02*
X530Y1936D01*
X1163Y1936D02*
X1178Y1936D01*
X1215Y1936D02*
X1230Y1936D01*
X463Y1935D02*
X479Y1935D01*
X515Y1935D02*
X530Y1935D01*
X1163Y1935D02*
X1178Y1935D01*
X1215Y1935D02*
X1230Y1935D01*
X463Y1934D02*
X478Y1934D01*
X515Y1934D02*
X530Y1934D01*
X1163Y1934D02*
X1178Y1934D01*
X1215Y1934D02*
X1230Y1934D01*
X463Y1933D02*
X478Y1933D01*
X515Y1933D02*
X530Y1933D01*
X1163Y1933D02*
X1178Y1933D01*
X1215Y1933D02*
X1230Y1933D01*
X463Y1932D02*
X478Y1932D01*
X515Y1932D02*
X530Y1932D01*
X1163Y1932D02*
X1178Y1932D01*
X1215Y1932D02*
X1230Y1932D01*
X463Y1931D02*
X478Y1931D01*
X515Y1931D02*
X530Y1931D01*
X1163Y1931D02*
X1178Y1931D01*
X1215Y1931D02*
X1230Y1931D01*
X463Y1930D02*
X479Y1930D01*
X515Y1930D02*
X530Y1930D01*
X1163Y1930D02*
X1178Y1930D01*
X1215Y1930D02*
X1230Y1930D01*
X464Y1929D02*
X479Y1929D01*
X515Y1929D02*
X530Y1929D01*
X1163Y1929D02*
X1178Y1929D01*
X1215Y1929D02*
X1230Y1929D01*
X464Y1928D02*
X479Y1928D01*
X515Y1928D02*
X530Y1928D01*
X1164Y1928D02*
X1179Y1928D01*
X1215Y1928D02*
X1230Y1928D01*
X464Y1927D02*
X479Y1927D01*
X514Y1927D02*
X530Y1927D01*
X1164Y1927D02*
X1179Y1927D01*
X1214Y1927D02*
X1230Y1927D01*
X464Y1926D02*
X479Y1926D01*
X514Y1926D02*
X530Y1926D01*
X1164Y1926D02*
X1179Y1926D01*
X1214Y1926D02*
X1229Y1926D01*
X464Y1925D02*
X480Y1925D01*
X514Y1925D02*
X529Y1925D01*
X1164Y1925D02*
X1180Y1925D01*
X1214Y1925D02*
X1229Y1925D01*
X465Y1924D02*
X480Y1924D01*
X513Y1924D02*
X529Y1924D01*
X1164Y1924D02*
X1180Y1924D01*
X1213Y1924D02*
X1229Y1924D01*
X465Y1923D02*
X481Y1923D01*
X512Y1923D02*
X529Y1923D01*
X1165Y1923D02*
X1181Y1923D01*
X1212Y1923D02*
X1229Y1923D01*
X465Y1922D02*
X482Y1922D01*
X512Y1922D02*
X528Y1922D01*
X1165Y1922D02*
X1181Y1922D01*
X1212Y1922D02*
X1228Y1922D01*
X465Y1921D02*
X482Y1921D01*
X511Y1921D02*
X528Y1921D01*
X1165Y1921D02*
X1182Y1921D01*
X1211Y1921D02*
X1228Y1921D01*
X466Y1920D02*
X483Y1920D01*
X510Y1920D02*
X528Y1920D01*
X1166Y1920D02*
X1183Y1920D01*
X1210Y1920D02*
X1228Y1920D01*
X466Y1919D02*
X484Y1919D01*
X509Y1919D02*
X527Y1919D01*
X1166Y1919D02*
X1184Y1919D01*
X1209Y1919D02*
X1227Y1919D01*
X467Y1918D02*
X485Y1918D01*
X508Y1918D02*
X527Y1918D01*
X1167Y1918D02*
X1185Y1918D01*
X1208Y1918D02*
X1227Y1918D01*
X467Y1917D02*
X487Y1917D01*
X506Y1917D02*
X526Y1917D01*
X1167Y1917D02*
X1187Y1917D01*
X1206Y1917D02*
X1226Y1917D01*
X468Y1916D02*
X489Y1916D01*
X505Y1916D02*
X526Y1916D01*
X1168Y1916D02*
X1189Y1916D01*
X1204Y1916D02*
X1226Y1916D01*
X468Y1915D02*
X492Y1915D01*
X502Y1915D02*
X525Y1915D01*
X1168Y1915D02*
X1192Y1915D01*
X1202Y1915D02*
X1225Y1915D01*
X469Y1914D02*
X525Y1914D01*
X1169Y1914D02*
X1224Y1914D01*
X469Y1913D02*
X524Y1913D01*
X1169Y1913D02*
X1224Y1913D01*
X470Y1912D02*
X523Y1912D01*
X1170Y1912D02*
X1223Y1912D01*
X471Y1911D02*
X522Y1911D01*
X1171Y1911D02*
X1222Y1911D01*
X472Y1910D02*
X522Y1910D01*
X1172Y1910D02*
X1221Y1910D01*
X473Y1909D02*
X521Y1909D01*
X1173Y1909D02*
X1221Y1909D01*
X474Y1908D02*
X520Y1908D01*
X1174Y1908D02*
X1219Y1908D01*
X475Y1907D02*
X518Y1907D01*
X1175Y1907D02*
X1218Y1907D01*
X476Y1906D02*
X517Y1906D01*
X1176Y1906D02*
X1217Y1906D01*
X477Y1905D02*
X516Y1905D01*
X1177Y1905D02*
X1216Y1905D01*
X479Y1904D02*
X514Y1904D01*
X1179Y1904D02*
X1214Y1904D01*
X480Y1903D02*
X513Y1903D01*
X1180Y1903D02*
X1213Y1903D01*
X482Y1902D02*
X511Y1902D01*
X1182Y1902D02*
X1211Y1902D01*
X485Y1901D02*
X508Y1901D01*
X1185Y1901D02*
X1208Y1901D01*
X488Y1900D02*
X506Y1900D01*
X1187Y1900D02*
X1206Y1900D01*
X492Y1899D02*
X502Y1899D01*
X1192Y1899D02*
X1201Y1899D01*
X492Y1866D02*
X501Y1866D01*
X1192Y1866D02*
X1201Y1866D01*
X487Y1865D02*
X506Y1865D01*
X1187Y1865D02*
X1206Y1865D01*
X485Y1864D02*
X509Y1864D01*
X1184Y1864D02*
X1209Y1864D01*
X482Y1863D02*
X511Y1863D01*
X1182Y1863D02*
X1211Y1863D01*
X480Y1862D02*
X513Y1862D01*
X1180Y1862D02*
X1213Y1862D01*
X479Y1861D02*
X515Y1861D01*
X1178Y1861D02*
X1215Y1861D01*
X477Y1860D02*
X516Y1860D01*
X1177Y1860D02*
X1216Y1860D01*
X476Y1859D02*
X518Y1859D01*
X1175Y1859D02*
X1218Y1859D01*
X474Y1858D02*
X519Y1858D01*
X1174Y1858D02*
X1219Y1858D01*
X473Y1857D02*
X520Y1857D01*
X1173Y1857D02*
X1220Y1857D01*
X472Y1856D02*
X521Y1856D01*
X1172Y1856D02*
X1221Y1856D01*
X471Y1855D02*
X522Y1855D01*
X1171Y1855D02*
X1222Y1855D01*
X471Y1854D02*
X523Y1854D01*
X1171Y1854D02*
X1223Y1854D01*
X470Y1853D02*
X523Y1853D01*
X1170Y1853D02*
X1223Y1853D01*
X469Y1852D02*
X524Y1852D01*
X1169Y1852D02*
X1224Y1852D01*
X469Y1851D02*
X525Y1851D01*
X1169Y1851D02*
X1225Y1851D01*
X468Y1850D02*
X492Y1850D01*
X502Y1850D02*
X525Y1850D01*
X1168Y1850D02*
X1191Y1850D01*
X1202Y1850D02*
X1225Y1850D01*
X467Y1849D02*
X488Y1849D01*
X505Y1849D02*
X526Y1849D01*
X1167Y1849D02*
X1188Y1849D01*
X1205Y1849D02*
X1226Y1849D01*
X467Y1848D02*
X487Y1848D01*
X507Y1848D02*
X526Y1848D01*
X1167Y1848D02*
X1186Y1848D01*
X1206Y1848D02*
X1226Y1848D01*
X467Y1847D02*
X485Y1847D01*
X508Y1847D02*
X527Y1847D01*
X1166Y1847D02*
X1185Y1847D01*
X1208Y1847D02*
X1227Y1847D01*
X466Y1846D02*
X484Y1846D01*
X509Y1846D02*
X527Y1846D01*
X1166Y1846D02*
X1184Y1846D01*
X1209Y1846D02*
X1227Y1846D01*
X466Y1845D02*
X483Y1845D01*
X510Y1845D02*
X528Y1845D01*
X1166Y1845D02*
X1183Y1845D01*
X1210Y1845D02*
X1228Y1845D01*
X465Y1844D02*
X482Y1844D01*
X511Y1844D02*
X528Y1844D01*
X1165Y1844D02*
X1182Y1844D01*
X1211Y1844D02*
X1228Y1844D01*
X465Y1843D02*
X481Y1843D01*
X512Y1843D02*
X529Y1843D01*
X1165Y1843D02*
X1181Y1843D01*
X1212Y1843D02*
X1228Y1843D01*
X465Y1842D02*
X481Y1842D01*
X513Y1842D02*
X529Y1842D01*
X1165Y1842D02*
X1181Y1842D01*
X1213Y1842D02*
X1229Y1842D01*
X464Y1841D02*
X480Y1841D01*
X513Y1841D02*
X529Y1841D01*
X1164Y1841D02*
X1180Y1841D01*
X1213Y1841D02*
X1229Y1841D01*
X464Y1840D02*
X480Y1840D01*
X514Y1840D02*
X529Y1840D01*
X1164Y1840D02*
X1180Y1840D01*
X1214Y1840D02*
X1229Y1840D01*
X464Y1839D02*
X479Y1839D01*
X514Y1839D02*
X530Y1839D01*
X1164Y1839D02*
X1179Y1839D01*
X1214Y1839D02*
X1229Y1839D01*
X464Y1838D02*
X479Y1838D01*
X515Y1838D02*
X530Y1838D01*
X1164Y1838D02*
X1179Y1838D01*
X1214Y1838D02*
X1230Y1838D01*
X464Y1837D02*
X479Y1837D01*
X515Y1837D02*
X530Y1837D01*
X1164Y1837D02*
X1179Y1837D01*
X1215Y1837D02*
X1230Y1837D01*
X464Y1836D02*
X479Y1836D01*
X515Y1836D02*
X530Y1836D01*
X1163Y1836D02*
X1178Y1836D01*
X1215Y1836D02*
X1230Y1836D01*
X463Y1835D02*
X479Y1835D01*
X515Y1835D02*
X530Y1835D01*
X1163Y1835D02*
X1178Y1835D01*
X1215Y1835D02*
X1230Y1835D01*
X463Y1834D02*
X478Y1834D01*
X515Y1834D02*
X530Y1834D01*
X1163Y1834D02*
X1178Y1834D01*
X1215Y1834D02*
X1230Y1834D01*
X463Y1833D02*
X478Y1833D01*
X515Y1833D02*
X530Y1833D01*
X1163Y1833D02*
X1178Y1833D01*
X1215Y1833D02*
X1230Y1833D01*
X463Y1832D02*
X478Y1832D01*
X515Y1832D02*
X530Y1832D01*
X1163Y1832D02*
X1178Y1832D01*
X1215Y1832D02*
X1230Y1832D01*
X463Y1831D02*
X478Y1831D01*
X515Y1831D02*
X530Y1831D01*
X1163Y1831D02*
X1178Y1831D01*
X1215Y1831D02*
X1230Y1831D01*
X463Y1830D02*
X479Y1830D01*
X515Y1830D02*
X530Y1830D01*
X1163Y1830D02*
X1178Y1830D01*
X1215Y1830D02*
X1230Y1830D01*
X464Y1829D02*
X479Y1829D01*
X515Y1829D02*
X530Y1829D01*
X1163Y1829D02*
X1178Y1829D01*
X1215Y1829D02*
X1230Y1829D01*
X464Y1828D02*
X479Y1828D01*
X515Y1828D02*
X530Y1828D01*
X1164Y1828D02*
X1179Y1828D01*
X1215Y1828D02*
X1230Y1828D01*
X464Y1827D02*
X479Y1827D01*
X514Y1827D02*
X530Y1827D01*
X1164Y1827D02*
X1179Y1827D01*
X1214Y1827D02*
X1230Y1827D01*
X464Y1826D02*
X479Y1826D01*
X514Y1826D02*
X530Y1826D01*
X1164Y1826D02*
X1179Y1826D01*
X1214Y1826D02*
X1229Y1826D01*
X464Y1825D02*
X480Y1825D01*
X514Y1825D02*
X529Y1825D01*
X1164Y1825D02*
X1180Y1825D01*
X1214Y1825D02*
X1229Y1825D01*
X465Y1824D02*
X480Y1824D01*
X513Y1824D02*
X529Y1824D01*
X1164Y1824D02*
X1180Y1824D01*
X1213Y1824D02*
X1229Y1824D01*
X465Y1823D02*
X481Y1823D01*
X512Y1823D02*
X529Y1823D01*
X1165Y1823D02*
X1181Y1823D01*
X1212Y1823D02*
X1229Y1823D01*
X465Y1822D02*
X482Y1822D01*
X512Y1822D02*
X528Y1822D01*
X1165Y1822D02*
X1181Y1822D01*
X1212Y1822D02*
X1228Y1822D01*
X465Y1821D02*
X482Y1821D01*
X511Y1821D02*
X528Y1821D01*
X1165Y1821D02*
X1182Y1821D01*
X1211Y1821D02*
X1228Y1821D01*
X466Y1820D02*
X483Y1820D01*
X510Y1820D02*
X528Y1820D01*
X1166Y1820D02*
X1183Y1820D01*
X1210Y1820D02*
X1228Y1820D01*
X466Y1819D02*
X484Y1819D01*
X509Y1819D02*
X527Y1819D01*
X1166Y1819D02*
X1184Y1819D01*
X1209Y1819D02*
X1227Y1819D01*
X467Y1818D02*
X485Y1818D01*
X508Y1818D02*
X527Y1818D01*
X1167Y1818D02*
X1185Y1818D01*
X1208Y1818D02*
X1227Y1818D01*
X467Y1817D02*
X487Y1817D01*
X506Y1817D02*
X526Y1817D01*
X1167Y1817D02*
X1187Y1817D01*
X1206Y1817D02*
X1226Y1817D01*
X468Y1816D02*
X489Y1816D01*
X505Y1816D02*
X526Y1816D01*
X1168Y1816D02*
X1189Y1816D01*
X1204Y1816D02*
X1226Y1816D01*
X468Y1815D02*
X492Y1815D01*
X502Y1815D02*
X525Y1815D01*
X1168Y1815D02*
X1192Y1815D01*
X1202Y1815D02*
X1225Y1815D01*
X469Y1814D02*
X525Y1814D01*
X1169Y1814D02*
X1224Y1814D01*
X470Y1813D02*
X524Y1813D01*
X1169Y1813D02*
X1224Y1813D01*
X470Y1812D02*
X523Y1812D01*
X1170Y1812D02*
X1223Y1812D01*
X471Y1811D02*
X522Y1811D01*
X1171Y1811D02*
X1222Y1811D01*
X472Y1810D02*
X522Y1810D01*
X1172Y1810D02*
X1221Y1810D01*
X473Y1809D02*
X521Y1809D01*
X1173Y1809D02*
X1220Y1809D01*
X474Y1808D02*
X520Y1808D01*
X1174Y1808D02*
X1219Y1808D01*
X475Y1807D02*
X518Y1807D01*
X1175Y1807D02*
X1218Y1807D01*
X476Y1806D02*
X517Y1806D01*
X1176Y1806D02*
X1217Y1806D01*
X477Y1805D02*
X516Y1805D01*
X1177Y1805D02*
X1216Y1805D01*
X479Y1804D02*
X514Y1804D01*
X1179Y1804D02*
X1214Y1804D01*
X481Y1803D02*
X513Y1803D01*
X1180Y1803D02*
X1213Y1803D01*
X483Y1802D02*
X511Y1802D01*
X1182Y1802D02*
X1211Y1802D01*
X485Y1801D02*
X508Y1801D01*
X1185Y1801D02*
X1208Y1801D01*
X488Y1800D02*
X506Y1800D01*
X1188Y1800D02*
X1206Y1800D01*
X492Y1799D02*
X501Y1799D01*
X1192Y1799D02*
X1201Y1799D01*
X492Y1766D02*
X502Y1766D01*
X1192Y1766D02*
X1201Y1766D01*
X487Y1765D02*
X506Y1765D01*
X1187Y1765D02*
X1206Y1765D01*
X485Y1764D02*
X509Y1764D01*
X1184Y1764D02*
X1209Y1764D01*
X482Y1763D02*
X511Y1763D01*
X1182Y1763D02*
X1211Y1763D01*
X480Y1762D02*
X513Y1762D01*
X1180Y1762D02*
X1213Y1762D01*
X478Y1761D02*
X515Y1761D01*
X1178Y1761D02*
X1215Y1761D01*
X477Y1760D02*
X516Y1760D01*
X1177Y1760D02*
X1216Y1760D01*
X476Y1759D02*
X518Y1759D01*
X1175Y1759D02*
X1218Y1759D01*
X474Y1758D02*
X519Y1758D01*
X1174Y1758D02*
X1219Y1758D01*
X473Y1757D02*
X520Y1757D01*
X1173Y1757D02*
X1220Y1757D01*
X472Y1756D02*
X521Y1756D01*
X1172Y1756D02*
X1221Y1756D01*
X471Y1755D02*
X522Y1755D01*
X1171Y1755D02*
X1222Y1755D01*
X471Y1754D02*
X523Y1754D01*
X1171Y1754D02*
X1223Y1754D01*
X470Y1753D02*
X523Y1753D01*
X1170Y1753D02*
X1223Y1753D01*
X469Y1752D02*
X524Y1752D01*
X1169Y1752D02*
X1224Y1752D01*
X469Y1751D02*
X525Y1751D01*
X1168Y1751D02*
X1225Y1751D01*
X468Y1750D02*
X492Y1750D01*
X502Y1750D02*
X525Y1750D01*
X1168Y1750D02*
X1191Y1750D01*
X1202Y1750D02*
X1225Y1750D01*
X467Y1749D02*
X488Y1749D01*
X505Y1749D02*
X526Y1749D01*
X1167Y1749D02*
X1188Y1749D01*
X1205Y1749D02*
X1226Y1749D01*
X467Y1748D02*
X487Y1748D01*
X507Y1748D02*
X526Y1748D01*
X1167Y1748D02*
X1186Y1748D01*
X1207Y1748D02*
X1226Y1748D01*
X467Y1747D02*
X485Y1747D01*
X508Y1747D02*
X527Y1747D01*
X1166Y1747D02*
X1185Y1747D01*
X1208Y1747D02*
X1227Y1747D01*
X466Y1746D02*
X484Y1746D01*
X509Y1746D02*
X527Y1746D01*
X1166Y1746D02*
X1184Y1746D01*
X1209Y1746D02*
X1227Y1746D01*
X466Y1745D02*
X483Y1745D01*
X510Y1745D02*
X528Y1745D01*
X1166Y1745D02*
X1183Y1745D01*
X1210Y1745D02*
X1228Y1745D01*
X465Y1744D02*
X482Y1744D01*
X511Y1744D02*
X528Y1744D01*
X1165Y1744D02*
X1182Y1744D01*
X1211Y1744D02*
X1228Y1744D01*
X465Y1743D02*
X481Y1743D01*
X512Y1743D02*
X529Y1743D01*
X1165Y1743D02*
X1181Y1743D01*
X1212Y1743D02*
X1228Y1743D01*
X465Y1742D02*
X481Y1742D01*
X513Y1742D02*
X529Y1742D01*
X1165Y1742D02*
X1181Y1742D01*
X1213Y1742D02*
X1229Y1742D01*
X464Y1741D02*
X480Y1741D01*
X513Y1741D02*
X529Y1741D01*
X1164Y1741D02*
X1180Y1741D01*
X1213Y1741D02*
X1229Y1741D01*
X464Y1740D02*
X480Y1740D01*
X514Y1740D02*
X529Y1740D01*
X1164Y1740D02*
X1180Y1740D01*
X1214Y1740D02*
X1229Y1740D01*
X464Y1739D02*
X479Y1739D01*
X514Y1739D02*
X530Y1739D01*
X1164Y1739D02*
X1179Y1739D01*
X1214Y1739D02*
X1229Y1739D01*
X464Y1738D02*
X479Y1738D01*
X515Y1738D02*
X530Y1738D01*
X1164Y1738D02*
X1179Y1738D01*
X1214Y1738D02*
X1230Y1738D01*
X464Y1737D02*
X479Y1737D01*
X515Y1737D02*
X530Y1737D01*
X1164Y1737D02*
X1179Y1737D01*
X1215Y1737D02*
X1230Y1737D01*
X464Y1736D02*
X479Y1736D01*
X515Y1736D02*
X530Y1736D01*
X1163Y1736D02*
X1178Y1736D01*
X1215Y1736D02*
X1230Y1736D01*
X463Y1735D02*
X479Y1735D01*
X515Y1735D02*
X530Y1735D01*
X1163Y1735D02*
X1178Y1735D01*
X1215Y1735D02*
X1230Y1735D01*
X463Y1734D02*
X478Y1734D01*
X515Y1734D02*
X530Y1734D01*
X1163Y1734D02*
X1178Y1734D01*
X1215Y1734D02*
X1230Y1734D01*
X463Y1733D02*
X478Y1733D01*
X515Y1733D02*
X530Y1733D01*
X1163Y1733D02*
X1178Y1733D01*
X1215Y1733D02*
X1230Y1733D01*
X463Y1732D02*
X478Y1732D01*
X515Y1732D02*
X530Y1732D01*
X1163Y1732D02*
X1178Y1732D01*
X1215Y1732D02*
X1230Y1732D01*
X463Y1731D02*
X478Y1731D01*
X515Y1731D02*
X530Y1731D01*
X1163Y1731D02*
X1178Y1731D01*
X1215Y1731D02*
X1230Y1731D01*
X463Y1730D02*
X479Y1730D01*
X515Y1730D02*
X530Y1730D01*
X1163Y1730D02*
X1178Y1730D01*
X1215Y1730D02*
X1230Y1730D01*
X464Y1729D02*
X479Y1729D01*
X515Y1729D02*
X530Y1729D01*
X1163Y1729D02*
X1178Y1729D01*
X1215Y1729D02*
X1230Y1729D01*
X464Y1728D02*
X479Y1728D01*
X515Y1728D02*
X530Y1728D01*
X1164Y1728D02*
X1179Y1728D01*
X1215Y1728D02*
X1230Y1728D01*
X464Y1727D02*
X479Y1727D01*
X514Y1727D02*
X530Y1727D01*
X1164Y1727D02*
X1179Y1727D01*
X1214Y1727D02*
X1230Y1727D01*
X464Y1726D02*
X479Y1726D01*
X514Y1726D02*
X530Y1726D01*
X1164Y1726D02*
X1179Y1726D01*
X1214Y1726D02*
X1229Y1726D01*
X464Y1725D02*
X480Y1725D01*
X514Y1725D02*
X529Y1725D01*
X1164Y1725D02*
X1180Y1725D01*
X1214Y1725D02*
X1229Y1725D01*
X465Y1724D02*
X480Y1724D01*
X513Y1724D02*
X529Y1724D01*
X1164Y1724D02*
X1180Y1724D01*
X1213Y1724D02*
X1229Y1724D01*
X465Y1723D02*
X481Y1723D01*
X512Y1723D02*
X529Y1723D01*
X1165Y1723D02*
X1181Y1723D01*
X1212Y1723D02*
X1229Y1723D01*
X465Y1722D02*
X482Y1722D01*
X512Y1722D02*
X528Y1722D01*
X1165Y1722D02*
X1181Y1722D01*
X1212Y1722D02*
X1228Y1722D01*
X465Y1721D02*
X482Y1721D01*
X511Y1721D02*
X528Y1721D01*
X1165Y1721D02*
X1182Y1721D01*
X1211Y1721D02*
X1228Y1721D01*
X466Y1720D02*
X483Y1720D01*
X510Y1720D02*
X528Y1720D01*
X1166Y1720D02*
X1183Y1720D01*
X1210Y1720D02*
X1228Y1720D01*
X466Y1719D02*
X484Y1719D01*
X509Y1719D02*
X527Y1719D01*
X1166Y1719D02*
X1184Y1719D01*
X1209Y1719D02*
X1227Y1719D01*
X467Y1718D02*
X486Y1718D01*
X508Y1718D02*
X527Y1718D01*
X1167Y1718D02*
X1185Y1718D01*
X1208Y1718D02*
X1227Y1718D01*
X467Y1717D02*
X487Y1717D01*
X506Y1717D02*
X526Y1717D01*
X1167Y1717D02*
X1187Y1717D01*
X1206Y1717D02*
X1226Y1717D01*
X468Y1716D02*
X489Y1716D01*
X505Y1716D02*
X526Y1716D01*
X1168Y1716D02*
X1189Y1716D01*
X1204Y1716D02*
X1226Y1716D01*
X468Y1715D02*
X492Y1715D01*
X502Y1715D02*
X525Y1715D01*
X1168Y1715D02*
X1192Y1715D01*
X1201Y1715D02*
X1225Y1715D01*
X469Y1714D02*
X525Y1714D01*
X1169Y1714D02*
X1224Y1714D01*
X470Y1713D02*
X524Y1713D01*
X1169Y1713D02*
X1224Y1713D01*
X470Y1712D02*
X523Y1712D01*
X1170Y1712D02*
X1223Y1712D01*
X471Y1711D02*
X522Y1711D01*
X1171Y1711D02*
X1222Y1711D01*
X472Y1710D02*
X521Y1710D01*
X1172Y1710D02*
X1221Y1710D01*
X473Y1709D02*
X521Y1709D01*
X1173Y1709D02*
X1220Y1709D01*
X474Y1708D02*
X520Y1708D01*
X1174Y1708D02*
X1219Y1708D01*
X475Y1707D02*
X518Y1707D01*
X1175Y1707D02*
X1218Y1707D01*
X476Y1706D02*
X517Y1706D01*
X1176Y1706D02*
X1217Y1706D01*
X477Y1705D02*
X516Y1705D01*
X1177Y1705D02*
X1216Y1705D01*
X479Y1704D02*
X514Y1704D01*
X1179Y1704D02*
X1214Y1704D01*
X481Y1703D02*
X513Y1703D01*
X1180Y1703D02*
X1213Y1703D01*
X483Y1702D02*
X511Y1702D01*
X1182Y1702D02*
X1211Y1702D01*
X485Y1701D02*
X508Y1701D01*
X1185Y1701D02*
X1208Y1701D01*
X488Y1700D02*
X506Y1700D01*
X1188Y1700D02*
X1205Y1700D01*
X492Y1699D02*
X501Y1699D01*
X1192Y1699D02*
X1201Y1699D01*
X492Y1666D02*
X502Y1666D01*
X1192Y1666D02*
X1202Y1666D01*
X487Y1665D02*
X506Y1665D01*
X1187Y1665D02*
X1206Y1665D01*
X484Y1664D02*
X509Y1664D01*
X1184Y1664D02*
X1209Y1664D01*
X482Y1663D02*
X511Y1663D01*
X1182Y1663D02*
X1211Y1663D01*
X480Y1662D02*
X513Y1662D01*
X1180Y1662D02*
X1213Y1662D01*
X478Y1661D02*
X515Y1661D01*
X1178Y1661D02*
X1215Y1661D01*
X477Y1660D02*
X516Y1660D01*
X1177Y1660D02*
X1216Y1660D01*
X476Y1659D02*
X518Y1659D01*
X1175Y1659D02*
X1218Y1659D01*
X474Y1658D02*
X519Y1658D01*
X1174Y1658D02*
X1219Y1658D01*
X473Y1657D02*
X520Y1657D01*
X1173Y1657D02*
X1220Y1657D01*
X472Y1656D02*
X521Y1656D01*
X1172Y1656D02*
X1221Y1656D01*
X471Y1655D02*
X522Y1655D01*
X1171Y1655D02*
X1222Y1655D01*
X471Y1654D02*
X523Y1654D01*
X1171Y1654D02*
X1223Y1654D01*
X470Y1653D02*
X523Y1653D01*
X1170Y1653D02*
X1223Y1653D01*
X469Y1652D02*
X524Y1652D01*
X1169Y1652D02*
X1224Y1652D01*
X469Y1651D02*
X525Y1651D01*
X1168Y1651D02*
X1225Y1651D01*
X468Y1650D02*
X492Y1650D01*
X502Y1650D02*
X525Y1650D01*
X1168Y1650D02*
X1191Y1650D01*
X1202Y1650D02*
X1225Y1650D01*
X467Y1649D02*
X488Y1649D01*
X505Y1649D02*
X526Y1649D01*
X1167Y1649D02*
X1188Y1649D01*
X1205Y1649D02*
X1226Y1649D01*
X467Y1648D02*
X487Y1648D01*
X507Y1648D02*
X526Y1648D01*
X1167Y1648D02*
X1186Y1648D01*
X1207Y1648D02*
X1226Y1648D01*
X467Y1647D02*
X485Y1647D01*
X508Y1647D02*
X527Y1647D01*
X1166Y1647D02*
X1185Y1647D01*
X1208Y1647D02*
X1227Y1647D01*
X466Y1646D02*
X484Y1646D01*
X509Y1646D02*
X527Y1646D01*
X1166Y1646D02*
X1184Y1646D01*
X1209Y1646D02*
X1227Y1646D01*
X466Y1645D02*
X483Y1645D01*
X510Y1645D02*
X528Y1645D01*
X1166Y1645D02*
X1183Y1645D01*
X1210Y1645D02*
X1228Y1645D01*
X465Y1644D02*
X482Y1644D01*
X511Y1644D02*
X528Y1644D01*
X1165Y1644D02*
X1182Y1644D01*
X1211Y1644D02*
X1228Y1644D01*
X465Y1643D02*
X481Y1643D01*
X512Y1643D02*
X529Y1643D01*
X1165Y1643D02*
X1181Y1643D01*
X1212Y1643D02*
X1228Y1643D01*
X465Y1642D02*
X481Y1642D01*
X513Y1642D02*
X529Y1642D01*
X1165Y1642D02*
X1181Y1642D01*
X1213Y1642D02*
X1229Y1642D01*
X464Y1641D02*
X480Y1641D01*
X513Y1641D02*
X529Y1641D01*
X1164Y1641D02*
X1180Y1641D01*
X1213Y1641D02*
X1229Y1641D01*
X464Y1640D02*
X480Y1640D01*
X514Y1640D02*
X529Y1640D01*
X1164Y1640D02*
X1179Y1640D01*
X1214Y1640D02*
X1229Y1640D01*
X464Y1639D02*
X479Y1639D01*
X514Y1639D02*
X530Y1639D01*
X1164Y1639D02*
X1179Y1639D01*
X1214Y1639D02*
X1229Y1639D01*
X464Y1638D02*
X479Y1638D01*
X515Y1638D02*
X530Y1638D01*
X1164Y1638D02*
X1179Y1638D01*
X1214Y1638D02*
X1230Y1638D01*
X464Y1637D02*
X479Y1637D01*
X515Y1637D02*
X530Y1637D01*
X1164Y1637D02*
X1179Y1637D01*
X1215Y1637D02*
X1230Y1637D01*
X464Y1636D02*
X479Y1636D01*
X515Y1636D02*
X530Y1636D01*
X1163Y1636D02*
X1178Y1636D01*
X1215Y1636D02*
X1230Y1636D01*
X463Y1635D02*
X479Y1635D01*
X515Y1635D02*
X530Y1635D01*
X1163Y1635D02*
X1178Y1635D01*
X1215Y1635D02*
X1230Y1635D01*
X463Y1634D02*
X478Y1634D01*
X515Y1634D02*
X530Y1634D01*
X1163Y1634D02*
X1178Y1634D01*
X1215Y1634D02*
X1230Y1634D01*
X463Y1633D02*
X478Y1633D01*
X515Y1633D02*
X530Y1633D01*
X1163Y1633D02*
X1178Y1633D01*
X1215Y1633D02*
X1230Y1633D01*
X463Y1632D02*
X478Y1632D01*
X515Y1632D02*
X530Y1632D01*
X1163Y1632D02*
X1178Y1632D01*
X1215Y1632D02*
X1230Y1632D01*
X463Y1631D02*
X478Y1631D01*
X515Y1631D02*
X530Y1631D01*
X1163Y1631D02*
X1178Y1631D01*
X1215Y1631D02*
X1230Y1631D01*
X463Y1630D02*
X479Y1630D01*
X515Y1630D02*
X530Y1630D01*
X1163Y1630D02*
X1178Y1630D01*
X1215Y1630D02*
X1230Y1630D01*
X464Y1629D02*
X479Y1629D01*
X515Y1629D02*
X530Y1629D01*
X1163Y1629D02*
X1178Y1629D01*
X1215Y1629D02*
X1230Y1629D01*
X464Y1628D02*
X479Y1628D01*
X515Y1628D02*
X530Y1628D01*
X1164Y1628D02*
X1179Y1628D01*
X1215Y1628D02*
X1230Y1628D01*
X464Y1627D02*
X479Y1627D01*
X514Y1627D02*
X530Y1627D01*
X1164Y1627D02*
X1179Y1627D01*
X1214Y1627D02*
X1230Y1627D01*
X464Y1626D02*
X479Y1626D01*
X514Y1626D02*
X530Y1626D01*
X1164Y1626D02*
X1179Y1626D01*
X1214Y1626D02*
X1229Y1626D01*
X464Y1625D02*
X480Y1625D01*
X514Y1625D02*
X529Y1625D01*
X1164Y1625D02*
X1180Y1625D01*
X1214Y1625D02*
X1229Y1625D01*
X465Y1624D02*
X480Y1624D01*
X513Y1624D02*
X529Y1624D01*
X1164Y1624D02*
X1180Y1624D01*
X1213Y1624D02*
X1229Y1624D01*
X465Y1623D02*
X481Y1623D01*
X512Y1623D02*
X529Y1623D01*
X1165Y1623D02*
X1181Y1623D01*
X1212Y1623D02*
X1229Y1623D01*
X465Y1622D02*
X482Y1622D01*
X512Y1622D02*
X528Y1622D01*
X1165Y1622D02*
X1182Y1622D01*
X1212Y1622D02*
X1228Y1622D01*
X465Y1621D02*
X482Y1621D01*
X511Y1621D02*
X528Y1621D01*
X1165Y1621D02*
X1182Y1621D01*
X1211Y1621D02*
X1228Y1621D01*
X466Y1620D02*
X483Y1620D01*
X510Y1620D02*
X528Y1620D01*
X1166Y1620D02*
X1183Y1620D01*
X1210Y1620D02*
X1228Y1620D01*
X466Y1619D02*
X484Y1619D01*
X509Y1619D02*
X527Y1619D01*
X1166Y1619D02*
X1184Y1619D01*
X1209Y1619D02*
X1227Y1619D01*
X467Y1618D02*
X486Y1618D01*
X508Y1618D02*
X527Y1618D01*
X1167Y1618D02*
X1185Y1618D01*
X1208Y1618D02*
X1227Y1618D01*
X467Y1617D02*
X487Y1617D01*
X506Y1617D02*
X526Y1617D01*
X1167Y1617D02*
X1187Y1617D01*
X1206Y1617D02*
X1226Y1617D01*
X468Y1616D02*
X489Y1616D01*
X504Y1616D02*
X526Y1616D01*
X1168Y1616D02*
X1189Y1616D01*
X1204Y1616D02*
X1226Y1616D01*
X468Y1615D02*
X492Y1615D01*
X502Y1615D02*
X525Y1615D01*
X1168Y1615D02*
X1192Y1615D01*
X1201Y1615D02*
X1225Y1615D01*
X469Y1614D02*
X525Y1614D01*
X1169Y1614D02*
X1224Y1614D01*
X470Y1613D02*
X524Y1613D01*
X1169Y1613D02*
X1224Y1613D01*
X470Y1612D02*
X523Y1612D01*
X1170Y1612D02*
X1223Y1612D01*
X471Y1611D02*
X522Y1611D01*
X1171Y1611D02*
X1222Y1611D01*
X472Y1610D02*
X521Y1610D01*
X1172Y1610D02*
X1221Y1610D01*
X473Y1609D02*
X521Y1609D01*
X1173Y1609D02*
X1220Y1609D01*
X474Y1608D02*
X520Y1608D01*
X1174Y1608D02*
X1219Y1608D01*
X475Y1607D02*
X518Y1607D01*
X1175Y1607D02*
X1218Y1607D01*
X476Y1606D02*
X517Y1606D01*
X1176Y1606D02*
X1217Y1606D01*
X477Y1605D02*
X516Y1605D01*
X1177Y1605D02*
X1216Y1605D01*
X479Y1604D02*
X514Y1604D01*
X1179Y1604D02*
X1214Y1604D01*
X481Y1603D02*
X513Y1603D01*
X1180Y1603D02*
X1213Y1603D01*
X483Y1602D02*
X511Y1602D01*
X1182Y1602D02*
X1211Y1602D01*
X485Y1601D02*
X508Y1601D01*
X1185Y1601D02*
X1208Y1601D01*
X488Y1600D02*
X506Y1600D01*
X1188Y1600D02*
X1205Y1600D01*
X492Y1599D02*
X501Y1599D01*
X1192Y1599D02*
X1201Y1599D01*
X492Y1566D02*
X502Y1566D01*
X1192Y1566D02*
X1202Y1566D01*
X487Y1565D02*
X506Y1565D01*
X1187Y1565D02*
X1206Y1565D01*
X484Y1564D02*
X509Y1564D01*
X1184Y1564D02*
X1209Y1564D01*
X482Y1563D02*
X511Y1563D01*
X1182Y1563D02*
X1211Y1563D01*
X480Y1562D02*
X513Y1562D01*
X1180Y1562D02*
X1213Y1562D01*
X478Y1561D02*
X515Y1561D01*
X1178Y1561D02*
X1215Y1561D01*
X477Y1560D02*
X516Y1560D01*
X1177Y1560D02*
X1216Y1560D01*
X476Y1559D02*
X518Y1559D01*
X1175Y1559D02*
X1218Y1559D01*
X474Y1558D02*
X519Y1558D01*
X1174Y1558D02*
X1219Y1558D01*
X473Y1557D02*
X520Y1557D01*
X1173Y1557D02*
X1220Y1557D01*
X472Y1556D02*
X521Y1556D01*
X1172Y1556D02*
X1221Y1556D01*
X471Y1555D02*
X522Y1555D01*
X1171Y1555D02*
X1222Y1555D01*
X471Y1554D02*
X523Y1554D01*
X1170Y1554D02*
X1223Y1554D01*
X470Y1553D02*
X523Y1553D01*
X1170Y1553D02*
X1223Y1553D01*
X469Y1552D02*
X524Y1552D01*
X1169Y1552D02*
X1224Y1552D01*
X469Y1551D02*
X525Y1551D01*
X1168Y1551D02*
X1225Y1551D01*
X468Y1550D02*
X491Y1550D01*
X502Y1550D02*
X525Y1550D01*
X1168Y1550D02*
X1191Y1550D01*
X1202Y1550D02*
X1225Y1550D01*
X467Y1549D02*
X488Y1549D01*
X505Y1549D02*
X526Y1549D01*
X1167Y1549D02*
X1188Y1549D01*
X1205Y1549D02*
X1226Y1549D01*
X467Y1548D02*
X486Y1548D01*
X507Y1548D02*
X526Y1548D01*
X1167Y1548D02*
X1186Y1548D01*
X1207Y1548D02*
X1226Y1548D01*
X467Y1547D02*
X485Y1547D01*
X508Y1547D02*
X527Y1547D01*
X1166Y1547D02*
X1185Y1547D01*
X1208Y1547D02*
X1227Y1547D01*
X466Y1546D02*
X484Y1546D01*
X509Y1546D02*
X527Y1546D01*
X1166Y1546D02*
X1184Y1546D01*
X1209Y1546D02*
X1227Y1546D01*
X466Y1545D02*
X483Y1545D01*
X510Y1545D02*
X528Y1545D01*
X1166Y1545D02*
X1183Y1545D01*
X1210Y1545D02*
X1228Y1545D01*
X465Y1544D02*
X482Y1544D01*
X511Y1544D02*
X528Y1544D01*
X1165Y1544D02*
X1182Y1544D01*
X1211Y1544D02*
X1228Y1544D01*
X465Y1543D02*
X481Y1543D01*
X512Y1543D02*
X529Y1543D01*
X1165Y1543D02*
X1181Y1543D01*
X1212Y1543D02*
X1228Y1543D01*
X465Y1542D02*
X481Y1542D01*
X513Y1542D02*
X529Y1542D01*
X1165Y1542D02*
X1181Y1542D01*
X1213Y1542D02*
X1229Y1542D01*
X464Y1541D02*
X480Y1541D01*
X513Y1541D02*
X529Y1541D01*
X1164Y1541D02*
X1180Y1541D01*
X1213Y1541D02*
X1229Y1541D01*
X464Y1540D02*
X480Y1540D01*
X514Y1540D02*
X529Y1540D01*
X1164Y1540D02*
X1179Y1540D01*
X1214Y1540D02*
X1229Y1540D01*
X464Y1539D02*
X479Y1539D01*
X514Y1539D02*
X530Y1539D01*
X1164Y1539D02*
X1179Y1539D01*
X1214Y1539D02*
X1229Y1539D01*
X464Y1538D02*
X479Y1538D01*
X515Y1538D02*
X530Y1538D01*
X1164Y1538D02*
X1179Y1538D01*
X1214Y1538D02*
X1230Y1538D01*
X464Y1537D02*
X479Y1537D01*
X515Y1537D02*
X530Y1537D01*
X1164Y1537D02*
X1179Y1537D01*
X1215Y1537D02*
X1230Y1537D01*
X464Y1536D02*
X479Y1536D01*
X515Y1536D02*
X530Y1536D01*
X1163Y1536D02*
X1178Y1536D01*
X1215Y1536D02*
X1230Y1536D01*
X463Y1535D02*
X479Y1535D01*
X515Y1535D02*
X530Y1535D01*
X1163Y1535D02*
X1178Y1535D01*
X1215Y1535D02*
X1230Y1535D01*
X463Y1534D02*
X478Y1534D01*
X515Y1534D02*
X530Y1534D01*
X1163Y1534D02*
X1178Y1534D01*
X1215Y1534D02*
X1230Y1534D01*
X463Y1533D02*
X478Y1533D01*
X515Y1533D02*
X530Y1533D01*
X1163Y1533D02*
X1178Y1533D01*
X1215Y1533D02*
X1230Y1533D01*
X463Y1532D02*
X478Y1532D01*
X515Y1532D02*
X530Y1532D01*
X1163Y1532D02*
X1178Y1532D01*
X1215Y1532D02*
X1230Y1532D01*
X463Y1531D02*
X478Y1531D01*
X515Y1531D02*
X530Y1531D01*
X1163Y1531D02*
X1178Y1531D01*
X1215Y1531D02*
X1230Y1531D01*
X463Y1530D02*
X479Y1530D01*
X515Y1530D02*
X530Y1530D01*
X1163Y1530D02*
X1178Y1530D01*
X1215Y1530D02*
X1230Y1530D01*
X464Y1529D02*
X479Y1529D01*
X515Y1529D02*
X530Y1529D01*
X1163Y1529D02*
X1178Y1529D01*
X1215Y1529D02*
X1230Y1529D01*
X464Y1528D02*
X479Y1528D01*
X515Y1528D02*
X530Y1528D01*
X1164Y1528D02*
X1179Y1528D01*
X1215Y1528D02*
X1230Y1528D01*
X464Y1527D02*
X479Y1527D01*
X514Y1527D02*
X530Y1527D01*
X1164Y1527D02*
X1179Y1527D01*
X1214Y1527D02*
X1230Y1527D01*
X464Y1526D02*
X479Y1526D01*
X514Y1526D02*
X530Y1526D01*
X1164Y1526D02*
X1179Y1526D01*
X1214Y1526D02*
X1229Y1526D01*
X464Y1525D02*
X480Y1525D01*
X514Y1525D02*
X529Y1525D01*
X1164Y1525D02*
X1180Y1525D01*
X1214Y1525D02*
X1229Y1525D01*
X465Y1524D02*
X480Y1524D01*
X513Y1524D02*
X529Y1524D01*
X1164Y1524D02*
X1180Y1524D01*
X1213Y1524D02*
X1229Y1524D01*
X465Y1523D02*
X481Y1523D01*
X512Y1523D02*
X529Y1523D01*
X1165Y1523D02*
X1181Y1523D01*
X1212Y1523D02*
X1229Y1523D01*
X465Y1522D02*
X482Y1522D01*
X512Y1522D02*
X528Y1522D01*
X1165Y1522D02*
X1182Y1522D01*
X1212Y1522D02*
X1228Y1522D01*
X465Y1521D02*
X482Y1521D01*
X511Y1521D02*
X528Y1521D01*
X1165Y1521D02*
X1182Y1521D01*
X1211Y1521D02*
X1228Y1521D01*
X466Y1520D02*
X483Y1520D01*
X510Y1520D02*
X528Y1520D01*
X1166Y1520D02*
X1183Y1520D01*
X1210Y1520D02*
X1228Y1520D01*
X466Y1519D02*
X484Y1519D01*
X509Y1519D02*
X527Y1519D01*
X1166Y1519D02*
X1184Y1519D01*
X1209Y1519D02*
X1227Y1519D01*
X467Y1518D02*
X486Y1518D01*
X508Y1518D02*
X527Y1518D01*
X1167Y1518D02*
X1185Y1518D01*
X1208Y1518D02*
X1227Y1518D01*
X467Y1517D02*
X487Y1517D01*
X506Y1517D02*
X526Y1517D01*
X1167Y1517D02*
X1187Y1517D01*
X1206Y1517D02*
X1226Y1517D01*
X468Y1516D02*
X489Y1516D01*
X504Y1516D02*
X526Y1516D01*
X1168Y1516D02*
X1189Y1516D01*
X1204Y1516D02*
X1226Y1516D01*
X468Y1515D02*
X492Y1515D01*
X501Y1515D02*
X525Y1515D01*
X1168Y1515D02*
X1192Y1515D01*
X1201Y1515D02*
X1225Y1515D01*
X469Y1514D02*
X524Y1514D01*
X1169Y1514D02*
X1224Y1514D01*
X470Y1513D02*
X524Y1513D01*
X1169Y1513D02*
X1224Y1513D01*
X470Y1512D02*
X523Y1512D01*
X1170Y1512D02*
X1223Y1512D01*
X471Y1511D02*
X522Y1511D01*
X1171Y1511D02*
X1222Y1511D01*
X472Y1510D02*
X521Y1510D01*
X1172Y1510D02*
X1221Y1510D01*
X473Y1509D02*
X521Y1509D01*
X1173Y1509D02*
X1220Y1509D01*
X474Y1508D02*
X520Y1508D01*
X1174Y1508D02*
X1219Y1508D01*
X475Y1507D02*
X518Y1507D01*
X1175Y1507D02*
X1218Y1507D01*
X476Y1506D02*
X517Y1506D01*
X1176Y1506D02*
X1217Y1506D01*
X477Y1505D02*
X516Y1505D01*
X1177Y1505D02*
X1216Y1505D01*
X479Y1504D02*
X514Y1504D01*
X1179Y1504D02*
X1214Y1504D01*
X481Y1503D02*
X513Y1503D01*
X1181Y1503D02*
X1212Y1503D01*
X483Y1502D02*
X511Y1502D01*
X1183Y1502D02*
X1210Y1502D01*
X485Y1501D02*
X508Y1501D01*
X1185Y1501D02*
X1208Y1501D01*
X488Y1500D02*
X505Y1500D01*
X1188Y1500D02*
X1205Y1500D01*
X492Y1499D02*
X501Y1499D01*
X1192Y1499D02*
X1201Y1499D01*
X492Y1466D02*
X502Y1466D01*
X1191Y1466D02*
X1202Y1466D01*
X487Y1465D02*
X506Y1465D01*
X1187Y1465D02*
X1206Y1465D01*
X484Y1464D02*
X509Y1464D01*
X1184Y1464D02*
X1209Y1464D01*
X482Y1463D02*
X511Y1463D01*
X1182Y1463D02*
X1211Y1463D01*
X480Y1462D02*
X513Y1462D01*
X1180Y1462D02*
X1213Y1462D01*
X478Y1461D02*
X515Y1461D01*
X1178Y1461D02*
X1215Y1461D01*
X477Y1460D02*
X516Y1460D01*
X1177Y1460D02*
X1216Y1460D01*
X476Y1459D02*
X518Y1459D01*
X1175Y1459D02*
X1218Y1459D01*
X474Y1458D02*
X519Y1458D01*
X1174Y1458D02*
X1219Y1458D01*
X473Y1457D02*
X520Y1457D01*
X1173Y1457D02*
X1220Y1457D01*
X472Y1456D02*
X521Y1456D01*
X1172Y1456D02*
X1221Y1456D01*
X471Y1455D02*
X522Y1455D01*
X1171Y1455D02*
X1222Y1455D01*
X471Y1454D02*
X523Y1454D01*
X1170Y1454D02*
X1223Y1454D01*
X470Y1453D02*
X523Y1453D01*
X1170Y1453D02*
X1223Y1453D01*
X469Y1452D02*
X524Y1452D01*
X1169Y1452D02*
X1224Y1452D01*
X469Y1451D02*
X525Y1451D01*
X1168Y1451D02*
X1225Y1451D01*
X468Y1450D02*
X491Y1450D01*
X502Y1450D02*
X525Y1450D01*
X1168Y1450D02*
X1191Y1450D01*
X1202Y1450D02*
X1225Y1450D01*
X467Y1449D02*
X488Y1449D01*
X505Y1449D02*
X526Y1449D01*
X1167Y1449D02*
X1188Y1449D01*
X1205Y1449D02*
X1226Y1449D01*
X467Y1448D02*
X486Y1448D01*
X507Y1448D02*
X526Y1448D01*
X1167Y1448D02*
X1186Y1448D01*
X1207Y1448D02*
X1226Y1448D01*
X467Y1447D02*
X485Y1447D01*
X508Y1447D02*
X527Y1447D01*
X1166Y1447D02*
X1185Y1447D01*
X1208Y1447D02*
X1227Y1447D01*
X466Y1446D02*
X484Y1446D01*
X509Y1446D02*
X527Y1446D01*
X1166Y1446D02*
X1184Y1446D01*
X1209Y1446D02*
X1227Y1446D01*
X466Y1445D02*
X483Y1445D01*
X510Y1445D02*
X528Y1445D01*
X1166Y1445D02*
X1183Y1445D01*
X1210Y1445D02*
X1228Y1445D01*
X465Y1444D02*
X482Y1444D01*
X511Y1444D02*
X528Y1444D01*
X1165Y1444D02*
X1182Y1444D01*
X1211Y1444D02*
X1228Y1444D01*
X465Y1443D02*
X481Y1443D01*
X512Y1443D02*
X529Y1443D01*
X1165Y1443D02*
X1181Y1443D01*
X1212Y1443D02*
X1228Y1443D01*
X465Y1442D02*
X481Y1442D01*
X513Y1442D02*
X529Y1442D01*
X1165Y1442D02*
X1181Y1442D01*
X1213Y1442D02*
X1229Y1442D01*
X464Y1441D02*
X480Y1441D01*
X513Y1441D02*
X529Y1441D01*
X1164Y1441D02*
X1180Y1441D01*
X1213Y1441D02*
X1229Y1441D01*
X464Y1440D02*
X480Y1440D01*
X514Y1440D02*
X529Y1440D01*
X1164Y1440D02*
X1179Y1440D01*
X1214Y1440D02*
X1229Y1440D01*
X464Y1439D02*
X479Y1439D01*
X514Y1439D02*
X530Y1439D01*
X1164Y1439D02*
X1179Y1439D01*
X1214Y1439D02*
X1230Y1439D01*
X464Y1438D02*
X479Y1438D01*
X515Y1438D02*
X530Y1438D01*
X1164Y1438D02*
X1179Y1438D01*
X1214Y1438D02*
X1230Y1438D01*
X464Y1437D02*
X479Y1437D01*
X515Y1437D02*
X530Y1437D01*
X1164Y1437D02*
X1179Y1437D01*
X1215Y1437D02*
X1230Y1437D01*
X464Y1436D02*
X479Y1436D01*
X515Y1436D02*
X530Y1436D01*
X1163Y1436D02*
X1178Y1436D01*
X1215Y1436D02*
X1230Y1436D01*
X463Y1435D02*
X479Y1435D01*
X515Y1435D02*
X530Y1435D01*
X1163Y1435D02*
X1178Y1435D01*
X1215Y1435D02*
X1230Y1435D01*
X463Y1434D02*
X478Y1434D01*
X515Y1434D02*
X530Y1434D01*
X1163Y1434D02*
X1178Y1434D01*
X1215Y1434D02*
X1230Y1434D01*
X463Y1433D02*
X478Y1433D01*
X515Y1433D02*
X530Y1433D01*
X1163Y1433D02*
X1178Y1433D01*
X1215Y1433D02*
X1230Y1433D01*
X463Y1432D02*
X478Y1432D01*
X515Y1432D02*
X530Y1432D01*
X1163Y1432D02*
X1178Y1432D01*
X1215Y1432D02*
X1230Y1432D01*
X463Y1431D02*
X478Y1431D01*
X515Y1431D02*
X530Y1431D01*
X1163Y1431D02*
X1178Y1431D01*
X1215Y1431D02*
X1230Y1431D01*
X463Y1430D02*
X479Y1430D01*
X515Y1430D02*
X530Y1430D01*
X1163Y1430D02*
X1178Y1430D01*
X1215Y1430D02*
X1230Y1430D01*
X464Y1429D02*
X479Y1429D01*
X515Y1429D02*
X530Y1429D01*
X1163Y1429D02*
X1178Y1429D01*
X1215Y1429D02*
X1230Y1429D01*
X464Y1428D02*
X479Y1428D01*
X515Y1428D02*
X530Y1428D01*
X1164Y1428D02*
X1179Y1428D01*
X1215Y1428D02*
X1230Y1428D01*
X464Y1427D02*
X479Y1427D01*
X514Y1427D02*
X530Y1427D01*
X1164Y1427D02*
X1179Y1427D01*
X1214Y1427D02*
X1230Y1427D01*
X464Y1426D02*
X479Y1426D01*
X514Y1426D02*
X530Y1426D01*
X1164Y1426D02*
X1179Y1426D01*
X1214Y1426D02*
X1229Y1426D01*
X464Y1425D02*
X480Y1425D01*
X514Y1425D02*
X529Y1425D01*
X1164Y1425D02*
X1180Y1425D01*
X1214Y1425D02*
X1229Y1425D01*
X465Y1424D02*
X480Y1424D01*
X513Y1424D02*
X529Y1424D01*
X1164Y1424D02*
X1180Y1424D01*
X1213Y1424D02*
X1229Y1424D01*
X465Y1423D02*
X481Y1423D01*
X512Y1423D02*
X529Y1423D01*
X1165Y1423D02*
X1181Y1423D01*
X1212Y1423D02*
X1229Y1423D01*
X465Y1422D02*
X482Y1422D01*
X512Y1422D02*
X528Y1422D01*
X1165Y1422D02*
X1182Y1422D01*
X1212Y1422D02*
X1228Y1422D01*
X466Y1421D02*
X482Y1421D01*
X511Y1421D02*
X528Y1421D01*
X1165Y1421D02*
X1182Y1421D01*
X1211Y1421D02*
X1228Y1421D01*
X466Y1420D02*
X483Y1420D01*
X510Y1420D02*
X528Y1420D01*
X1166Y1420D02*
X1183Y1420D01*
X1210Y1420D02*
X1228Y1420D01*
X466Y1419D02*
X484Y1419D01*
X509Y1419D02*
X527Y1419D01*
X1166Y1419D02*
X1184Y1419D01*
X1209Y1419D02*
X1227Y1419D01*
X467Y1418D02*
X486Y1418D01*
X508Y1418D02*
X527Y1418D01*
X1167Y1418D02*
X1185Y1418D01*
X1208Y1418D02*
X1227Y1418D01*
X467Y1417D02*
X487Y1417D01*
X506Y1417D02*
X526Y1417D01*
X1167Y1417D02*
X1187Y1417D01*
X1206Y1417D02*
X1226Y1417D01*
X468Y1416D02*
X489Y1416D01*
X504Y1416D02*
X526Y1416D01*
X1168Y1416D02*
X1189Y1416D01*
X1204Y1416D02*
X1226Y1416D01*
X468Y1415D02*
X492Y1415D01*
X501Y1415D02*
X525Y1415D01*
X1168Y1415D02*
X1192Y1415D01*
X1201Y1415D02*
X1225Y1415D01*
X469Y1414D02*
X524Y1414D01*
X1169Y1414D02*
X1224Y1414D01*
X470Y1413D02*
X524Y1413D01*
X1169Y1413D02*
X1224Y1413D01*
X470Y1412D02*
X523Y1412D01*
X1170Y1412D02*
X1223Y1412D01*
X471Y1411D02*
X522Y1411D01*
X1171Y1411D02*
X1222Y1411D01*
X472Y1410D02*
X521Y1410D01*
X1172Y1410D02*
X1221Y1410D01*
X473Y1409D02*
X521Y1409D01*
X1173Y1409D02*
X1220Y1409D01*
X474Y1408D02*
X520Y1408D01*
X1174Y1408D02*
X1219Y1408D01*
X475Y1407D02*
X518Y1407D01*
X1175Y1407D02*
X1218Y1407D01*
X476Y1406D02*
X517Y1406D01*
X1176Y1406D02*
X1217Y1406D01*
X477Y1405D02*
X516Y1405D01*
X1177Y1405D02*
X1216Y1405D01*
X479Y1404D02*
X514Y1404D01*
X1179Y1404D02*
X1214Y1404D01*
X481Y1403D02*
X513Y1403D01*
X1181Y1403D02*
X1212Y1403D01*
X483Y1402D02*
X511Y1402D01*
X1183Y1402D02*
X1210Y1402D01*
X485Y1401D02*
X508Y1401D01*
X1185Y1401D02*
X1208Y1401D01*
X488Y1400D02*
X505Y1400D01*
X1188Y1400D02*
X1205Y1400D01*
X492Y1399D02*
X501Y1399D01*
X1192Y1399D02*
X1201Y1399D01*
X491Y1366D02*
X502Y1366D01*
X1191Y1366D02*
X1202Y1366D01*
X487Y1365D02*
X506Y1365D01*
X1187Y1365D02*
X1206Y1365D01*
X484Y1364D02*
X509Y1364D01*
X1184Y1364D02*
X1209Y1364D01*
X482Y1363D02*
X511Y1363D01*
X1182Y1363D02*
X1211Y1363D01*
X480Y1362D02*
X513Y1362D01*
X1180Y1362D02*
X1213Y1362D01*
X478Y1361D02*
X515Y1361D01*
X1178Y1361D02*
X1215Y1361D01*
X477Y1360D02*
X516Y1360D01*
X1177Y1360D02*
X1216Y1360D01*
X475Y1359D02*
X518Y1359D01*
X1175Y1359D02*
X1218Y1359D01*
X474Y1358D02*
X519Y1358D01*
X1174Y1358D02*
X1219Y1358D01*
X473Y1357D02*
X520Y1357D01*
X1173Y1357D02*
X1220Y1357D01*
X472Y1356D02*
X521Y1356D01*
X1172Y1356D02*
X1221Y1356D01*
X471Y1355D02*
X522Y1355D01*
X1171Y1355D02*
X1222Y1355D01*
X471Y1354D02*
X523Y1354D01*
X1170Y1354D02*
X1223Y1354D01*
X470Y1353D02*
X523Y1353D01*
X1170Y1353D02*
X1223Y1353D01*
X469Y1352D02*
X524Y1352D01*
X1169Y1352D02*
X1224Y1352D01*
X469Y1351D02*
X525Y1351D01*
X1168Y1351D02*
X1225Y1351D01*
X468Y1350D02*
X491Y1350D01*
X502Y1350D02*
X525Y1350D01*
X1168Y1350D02*
X1191Y1350D01*
X1202Y1350D02*
X1225Y1350D01*
X467Y1349D02*
X488Y1349D01*
X505Y1349D02*
X526Y1349D01*
X1167Y1349D02*
X1188Y1349D01*
X1205Y1349D02*
X1226Y1349D01*
X467Y1348D02*
X486Y1348D01*
X507Y1348D02*
X526Y1348D01*
X1167Y1348D02*
X1186Y1348D01*
X1207Y1348D02*
X1226Y1348D01*
X467Y1347D02*
X485Y1347D01*
X508Y1347D02*
X527Y1347D01*
X1166Y1347D02*
X1185Y1347D01*
X1208Y1347D02*
X1227Y1347D01*
X466Y1346D02*
X484Y1346D01*
X509Y1346D02*
X527Y1346D01*
X1166Y1346D02*
X1184Y1346D01*
X1209Y1346D02*
X1227Y1346D01*
X466Y1345D02*
X483Y1345D01*
X510Y1345D02*
X528Y1345D01*
X1166Y1345D02*
X1183Y1345D01*
X1210Y1345D02*
X1228Y1345D01*
X465Y1344D02*
X482Y1344D01*
X511Y1344D02*
X528Y1344D01*
X1165Y1344D02*
X1182Y1344D01*
X1211Y1344D02*
X1228Y1344D01*
X465Y1343D02*
X481Y1343D01*
X512Y1343D02*
X529Y1343D01*
X1165Y1343D02*
X1181Y1343D01*
X1212Y1343D02*
X1228Y1343D01*
X465Y1342D02*
X481Y1342D01*
X513Y1342D02*
X529Y1342D01*
X1165Y1342D02*
X1181Y1342D01*
X1213Y1342D02*
X1229Y1342D01*
X464Y1341D02*
X480Y1341D01*
X513Y1341D02*
X529Y1341D01*
X1164Y1341D02*
X1180Y1341D01*
X1213Y1341D02*
X1229Y1341D01*
X464Y1340D02*
X480Y1340D01*
X514Y1340D02*
X529Y1340D01*
X1164Y1340D02*
X1179Y1340D01*
X1214Y1340D02*
X1229Y1340D01*
X464Y1339D02*
X479Y1339D01*
X514Y1339D02*
X530Y1339D01*
X1164Y1339D02*
X1179Y1339D01*
X1214Y1339D02*
X1230Y1339D01*
X464Y1338D02*
X479Y1338D01*
X515Y1338D02*
X530Y1338D01*
X1164Y1338D02*
X1179Y1338D01*
X1214Y1338D02*
X1230Y1338D01*
X464Y1337D02*
X479Y1337D01*
X515Y1337D02*
X530Y1337D01*
X1164Y1337D02*
X1179Y1337D01*
X1215Y1337D02*
X1230Y1337D01*
X464Y1336D02*
X479Y1336D01*
X515Y1336D02*
X530Y1336D01*
X1163Y1336D02*
X1178Y1336D01*
X1215Y1336D02*
X1230Y1336D01*
X463Y1335D02*
X478Y1335D01*
X515Y1335D02*
X530Y1335D01*
X1163Y1335D02*
X1178Y1335D01*
X1215Y1335D02*
X1230Y1335D01*
X463Y1334D02*
X478Y1334D01*
X515Y1334D02*
X530Y1334D01*
X1163Y1334D02*
X1178Y1334D01*
X1215Y1334D02*
X1230Y1334D01*
X463Y1333D02*
X478Y1333D01*
X515Y1333D02*
X530Y1333D01*
X1163Y1333D02*
X1178Y1333D01*
X1215Y1333D02*
X1230Y1333D01*
X463Y1332D02*
X478Y1332D01*
X515Y1332D02*
X530Y1332D01*
X1163Y1332D02*
X1178Y1332D01*
X1215Y1332D02*
X1230Y1332D01*
X463Y1331D02*
X478Y1331D01*
X515Y1331D02*
X530Y1331D01*
X1163Y1331D02*
X1178Y1331D01*
X1215Y1331D02*
X1230Y1331D01*
X463Y1330D02*
X479Y1330D01*
X515Y1330D02*
X530Y1330D01*
X1163Y1330D02*
X1178Y1330D01*
X1215Y1330D02*
X1230Y1330D01*
X464Y1329D02*
X479Y1329D01*
X515Y1329D02*
X530Y1329D01*
X1163Y1329D02*
X1179Y1329D01*
X1215Y1329D02*
X1230Y1329D01*
X464Y1328D02*
X479Y1328D01*
X515Y1328D02*
X530Y1328D01*
X1164Y1328D02*
X1179Y1328D01*
X1215Y1328D02*
X1230Y1328D01*
X464Y1327D02*
X479Y1327D01*
X514Y1327D02*
X530Y1327D01*
X1164Y1327D02*
X1179Y1327D01*
X1214Y1327D02*
X1230Y1327D01*
X464Y1326D02*
X479Y1326D01*
X514Y1326D02*
X530Y1326D01*
X1164Y1326D02*
X1179Y1326D01*
X1214Y1326D02*
X1229Y1326D01*
X464Y1325D02*
X480Y1325D01*
X514Y1325D02*
X529Y1325D01*
X1164Y1325D02*
X1180Y1325D01*
X1213Y1325D02*
X1229Y1325D01*
X465Y1324D02*
X480Y1324D01*
X513Y1324D02*
X529Y1324D01*
X1164Y1324D02*
X1180Y1324D01*
X1213Y1324D02*
X1229Y1324D01*
X465Y1323D02*
X481Y1323D01*
X512Y1323D02*
X529Y1323D01*
X1165Y1323D02*
X1181Y1323D01*
X1212Y1323D02*
X1229Y1323D01*
X465Y1322D02*
X482Y1322D01*
X512Y1322D02*
X528Y1322D01*
X1165Y1322D02*
X1182Y1322D01*
X1212Y1322D02*
X1228Y1322D01*
X466Y1321D02*
X483Y1321D01*
X511Y1321D02*
X528Y1321D01*
X1165Y1321D02*
X1182Y1321D01*
X1211Y1321D02*
X1228Y1321D01*
X466Y1320D02*
X483Y1320D01*
X510Y1320D02*
X528Y1320D01*
X1166Y1320D02*
X1183Y1320D01*
X1210Y1320D02*
X1228Y1320D01*
X466Y1319D02*
X484Y1319D01*
X509Y1319D02*
X527Y1319D01*
X1166Y1319D02*
X1184Y1319D01*
X1209Y1319D02*
X1227Y1319D01*
X467Y1318D02*
X486Y1318D01*
X508Y1318D02*
X527Y1318D01*
X1167Y1318D02*
X1185Y1318D01*
X1208Y1318D02*
X1227Y1318D01*
X467Y1317D02*
X487Y1317D01*
X506Y1317D02*
X526Y1317D01*
X1167Y1317D02*
X1187Y1317D01*
X1206Y1317D02*
X1226Y1317D01*
X468Y1316D02*
X489Y1316D01*
X504Y1316D02*
X526Y1316D01*
X1168Y1316D02*
X1189Y1316D01*
X1204Y1316D02*
X1226Y1316D01*
X468Y1315D02*
X492Y1315D01*
X501Y1315D02*
X525Y1315D01*
X1168Y1315D02*
X1192Y1315D01*
X1201Y1315D02*
X1225Y1315D01*
X469Y1314D02*
X524Y1314D01*
X1169Y1314D02*
X1224Y1314D01*
X470Y1313D02*
X524Y1313D01*
X1169Y1313D02*
X1224Y1313D01*
X470Y1312D02*
X523Y1312D01*
X1170Y1312D02*
X1223Y1312D01*
X471Y1311D02*
X522Y1311D01*
X1171Y1311D02*
X1222Y1311D01*
X472Y1310D02*
X521Y1310D01*
X1172Y1310D02*
X1221Y1310D01*
X473Y1309D02*
X521Y1309D01*
X1173Y1309D02*
X1220Y1309D01*
X474Y1308D02*
X519Y1308D01*
X1174Y1308D02*
X1219Y1308D01*
X475Y1307D02*
X518Y1307D01*
X1175Y1307D02*
X1218Y1307D01*
X476Y1306D02*
X517Y1306D01*
X1176Y1306D02*
X1217Y1306D01*
X477Y1305D02*
X516Y1305D01*
X1177Y1305D02*
X1216Y1305D01*
X479Y1304D02*
X514Y1304D01*
X1179Y1304D02*
X1214Y1304D01*
X481Y1303D02*
X513Y1303D01*
X1181Y1303D02*
X1212Y1303D01*
X483Y1302D02*
X511Y1302D01*
X1183Y1302D02*
X1210Y1302D01*
X485Y1301D02*
X508Y1301D01*
X1185Y1301D02*
X1208Y1301D01*
X488Y1300D02*
X505Y1300D01*
X1188Y1300D02*
X1205Y1300D01*
X492Y1299D02*
X501Y1299D01*
X1192Y1299D02*
X1201Y1299D01*
X491Y1266D02*
X502Y1266D01*
X1191Y1266D02*
X1202Y1266D01*
X487Y1265D02*
X506Y1265D01*
X1187Y1265D02*
X1206Y1265D01*
X484Y1264D02*
X509Y1264D01*
X1184Y1264D02*
X1209Y1264D01*
X482Y1263D02*
X511Y1263D01*
X1182Y1263D02*
X1211Y1263D01*
X480Y1262D02*
X513Y1262D01*
X1180Y1262D02*
X1213Y1262D01*
X478Y1261D02*
X515Y1261D01*
X1178Y1261D02*
X1215Y1261D01*
X477Y1260D02*
X516Y1260D01*
X1177Y1260D02*
X1216Y1260D01*
X475Y1259D02*
X518Y1259D01*
X1175Y1259D02*
X1218Y1259D01*
X474Y1258D02*
X519Y1258D01*
X1174Y1258D02*
X1219Y1258D01*
X473Y1257D02*
X520Y1257D01*
X1173Y1257D02*
X1220Y1257D01*
X472Y1256D02*
X521Y1256D01*
X1172Y1256D02*
X1221Y1256D01*
X471Y1255D02*
X522Y1255D01*
X1171Y1255D02*
X1222Y1255D01*
X471Y1254D02*
X523Y1254D01*
X1170Y1254D02*
X1223Y1254D01*
X470Y1253D02*
X523Y1253D01*
X1170Y1253D02*
X1223Y1253D01*
X469Y1252D02*
X524Y1252D01*
X1169Y1252D02*
X1224Y1252D01*
X469Y1251D02*
X525Y1251D01*
X1168Y1251D02*
X1225Y1251D01*
X468Y1250D02*
X491Y1250D01*
X502Y1250D02*
X525Y1250D01*
X1168Y1250D02*
X1191Y1250D01*
X1202Y1250D02*
X1225Y1250D01*
X467Y1249D02*
X488Y1249D01*
X505Y1249D02*
X526Y1249D01*
X1167Y1249D02*
X1188Y1249D01*
X1205Y1249D02*
X1226Y1249D01*
X467Y1248D02*
X486Y1248D01*
X507Y1248D02*
X526Y1248D01*
X1167Y1248D02*
X1186Y1248D01*
X1207Y1248D02*
X1226Y1248D01*
X466Y1247D02*
X485Y1247D01*
X508Y1247D02*
X527Y1247D01*
X1166Y1247D02*
X1185Y1247D01*
X1208Y1247D02*
X1227Y1247D01*
X466Y1246D02*
X484Y1246D01*
X509Y1246D02*
X527Y1246D01*
X1166Y1246D02*
X1184Y1246D01*
X1209Y1246D02*
X1227Y1246D01*
X466Y1245D02*
X483Y1245D01*
X510Y1245D02*
X528Y1245D01*
X1166Y1245D02*
X1183Y1245D01*
X1210Y1245D02*
X1228Y1245D01*
X465Y1244D02*
X482Y1244D01*
X511Y1244D02*
X528Y1244D01*
X1165Y1244D02*
X1182Y1244D01*
X1211Y1244D02*
X1228Y1244D01*
X465Y1243D02*
X481Y1243D01*
X512Y1243D02*
X529Y1243D01*
X1165Y1243D02*
X1181Y1243D01*
X1212Y1243D02*
X1228Y1243D01*
X465Y1242D02*
X481Y1242D01*
X513Y1242D02*
X529Y1242D01*
X1165Y1242D02*
X1181Y1242D01*
X1213Y1242D02*
X1229Y1242D01*
X464Y1241D02*
X480Y1241D01*
X513Y1241D02*
X529Y1241D01*
X1164Y1241D02*
X1180Y1241D01*
X1213Y1241D02*
X1229Y1241D01*
X464Y1240D02*
X480Y1240D01*
X514Y1240D02*
X529Y1240D01*
X1164Y1240D02*
X1179Y1240D01*
X1214Y1240D02*
X1229Y1240D01*
X464Y1239D02*
X479Y1239D01*
X514Y1239D02*
X530Y1239D01*
X1164Y1239D02*
X1179Y1239D01*
X1214Y1239D02*
X1230Y1239D01*
X464Y1238D02*
X479Y1238D01*
X515Y1238D02*
X530Y1238D01*
X1164Y1238D02*
X1179Y1238D01*
X1214Y1238D02*
X1230Y1238D01*
X464Y1237D02*
X479Y1237D01*
X515Y1237D02*
X530Y1237D01*
X1164Y1237D02*
X1179Y1237D01*
X1215Y1237D02*
X1230Y1237D01*
X464Y1236D02*
X479Y1236D01*
X515Y1236D02*
X530Y1236D01*
X1163Y1236D02*
X1178Y1236D01*
X1215Y1236D02*
X1230Y1236D01*
X463Y1235D02*
X478Y1235D01*
X515Y1235D02*
X530Y1235D01*
X1163Y1235D02*
X1178Y1235D01*
X1215Y1235D02*
X1230Y1235D01*
X463Y1234D02*
X478Y1234D01*
X515Y1234D02*
X530Y1234D01*
X1163Y1234D02*
X1178Y1234D01*
X1215Y1234D02*
X1230Y1234D01*
X463Y1233D02*
X478Y1233D01*
X515Y1233D02*
X530Y1233D01*
X1163Y1233D02*
X1178Y1233D01*
X1215Y1233D02*
X1230Y1233D01*
X463Y1232D02*
X478Y1232D01*
X515Y1232D02*
X530Y1232D01*
X1163Y1232D02*
X1178Y1232D01*
X1215Y1232D02*
X1230Y1232D01*
X463Y1231D02*
X478Y1231D01*
X515Y1231D02*
X530Y1231D01*
X1163Y1231D02*
X1178Y1231D01*
X1215Y1231D02*
X1230Y1231D01*
X463Y1230D02*
X479Y1230D01*
X515Y1230D02*
X530Y1230D01*
X1163Y1230D02*
X1178Y1230D01*
X1215Y1230D02*
X1230Y1230D01*
X464Y1229D02*
X479Y1229D01*
X515Y1229D02*
X530Y1229D01*
X1163Y1229D02*
X1179Y1229D01*
X1215Y1229D02*
X1230Y1229D01*
X464Y1228D02*
X479Y1228D01*
X515Y1228D02*
X530Y1228D01*
X1164Y1228D02*
X1179Y1228D01*
X1215Y1228D02*
X1230Y1228D01*
X464Y1227D02*
X479Y1227D01*
X514Y1227D02*
X530Y1227D01*
X1164Y1227D02*
X1179Y1227D01*
X1214Y1227D02*
X1230Y1227D01*
X464Y1226D02*
X479Y1226D01*
X514Y1226D02*
X530Y1226D01*
X1164Y1226D02*
X1179Y1226D01*
X1214Y1226D02*
X1229Y1226D01*
X464Y1225D02*
X480Y1225D01*
X514Y1225D02*
X529Y1225D01*
X1164Y1225D02*
X1180Y1225D01*
X1213Y1225D02*
X1229Y1225D01*
X465Y1224D02*
X480Y1224D01*
X513Y1224D02*
X529Y1224D01*
X1164Y1224D02*
X1180Y1224D01*
X1213Y1224D02*
X1229Y1224D01*
X465Y1223D02*
X481Y1223D01*
X512Y1223D02*
X529Y1223D01*
X1165Y1223D02*
X1181Y1223D01*
X1212Y1223D02*
X1229Y1223D01*
X465Y1222D02*
X482Y1222D01*
X512Y1222D02*
X528Y1222D01*
X1165Y1222D02*
X1182Y1222D01*
X1212Y1222D02*
X1228Y1222D01*
X466Y1221D02*
X483Y1221D01*
X511Y1221D02*
X528Y1221D01*
X1165Y1221D02*
X1182Y1221D01*
X1211Y1221D02*
X1228Y1221D01*
X466Y1220D02*
X483Y1220D01*
X510Y1220D02*
X528Y1220D01*
X1166Y1220D02*
X1183Y1220D01*
X1210Y1220D02*
X1228Y1220D01*
X466Y1219D02*
X484Y1219D01*
X509Y1219D02*
X527Y1219D01*
X1166Y1219D02*
X1184Y1219D01*
X1209Y1219D02*
X1227Y1219D01*
X467Y1218D02*
X486Y1218D01*
X508Y1218D02*
X527Y1218D01*
X1167Y1218D02*
X1185Y1218D01*
X1207Y1218D02*
X1227Y1218D01*
X467Y1217D02*
X487Y1217D01*
X506Y1217D02*
X526Y1217D01*
X1167Y1217D02*
X1187Y1217D01*
X1206Y1217D02*
X1226Y1217D01*
X468Y1216D02*
X489Y1216D01*
X504Y1216D02*
X526Y1216D01*
X1168Y1216D02*
X1189Y1216D01*
X1204Y1216D02*
X1226Y1216D01*
X468Y1215D02*
X492Y1215D01*
X501Y1215D02*
X525Y1215D01*
X1168Y1215D02*
X1192Y1215D01*
X1201Y1215D02*
X1225Y1215D01*
X469Y1214D02*
X524Y1214D01*
X1169Y1214D02*
X1224Y1214D01*
X470Y1213D02*
X524Y1213D01*
X1169Y1213D02*
X1224Y1213D01*
X470Y1212D02*
X523Y1212D01*
X1170Y1212D02*
X1223Y1212D01*
X471Y1211D02*
X522Y1211D01*
X1171Y1211D02*
X1222Y1211D01*
X472Y1210D02*
X521Y1210D01*
X1172Y1210D02*
X1221Y1210D01*
X473Y1209D02*
X521Y1209D01*
X1173Y1209D02*
X1220Y1209D01*
X474Y1208D02*
X519Y1208D01*
X1174Y1208D02*
X1219Y1208D01*
X475Y1207D02*
X518Y1207D01*
X1175Y1207D02*
X1218Y1207D01*
X476Y1206D02*
X517Y1206D01*
X1176Y1206D02*
X1217Y1206D01*
X477Y1205D02*
X516Y1205D01*
X1177Y1205D02*
X1216Y1205D01*
X479Y1204D02*
X514Y1204D01*
X1179Y1204D02*
X1214Y1204D01*
X481Y1203D02*
X513Y1203D01*
X1181Y1203D02*
X1212Y1203D01*
X483Y1202D02*
X510Y1202D01*
X1183Y1202D02*
X1210Y1202D01*
X485Y1201D02*
X508Y1201D01*
X1185Y1201D02*
X1208Y1201D01*
X488Y1200D02*
X505Y1200D01*
X1188Y1200D02*
X1205Y1200D01*
X493Y1199D02*
X501Y1199D01*
X1192Y1199D02*
X1201Y1199D01*
X491Y1166D02*
X502Y1166D01*
X1191Y1166D02*
X1202Y1166D01*
X487Y1165D02*
X506Y1165D01*
X1187Y1165D02*
X1206Y1165D01*
X484Y1164D02*
X509Y1164D01*
X1184Y1164D02*
X1209Y1164D01*
X482Y1163D02*
X511Y1163D01*
X1182Y1163D02*
X1211Y1163D01*
X480Y1162D02*
X513Y1162D01*
X1180Y1162D02*
X1213Y1162D01*
X478Y1161D02*
X515Y1161D01*
X1178Y1161D02*
X1215Y1161D01*
X477Y1160D02*
X516Y1160D01*
X1177Y1160D02*
X1216Y1160D01*
X475Y1159D02*
X518Y1159D01*
X1175Y1159D02*
X1218Y1159D01*
X474Y1158D02*
X519Y1158D01*
X1174Y1158D02*
X1219Y1158D01*
X473Y1157D02*
X520Y1157D01*
X1173Y1157D02*
X1220Y1157D01*
X472Y1156D02*
X521Y1156D01*
X1172Y1156D02*
X1221Y1156D01*
X471Y1155D02*
X522Y1155D01*
X1171Y1155D02*
X1222Y1155D01*
X471Y1154D02*
X523Y1154D01*
X1170Y1154D02*
X1223Y1154D01*
X470Y1153D02*
X523Y1153D01*
X1170Y1153D02*
X1223Y1153D01*
X469Y1152D02*
X524Y1152D01*
X1169Y1152D02*
X1224Y1152D01*
X469Y1151D02*
X525Y1151D01*
X1168Y1151D02*
X1225Y1151D01*
X468Y1150D02*
X491Y1150D01*
X502Y1150D02*
X525Y1150D01*
X1168Y1150D02*
X1191Y1150D01*
X1202Y1150D02*
X1225Y1150D01*
X467Y1149D02*
X488Y1149D01*
X505Y1149D02*
X526Y1149D01*
X1167Y1149D02*
X1188Y1149D01*
X1205Y1149D02*
X1226Y1149D01*
X467Y1148D02*
X486Y1148D01*
X507Y1148D02*
X527Y1148D01*
X1167Y1148D02*
X1186Y1148D01*
X1207Y1148D02*
X1226Y1148D01*
X466Y1147D02*
X485Y1147D01*
X508Y1147D02*
X527Y1147D01*
X1166Y1147D02*
X1185Y1147D01*
X1208Y1147D02*
X1227Y1147D01*
X466Y1146D02*
X484Y1146D01*
X509Y1146D02*
X527Y1146D01*
X1166Y1146D02*
X1184Y1146D01*
X1209Y1146D02*
X1227Y1146D01*
X466Y1145D02*
X483Y1145D01*
X510Y1145D02*
X528Y1145D01*
X1166Y1145D02*
X1183Y1145D01*
X1210Y1145D02*
X1228Y1145D01*
X465Y1144D02*
X482Y1144D01*
X511Y1144D02*
X528Y1144D01*
X1165Y1144D02*
X1182Y1144D01*
X1211Y1144D02*
X1228Y1144D01*
X465Y1143D02*
X481Y1143D01*
X512Y1143D02*
X529Y1143D01*
X1165Y1143D02*
X1181Y1143D01*
X1212Y1143D02*
X1228Y1143D01*
X465Y1142D02*
X481Y1142D01*
X513Y1142D02*
X529Y1142D01*
X1165Y1142D02*
X1181Y1142D01*
X1213Y1142D02*
X1229Y1142D01*
X464Y1141D02*
X480Y1141D01*
X513Y1141D02*
X529Y1141D01*
X1164Y1141D02*
X1180Y1141D01*
X1213Y1141D02*
X1229Y1141D01*
X464Y1140D02*
X480Y1140D01*
X514Y1140D02*
X529Y1140D01*
X1164Y1140D02*
X1179Y1140D01*
X1214Y1140D02*
X1229Y1140D01*
X464Y1139D02*
X479Y1139D01*
X514Y1139D02*
X530Y1139D01*
X1164Y1139D02*
X1179Y1139D01*
X1214Y1139D02*
X1230Y1139D01*
X464Y1138D02*
X479Y1138D01*
X515Y1138D02*
X530Y1138D01*
X1164Y1138D02*
X1179Y1138D01*
X1214Y1138D02*
X1230Y1138D01*
X464Y1137D02*
X479Y1137D01*
X515Y1137D02*
X530Y1137D01*
X1164Y1137D02*
X1179Y1137D01*
X1215Y1137D02*
X1230Y1137D01*
X464Y1136D02*
X479Y1136D01*
X515Y1136D02*
X530Y1136D01*
X1163Y1136D02*
X1178Y1136D01*
X1215Y1136D02*
X1230Y1136D01*
X463Y1135D02*
X478Y1135D01*
X515Y1135D02*
X530Y1135D01*
X1163Y1135D02*
X1178Y1135D01*
X1215Y1135D02*
X1230Y1135D01*
X463Y1134D02*
X478Y1134D01*
X515Y1134D02*
X530Y1134D01*
X1163Y1134D02*
X1178Y1134D01*
X1215Y1134D02*
X1230Y1134D01*
X463Y1133D02*
X478Y1133D01*
X515Y1133D02*
X530Y1133D01*
X1163Y1133D02*
X1178Y1133D01*
X1215Y1133D02*
X1230Y1133D01*
X463Y1132D02*
X478Y1132D01*
X515Y1132D02*
X530Y1132D01*
X1163Y1132D02*
X1178Y1132D01*
X1215Y1132D02*
X1230Y1132D01*
X463Y1131D02*
X478Y1131D01*
X515Y1131D02*
X530Y1131D01*
X1163Y1131D02*
X1178Y1131D01*
X1215Y1131D02*
X1230Y1131D01*
X463Y1130D02*
X479Y1130D01*
X515Y1130D02*
X530Y1130D01*
X1163Y1130D02*
X1178Y1130D01*
X1215Y1130D02*
X1230Y1130D01*
X464Y1129D02*
X479Y1129D01*
X515Y1129D02*
X530Y1129D01*
X1163Y1129D02*
X1179Y1129D01*
X1215Y1129D02*
X1230Y1129D01*
X464Y1128D02*
X479Y1128D01*
X515Y1128D02*
X530Y1128D01*
X1164Y1128D02*
X1179Y1128D01*
X1215Y1128D02*
X1230Y1128D01*
X464Y1127D02*
X479Y1127D01*
X514Y1127D02*
X530Y1127D01*
X1164Y1127D02*
X1179Y1127D01*
X1214Y1127D02*
X1230Y1127D01*
X464Y1126D02*
X479Y1126D01*
X514Y1126D02*
X530Y1126D01*
X1164Y1126D02*
X1179Y1126D01*
X1214Y1126D02*
X1229Y1126D01*
X464Y1125D02*
X480Y1125D01*
X514Y1125D02*
X529Y1125D01*
X1164Y1125D02*
X1180Y1125D01*
X1213Y1125D02*
X1229Y1125D01*
X465Y1124D02*
X480Y1124D01*
X513Y1124D02*
X529Y1124D01*
X1164Y1124D02*
X1180Y1124D01*
X1213Y1124D02*
X1229Y1124D01*
X465Y1123D02*
X481Y1123D01*
X512Y1123D02*
X529Y1123D01*
X1165Y1123D02*
X1181Y1123D01*
X1212Y1123D02*
X1229Y1123D01*
X465Y1122D02*
X482Y1122D01*
X512Y1122D02*
X528Y1122D01*
X1165Y1122D02*
X1182Y1122D01*
X1212Y1122D02*
X1228Y1122D01*
X466Y1121D02*
X483Y1121D01*
X511Y1121D02*
X528Y1121D01*
X1165Y1121D02*
X1182Y1121D01*
X1211Y1121D02*
X1228Y1121D01*
X466Y1120D02*
X483Y1120D01*
X510Y1120D02*
X528Y1120D01*
X1166Y1120D02*
X1183Y1120D01*
X1210Y1120D02*
X1228Y1120D01*
X466Y1119D02*
X484Y1119D01*
X509Y1119D02*
X527Y1119D01*
X1166Y1119D02*
X1184Y1119D01*
X1209Y1119D02*
X1227Y1119D01*
X467Y1118D02*
X486Y1118D01*
X508Y1118D02*
X527Y1118D01*
X1167Y1118D02*
X1186Y1118D01*
X1207Y1118D02*
X1227Y1118D01*
X467Y1117D02*
X487Y1117D01*
X506Y1117D02*
X526Y1117D01*
X1167Y1117D02*
X1187Y1117D01*
X1206Y1117D02*
X1226Y1117D01*
X468Y1116D02*
X489Y1116D01*
X504Y1116D02*
X526Y1116D01*
X1168Y1116D02*
X1189Y1116D01*
X1204Y1116D02*
X1226Y1116D01*
X468Y1115D02*
X492Y1115D01*
X501Y1115D02*
X525Y1115D01*
X1168Y1115D02*
X1192Y1115D01*
X1201Y1115D02*
X1225Y1115D01*
X469Y1114D02*
X524Y1114D01*
X1169Y1114D02*
X1224Y1114D01*
X470Y1113D02*
X524Y1113D01*
X1169Y1113D02*
X1224Y1113D01*
X470Y1112D02*
X523Y1112D01*
X1170Y1112D02*
X1223Y1112D01*
X471Y1111D02*
X522Y1111D01*
X1171Y1111D02*
X1222Y1111D01*
X472Y1110D02*
X521Y1110D01*
X1172Y1110D02*
X1221Y1110D01*
X473Y1109D02*
X520Y1109D01*
X1173Y1109D02*
X1220Y1109D01*
X474Y1108D02*
X519Y1108D01*
X1174Y1108D02*
X1219Y1108D01*
X475Y1107D02*
X518Y1107D01*
X1175Y1107D02*
X1218Y1107D01*
X476Y1106D02*
X517Y1106D01*
X1176Y1106D02*
X1217Y1106D01*
X477Y1105D02*
X516Y1105D01*
X1177Y1105D02*
X1216Y1105D01*
X479Y1104D02*
X514Y1104D01*
X1179Y1104D02*
X1214Y1104D01*
X481Y1103D02*
X512Y1103D01*
X1181Y1103D02*
X1212Y1103D01*
X483Y1102D02*
X510Y1102D01*
X1183Y1102D02*
X1210Y1102D01*
X485Y1101D02*
X508Y1101D01*
X1185Y1101D02*
X1208Y1101D01*
X488Y1100D02*
X505Y1100D01*
X1188Y1100D02*
X1205Y1100D01*
X493Y1099D02*
X501Y1099D01*
X1193Y1099D02*
X1201Y1099D01*
D02*
G04 End of Copper1*
M02*