G04 MADE WITH FRITZING*
G04 WWW.FRITZING.ORG*
G04 DOUBLE SIDED*
G04 HOLES PLATED*
G04 CONTOUR ON CENTER OF CONTOUR VECTOR*
%ASAXBY*%
%FSLAX23Y23*%
%MOIN*%
%OFA0B0*%
%SFA1.0B1.0*%
%ADD10C,0.254094*%
%ADD11C,0.049370*%
%ADD12C,0.084000*%
%ADD13C,0.148425*%
%ADD14C,0.076000*%
%ADD15C,0.090000*%
%ADD16C,0.083667*%
%ADD17C,0.080000*%
%ADD18C,0.095000*%
%ADD19C,0.088000*%
%ADD20C,0.135985*%
%ADD21R,0.090000X0.090000*%
%ADD22R,0.088000X0.088000*%
%ADD23R,0.001000X0.001000*%
%LNMASK0*%
G90*
G70*
G54D10*
X239Y234D03*
X4989Y4117D03*
G54D11*
X4297Y531D03*
X3997Y531D03*
X1797Y1631D03*
X1597Y1531D03*
X1197Y831D03*
X1197Y646D03*
X1197Y131D03*
X1197Y431D03*
X1997Y1531D03*
X197Y1431D03*
X197Y1231D03*
X4303Y1034D03*
X3797Y831D03*
X4797Y631D03*
X4597Y631D03*
G54D12*
X497Y3131D03*
X597Y3131D03*
X697Y3131D03*
X797Y3131D03*
G54D11*
X4097Y2331D03*
X4097Y2131D03*
X4997Y2331D03*
X4397Y2931D03*
X4097Y2931D03*
X4397Y2731D03*
X2405Y1435D03*
X3997Y1431D03*
X4197Y831D03*
X4297Y1631D03*
X4297Y826D03*
X1797Y731D03*
X1597Y731D03*
X1697Y431D03*
X1797Y2131D03*
X1997Y2131D03*
X1994Y1735D03*
X1797Y1731D03*
X2397Y2031D03*
X1812Y2031D03*
X4397Y2431D03*
X4397Y2131D03*
X4097Y431D03*
X4097Y1031D03*
X4597Y2131D03*
X4597Y2331D03*
X697Y2231D03*
X697Y2031D03*
X297Y2931D03*
X297Y2731D03*
X4197Y2231D03*
X3797Y2231D03*
X2997Y1831D03*
X2697Y3131D03*
X2697Y2431D03*
X2866Y2136D03*
X3162Y2131D03*
X1397Y931D03*
X1397Y631D03*
X1597Y431D03*
X1597Y131D03*
X4997Y3131D03*
X4797Y3131D03*
X397Y831D03*
X897Y2431D03*
X897Y2631D03*
X1797Y2631D03*
X2097Y2831D03*
X3397Y2831D03*
X3397Y2331D03*
X1897Y3531D03*
X1897Y3131D03*
X2397Y931D03*
X2797Y931D03*
X1784Y2436D03*
X2002Y2436D03*
X297Y1431D03*
X297Y1231D03*
X4397Y1031D03*
X4697Y1031D03*
G54D13*
X1547Y3531D03*
G54D14*
X1697Y3131D03*
X1597Y3131D03*
X1497Y3131D03*
X1397Y3131D03*
G54D15*
X4797Y2431D03*
X4797Y2331D03*
G54D16*
X4697Y1731D03*
X4797Y1731D03*
X4697Y1631D03*
X4797Y1631D03*
X4697Y1531D03*
X4797Y1531D03*
X4697Y1431D03*
X4797Y1431D03*
X4697Y1331D03*
X4797Y1331D03*
G54D17*
X3497Y1531D03*
X3597Y1531D03*
X3697Y1531D03*
X3797Y1531D03*
X3897Y1531D03*
X3397Y1131D03*
X3497Y1131D03*
X3597Y1131D03*
X3697Y1131D03*
X3797Y1131D03*
X3897Y1131D03*
X3397Y1531D03*
G54D18*
X3505Y2531D03*
X3505Y2334D03*
X3997Y2334D03*
X3997Y2531D03*
X2805Y2531D03*
X2805Y2334D03*
X3297Y2334D03*
X3297Y2531D03*
X2105Y2531D03*
X2105Y2334D03*
X2597Y2334D03*
X2597Y2531D03*
G54D14*
X4497Y3931D03*
X4497Y3831D03*
X4497Y3731D03*
X4097Y3731D03*
X4097Y3831D03*
X4097Y3931D03*
G54D19*
X4697Y3231D03*
X4697Y3131D03*
G54D17*
X2797Y3931D03*
X3397Y3931D03*
G54D20*
X2417Y3048D03*
G54D17*
X2897Y3931D03*
G54D20*
X2417Y3934D03*
G54D17*
X2997Y3931D03*
G54D20*
X3677Y3934D03*
G54D17*
X3097Y3931D03*
G54D20*
X3677Y3048D03*
G54D17*
X3197Y3931D03*
X3297Y3931D03*
X2697Y3931D03*
G54D13*
X2697Y1181D03*
G54D17*
X2297Y1131D03*
X2297Y1231D03*
X2297Y1331D03*
X2297Y1431D03*
G54D13*
X2697Y1781D03*
G54D17*
X2297Y1531D03*
X2297Y1631D03*
X2297Y1731D03*
X2297Y1831D03*
G54D21*
X4797Y2431D03*
G54D22*
X4697Y3231D03*
G54D23*
X493Y3248D02*
X501Y3248D01*
X593Y3248D02*
X601Y3248D01*
X693Y3248D02*
X701Y3248D01*
X793Y3248D02*
X801Y3248D01*
X488Y3247D02*
X506Y3247D01*
X588Y3247D02*
X606Y3247D01*
X688Y3247D02*
X706Y3247D01*
X788Y3247D02*
X806Y3247D01*
X484Y3246D02*
X510Y3246D01*
X584Y3246D02*
X610Y3246D01*
X684Y3246D02*
X710Y3246D01*
X784Y3246D02*
X810Y3246D01*
X481Y3245D02*
X512Y3245D01*
X581Y3245D02*
X612Y3245D01*
X681Y3245D02*
X712Y3245D01*
X781Y3245D02*
X812Y3245D01*
X479Y3244D02*
X514Y3244D01*
X579Y3244D02*
X614Y3244D01*
X679Y3244D02*
X714Y3244D01*
X779Y3244D02*
X814Y3244D01*
X477Y3243D02*
X516Y3243D01*
X577Y3243D02*
X616Y3243D01*
X677Y3243D02*
X716Y3243D01*
X777Y3243D02*
X816Y3243D01*
X475Y3242D02*
X518Y3242D01*
X575Y3242D02*
X618Y3242D01*
X675Y3242D02*
X718Y3242D01*
X775Y3242D02*
X818Y3242D01*
X474Y3241D02*
X520Y3241D01*
X574Y3241D02*
X620Y3241D01*
X674Y3241D02*
X720Y3241D01*
X774Y3241D02*
X820Y3241D01*
X472Y3240D02*
X521Y3240D01*
X572Y3240D02*
X621Y3240D01*
X672Y3240D02*
X721Y3240D01*
X772Y3240D02*
X821Y3240D01*
X471Y3239D02*
X523Y3239D01*
X571Y3239D02*
X623Y3239D01*
X671Y3239D02*
X722Y3239D01*
X771Y3239D02*
X822Y3239D01*
X470Y3238D02*
X524Y3238D01*
X570Y3238D02*
X624Y3238D01*
X670Y3238D02*
X724Y3238D01*
X770Y3238D02*
X824Y3238D01*
X469Y3237D02*
X525Y3237D01*
X569Y3237D02*
X625Y3237D01*
X669Y3237D02*
X725Y3237D01*
X769Y3237D02*
X825Y3237D01*
X468Y3236D02*
X526Y3236D01*
X568Y3236D02*
X626Y3236D01*
X668Y3236D02*
X726Y3236D01*
X768Y3236D02*
X826Y3236D01*
X467Y3235D02*
X527Y3235D01*
X567Y3235D02*
X627Y3235D01*
X667Y3235D02*
X727Y3235D01*
X767Y3235D02*
X827Y3235D01*
X466Y3234D02*
X528Y3234D01*
X566Y3234D02*
X628Y3234D01*
X666Y3234D02*
X728Y3234D01*
X766Y3234D02*
X828Y3234D01*
X465Y3233D02*
X529Y3233D01*
X565Y3233D02*
X629Y3233D01*
X665Y3233D02*
X729Y3233D01*
X765Y3233D02*
X829Y3233D01*
X464Y3232D02*
X529Y3232D01*
X564Y3232D02*
X629Y3232D01*
X664Y3232D02*
X729Y3232D01*
X764Y3232D02*
X829Y3232D01*
X463Y3231D02*
X530Y3231D01*
X563Y3231D02*
X630Y3231D01*
X663Y3231D02*
X730Y3231D01*
X763Y3231D02*
X830Y3231D01*
X463Y3230D02*
X531Y3230D01*
X563Y3230D02*
X631Y3230D01*
X663Y3230D02*
X731Y3230D01*
X763Y3230D02*
X831Y3230D01*
X462Y3229D02*
X532Y3229D01*
X562Y3229D02*
X631Y3229D01*
X662Y3229D02*
X731Y3229D01*
X762Y3229D02*
X831Y3229D01*
X462Y3228D02*
X532Y3228D01*
X562Y3228D02*
X632Y3228D01*
X661Y3228D02*
X732Y3228D01*
X761Y3228D02*
X832Y3228D01*
X461Y3227D02*
X533Y3227D01*
X561Y3227D02*
X633Y3227D01*
X661Y3227D02*
X733Y3227D01*
X761Y3227D02*
X833Y3227D01*
X460Y3226D02*
X533Y3226D01*
X560Y3226D02*
X633Y3226D01*
X660Y3226D02*
X733Y3226D01*
X760Y3226D02*
X833Y3226D01*
X460Y3225D02*
X534Y3225D01*
X560Y3225D02*
X634Y3225D01*
X660Y3225D02*
X734Y3225D01*
X760Y3225D02*
X834Y3225D01*
X459Y3224D02*
X534Y3224D01*
X559Y3224D02*
X634Y3224D01*
X659Y3224D02*
X734Y3224D01*
X759Y3224D02*
X834Y3224D01*
X459Y3223D02*
X535Y3223D01*
X559Y3223D02*
X635Y3223D01*
X659Y3223D02*
X735Y3223D01*
X759Y3223D02*
X835Y3223D01*
X459Y3222D02*
X535Y3222D01*
X558Y3222D02*
X635Y3222D01*
X658Y3222D02*
X735Y3222D01*
X758Y3222D02*
X835Y3222D01*
X458Y3221D02*
X536Y3221D01*
X558Y3221D02*
X635Y3221D01*
X658Y3221D02*
X735Y3221D01*
X758Y3221D02*
X835Y3221D01*
X458Y3220D02*
X536Y3220D01*
X558Y3220D02*
X636Y3220D01*
X658Y3220D02*
X736Y3220D01*
X758Y3220D02*
X836Y3220D01*
X457Y3219D02*
X536Y3219D01*
X557Y3219D02*
X636Y3219D01*
X657Y3219D02*
X736Y3219D01*
X757Y3219D02*
X836Y3219D01*
X457Y3218D02*
X537Y3218D01*
X557Y3218D02*
X637Y3218D01*
X657Y3218D02*
X737Y3218D01*
X757Y3218D02*
X836Y3218D01*
X457Y3217D02*
X537Y3217D01*
X557Y3217D02*
X637Y3217D01*
X657Y3217D02*
X737Y3217D01*
X757Y3217D02*
X837Y3217D01*
X457Y3216D02*
X537Y3216D01*
X557Y3216D02*
X637Y3216D01*
X657Y3216D02*
X737Y3216D01*
X757Y3216D02*
X837Y3216D01*
X456Y3215D02*
X537Y3215D01*
X556Y3215D02*
X637Y3215D01*
X656Y3215D02*
X737Y3215D01*
X756Y3215D02*
X837Y3215D01*
X456Y3214D02*
X538Y3214D01*
X556Y3214D02*
X638Y3214D01*
X656Y3214D02*
X737Y3214D01*
X756Y3214D02*
X837Y3214D01*
X456Y3213D02*
X538Y3213D01*
X556Y3213D02*
X638Y3213D01*
X656Y3213D02*
X738Y3213D01*
X756Y3213D02*
X838Y3213D01*
X456Y3212D02*
X538Y3212D01*
X556Y3212D02*
X638Y3212D01*
X656Y3212D02*
X738Y3212D01*
X756Y3212D02*
X838Y3212D01*
X456Y3211D02*
X538Y3211D01*
X556Y3211D02*
X638Y3211D01*
X656Y3211D02*
X738Y3211D01*
X756Y3211D02*
X838Y3211D01*
X456Y3210D02*
X538Y3210D01*
X556Y3210D02*
X638Y3210D01*
X655Y3210D02*
X738Y3210D01*
X755Y3210D02*
X838Y3210D01*
X455Y3209D02*
X538Y3209D01*
X555Y3209D02*
X638Y3209D01*
X655Y3209D02*
X738Y3209D01*
X755Y3209D02*
X838Y3209D01*
X455Y3208D02*
X538Y3208D01*
X555Y3208D02*
X638Y3208D01*
X655Y3208D02*
X738Y3208D01*
X755Y3208D02*
X838Y3208D01*
X455Y3207D02*
X538Y3207D01*
X555Y3207D02*
X638Y3207D01*
X655Y3207D02*
X738Y3207D01*
X755Y3207D02*
X838Y3207D01*
X455Y3206D02*
X538Y3206D01*
X555Y3206D02*
X638Y3206D01*
X655Y3206D02*
X738Y3206D01*
X755Y3206D02*
X838Y3206D01*
X455Y3205D02*
X538Y3205D01*
X555Y3205D02*
X638Y3205D01*
X655Y3205D02*
X738Y3205D01*
X755Y3205D02*
X838Y3205D01*
X455Y3204D02*
X538Y3204D01*
X555Y3204D02*
X638Y3204D01*
X655Y3204D02*
X738Y3204D01*
X755Y3204D02*
X838Y3204D01*
X455Y3203D02*
X538Y3203D01*
X555Y3203D02*
X638Y3203D01*
X655Y3203D02*
X738Y3203D01*
X755Y3203D02*
X838Y3203D01*
X455Y3202D02*
X538Y3202D01*
X555Y3202D02*
X638Y3202D01*
X655Y3202D02*
X738Y3202D01*
X755Y3202D02*
X838Y3202D01*
X455Y3201D02*
X538Y3201D01*
X555Y3201D02*
X638Y3201D01*
X655Y3201D02*
X738Y3201D01*
X755Y3201D02*
X838Y3201D01*
X455Y3200D02*
X538Y3200D01*
X555Y3200D02*
X638Y3200D01*
X655Y3200D02*
X738Y3200D01*
X755Y3200D02*
X838Y3200D01*
X455Y3199D02*
X538Y3199D01*
X555Y3199D02*
X638Y3199D01*
X655Y3199D02*
X738Y3199D01*
X755Y3199D02*
X838Y3199D01*
X455Y3198D02*
X538Y3198D01*
X555Y3198D02*
X638Y3198D01*
X655Y3198D02*
X738Y3198D01*
X755Y3198D02*
X838Y3198D01*
X455Y3197D02*
X538Y3197D01*
X555Y3197D02*
X638Y3197D01*
X655Y3197D02*
X738Y3197D01*
X755Y3197D02*
X838Y3197D01*
X455Y3196D02*
X538Y3196D01*
X555Y3196D02*
X638Y3196D01*
X655Y3196D02*
X738Y3196D01*
X755Y3196D02*
X838Y3196D01*
X455Y3195D02*
X538Y3195D01*
X555Y3195D02*
X638Y3195D01*
X655Y3195D02*
X738Y3195D01*
X755Y3195D02*
X838Y3195D01*
X455Y3194D02*
X538Y3194D01*
X555Y3194D02*
X638Y3194D01*
X655Y3194D02*
X738Y3194D01*
X755Y3194D02*
X838Y3194D01*
X455Y3193D02*
X538Y3193D01*
X555Y3193D02*
X638Y3193D01*
X655Y3193D02*
X738Y3193D01*
X755Y3193D02*
X838Y3193D01*
X455Y3192D02*
X538Y3192D01*
X555Y3192D02*
X638Y3192D01*
X655Y3192D02*
X738Y3192D01*
X755Y3192D02*
X838Y3192D01*
X455Y3191D02*
X538Y3191D01*
X555Y3191D02*
X638Y3191D01*
X655Y3191D02*
X738Y3191D01*
X755Y3191D02*
X838Y3191D01*
X455Y3190D02*
X538Y3190D01*
X555Y3190D02*
X638Y3190D01*
X655Y3190D02*
X738Y3190D01*
X755Y3190D02*
X838Y3190D01*
X455Y3189D02*
X538Y3189D01*
X555Y3189D02*
X638Y3189D01*
X655Y3189D02*
X738Y3189D01*
X755Y3189D02*
X838Y3189D01*
X455Y3188D02*
X538Y3188D01*
X555Y3188D02*
X638Y3188D01*
X655Y3188D02*
X738Y3188D01*
X755Y3188D02*
X838Y3188D01*
X455Y3187D02*
X538Y3187D01*
X555Y3187D02*
X638Y3187D01*
X655Y3187D02*
X738Y3187D01*
X755Y3187D02*
X838Y3187D01*
X455Y3186D02*
X538Y3186D01*
X555Y3186D02*
X638Y3186D01*
X655Y3186D02*
X738Y3186D01*
X755Y3186D02*
X838Y3186D01*
X455Y3185D02*
X538Y3185D01*
X555Y3185D02*
X638Y3185D01*
X655Y3185D02*
X738Y3185D01*
X755Y3185D02*
X838Y3185D01*
X455Y3184D02*
X538Y3184D01*
X555Y3184D02*
X638Y3184D01*
X655Y3184D02*
X738Y3184D01*
X755Y3184D02*
X838Y3184D01*
X455Y3183D02*
X538Y3183D01*
X555Y3183D02*
X638Y3183D01*
X655Y3183D02*
X738Y3183D01*
X755Y3183D02*
X838Y3183D01*
X455Y3182D02*
X538Y3182D01*
X555Y3182D02*
X638Y3182D01*
X655Y3182D02*
X738Y3182D01*
X755Y3182D02*
X838Y3182D01*
X455Y3181D02*
X538Y3181D01*
X555Y3181D02*
X638Y3181D01*
X655Y3181D02*
X738Y3181D01*
X755Y3181D02*
X838Y3181D01*
X455Y3180D02*
X538Y3180D01*
X555Y3180D02*
X638Y3180D01*
X655Y3180D02*
X738Y3180D01*
X755Y3180D02*
X838Y3180D01*
X455Y3179D02*
X538Y3179D01*
X555Y3179D02*
X638Y3179D01*
X655Y3179D02*
X738Y3179D01*
X755Y3179D02*
X838Y3179D01*
X455Y3178D02*
X538Y3178D01*
X555Y3178D02*
X638Y3178D01*
X655Y3178D02*
X738Y3178D01*
X755Y3178D02*
X838Y3178D01*
X455Y3177D02*
X538Y3177D01*
X555Y3177D02*
X638Y3177D01*
X655Y3177D02*
X738Y3177D01*
X755Y3177D02*
X838Y3177D01*
X455Y3176D02*
X538Y3176D01*
X555Y3176D02*
X638Y3176D01*
X655Y3176D02*
X738Y3176D01*
X755Y3176D02*
X838Y3176D01*
X455Y3175D02*
X538Y3175D01*
X555Y3175D02*
X638Y3175D01*
X655Y3175D02*
X738Y3175D01*
X755Y3175D02*
X838Y3175D01*
X455Y3174D02*
X538Y3174D01*
X555Y3174D02*
X638Y3174D01*
X655Y3174D02*
X738Y3174D01*
X755Y3174D02*
X838Y3174D01*
X455Y3173D02*
X538Y3173D01*
X555Y3173D02*
X638Y3173D01*
X655Y3173D02*
X738Y3173D01*
X755Y3173D02*
X838Y3173D01*
X455Y3172D02*
X538Y3172D01*
X555Y3172D02*
X638Y3172D01*
X655Y3172D02*
X738Y3172D01*
X755Y3172D02*
X838Y3172D01*
X455Y3171D02*
X538Y3171D01*
X555Y3171D02*
X638Y3171D01*
X655Y3171D02*
X738Y3171D01*
X755Y3171D02*
X838Y3171D01*
X455Y3170D02*
X538Y3170D01*
X555Y3170D02*
X638Y3170D01*
X655Y3170D02*
X738Y3170D01*
X755Y3170D02*
X838Y3170D01*
X455Y3169D02*
X538Y3169D01*
X555Y3169D02*
X638Y3169D01*
X655Y3169D02*
X738Y3169D01*
X755Y3169D02*
X838Y3169D01*
X455Y3168D02*
X538Y3168D01*
X555Y3168D02*
X638Y3168D01*
X655Y3168D02*
X738Y3168D01*
X755Y3168D02*
X838Y3168D01*
X455Y3167D02*
X538Y3167D01*
X555Y3167D02*
X638Y3167D01*
X655Y3167D02*
X738Y3167D01*
X755Y3167D02*
X838Y3167D01*
X455Y3166D02*
X538Y3166D01*
X555Y3166D02*
X638Y3166D01*
X655Y3166D02*
X738Y3166D01*
X755Y3166D02*
X838Y3166D01*
X455Y3165D02*
X538Y3165D01*
X555Y3165D02*
X638Y3165D01*
X655Y3165D02*
X738Y3165D01*
X755Y3165D02*
X838Y3165D01*
X455Y3164D02*
X538Y3164D01*
X555Y3164D02*
X638Y3164D01*
X655Y3164D02*
X738Y3164D01*
X755Y3164D02*
X838Y3164D01*
X455Y3163D02*
X538Y3163D01*
X555Y3163D02*
X638Y3163D01*
X655Y3163D02*
X738Y3163D01*
X755Y3163D02*
X838Y3163D01*
X455Y3162D02*
X538Y3162D01*
X555Y3162D02*
X638Y3162D01*
X655Y3162D02*
X738Y3162D01*
X755Y3162D02*
X838Y3162D01*
X455Y3161D02*
X538Y3161D01*
X555Y3161D02*
X638Y3161D01*
X655Y3161D02*
X738Y3161D01*
X755Y3161D02*
X838Y3161D01*
X455Y3160D02*
X538Y3160D01*
X555Y3160D02*
X638Y3160D01*
X655Y3160D02*
X738Y3160D01*
X755Y3160D02*
X838Y3160D01*
X455Y3159D02*
X538Y3159D01*
X555Y3159D02*
X638Y3159D01*
X655Y3159D02*
X738Y3159D01*
X755Y3159D02*
X838Y3159D01*
X455Y3158D02*
X538Y3158D01*
X555Y3158D02*
X638Y3158D01*
X655Y3158D02*
X738Y3158D01*
X755Y3158D02*
X838Y3158D01*
X455Y3157D02*
X538Y3157D01*
X555Y3157D02*
X638Y3157D01*
X655Y3157D02*
X738Y3157D01*
X755Y3157D02*
X838Y3157D01*
X455Y3156D02*
X538Y3156D01*
X555Y3156D02*
X638Y3156D01*
X655Y3156D02*
X738Y3156D01*
X755Y3156D02*
X838Y3156D01*
X455Y3155D02*
X538Y3155D01*
X555Y3155D02*
X638Y3155D01*
X655Y3155D02*
X738Y3155D01*
X755Y3155D02*
X838Y3155D01*
X455Y3154D02*
X538Y3154D01*
X555Y3154D02*
X638Y3154D01*
X655Y3154D02*
X738Y3154D01*
X755Y3154D02*
X838Y3154D01*
X455Y3153D02*
X538Y3153D01*
X555Y3153D02*
X638Y3153D01*
X655Y3153D02*
X738Y3153D01*
X755Y3153D02*
X838Y3153D01*
X455Y3152D02*
X538Y3152D01*
X555Y3152D02*
X638Y3152D01*
X655Y3152D02*
X738Y3152D01*
X755Y3152D02*
X838Y3152D01*
X455Y3151D02*
X538Y3151D01*
X555Y3151D02*
X638Y3151D01*
X655Y3151D02*
X738Y3151D01*
X755Y3151D02*
X838Y3151D01*
X455Y3150D02*
X538Y3150D01*
X555Y3150D02*
X638Y3150D01*
X655Y3150D02*
X738Y3150D01*
X755Y3150D02*
X838Y3150D01*
X455Y3149D02*
X493Y3149D01*
X500Y3149D02*
X538Y3149D01*
X555Y3149D02*
X593Y3149D01*
X600Y3149D02*
X638Y3149D01*
X655Y3149D02*
X693Y3149D01*
X700Y3149D02*
X738Y3149D01*
X755Y3149D02*
X793Y3149D01*
X800Y3149D02*
X838Y3149D01*
X455Y3148D02*
X490Y3148D01*
X504Y3148D02*
X538Y3148D01*
X555Y3148D02*
X590Y3148D01*
X604Y3148D02*
X638Y3148D01*
X655Y3148D02*
X690Y3148D01*
X704Y3148D02*
X738Y3148D01*
X755Y3148D02*
X790Y3148D01*
X804Y3148D02*
X838Y3148D01*
X455Y3147D02*
X488Y3147D01*
X506Y3147D02*
X538Y3147D01*
X555Y3147D02*
X588Y3147D01*
X606Y3147D02*
X638Y3147D01*
X655Y3147D02*
X688Y3147D01*
X706Y3147D02*
X738Y3147D01*
X755Y3147D02*
X788Y3147D01*
X806Y3147D02*
X838Y3147D01*
X455Y3146D02*
X486Y3146D01*
X507Y3146D02*
X538Y3146D01*
X555Y3146D02*
X586Y3146D01*
X607Y3146D02*
X638Y3146D01*
X655Y3146D02*
X686Y3146D01*
X707Y3146D02*
X738Y3146D01*
X755Y3146D02*
X786Y3146D01*
X807Y3146D02*
X838Y3146D01*
X455Y3145D02*
X485Y3145D01*
X508Y3145D02*
X538Y3145D01*
X555Y3145D02*
X585Y3145D01*
X608Y3145D02*
X638Y3145D01*
X655Y3145D02*
X685Y3145D01*
X708Y3145D02*
X738Y3145D01*
X755Y3145D02*
X785Y3145D01*
X808Y3145D02*
X838Y3145D01*
X455Y3144D02*
X484Y3144D01*
X510Y3144D02*
X538Y3144D01*
X555Y3144D02*
X584Y3144D01*
X610Y3144D02*
X638Y3144D01*
X655Y3144D02*
X684Y3144D01*
X710Y3144D02*
X738Y3144D01*
X755Y3144D02*
X784Y3144D01*
X810Y3144D02*
X838Y3144D01*
X455Y3143D02*
X483Y3143D01*
X510Y3143D02*
X538Y3143D01*
X555Y3143D02*
X583Y3143D01*
X610Y3143D02*
X638Y3143D01*
X655Y3143D02*
X683Y3143D01*
X710Y3143D02*
X738Y3143D01*
X755Y3143D02*
X783Y3143D01*
X810Y3143D02*
X838Y3143D01*
X455Y3142D02*
X482Y3142D01*
X511Y3142D02*
X538Y3142D01*
X555Y3142D02*
X582Y3142D01*
X611Y3142D02*
X638Y3142D01*
X655Y3142D02*
X682Y3142D01*
X711Y3142D02*
X738Y3142D01*
X755Y3142D02*
X782Y3142D01*
X811Y3142D02*
X838Y3142D01*
X455Y3141D02*
X482Y3141D01*
X512Y3141D02*
X538Y3141D01*
X555Y3141D02*
X582Y3141D01*
X612Y3141D02*
X638Y3141D01*
X655Y3141D02*
X682Y3141D01*
X712Y3141D02*
X738Y3141D01*
X755Y3141D02*
X782Y3141D01*
X812Y3141D02*
X838Y3141D01*
X455Y3140D02*
X481Y3140D01*
X512Y3140D02*
X538Y3140D01*
X555Y3140D02*
X581Y3140D01*
X612Y3140D02*
X638Y3140D01*
X655Y3140D02*
X681Y3140D01*
X712Y3140D02*
X738Y3140D01*
X755Y3140D02*
X781Y3140D01*
X812Y3140D02*
X838Y3140D01*
X455Y3139D02*
X481Y3139D01*
X513Y3139D02*
X538Y3139D01*
X555Y3139D02*
X581Y3139D01*
X613Y3139D02*
X638Y3139D01*
X655Y3139D02*
X681Y3139D01*
X713Y3139D02*
X738Y3139D01*
X755Y3139D02*
X781Y3139D01*
X813Y3139D02*
X838Y3139D01*
X455Y3138D02*
X480Y3138D01*
X513Y3138D02*
X538Y3138D01*
X555Y3138D02*
X580Y3138D01*
X613Y3138D02*
X638Y3138D01*
X655Y3138D02*
X680Y3138D01*
X713Y3138D02*
X738Y3138D01*
X755Y3138D02*
X780Y3138D01*
X813Y3138D02*
X838Y3138D01*
X455Y3137D02*
X480Y3137D01*
X514Y3137D02*
X538Y3137D01*
X555Y3137D02*
X580Y3137D01*
X614Y3137D02*
X638Y3137D01*
X655Y3137D02*
X680Y3137D01*
X714Y3137D02*
X738Y3137D01*
X755Y3137D02*
X780Y3137D01*
X814Y3137D02*
X838Y3137D01*
X455Y3136D02*
X480Y3136D01*
X514Y3136D02*
X538Y3136D01*
X555Y3136D02*
X580Y3136D01*
X614Y3136D02*
X638Y3136D01*
X655Y3136D02*
X680Y3136D01*
X714Y3136D02*
X738Y3136D01*
X755Y3136D02*
X780Y3136D01*
X814Y3136D02*
X838Y3136D01*
X455Y3135D02*
X480Y3135D01*
X514Y3135D02*
X538Y3135D01*
X555Y3135D02*
X580Y3135D01*
X614Y3135D02*
X638Y3135D01*
X655Y3135D02*
X680Y3135D01*
X714Y3135D02*
X738Y3135D01*
X755Y3135D02*
X780Y3135D01*
X814Y3135D02*
X838Y3135D01*
X455Y3134D02*
X479Y3134D01*
X514Y3134D02*
X538Y3134D01*
X555Y3134D02*
X579Y3134D01*
X614Y3134D02*
X638Y3134D01*
X655Y3134D02*
X679Y3134D01*
X714Y3134D02*
X738Y3134D01*
X755Y3134D02*
X779Y3134D01*
X814Y3134D02*
X838Y3134D01*
X455Y3133D02*
X479Y3133D01*
X514Y3133D02*
X538Y3133D01*
X555Y3133D02*
X579Y3133D01*
X614Y3133D02*
X638Y3133D01*
X655Y3133D02*
X679Y3133D01*
X714Y3133D02*
X738Y3133D01*
X755Y3133D02*
X779Y3133D01*
X814Y3133D02*
X838Y3133D01*
X455Y3132D02*
X479Y3132D01*
X514Y3132D02*
X538Y3132D01*
X555Y3132D02*
X579Y3132D01*
X614Y3132D02*
X638Y3132D01*
X655Y3132D02*
X679Y3132D01*
X714Y3132D02*
X738Y3132D01*
X755Y3132D02*
X779Y3132D01*
X814Y3132D02*
X838Y3132D01*
X455Y3131D02*
X479Y3131D01*
X514Y3131D02*
X538Y3131D01*
X555Y3131D02*
X579Y3131D01*
X614Y3131D02*
X638Y3131D01*
X655Y3131D02*
X679Y3131D01*
X714Y3131D02*
X738Y3131D01*
X755Y3131D02*
X779Y3131D01*
X814Y3131D02*
X838Y3131D01*
X455Y3130D02*
X480Y3130D01*
X514Y3130D02*
X538Y3130D01*
X555Y3130D02*
X580Y3130D01*
X614Y3130D02*
X638Y3130D01*
X655Y3130D02*
X679Y3130D01*
X714Y3130D02*
X738Y3130D01*
X755Y3130D02*
X779Y3130D01*
X814Y3130D02*
X838Y3130D01*
X455Y3129D02*
X480Y3129D01*
X514Y3129D02*
X538Y3129D01*
X555Y3129D02*
X580Y3129D01*
X614Y3129D02*
X638Y3129D01*
X655Y3129D02*
X680Y3129D01*
X714Y3129D02*
X738Y3129D01*
X755Y3129D02*
X780Y3129D01*
X814Y3129D02*
X838Y3129D01*
X456Y3128D02*
X480Y3128D01*
X514Y3128D02*
X538Y3128D01*
X556Y3128D02*
X580Y3128D01*
X614Y3128D02*
X638Y3128D01*
X656Y3128D02*
X680Y3128D01*
X714Y3128D02*
X738Y3128D01*
X756Y3128D02*
X780Y3128D01*
X814Y3128D02*
X838Y3128D01*
X456Y3127D02*
X480Y3127D01*
X513Y3127D02*
X538Y3127D01*
X556Y3127D02*
X580Y3127D01*
X613Y3127D02*
X638Y3127D01*
X656Y3127D02*
X680Y3127D01*
X713Y3127D02*
X738Y3127D01*
X756Y3127D02*
X780Y3127D01*
X813Y3127D02*
X838Y3127D01*
X456Y3126D02*
X480Y3126D01*
X513Y3126D02*
X538Y3126D01*
X556Y3126D02*
X580Y3126D01*
X613Y3126D02*
X638Y3126D01*
X656Y3126D02*
X680Y3126D01*
X713Y3126D02*
X738Y3126D01*
X756Y3126D02*
X780Y3126D01*
X813Y3126D02*
X838Y3126D01*
X456Y3125D02*
X481Y3125D01*
X513Y3125D02*
X538Y3125D01*
X556Y3125D02*
X581Y3125D01*
X613Y3125D02*
X638Y3125D01*
X656Y3125D02*
X681Y3125D01*
X713Y3125D02*
X738Y3125D01*
X756Y3125D02*
X781Y3125D01*
X813Y3125D02*
X838Y3125D01*
X456Y3124D02*
X481Y3124D01*
X512Y3124D02*
X537Y3124D01*
X556Y3124D02*
X581Y3124D01*
X612Y3124D02*
X637Y3124D01*
X656Y3124D02*
X681Y3124D01*
X712Y3124D02*
X737Y3124D01*
X756Y3124D02*
X781Y3124D01*
X812Y3124D02*
X837Y3124D01*
X456Y3123D02*
X482Y3123D01*
X512Y3123D02*
X537Y3123D01*
X556Y3123D02*
X582Y3123D01*
X612Y3123D02*
X637Y3123D01*
X656Y3123D02*
X682Y3123D01*
X712Y3123D02*
X737Y3123D01*
X756Y3123D02*
X782Y3123D01*
X812Y3123D02*
X837Y3123D01*
X457Y3122D02*
X483Y3122D01*
X511Y3122D02*
X537Y3122D01*
X557Y3122D02*
X583Y3122D01*
X611Y3122D02*
X637Y3122D01*
X657Y3122D02*
X683Y3122D01*
X711Y3122D02*
X737Y3122D01*
X757Y3122D02*
X783Y3122D01*
X811Y3122D02*
X837Y3122D01*
X457Y3121D02*
X484Y3121D01*
X510Y3121D02*
X537Y3121D01*
X557Y3121D02*
X584Y3121D01*
X610Y3121D02*
X637Y3121D01*
X657Y3121D02*
X684Y3121D01*
X710Y3121D02*
X737Y3121D01*
X757Y3121D02*
X784Y3121D01*
X810Y3121D02*
X837Y3121D01*
X457Y3120D02*
X485Y3120D01*
X509Y3120D02*
X536Y3120D01*
X557Y3120D02*
X585Y3120D01*
X609Y3120D02*
X636Y3120D01*
X657Y3120D02*
X685Y3120D01*
X709Y3120D02*
X736Y3120D01*
X757Y3120D02*
X785Y3120D01*
X809Y3120D02*
X836Y3120D01*
X458Y3119D02*
X486Y3119D01*
X508Y3119D02*
X536Y3119D01*
X558Y3119D02*
X586Y3119D01*
X608Y3119D02*
X636Y3119D01*
X658Y3119D02*
X686Y3119D01*
X708Y3119D02*
X736Y3119D01*
X758Y3119D02*
X786Y3119D01*
X808Y3119D02*
X836Y3119D01*
X458Y3118D02*
X487Y3118D01*
X507Y3118D02*
X536Y3118D01*
X558Y3118D02*
X587Y3118D01*
X607Y3118D02*
X636Y3118D01*
X658Y3118D02*
X687Y3118D01*
X707Y3118D02*
X736Y3118D01*
X758Y3118D02*
X787Y3118D01*
X807Y3118D02*
X836Y3118D01*
X458Y3117D02*
X489Y3117D01*
X505Y3117D02*
X535Y3117D01*
X558Y3117D02*
X589Y3117D01*
X605Y3117D02*
X635Y3117D01*
X658Y3117D02*
X689Y3117D01*
X705Y3117D02*
X735Y3117D01*
X758Y3117D02*
X789Y3117D01*
X805Y3117D02*
X835Y3117D01*
X459Y3116D02*
X491Y3116D01*
X502Y3116D02*
X535Y3116D01*
X559Y3116D02*
X591Y3116D01*
X602Y3116D02*
X635Y3116D01*
X659Y3116D02*
X691Y3116D01*
X702Y3116D02*
X735Y3116D01*
X759Y3116D02*
X791Y3116D01*
X802Y3116D02*
X835Y3116D01*
X459Y3115D02*
X534Y3115D01*
X559Y3115D02*
X634Y3115D01*
X659Y3115D02*
X734Y3115D01*
X759Y3115D02*
X834Y3115D01*
X460Y3114D02*
X534Y3114D01*
X560Y3114D02*
X634Y3114D01*
X660Y3114D02*
X734Y3114D01*
X760Y3114D02*
X834Y3114D01*
X460Y3113D02*
X534Y3113D01*
X560Y3113D02*
X633Y3113D01*
X660Y3113D02*
X733Y3113D01*
X760Y3113D02*
X833Y3113D01*
X461Y3112D02*
X533Y3112D01*
X561Y3112D02*
X633Y3112D01*
X661Y3112D02*
X733Y3112D01*
X761Y3112D02*
X833Y3112D01*
X461Y3111D02*
X532Y3111D01*
X561Y3111D02*
X632Y3111D01*
X661Y3111D02*
X732Y3111D01*
X761Y3111D02*
X832Y3111D01*
X462Y3110D02*
X532Y3110D01*
X562Y3110D02*
X632Y3110D01*
X662Y3110D02*
X732Y3110D01*
X762Y3110D02*
X832Y3110D01*
X462Y3109D02*
X531Y3109D01*
X562Y3109D02*
X631Y3109D01*
X662Y3109D02*
X731Y3109D01*
X762Y3109D02*
X831Y3109D01*
X463Y3108D02*
X531Y3108D01*
X563Y3108D02*
X630Y3108D01*
X663Y3108D02*
X730Y3108D01*
X763Y3108D02*
X830Y3108D01*
X464Y3107D02*
X530Y3107D01*
X564Y3107D02*
X630Y3107D01*
X664Y3107D02*
X730Y3107D01*
X764Y3107D02*
X830Y3107D01*
X465Y3106D02*
X529Y3106D01*
X565Y3106D02*
X629Y3106D01*
X665Y3106D02*
X729Y3106D01*
X765Y3106D02*
X829Y3106D01*
X465Y3105D02*
X528Y3105D01*
X565Y3105D02*
X628Y3105D01*
X665Y3105D02*
X728Y3105D01*
X765Y3105D02*
X828Y3105D01*
X466Y3104D02*
X527Y3104D01*
X566Y3104D02*
X627Y3104D01*
X666Y3104D02*
X727Y3104D01*
X766Y3104D02*
X827Y3104D01*
X467Y3103D02*
X526Y3103D01*
X567Y3103D02*
X626Y3103D01*
X667Y3103D02*
X726Y3103D01*
X767Y3103D02*
X826Y3103D01*
X468Y3102D02*
X525Y3102D01*
X568Y3102D02*
X625Y3102D01*
X668Y3102D02*
X725Y3102D01*
X768Y3102D02*
X825Y3102D01*
X469Y3101D02*
X524Y3101D01*
X569Y3101D02*
X624Y3101D01*
X669Y3101D02*
X724Y3101D01*
X769Y3101D02*
X824Y3101D01*
X470Y3100D02*
X523Y3100D01*
X570Y3100D02*
X623Y3100D01*
X670Y3100D02*
X723Y3100D01*
X770Y3100D02*
X823Y3100D01*
X472Y3099D02*
X522Y3099D01*
X572Y3099D02*
X622Y3099D01*
X672Y3099D02*
X722Y3099D01*
X772Y3099D02*
X822Y3099D01*
X473Y3098D02*
X520Y3098D01*
X573Y3098D02*
X620Y3098D01*
X673Y3098D02*
X720Y3098D01*
X773Y3098D02*
X820Y3098D01*
X475Y3097D02*
X519Y3097D01*
X575Y3097D02*
X619Y3097D01*
X675Y3097D02*
X719Y3097D01*
X775Y3097D02*
X819Y3097D01*
X476Y3096D02*
X517Y3096D01*
X576Y3096D02*
X617Y3096D01*
X676Y3096D02*
X717Y3096D01*
X776Y3096D02*
X817Y3096D01*
X478Y3095D02*
X515Y3095D01*
X578Y3095D02*
X615Y3095D01*
X678Y3095D02*
X715Y3095D01*
X778Y3095D02*
X815Y3095D01*
X480Y3094D02*
X513Y3094D01*
X580Y3094D02*
X613Y3094D01*
X680Y3094D02*
X713Y3094D01*
X780Y3094D02*
X813Y3094D01*
X483Y3093D02*
X511Y3093D01*
X583Y3093D02*
X611Y3093D01*
X683Y3093D02*
X711Y3093D01*
X783Y3093D02*
X811Y3093D01*
X486Y3092D02*
X508Y3092D01*
X586Y3092D02*
X608Y3092D01*
X686Y3092D02*
X708Y3092D01*
X786Y3092D02*
X808Y3092D01*
X490Y3091D02*
X504Y3091D01*
X590Y3091D02*
X604Y3091D01*
X690Y3091D02*
X704Y3091D01*
X790Y3091D02*
X804Y3091D01*
X492Y2271D02*
X501Y2271D01*
X1192Y2271D02*
X1201Y2271D01*
X487Y2270D02*
X506Y2270D01*
X1187Y2270D02*
X1206Y2270D01*
X484Y2269D02*
X509Y2269D01*
X1184Y2269D02*
X1209Y2269D01*
X482Y2268D02*
X512Y2268D01*
X1181Y2268D02*
X1212Y2268D01*
X479Y2267D02*
X514Y2267D01*
X1179Y2267D02*
X1214Y2267D01*
X477Y2266D02*
X516Y2266D01*
X1177Y2266D02*
X1216Y2266D01*
X476Y2265D02*
X518Y2265D01*
X1176Y2265D02*
X1217Y2265D01*
X474Y2264D02*
X519Y2264D01*
X1174Y2264D02*
X1219Y2264D01*
X473Y2263D02*
X520Y2263D01*
X1173Y2263D02*
X1220Y2263D01*
X471Y2262D02*
X522Y2262D01*
X1171Y2262D02*
X1222Y2262D01*
X470Y2261D02*
X523Y2261D01*
X1170Y2261D02*
X1223Y2261D01*
X469Y2260D02*
X524Y2260D01*
X1169Y2260D02*
X1224Y2260D01*
X468Y2259D02*
X525Y2259D01*
X1168Y2259D02*
X1225Y2259D01*
X468Y2258D02*
X526Y2258D01*
X1167Y2258D02*
X1226Y2258D01*
X467Y2257D02*
X527Y2257D01*
X1167Y2257D02*
X1226Y2257D01*
X466Y2256D02*
X527Y2256D01*
X1166Y2256D02*
X1227Y2256D01*
X465Y2255D02*
X528Y2255D01*
X1165Y2255D02*
X1228Y2255D01*
X465Y2254D02*
X529Y2254D01*
X1165Y2254D02*
X1229Y2254D01*
X464Y2253D02*
X529Y2253D01*
X1164Y2253D02*
X1229Y2253D01*
X464Y2252D02*
X530Y2252D01*
X1163Y2252D02*
X1230Y2252D01*
X463Y2251D02*
X531Y2251D01*
X1163Y2251D02*
X1231Y2251D01*
X463Y2250D02*
X531Y2250D01*
X1162Y2250D02*
X1231Y2250D01*
X462Y2249D02*
X532Y2249D01*
X1162Y2249D02*
X1232Y2249D01*
X462Y2248D02*
X532Y2248D01*
X1162Y2248D02*
X1232Y2248D01*
X461Y2247D02*
X533Y2247D01*
X1161Y2247D02*
X1232Y2247D01*
X461Y2246D02*
X533Y2246D01*
X1161Y2246D02*
X1233Y2246D01*
X461Y2245D02*
X533Y2245D01*
X1160Y2245D02*
X1233Y2245D01*
X460Y2244D02*
X534Y2244D01*
X1160Y2244D02*
X1233Y2244D01*
X460Y2243D02*
X534Y2243D01*
X1160Y2243D02*
X1234Y2243D01*
X460Y2242D02*
X534Y2242D01*
X1160Y2242D02*
X1234Y2242D01*
X459Y2241D02*
X534Y2241D01*
X1159Y2241D02*
X1234Y2241D01*
X459Y2240D02*
X535Y2240D01*
X1159Y2240D02*
X1234Y2240D01*
X459Y2239D02*
X535Y2239D01*
X1159Y2239D02*
X1235Y2239D01*
X459Y2238D02*
X535Y2238D01*
X1159Y2238D02*
X1235Y2238D01*
X459Y2237D02*
X535Y2237D01*
X1159Y2237D02*
X1235Y2237D01*
X459Y2236D02*
X535Y2236D01*
X1158Y2236D02*
X1235Y2236D01*
X458Y2235D02*
X535Y2235D01*
X1158Y2235D02*
X1235Y2235D01*
X458Y2234D02*
X535Y2234D01*
X1158Y2234D02*
X1235Y2234D01*
X458Y2233D02*
X535Y2233D01*
X1158Y2233D02*
X1235Y2233D01*
X458Y2232D02*
X535Y2232D01*
X1158Y2232D02*
X1235Y2232D01*
X458Y2231D02*
X535Y2231D01*
X1158Y2231D02*
X1235Y2231D01*
X458Y2230D02*
X535Y2230D01*
X1158Y2230D02*
X1235Y2230D01*
X459Y2229D02*
X535Y2229D01*
X1158Y2229D02*
X1235Y2229D01*
X459Y2228D02*
X535Y2228D01*
X1159Y2228D02*
X1235Y2228D01*
X459Y2227D02*
X535Y2227D01*
X1159Y2227D02*
X1235Y2227D01*
X459Y2226D02*
X535Y2226D01*
X1159Y2226D02*
X1234Y2226D01*
X459Y2225D02*
X534Y2225D01*
X1159Y2225D02*
X1234Y2225D01*
X459Y2224D02*
X534Y2224D01*
X1159Y2224D02*
X1234Y2224D01*
X460Y2223D02*
X534Y2223D01*
X1160Y2223D02*
X1234Y2223D01*
X460Y2222D02*
X534Y2222D01*
X1160Y2222D02*
X1233Y2222D01*
X460Y2221D02*
X533Y2221D01*
X1160Y2221D02*
X1233Y2221D01*
X461Y2220D02*
X533Y2220D01*
X1160Y2220D02*
X1233Y2220D01*
X461Y2219D02*
X533Y2219D01*
X1161Y2219D02*
X1232Y2219D01*
X461Y2218D02*
X532Y2218D01*
X1161Y2218D02*
X1232Y2218D01*
X462Y2217D02*
X532Y2217D01*
X1162Y2217D02*
X1232Y2217D01*
X462Y2216D02*
X531Y2216D01*
X1162Y2216D02*
X1231Y2216D01*
X463Y2215D02*
X531Y2215D01*
X1163Y2215D02*
X1231Y2215D01*
X463Y2214D02*
X530Y2214D01*
X1163Y2214D02*
X1230Y2214D01*
X464Y2213D02*
X530Y2213D01*
X1164Y2213D02*
X1230Y2213D01*
X464Y2212D02*
X529Y2212D01*
X1164Y2212D02*
X1229Y2212D01*
X465Y2211D02*
X529Y2211D01*
X1165Y2211D02*
X1228Y2211D01*
X466Y2210D02*
X528Y2210D01*
X1165Y2210D02*
X1228Y2210D01*
X466Y2209D02*
X527Y2209D01*
X1166Y2209D02*
X1227Y2209D01*
X467Y2208D02*
X526Y2208D01*
X1167Y2208D02*
X1226Y2208D01*
X468Y2207D02*
X526Y2207D01*
X1168Y2207D02*
X1225Y2207D01*
X469Y2206D02*
X525Y2206D01*
X1168Y2206D02*
X1225Y2206D01*
X470Y2205D02*
X524Y2205D01*
X1169Y2205D02*
X1224Y2205D01*
X471Y2204D02*
X523Y2204D01*
X1170Y2204D02*
X1223Y2204D01*
X472Y2203D02*
X522Y2203D01*
X1172Y2203D02*
X1221Y2203D01*
X473Y2202D02*
X520Y2202D01*
X1173Y2202D02*
X1220Y2202D01*
X474Y2201D02*
X519Y2201D01*
X1174Y2201D02*
X1219Y2201D01*
X476Y2200D02*
X517Y2200D01*
X1176Y2200D02*
X1217Y2200D01*
X477Y2199D02*
X516Y2199D01*
X1177Y2199D02*
X1216Y2199D01*
X479Y2198D02*
X514Y2198D01*
X1179Y2198D02*
X1214Y2198D01*
X481Y2197D02*
X512Y2197D01*
X1181Y2197D02*
X1212Y2197D01*
X483Y2196D02*
X509Y2196D01*
X1183Y2196D02*
X1209Y2196D01*
X486Y2195D02*
X506Y2195D01*
X1186Y2195D02*
X1206Y2195D01*
X491Y2194D02*
X502Y2194D01*
X1191Y2194D02*
X1202Y2194D01*
X492Y2171D02*
X501Y2171D01*
X1192Y2171D02*
X1201Y2171D01*
X487Y2170D02*
X506Y2170D01*
X1187Y2170D02*
X1206Y2170D01*
X484Y2169D02*
X509Y2169D01*
X1184Y2169D02*
X1209Y2169D01*
X481Y2168D02*
X512Y2168D01*
X1181Y2168D02*
X1212Y2168D01*
X479Y2167D02*
X514Y2167D01*
X1179Y2167D02*
X1214Y2167D01*
X477Y2166D02*
X516Y2166D01*
X1177Y2166D02*
X1216Y2166D01*
X476Y2165D02*
X518Y2165D01*
X1176Y2165D02*
X1217Y2165D01*
X474Y2164D02*
X519Y2164D01*
X1174Y2164D02*
X1219Y2164D01*
X473Y2163D02*
X521Y2163D01*
X1173Y2163D02*
X1220Y2163D01*
X471Y2162D02*
X522Y2162D01*
X1171Y2162D02*
X1222Y2162D01*
X470Y2161D02*
X523Y2161D01*
X1170Y2161D02*
X1223Y2161D01*
X469Y2160D02*
X524Y2160D01*
X1169Y2160D02*
X1224Y2160D01*
X468Y2159D02*
X525Y2159D01*
X1168Y2159D02*
X1225Y2159D01*
X468Y2158D02*
X526Y2158D01*
X1167Y2158D02*
X1226Y2158D01*
X467Y2157D02*
X527Y2157D01*
X1167Y2157D02*
X1227Y2157D01*
X466Y2156D02*
X527Y2156D01*
X1166Y2156D02*
X1227Y2156D01*
X465Y2155D02*
X528Y2155D01*
X1165Y2155D02*
X1228Y2155D01*
X465Y2154D02*
X529Y2154D01*
X1165Y2154D02*
X1229Y2154D01*
X464Y2153D02*
X529Y2153D01*
X1164Y2153D02*
X1229Y2153D01*
X464Y2152D02*
X530Y2152D01*
X1163Y2152D02*
X1230Y2152D01*
X463Y2151D02*
X531Y2151D01*
X1163Y2151D02*
X1231Y2151D01*
X463Y2150D02*
X531Y2150D01*
X1162Y2150D02*
X1231Y2150D01*
X462Y2149D02*
X532Y2149D01*
X1162Y2149D02*
X1232Y2149D01*
X462Y2148D02*
X532Y2148D01*
X1162Y2148D02*
X1232Y2148D01*
X461Y2147D02*
X533Y2147D01*
X1161Y2147D02*
X1232Y2147D01*
X461Y2146D02*
X533Y2146D01*
X1161Y2146D02*
X1233Y2146D01*
X461Y2145D02*
X533Y2145D01*
X1160Y2145D02*
X1233Y2145D01*
X460Y2144D02*
X534Y2144D01*
X1160Y2144D02*
X1233Y2144D01*
X460Y2143D02*
X534Y2143D01*
X1160Y2143D02*
X1234Y2143D01*
X460Y2142D02*
X534Y2142D01*
X1160Y2142D02*
X1234Y2142D01*
X459Y2141D02*
X534Y2141D01*
X1159Y2141D02*
X1234Y2141D01*
X459Y2140D02*
X535Y2140D01*
X1159Y2140D02*
X1234Y2140D01*
X459Y2139D02*
X535Y2139D01*
X1159Y2139D02*
X1235Y2139D01*
X459Y2138D02*
X535Y2138D01*
X1159Y2138D02*
X1235Y2138D01*
X459Y2137D02*
X535Y2137D01*
X1159Y2137D02*
X1235Y2137D01*
X459Y2136D02*
X535Y2136D01*
X1158Y2136D02*
X1235Y2136D01*
X458Y2135D02*
X535Y2135D01*
X1158Y2135D02*
X1235Y2135D01*
X458Y2134D02*
X535Y2134D01*
X1158Y2134D02*
X1235Y2134D01*
X458Y2133D02*
X535Y2133D01*
X1158Y2133D02*
X1235Y2133D01*
X458Y2132D02*
X535Y2132D01*
X1158Y2132D02*
X1235Y2132D01*
X458Y2131D02*
X535Y2131D01*
X1158Y2131D02*
X1235Y2131D01*
X458Y2130D02*
X535Y2130D01*
X1158Y2130D02*
X1235Y2130D01*
X459Y2129D02*
X535Y2129D01*
X1158Y2129D02*
X1235Y2129D01*
X459Y2128D02*
X535Y2128D01*
X1159Y2128D02*
X1235Y2128D01*
X459Y2127D02*
X535Y2127D01*
X1159Y2127D02*
X1235Y2127D01*
X459Y2126D02*
X535Y2126D01*
X1159Y2126D02*
X1234Y2126D01*
X459Y2125D02*
X534Y2125D01*
X1159Y2125D02*
X1234Y2125D01*
X459Y2124D02*
X534Y2124D01*
X1159Y2124D02*
X1234Y2124D01*
X460Y2123D02*
X534Y2123D01*
X1160Y2123D02*
X1234Y2123D01*
X460Y2122D02*
X534Y2122D01*
X1160Y2122D02*
X1233Y2122D01*
X460Y2121D02*
X533Y2121D01*
X1160Y2121D02*
X1233Y2121D01*
X461Y2120D02*
X533Y2120D01*
X1160Y2120D02*
X1233Y2120D01*
X461Y2119D02*
X533Y2119D01*
X1161Y2119D02*
X1232Y2119D01*
X461Y2118D02*
X532Y2118D01*
X1161Y2118D02*
X1232Y2118D01*
X462Y2117D02*
X532Y2117D01*
X1162Y2117D02*
X1232Y2117D01*
X462Y2116D02*
X531Y2116D01*
X1162Y2116D02*
X1231Y2116D01*
X463Y2115D02*
X531Y2115D01*
X1163Y2115D02*
X1231Y2115D01*
X463Y2114D02*
X530Y2114D01*
X1163Y2114D02*
X1230Y2114D01*
X464Y2113D02*
X530Y2113D01*
X1164Y2113D02*
X1230Y2113D01*
X464Y2112D02*
X529Y2112D01*
X1164Y2112D02*
X1229Y2112D01*
X465Y2111D02*
X528Y2111D01*
X1165Y2111D02*
X1228Y2111D01*
X466Y2110D02*
X528Y2110D01*
X1165Y2110D02*
X1228Y2110D01*
X466Y2109D02*
X527Y2109D01*
X1166Y2109D02*
X1227Y2109D01*
X467Y2108D02*
X526Y2108D01*
X1167Y2108D02*
X1226Y2108D01*
X468Y2107D02*
X526Y2107D01*
X1168Y2107D02*
X1225Y2107D01*
X469Y2106D02*
X525Y2106D01*
X1168Y2106D02*
X1225Y2106D01*
X470Y2105D02*
X524Y2105D01*
X1169Y2105D02*
X1224Y2105D01*
X471Y2104D02*
X523Y2104D01*
X1170Y2104D02*
X1223Y2104D01*
X472Y2103D02*
X522Y2103D01*
X1172Y2103D02*
X1221Y2103D01*
X473Y2102D02*
X520Y2102D01*
X1173Y2102D02*
X1220Y2102D01*
X474Y2101D02*
X519Y2101D01*
X1174Y2101D02*
X1219Y2101D01*
X476Y2100D02*
X517Y2100D01*
X1176Y2100D02*
X1217Y2100D01*
X477Y2099D02*
X516Y2099D01*
X1177Y2099D02*
X1216Y2099D01*
X479Y2098D02*
X514Y2098D01*
X1179Y2098D02*
X1214Y2098D01*
X481Y2097D02*
X512Y2097D01*
X1181Y2097D02*
X1212Y2097D01*
X483Y2096D02*
X509Y2096D01*
X1183Y2096D02*
X1209Y2096D01*
X487Y2095D02*
X506Y2095D01*
X1186Y2095D02*
X1206Y2095D01*
X491Y2094D02*
X502Y2094D01*
X1191Y2094D02*
X1202Y2094D01*
X492Y2071D02*
X501Y2071D01*
X1192Y2071D02*
X1201Y2071D01*
X487Y2070D02*
X506Y2070D01*
X1187Y2070D02*
X1206Y2070D01*
X484Y2069D02*
X509Y2069D01*
X1184Y2069D02*
X1209Y2069D01*
X481Y2068D02*
X512Y2068D01*
X1181Y2068D02*
X1212Y2068D01*
X479Y2067D02*
X514Y2067D01*
X1179Y2067D02*
X1214Y2067D01*
X477Y2066D02*
X516Y2066D01*
X1177Y2066D02*
X1216Y2066D01*
X476Y2065D02*
X518Y2065D01*
X1175Y2065D02*
X1217Y2065D01*
X474Y2064D02*
X519Y2064D01*
X1174Y2064D02*
X1219Y2064D01*
X473Y2063D02*
X521Y2063D01*
X1173Y2063D02*
X1220Y2063D01*
X471Y2062D02*
X522Y2062D01*
X1171Y2062D02*
X1222Y2062D01*
X470Y2061D02*
X523Y2061D01*
X1170Y2061D02*
X1223Y2061D01*
X469Y2060D02*
X524Y2060D01*
X1169Y2060D02*
X1224Y2060D01*
X468Y2059D02*
X525Y2059D01*
X1168Y2059D02*
X1225Y2059D01*
X468Y2058D02*
X526Y2058D01*
X1167Y2058D02*
X1226Y2058D01*
X467Y2057D02*
X527Y2057D01*
X1167Y2057D02*
X1227Y2057D01*
X466Y2056D02*
X527Y2056D01*
X1166Y2056D02*
X1227Y2056D01*
X465Y2055D02*
X528Y2055D01*
X1165Y2055D02*
X1228Y2055D01*
X465Y2054D02*
X529Y2054D01*
X1165Y2054D02*
X1229Y2054D01*
X464Y2053D02*
X529Y2053D01*
X1164Y2053D02*
X1229Y2053D01*
X464Y2052D02*
X530Y2052D01*
X1163Y2052D02*
X1230Y2052D01*
X463Y2051D02*
X531Y2051D01*
X1163Y2051D02*
X1231Y2051D01*
X463Y2050D02*
X531Y2050D01*
X1162Y2050D02*
X1231Y2050D01*
X462Y2049D02*
X532Y2049D01*
X1162Y2049D02*
X1232Y2049D01*
X462Y2048D02*
X532Y2048D01*
X1162Y2048D02*
X1232Y2048D01*
X461Y2047D02*
X533Y2047D01*
X1161Y2047D02*
X1232Y2047D01*
X461Y2046D02*
X533Y2046D01*
X1161Y2046D02*
X1233Y2046D01*
X461Y2045D02*
X533Y2045D01*
X1160Y2045D02*
X1233Y2045D01*
X460Y2044D02*
X534Y2044D01*
X1160Y2044D02*
X1233Y2044D01*
X460Y2043D02*
X534Y2043D01*
X1160Y2043D02*
X1234Y2043D01*
X460Y2042D02*
X534Y2042D01*
X1160Y2042D02*
X1234Y2042D01*
X459Y2041D02*
X534Y2041D01*
X1159Y2041D02*
X1234Y2041D01*
X459Y2040D02*
X535Y2040D01*
X1159Y2040D02*
X1234Y2040D01*
X459Y2039D02*
X535Y2039D01*
X1159Y2039D02*
X1235Y2039D01*
X459Y2038D02*
X535Y2038D01*
X1159Y2038D02*
X1235Y2038D01*
X459Y2037D02*
X535Y2037D01*
X1159Y2037D02*
X1235Y2037D01*
X459Y2036D02*
X535Y2036D01*
X1158Y2036D02*
X1235Y2036D01*
X458Y2035D02*
X535Y2035D01*
X1158Y2035D02*
X1235Y2035D01*
X458Y2034D02*
X535Y2034D01*
X1158Y2034D02*
X1235Y2034D01*
X458Y2033D02*
X535Y2033D01*
X1158Y2033D02*
X1235Y2033D01*
X458Y2032D02*
X535Y2032D01*
X1158Y2032D02*
X1235Y2032D01*
X458Y2031D02*
X535Y2031D01*
X1158Y2031D02*
X1235Y2031D01*
X458Y2030D02*
X535Y2030D01*
X1158Y2030D02*
X1235Y2030D01*
X459Y2029D02*
X535Y2029D01*
X1158Y2029D02*
X1235Y2029D01*
X459Y2028D02*
X535Y2028D01*
X1159Y2028D02*
X1235Y2028D01*
X459Y2027D02*
X535Y2027D01*
X1159Y2027D02*
X1235Y2027D01*
X459Y2026D02*
X535Y2026D01*
X1159Y2026D02*
X1234Y2026D01*
X459Y2025D02*
X534Y2025D01*
X1159Y2025D02*
X1234Y2025D01*
X459Y2024D02*
X534Y2024D01*
X1159Y2024D02*
X1234Y2024D01*
X460Y2023D02*
X534Y2023D01*
X1160Y2023D02*
X1234Y2023D01*
X460Y2022D02*
X534Y2022D01*
X1160Y2022D02*
X1233Y2022D01*
X460Y2021D02*
X533Y2021D01*
X1160Y2021D02*
X1233Y2021D01*
X461Y2020D02*
X533Y2020D01*
X1160Y2020D02*
X1233Y2020D01*
X461Y2019D02*
X533Y2019D01*
X1161Y2019D02*
X1232Y2019D01*
X461Y2018D02*
X532Y2018D01*
X1161Y2018D02*
X1232Y2018D01*
X462Y2017D02*
X532Y2017D01*
X1162Y2017D02*
X1232Y2017D01*
X462Y2016D02*
X531Y2016D01*
X1162Y2016D02*
X1231Y2016D01*
X463Y2015D02*
X531Y2015D01*
X1163Y2015D02*
X1231Y2015D01*
X463Y2014D02*
X530Y2014D01*
X1163Y2014D02*
X1230Y2014D01*
X464Y2013D02*
X530Y2013D01*
X1164Y2013D02*
X1230Y2013D01*
X464Y2012D02*
X529Y2012D01*
X1164Y2012D02*
X1229Y2012D01*
X465Y2011D02*
X528Y2011D01*
X1165Y2011D02*
X1228Y2011D01*
X466Y2010D02*
X528Y2010D01*
X1165Y2010D02*
X1228Y2010D01*
X466Y2009D02*
X527Y2009D01*
X1166Y2009D02*
X1227Y2009D01*
X467Y2008D02*
X526Y2008D01*
X1167Y2008D02*
X1226Y2008D01*
X468Y2007D02*
X526Y2007D01*
X1168Y2007D02*
X1225Y2007D01*
X469Y2006D02*
X525Y2006D01*
X1169Y2006D02*
X1225Y2006D01*
X470Y2005D02*
X524Y2005D01*
X1169Y2005D02*
X1224Y2005D01*
X471Y2004D02*
X523Y2004D01*
X1170Y2004D02*
X1223Y2004D01*
X472Y2003D02*
X522Y2003D01*
X1172Y2003D02*
X1221Y2003D01*
X473Y2002D02*
X520Y2002D01*
X1173Y2002D02*
X1220Y2002D01*
X474Y2001D02*
X519Y2001D01*
X1174Y2001D02*
X1219Y2001D01*
X476Y2000D02*
X517Y2000D01*
X1176Y2000D02*
X1217Y2000D01*
X477Y1999D02*
X516Y1999D01*
X1177Y1999D02*
X1216Y1999D01*
X479Y1998D02*
X514Y1998D01*
X1179Y1998D02*
X1214Y1998D01*
X481Y1997D02*
X512Y1997D01*
X1181Y1997D02*
X1212Y1997D01*
X483Y1996D02*
X509Y1996D01*
X1183Y1996D02*
X1209Y1996D01*
X487Y1995D02*
X506Y1995D01*
X1186Y1995D02*
X1206Y1995D01*
X491Y1994D02*
X502Y1994D01*
X1191Y1994D02*
X1202Y1994D01*
X492Y1971D02*
X501Y1971D01*
X1192Y1971D02*
X1201Y1971D01*
X487Y1970D02*
X506Y1970D01*
X1187Y1970D02*
X1206Y1970D01*
X484Y1969D02*
X509Y1969D01*
X1184Y1969D02*
X1209Y1969D01*
X481Y1968D02*
X512Y1968D01*
X1181Y1968D02*
X1212Y1968D01*
X479Y1967D02*
X514Y1967D01*
X1179Y1967D02*
X1214Y1967D01*
X477Y1966D02*
X516Y1966D01*
X1177Y1966D02*
X1216Y1966D01*
X476Y1965D02*
X518Y1965D01*
X1175Y1965D02*
X1218Y1965D01*
X474Y1964D02*
X519Y1964D01*
X1174Y1964D02*
X1219Y1964D01*
X473Y1963D02*
X521Y1963D01*
X1173Y1963D02*
X1220Y1963D01*
X471Y1962D02*
X522Y1962D01*
X1171Y1962D02*
X1222Y1962D01*
X470Y1961D02*
X523Y1961D01*
X1170Y1961D02*
X1223Y1961D01*
X469Y1960D02*
X524Y1960D01*
X1169Y1960D02*
X1224Y1960D01*
X468Y1959D02*
X525Y1959D01*
X1168Y1959D02*
X1225Y1959D01*
X467Y1958D02*
X526Y1958D01*
X1167Y1958D02*
X1226Y1958D01*
X467Y1957D02*
X527Y1957D01*
X1167Y1957D02*
X1227Y1957D01*
X466Y1956D02*
X527Y1956D01*
X1166Y1956D02*
X1227Y1956D01*
X465Y1955D02*
X528Y1955D01*
X1165Y1955D02*
X1228Y1955D01*
X465Y1954D02*
X529Y1954D01*
X1165Y1954D02*
X1229Y1954D01*
X464Y1953D02*
X529Y1953D01*
X1164Y1953D02*
X1229Y1953D01*
X464Y1952D02*
X530Y1952D01*
X1163Y1952D02*
X1230Y1952D01*
X463Y1951D02*
X531Y1951D01*
X1163Y1951D02*
X1231Y1951D01*
X463Y1950D02*
X531Y1950D01*
X1162Y1950D02*
X1231Y1950D01*
X462Y1949D02*
X532Y1949D01*
X1162Y1949D02*
X1232Y1949D01*
X462Y1948D02*
X532Y1948D01*
X1161Y1948D02*
X1232Y1948D01*
X461Y1947D02*
X533Y1947D01*
X1161Y1947D02*
X1232Y1947D01*
X461Y1946D02*
X533Y1946D01*
X1161Y1946D02*
X1233Y1946D01*
X461Y1945D02*
X533Y1945D01*
X1160Y1945D02*
X1233Y1945D01*
X460Y1944D02*
X534Y1944D01*
X1160Y1944D02*
X1233Y1944D01*
X460Y1943D02*
X534Y1943D01*
X1160Y1943D02*
X1234Y1943D01*
X460Y1942D02*
X534Y1942D01*
X1160Y1942D02*
X1234Y1942D01*
X459Y1941D02*
X534Y1941D01*
X1159Y1941D02*
X1234Y1941D01*
X459Y1940D02*
X535Y1940D01*
X1159Y1940D02*
X1234Y1940D01*
X459Y1939D02*
X535Y1939D01*
X1159Y1939D02*
X1235Y1939D01*
X459Y1938D02*
X535Y1938D01*
X1159Y1938D02*
X1235Y1938D01*
X459Y1937D02*
X535Y1937D01*
X1159Y1937D02*
X1235Y1937D01*
X459Y1936D02*
X535Y1936D01*
X1158Y1936D02*
X1235Y1936D01*
X458Y1935D02*
X535Y1935D01*
X1158Y1935D02*
X1235Y1935D01*
X458Y1934D02*
X535Y1934D01*
X1158Y1934D02*
X1235Y1934D01*
X458Y1933D02*
X535Y1933D01*
X1158Y1933D02*
X1235Y1933D01*
X458Y1932D02*
X535Y1932D01*
X1158Y1932D02*
X1235Y1932D01*
X458Y1931D02*
X535Y1931D01*
X1158Y1931D02*
X1235Y1931D01*
X458Y1930D02*
X535Y1930D01*
X1158Y1930D02*
X1235Y1930D01*
X459Y1929D02*
X535Y1929D01*
X1158Y1929D02*
X1235Y1929D01*
X459Y1928D02*
X535Y1928D01*
X1159Y1928D02*
X1235Y1928D01*
X459Y1927D02*
X535Y1927D01*
X1159Y1927D02*
X1235Y1927D01*
X459Y1926D02*
X535Y1926D01*
X1159Y1926D02*
X1234Y1926D01*
X459Y1925D02*
X534Y1925D01*
X1159Y1925D02*
X1234Y1925D01*
X459Y1924D02*
X534Y1924D01*
X1159Y1924D02*
X1234Y1924D01*
X460Y1923D02*
X534Y1923D01*
X1160Y1923D02*
X1234Y1923D01*
X460Y1922D02*
X534Y1922D01*
X1160Y1922D02*
X1233Y1922D01*
X460Y1921D02*
X533Y1921D01*
X1160Y1921D02*
X1233Y1921D01*
X461Y1920D02*
X533Y1920D01*
X1161Y1920D02*
X1233Y1920D01*
X461Y1919D02*
X533Y1919D01*
X1161Y1919D02*
X1232Y1919D01*
X461Y1918D02*
X532Y1918D01*
X1161Y1918D02*
X1232Y1918D01*
X462Y1917D02*
X532Y1917D01*
X1162Y1917D02*
X1232Y1917D01*
X462Y1916D02*
X531Y1916D01*
X1162Y1916D02*
X1231Y1916D01*
X463Y1915D02*
X531Y1915D01*
X1163Y1915D02*
X1231Y1915D01*
X463Y1914D02*
X530Y1914D01*
X1163Y1914D02*
X1230Y1914D01*
X464Y1913D02*
X530Y1913D01*
X1164Y1913D02*
X1230Y1913D01*
X464Y1912D02*
X529Y1912D01*
X1164Y1912D02*
X1229Y1912D01*
X465Y1911D02*
X528Y1911D01*
X1165Y1911D02*
X1228Y1911D01*
X466Y1910D02*
X528Y1910D01*
X1165Y1910D02*
X1228Y1910D01*
X466Y1909D02*
X527Y1909D01*
X1166Y1909D02*
X1227Y1909D01*
X467Y1908D02*
X526Y1908D01*
X1167Y1908D02*
X1226Y1908D01*
X468Y1907D02*
X526Y1907D01*
X1168Y1907D02*
X1225Y1907D01*
X469Y1906D02*
X525Y1906D01*
X1169Y1906D02*
X1225Y1906D01*
X470Y1905D02*
X524Y1905D01*
X1169Y1905D02*
X1224Y1905D01*
X471Y1904D02*
X523Y1904D01*
X1171Y1904D02*
X1222Y1904D01*
X472Y1903D02*
X521Y1903D01*
X1172Y1903D02*
X1221Y1903D01*
X473Y1902D02*
X520Y1902D01*
X1173Y1902D02*
X1220Y1902D01*
X474Y1901D02*
X519Y1901D01*
X1174Y1901D02*
X1219Y1901D01*
X476Y1900D02*
X517Y1900D01*
X1176Y1900D02*
X1217Y1900D01*
X477Y1899D02*
X516Y1899D01*
X1177Y1899D02*
X1215Y1899D01*
X479Y1898D02*
X514Y1898D01*
X1179Y1898D02*
X1214Y1898D01*
X481Y1897D02*
X512Y1897D01*
X1181Y1897D02*
X1212Y1897D01*
X484Y1896D02*
X509Y1896D01*
X1183Y1896D02*
X1209Y1896D01*
X487Y1895D02*
X506Y1895D01*
X1187Y1895D02*
X1206Y1895D01*
X491Y1894D02*
X502Y1894D01*
X1191Y1894D02*
X1202Y1894D01*
X492Y1871D02*
X502Y1871D01*
X1192Y1871D02*
X1201Y1871D01*
X487Y1870D02*
X506Y1870D01*
X1187Y1870D02*
X1206Y1870D01*
X484Y1869D02*
X509Y1869D01*
X1184Y1869D02*
X1209Y1869D01*
X481Y1868D02*
X512Y1868D01*
X1181Y1868D02*
X1212Y1868D01*
X479Y1867D02*
X514Y1867D01*
X1179Y1867D02*
X1214Y1867D01*
X477Y1866D02*
X516Y1866D01*
X1177Y1866D02*
X1216Y1866D01*
X476Y1865D02*
X518Y1865D01*
X1175Y1865D02*
X1218Y1865D01*
X474Y1864D02*
X519Y1864D01*
X1174Y1864D02*
X1219Y1864D01*
X473Y1863D02*
X521Y1863D01*
X1173Y1863D02*
X1220Y1863D01*
X471Y1862D02*
X522Y1862D01*
X1171Y1862D02*
X1222Y1862D01*
X470Y1861D02*
X523Y1861D01*
X1170Y1861D02*
X1223Y1861D01*
X469Y1860D02*
X524Y1860D01*
X1169Y1860D02*
X1224Y1860D01*
X468Y1859D02*
X525Y1859D01*
X1168Y1859D02*
X1225Y1859D01*
X467Y1858D02*
X526Y1858D01*
X1167Y1858D02*
X1226Y1858D01*
X467Y1857D02*
X527Y1857D01*
X1167Y1857D02*
X1227Y1857D01*
X466Y1856D02*
X527Y1856D01*
X1166Y1856D02*
X1227Y1856D01*
X465Y1855D02*
X528Y1855D01*
X1165Y1855D02*
X1228Y1855D01*
X465Y1854D02*
X529Y1854D01*
X1165Y1854D02*
X1229Y1854D01*
X464Y1853D02*
X529Y1853D01*
X1164Y1853D02*
X1229Y1853D01*
X464Y1852D02*
X530Y1852D01*
X1163Y1852D02*
X1230Y1852D01*
X463Y1851D02*
X531Y1851D01*
X1163Y1851D02*
X1231Y1851D01*
X463Y1850D02*
X531Y1850D01*
X1162Y1850D02*
X1231Y1850D01*
X462Y1849D02*
X532Y1849D01*
X1162Y1849D02*
X1232Y1849D01*
X462Y1848D02*
X532Y1848D01*
X1161Y1848D02*
X1232Y1848D01*
X461Y1847D02*
X533Y1847D01*
X1161Y1847D02*
X1232Y1847D01*
X461Y1846D02*
X533Y1846D01*
X1161Y1846D02*
X1233Y1846D01*
X461Y1845D02*
X533Y1845D01*
X1160Y1845D02*
X1233Y1845D01*
X460Y1844D02*
X534Y1844D01*
X1160Y1844D02*
X1233Y1844D01*
X460Y1843D02*
X534Y1843D01*
X1160Y1843D02*
X1234Y1843D01*
X460Y1842D02*
X534Y1842D01*
X1160Y1842D02*
X1234Y1842D01*
X459Y1841D02*
X534Y1841D01*
X1159Y1841D02*
X1234Y1841D01*
X459Y1840D02*
X535Y1840D01*
X1159Y1840D02*
X1234Y1840D01*
X459Y1839D02*
X535Y1839D01*
X1159Y1839D02*
X1235Y1839D01*
X459Y1838D02*
X535Y1838D01*
X1159Y1838D02*
X1235Y1838D01*
X459Y1837D02*
X535Y1837D01*
X1159Y1837D02*
X1235Y1837D01*
X459Y1836D02*
X535Y1836D01*
X1158Y1836D02*
X1235Y1836D01*
X458Y1835D02*
X535Y1835D01*
X1158Y1835D02*
X1235Y1835D01*
X458Y1834D02*
X535Y1834D01*
X1158Y1834D02*
X1235Y1834D01*
X458Y1833D02*
X535Y1833D01*
X1158Y1833D02*
X1235Y1833D01*
X458Y1832D02*
X535Y1832D01*
X1158Y1832D02*
X1235Y1832D01*
X458Y1831D02*
X535Y1831D01*
X1158Y1831D02*
X1235Y1831D01*
X458Y1830D02*
X535Y1830D01*
X1158Y1830D02*
X1235Y1830D01*
X459Y1829D02*
X535Y1829D01*
X1158Y1829D02*
X1235Y1829D01*
X459Y1828D02*
X535Y1828D01*
X1159Y1828D02*
X1235Y1828D01*
X459Y1827D02*
X535Y1827D01*
X1159Y1827D02*
X1235Y1827D01*
X459Y1826D02*
X535Y1826D01*
X1159Y1826D02*
X1234Y1826D01*
X459Y1825D02*
X534Y1825D01*
X1159Y1825D02*
X1234Y1825D01*
X459Y1824D02*
X534Y1824D01*
X1159Y1824D02*
X1234Y1824D01*
X460Y1823D02*
X534Y1823D01*
X1160Y1823D02*
X1234Y1823D01*
X460Y1822D02*
X534Y1822D01*
X1160Y1822D02*
X1233Y1822D01*
X460Y1821D02*
X533Y1821D01*
X1160Y1821D02*
X1233Y1821D01*
X461Y1820D02*
X533Y1820D01*
X1161Y1820D02*
X1233Y1820D01*
X461Y1819D02*
X533Y1819D01*
X1161Y1819D02*
X1232Y1819D01*
X461Y1818D02*
X532Y1818D01*
X1161Y1818D02*
X1232Y1818D01*
X462Y1817D02*
X532Y1817D01*
X1162Y1817D02*
X1232Y1817D01*
X462Y1816D02*
X531Y1816D01*
X1162Y1816D02*
X1231Y1816D01*
X463Y1815D02*
X531Y1815D01*
X1163Y1815D02*
X1231Y1815D01*
X463Y1814D02*
X530Y1814D01*
X1163Y1814D02*
X1230Y1814D01*
X464Y1813D02*
X530Y1813D01*
X1164Y1813D02*
X1230Y1813D01*
X464Y1812D02*
X529Y1812D01*
X1164Y1812D02*
X1229Y1812D01*
X465Y1811D02*
X528Y1811D01*
X1165Y1811D02*
X1228Y1811D01*
X466Y1810D02*
X528Y1810D01*
X1165Y1810D02*
X1228Y1810D01*
X466Y1809D02*
X527Y1809D01*
X1166Y1809D02*
X1227Y1809D01*
X467Y1808D02*
X526Y1808D01*
X1167Y1808D02*
X1226Y1808D01*
X468Y1807D02*
X526Y1807D01*
X1168Y1807D02*
X1225Y1807D01*
X469Y1806D02*
X525Y1806D01*
X1169Y1806D02*
X1224Y1806D01*
X470Y1805D02*
X524Y1805D01*
X1169Y1805D02*
X1224Y1805D01*
X471Y1804D02*
X523Y1804D01*
X1171Y1804D02*
X1222Y1804D01*
X472Y1803D02*
X521Y1803D01*
X1172Y1803D02*
X1221Y1803D01*
X473Y1802D02*
X520Y1802D01*
X1173Y1802D02*
X1220Y1802D01*
X474Y1801D02*
X519Y1801D01*
X1174Y1801D02*
X1219Y1801D01*
X476Y1800D02*
X517Y1800D01*
X1176Y1800D02*
X1217Y1800D01*
X477Y1799D02*
X516Y1799D01*
X1177Y1799D02*
X1215Y1799D01*
X479Y1798D02*
X514Y1798D01*
X1179Y1798D02*
X1214Y1798D01*
X481Y1797D02*
X512Y1797D01*
X1181Y1797D02*
X1211Y1797D01*
X484Y1796D02*
X509Y1796D01*
X1183Y1796D02*
X1209Y1796D01*
X487Y1795D02*
X506Y1795D01*
X1187Y1795D02*
X1206Y1795D01*
X492Y1794D02*
X502Y1794D01*
X1191Y1794D02*
X1202Y1794D01*
X492Y1771D02*
X502Y1771D01*
X1192Y1771D02*
X1202Y1771D01*
X487Y1770D02*
X506Y1770D01*
X1187Y1770D02*
X1206Y1770D01*
X484Y1769D02*
X509Y1769D01*
X1184Y1769D02*
X1209Y1769D01*
X481Y1768D02*
X512Y1768D01*
X1181Y1768D02*
X1212Y1768D01*
X479Y1767D02*
X514Y1767D01*
X1179Y1767D02*
X1214Y1767D01*
X477Y1766D02*
X516Y1766D01*
X1177Y1766D02*
X1216Y1766D01*
X476Y1765D02*
X518Y1765D01*
X1175Y1765D02*
X1218Y1765D01*
X474Y1764D02*
X519Y1764D01*
X1174Y1764D02*
X1219Y1764D01*
X473Y1763D02*
X521Y1763D01*
X1173Y1763D02*
X1220Y1763D01*
X471Y1762D02*
X522Y1762D01*
X1171Y1762D02*
X1222Y1762D01*
X470Y1761D02*
X523Y1761D01*
X1170Y1761D02*
X1223Y1761D01*
X469Y1760D02*
X524Y1760D01*
X1169Y1760D02*
X1224Y1760D01*
X468Y1759D02*
X525Y1759D01*
X1168Y1759D02*
X1225Y1759D01*
X467Y1758D02*
X526Y1758D01*
X1167Y1758D02*
X1226Y1758D01*
X467Y1757D02*
X527Y1757D01*
X1167Y1757D02*
X1227Y1757D01*
X466Y1756D02*
X527Y1756D01*
X1166Y1756D02*
X1227Y1756D01*
X465Y1755D02*
X528Y1755D01*
X1165Y1755D02*
X1228Y1755D01*
X465Y1754D02*
X529Y1754D01*
X1165Y1754D02*
X1229Y1754D01*
X464Y1753D02*
X529Y1753D01*
X1164Y1753D02*
X1229Y1753D01*
X464Y1752D02*
X530Y1752D01*
X1163Y1752D02*
X1230Y1752D01*
X463Y1751D02*
X531Y1751D01*
X1163Y1751D02*
X1231Y1751D01*
X463Y1750D02*
X531Y1750D01*
X1162Y1750D02*
X1231Y1750D01*
X462Y1749D02*
X532Y1749D01*
X1162Y1749D02*
X1232Y1749D01*
X462Y1748D02*
X532Y1748D01*
X1161Y1748D02*
X1232Y1748D01*
X461Y1747D02*
X533Y1747D01*
X1161Y1747D02*
X1232Y1747D01*
X461Y1746D02*
X533Y1746D01*
X1161Y1746D02*
X1233Y1746D01*
X461Y1745D02*
X533Y1745D01*
X1160Y1745D02*
X1233Y1745D01*
X460Y1744D02*
X534Y1744D01*
X1160Y1744D02*
X1233Y1744D01*
X460Y1743D02*
X534Y1743D01*
X1160Y1743D02*
X1234Y1743D01*
X460Y1742D02*
X534Y1742D01*
X1160Y1742D02*
X1234Y1742D01*
X459Y1741D02*
X534Y1741D01*
X1159Y1741D02*
X1234Y1741D01*
X459Y1740D02*
X535Y1740D01*
X1159Y1740D02*
X1234Y1740D01*
X459Y1739D02*
X535Y1739D01*
X1159Y1739D02*
X1235Y1739D01*
X459Y1738D02*
X535Y1738D01*
X1159Y1738D02*
X1235Y1738D01*
X459Y1737D02*
X535Y1737D01*
X1159Y1737D02*
X1235Y1737D01*
X459Y1736D02*
X535Y1736D01*
X1158Y1736D02*
X1235Y1736D01*
X458Y1735D02*
X535Y1735D01*
X1158Y1735D02*
X1235Y1735D01*
X458Y1734D02*
X535Y1734D01*
X1158Y1734D02*
X1235Y1734D01*
X458Y1733D02*
X535Y1733D01*
X1158Y1733D02*
X1235Y1733D01*
X458Y1732D02*
X535Y1732D01*
X1158Y1732D02*
X1235Y1732D01*
X458Y1731D02*
X535Y1731D01*
X1158Y1731D02*
X1235Y1731D01*
X458Y1730D02*
X535Y1730D01*
X1158Y1730D02*
X1235Y1730D01*
X459Y1729D02*
X535Y1729D01*
X1158Y1729D02*
X1235Y1729D01*
X459Y1728D02*
X535Y1728D01*
X1159Y1728D02*
X1235Y1728D01*
X459Y1727D02*
X535Y1727D01*
X1159Y1727D02*
X1235Y1727D01*
X459Y1726D02*
X535Y1726D01*
X1159Y1726D02*
X1234Y1726D01*
X459Y1725D02*
X534Y1725D01*
X1159Y1725D02*
X1234Y1725D01*
X459Y1724D02*
X534Y1724D01*
X1159Y1724D02*
X1234Y1724D01*
X460Y1723D02*
X534Y1723D01*
X1160Y1723D02*
X1234Y1723D01*
X460Y1722D02*
X534Y1722D01*
X1160Y1722D02*
X1233Y1722D01*
X460Y1721D02*
X533Y1721D01*
X1160Y1721D02*
X1233Y1721D01*
X461Y1720D02*
X533Y1720D01*
X1161Y1720D02*
X1233Y1720D01*
X461Y1719D02*
X533Y1719D01*
X1161Y1719D02*
X1232Y1719D01*
X461Y1718D02*
X532Y1718D01*
X1161Y1718D02*
X1232Y1718D01*
X462Y1717D02*
X532Y1717D01*
X1162Y1717D02*
X1232Y1717D01*
X462Y1716D02*
X531Y1716D01*
X1162Y1716D02*
X1231Y1716D01*
X463Y1715D02*
X531Y1715D01*
X1163Y1715D02*
X1231Y1715D01*
X463Y1714D02*
X530Y1714D01*
X1163Y1714D02*
X1230Y1714D01*
X464Y1713D02*
X530Y1713D01*
X1164Y1713D02*
X1230Y1713D01*
X464Y1712D02*
X529Y1712D01*
X1164Y1712D02*
X1229Y1712D01*
X465Y1711D02*
X528Y1711D01*
X1165Y1711D02*
X1228Y1711D01*
X466Y1710D02*
X528Y1710D01*
X1165Y1710D02*
X1228Y1710D01*
X466Y1709D02*
X527Y1709D01*
X1166Y1709D02*
X1227Y1709D01*
X467Y1708D02*
X526Y1708D01*
X1167Y1708D02*
X1226Y1708D01*
X468Y1707D02*
X525Y1707D01*
X1168Y1707D02*
X1225Y1707D01*
X469Y1706D02*
X525Y1706D01*
X1169Y1706D02*
X1224Y1706D01*
X470Y1705D02*
X524Y1705D01*
X1169Y1705D02*
X1224Y1705D01*
X471Y1704D02*
X523Y1704D01*
X1171Y1704D02*
X1222Y1704D01*
X472Y1703D02*
X521Y1703D01*
X1172Y1703D02*
X1221Y1703D01*
X473Y1702D02*
X520Y1702D01*
X1173Y1702D02*
X1220Y1702D01*
X474Y1701D02*
X519Y1701D01*
X1174Y1701D02*
X1219Y1701D01*
X476Y1700D02*
X517Y1700D01*
X1176Y1700D02*
X1217Y1700D01*
X477Y1699D02*
X516Y1699D01*
X1177Y1699D02*
X1215Y1699D01*
X479Y1698D02*
X514Y1698D01*
X1179Y1698D02*
X1214Y1698D01*
X481Y1697D02*
X512Y1697D01*
X1181Y1697D02*
X1211Y1697D01*
X484Y1696D02*
X509Y1696D01*
X1183Y1696D02*
X1209Y1696D01*
X487Y1695D02*
X506Y1695D01*
X1187Y1695D02*
X1206Y1695D01*
X492Y1694D02*
X502Y1694D01*
X1192Y1694D02*
X1201Y1694D01*
X492Y1671D02*
X502Y1671D01*
X1192Y1671D02*
X1202Y1671D01*
X487Y1670D02*
X506Y1670D01*
X1187Y1670D02*
X1206Y1670D01*
X484Y1669D02*
X509Y1669D01*
X1184Y1669D02*
X1209Y1669D01*
X481Y1668D02*
X512Y1668D01*
X1181Y1668D02*
X1212Y1668D01*
X479Y1667D02*
X514Y1667D01*
X1179Y1667D02*
X1214Y1667D01*
X477Y1666D02*
X516Y1666D01*
X1177Y1666D02*
X1216Y1666D01*
X476Y1665D02*
X518Y1665D01*
X1175Y1665D02*
X1218Y1665D01*
X474Y1664D02*
X519Y1664D01*
X1174Y1664D02*
X1219Y1664D01*
X473Y1663D02*
X521Y1663D01*
X1173Y1663D02*
X1220Y1663D01*
X471Y1662D02*
X522Y1662D01*
X1171Y1662D02*
X1222Y1662D01*
X470Y1661D02*
X523Y1661D01*
X1170Y1661D02*
X1223Y1661D01*
X469Y1660D02*
X524Y1660D01*
X1169Y1660D02*
X1224Y1660D01*
X468Y1659D02*
X525Y1659D01*
X1168Y1659D02*
X1225Y1659D01*
X467Y1658D02*
X526Y1658D01*
X1167Y1658D02*
X1226Y1658D01*
X467Y1657D02*
X527Y1657D01*
X1167Y1657D02*
X1227Y1657D01*
X466Y1656D02*
X527Y1656D01*
X1166Y1656D02*
X1227Y1656D01*
X465Y1655D02*
X528Y1655D01*
X1165Y1655D02*
X1228Y1655D01*
X465Y1654D02*
X529Y1654D01*
X1165Y1654D02*
X1229Y1654D01*
X464Y1653D02*
X529Y1653D01*
X1164Y1653D02*
X1229Y1653D01*
X463Y1652D02*
X530Y1652D01*
X1163Y1652D02*
X1230Y1652D01*
X463Y1651D02*
X531Y1651D01*
X1163Y1651D02*
X1231Y1651D01*
X463Y1650D02*
X531Y1650D01*
X1162Y1650D02*
X1231Y1650D01*
X462Y1649D02*
X532Y1649D01*
X1162Y1649D02*
X1232Y1649D01*
X462Y1648D02*
X532Y1648D01*
X1161Y1648D02*
X1232Y1648D01*
X461Y1647D02*
X533Y1647D01*
X1161Y1647D02*
X1232Y1647D01*
X461Y1646D02*
X533Y1646D01*
X1161Y1646D02*
X1233Y1646D01*
X460Y1645D02*
X533Y1645D01*
X1160Y1645D02*
X1233Y1645D01*
X460Y1644D02*
X534Y1644D01*
X1160Y1644D02*
X1233Y1644D01*
X460Y1643D02*
X534Y1643D01*
X1160Y1643D02*
X1234Y1643D01*
X460Y1642D02*
X534Y1642D01*
X1160Y1642D02*
X1234Y1642D01*
X459Y1641D02*
X534Y1641D01*
X1159Y1641D02*
X1234Y1641D01*
X459Y1640D02*
X535Y1640D01*
X1159Y1640D02*
X1234Y1640D01*
X459Y1639D02*
X535Y1639D01*
X1159Y1639D02*
X1235Y1639D01*
X459Y1638D02*
X535Y1638D01*
X1159Y1638D02*
X1235Y1638D01*
X459Y1637D02*
X535Y1637D01*
X1159Y1637D02*
X1235Y1637D01*
X459Y1636D02*
X535Y1636D01*
X1158Y1636D02*
X1235Y1636D01*
X458Y1635D02*
X535Y1635D01*
X1158Y1635D02*
X1235Y1635D01*
X458Y1634D02*
X535Y1634D01*
X1158Y1634D02*
X1235Y1634D01*
X458Y1633D02*
X535Y1633D01*
X1158Y1633D02*
X1235Y1633D01*
X458Y1632D02*
X535Y1632D01*
X1158Y1632D02*
X1235Y1632D01*
X458Y1631D02*
X535Y1631D01*
X1158Y1631D02*
X1235Y1631D01*
X458Y1630D02*
X535Y1630D01*
X1158Y1630D02*
X1235Y1630D01*
X459Y1629D02*
X535Y1629D01*
X1158Y1629D02*
X1235Y1629D01*
X459Y1628D02*
X535Y1628D01*
X1159Y1628D02*
X1235Y1628D01*
X459Y1627D02*
X535Y1627D01*
X1159Y1627D02*
X1235Y1627D01*
X459Y1626D02*
X535Y1626D01*
X1159Y1626D02*
X1234Y1626D01*
X459Y1625D02*
X534Y1625D01*
X1159Y1625D02*
X1234Y1625D01*
X459Y1624D02*
X534Y1624D01*
X1159Y1624D02*
X1234Y1624D01*
X460Y1623D02*
X534Y1623D01*
X1160Y1623D02*
X1234Y1623D01*
X460Y1622D02*
X534Y1622D01*
X1160Y1622D02*
X1233Y1622D01*
X460Y1621D02*
X533Y1621D01*
X1160Y1621D02*
X1233Y1621D01*
X461Y1620D02*
X533Y1620D01*
X1161Y1620D02*
X1233Y1620D01*
X461Y1619D02*
X533Y1619D01*
X1161Y1619D02*
X1232Y1619D01*
X461Y1618D02*
X532Y1618D01*
X1161Y1618D02*
X1232Y1618D01*
X462Y1617D02*
X532Y1617D01*
X1162Y1617D02*
X1232Y1617D01*
X462Y1616D02*
X531Y1616D01*
X1162Y1616D02*
X1231Y1616D01*
X463Y1615D02*
X531Y1615D01*
X1163Y1615D02*
X1231Y1615D01*
X463Y1614D02*
X530Y1614D01*
X1163Y1614D02*
X1230Y1614D01*
X464Y1613D02*
X530Y1613D01*
X1164Y1613D02*
X1230Y1613D01*
X464Y1612D02*
X529Y1612D01*
X1164Y1612D02*
X1229Y1612D01*
X465Y1611D02*
X528Y1611D01*
X1165Y1611D02*
X1228Y1611D01*
X466Y1610D02*
X528Y1610D01*
X1165Y1610D02*
X1228Y1610D01*
X466Y1609D02*
X527Y1609D01*
X1166Y1609D02*
X1227Y1609D01*
X467Y1608D02*
X526Y1608D01*
X1167Y1608D02*
X1226Y1608D01*
X468Y1607D02*
X525Y1607D01*
X1168Y1607D02*
X1225Y1607D01*
X469Y1606D02*
X525Y1606D01*
X1169Y1606D02*
X1224Y1606D01*
X470Y1605D02*
X524Y1605D01*
X1169Y1605D02*
X1224Y1605D01*
X471Y1604D02*
X523Y1604D01*
X1171Y1604D02*
X1222Y1604D01*
X472Y1603D02*
X521Y1603D01*
X1172Y1603D02*
X1221Y1603D01*
X473Y1602D02*
X520Y1602D01*
X1173Y1602D02*
X1220Y1602D01*
X474Y1601D02*
X519Y1601D01*
X1174Y1601D02*
X1219Y1601D01*
X476Y1600D02*
X517Y1600D01*
X1176Y1600D02*
X1217Y1600D01*
X477Y1599D02*
X516Y1599D01*
X1177Y1599D02*
X1215Y1599D01*
X479Y1598D02*
X514Y1598D01*
X1179Y1598D02*
X1213Y1598D01*
X481Y1597D02*
X512Y1597D01*
X1181Y1597D02*
X1211Y1597D01*
X484Y1596D02*
X509Y1596D01*
X1184Y1596D02*
X1209Y1596D01*
X487Y1595D02*
X506Y1595D01*
X1187Y1595D02*
X1206Y1595D01*
X492Y1594D02*
X501Y1594D01*
X1192Y1594D02*
X1201Y1594D01*
X492Y1571D02*
X502Y1571D01*
X1191Y1571D02*
X1202Y1571D01*
X487Y1570D02*
X506Y1570D01*
X1187Y1570D02*
X1206Y1570D01*
X484Y1569D02*
X509Y1569D01*
X1184Y1569D02*
X1209Y1569D01*
X481Y1568D02*
X512Y1568D01*
X1181Y1568D02*
X1212Y1568D01*
X479Y1567D02*
X514Y1567D01*
X1179Y1567D02*
X1214Y1567D01*
X477Y1566D02*
X516Y1566D01*
X1177Y1566D02*
X1216Y1566D01*
X475Y1565D02*
X518Y1565D01*
X1175Y1565D02*
X1218Y1565D01*
X474Y1564D02*
X519Y1564D01*
X1174Y1564D02*
X1219Y1564D01*
X473Y1563D02*
X521Y1563D01*
X1172Y1563D02*
X1221Y1563D01*
X471Y1562D02*
X522Y1562D01*
X1171Y1562D02*
X1222Y1562D01*
X470Y1561D02*
X523Y1561D01*
X1170Y1561D02*
X1223Y1561D01*
X469Y1560D02*
X524Y1560D01*
X1169Y1560D02*
X1224Y1560D01*
X468Y1559D02*
X525Y1559D01*
X1168Y1559D02*
X1225Y1559D01*
X467Y1558D02*
X526Y1558D01*
X1167Y1558D02*
X1226Y1558D01*
X467Y1557D02*
X527Y1557D01*
X1167Y1557D02*
X1227Y1557D01*
X466Y1556D02*
X527Y1556D01*
X1166Y1556D02*
X1227Y1556D01*
X465Y1555D02*
X528Y1555D01*
X1165Y1555D02*
X1228Y1555D01*
X465Y1554D02*
X529Y1554D01*
X1165Y1554D02*
X1229Y1554D01*
X464Y1553D02*
X529Y1553D01*
X1164Y1553D02*
X1229Y1553D01*
X463Y1552D02*
X530Y1552D01*
X1163Y1552D02*
X1230Y1552D01*
X463Y1551D02*
X531Y1551D01*
X1163Y1551D02*
X1231Y1551D01*
X463Y1550D02*
X531Y1550D01*
X1162Y1550D02*
X1231Y1550D01*
X462Y1549D02*
X532Y1549D01*
X1162Y1549D02*
X1232Y1549D01*
X462Y1548D02*
X532Y1548D01*
X1161Y1548D02*
X1232Y1548D01*
X461Y1547D02*
X533Y1547D01*
X1161Y1547D02*
X1232Y1547D01*
X461Y1546D02*
X533Y1546D01*
X1161Y1546D02*
X1233Y1546D01*
X460Y1545D02*
X533Y1545D01*
X1160Y1545D02*
X1233Y1545D01*
X460Y1544D02*
X534Y1544D01*
X1160Y1544D02*
X1233Y1544D01*
X460Y1543D02*
X534Y1543D01*
X1160Y1543D02*
X1234Y1543D01*
X460Y1542D02*
X534Y1542D01*
X1160Y1542D02*
X1234Y1542D01*
X459Y1541D02*
X534Y1541D01*
X1159Y1541D02*
X1234Y1541D01*
X459Y1540D02*
X535Y1540D01*
X1159Y1540D02*
X1234Y1540D01*
X459Y1539D02*
X535Y1539D01*
X1159Y1539D02*
X1235Y1539D01*
X459Y1538D02*
X535Y1538D01*
X1159Y1538D02*
X1235Y1538D01*
X459Y1537D02*
X535Y1537D01*
X1159Y1537D02*
X1235Y1537D01*
X459Y1536D02*
X535Y1536D01*
X1158Y1536D02*
X1235Y1536D01*
X458Y1535D02*
X535Y1535D01*
X1158Y1535D02*
X1235Y1535D01*
X458Y1534D02*
X535Y1534D01*
X1158Y1534D02*
X1235Y1534D01*
X458Y1533D02*
X535Y1533D01*
X1158Y1533D02*
X1235Y1533D01*
X458Y1532D02*
X535Y1532D01*
X1158Y1532D02*
X1235Y1532D01*
X458Y1531D02*
X535Y1531D01*
X1158Y1531D02*
X1235Y1531D01*
X458Y1530D02*
X535Y1530D01*
X1158Y1530D02*
X1235Y1530D01*
X459Y1529D02*
X535Y1529D01*
X1158Y1529D02*
X1235Y1529D01*
X459Y1528D02*
X535Y1528D01*
X1159Y1528D02*
X1235Y1528D01*
X459Y1527D02*
X535Y1527D01*
X1159Y1527D02*
X1235Y1527D01*
X459Y1526D02*
X535Y1526D01*
X1159Y1526D02*
X1234Y1526D01*
X459Y1525D02*
X534Y1525D01*
X1159Y1525D02*
X1234Y1525D01*
X459Y1524D02*
X534Y1524D01*
X1159Y1524D02*
X1234Y1524D01*
X460Y1523D02*
X534Y1523D01*
X1160Y1523D02*
X1234Y1523D01*
X460Y1522D02*
X534Y1522D01*
X1160Y1522D02*
X1233Y1522D01*
X460Y1521D02*
X533Y1521D01*
X1160Y1521D02*
X1233Y1521D01*
X461Y1520D02*
X533Y1520D01*
X1161Y1520D02*
X1233Y1520D01*
X461Y1519D02*
X533Y1519D01*
X1161Y1519D02*
X1232Y1519D01*
X461Y1518D02*
X532Y1518D01*
X1161Y1518D02*
X1232Y1518D01*
X462Y1517D02*
X532Y1517D01*
X1162Y1517D02*
X1232Y1517D01*
X462Y1516D02*
X531Y1516D01*
X1162Y1516D02*
X1231Y1516D01*
X463Y1515D02*
X531Y1515D01*
X1163Y1515D02*
X1231Y1515D01*
X463Y1514D02*
X530Y1514D01*
X1163Y1514D02*
X1230Y1514D01*
X464Y1513D02*
X530Y1513D01*
X1164Y1513D02*
X1230Y1513D01*
X464Y1512D02*
X529Y1512D01*
X1164Y1512D02*
X1229Y1512D01*
X465Y1511D02*
X528Y1511D01*
X1165Y1511D02*
X1228Y1511D01*
X466Y1510D02*
X528Y1510D01*
X1165Y1510D02*
X1228Y1510D01*
X466Y1509D02*
X527Y1509D01*
X1166Y1509D02*
X1227Y1509D01*
X467Y1508D02*
X526Y1508D01*
X1167Y1508D02*
X1226Y1508D01*
X468Y1507D02*
X525Y1507D01*
X1168Y1507D02*
X1225Y1507D01*
X469Y1506D02*
X525Y1506D01*
X1169Y1506D02*
X1224Y1506D01*
X470Y1505D02*
X524Y1505D01*
X1170Y1505D02*
X1224Y1505D01*
X471Y1504D02*
X523Y1504D01*
X1171Y1504D02*
X1222Y1504D01*
X472Y1503D02*
X521Y1503D01*
X1172Y1503D02*
X1221Y1503D01*
X473Y1502D02*
X520Y1502D01*
X1173Y1502D02*
X1220Y1502D01*
X474Y1501D02*
X519Y1501D01*
X1174Y1501D02*
X1219Y1501D01*
X476Y1500D02*
X517Y1500D01*
X1176Y1500D02*
X1217Y1500D01*
X477Y1499D02*
X515Y1499D01*
X1177Y1499D02*
X1215Y1499D01*
X479Y1498D02*
X514Y1498D01*
X1179Y1498D02*
X1213Y1498D01*
X481Y1497D02*
X511Y1497D01*
X1181Y1497D02*
X1211Y1497D01*
X484Y1496D02*
X509Y1496D01*
X1184Y1496D02*
X1209Y1496D01*
X487Y1495D02*
X506Y1495D01*
X1187Y1495D02*
X1206Y1495D01*
X492Y1494D02*
X501Y1494D01*
X1192Y1494D02*
X1201Y1494D01*
X491Y1471D02*
X502Y1471D01*
X1191Y1471D02*
X1202Y1471D01*
X487Y1470D02*
X506Y1470D01*
X1187Y1470D02*
X1206Y1470D01*
X484Y1469D02*
X509Y1469D01*
X1184Y1469D02*
X1209Y1469D01*
X481Y1468D02*
X512Y1468D01*
X1181Y1468D02*
X1212Y1468D01*
X479Y1467D02*
X514Y1467D01*
X1179Y1467D02*
X1214Y1467D01*
X477Y1466D02*
X516Y1466D01*
X1177Y1466D02*
X1216Y1466D01*
X475Y1465D02*
X518Y1465D01*
X1175Y1465D02*
X1218Y1465D01*
X474Y1464D02*
X519Y1464D01*
X1174Y1464D02*
X1219Y1464D01*
X473Y1463D02*
X521Y1463D01*
X1172Y1463D02*
X1221Y1463D01*
X471Y1462D02*
X522Y1462D01*
X1171Y1462D02*
X1222Y1462D01*
X470Y1461D02*
X523Y1461D01*
X1170Y1461D02*
X1223Y1461D01*
X469Y1460D02*
X524Y1460D01*
X1169Y1460D02*
X1224Y1460D01*
X468Y1459D02*
X525Y1459D01*
X1168Y1459D02*
X1225Y1459D01*
X467Y1458D02*
X526Y1458D01*
X1167Y1458D02*
X1226Y1458D01*
X467Y1457D02*
X527Y1457D01*
X1167Y1457D02*
X1227Y1457D01*
X466Y1456D02*
X527Y1456D01*
X1166Y1456D02*
X1227Y1456D01*
X465Y1455D02*
X528Y1455D01*
X1165Y1455D02*
X1228Y1455D01*
X465Y1454D02*
X529Y1454D01*
X1165Y1454D02*
X1229Y1454D01*
X464Y1453D02*
X529Y1453D01*
X1164Y1453D02*
X1229Y1453D01*
X463Y1452D02*
X530Y1452D01*
X1163Y1452D02*
X1230Y1452D01*
X463Y1451D02*
X531Y1451D01*
X1163Y1451D02*
X1231Y1451D01*
X462Y1450D02*
X531Y1450D01*
X1162Y1450D02*
X1231Y1450D01*
X462Y1449D02*
X532Y1449D01*
X1162Y1449D02*
X1232Y1449D01*
X462Y1448D02*
X532Y1448D01*
X1161Y1448D02*
X1232Y1448D01*
X461Y1447D02*
X533Y1447D01*
X1161Y1447D02*
X1232Y1447D01*
X461Y1446D02*
X533Y1446D01*
X1161Y1446D02*
X1233Y1446D01*
X460Y1445D02*
X533Y1445D01*
X1160Y1445D02*
X1233Y1445D01*
X460Y1444D02*
X534Y1444D01*
X1160Y1444D02*
X1233Y1444D01*
X460Y1443D02*
X534Y1443D01*
X1160Y1443D02*
X1234Y1443D01*
X460Y1442D02*
X534Y1442D01*
X1160Y1442D02*
X1234Y1442D01*
X459Y1441D02*
X534Y1441D01*
X1159Y1441D02*
X1234Y1441D01*
X459Y1440D02*
X535Y1440D01*
X1159Y1440D02*
X1234Y1440D01*
X459Y1439D02*
X535Y1439D01*
X1159Y1439D02*
X1235Y1439D01*
X459Y1438D02*
X535Y1438D01*
X1159Y1438D02*
X1235Y1438D01*
X459Y1437D02*
X535Y1437D01*
X1159Y1437D02*
X1235Y1437D01*
X459Y1436D02*
X535Y1436D01*
X1158Y1436D02*
X1235Y1436D01*
X458Y1435D02*
X535Y1435D01*
X1158Y1435D02*
X1235Y1435D01*
X458Y1434D02*
X535Y1434D01*
X1158Y1434D02*
X1235Y1434D01*
X458Y1433D02*
X535Y1433D01*
X1158Y1433D02*
X1235Y1433D01*
X458Y1432D02*
X535Y1432D01*
X1158Y1432D02*
X1235Y1432D01*
X458Y1431D02*
X535Y1431D01*
X1158Y1431D02*
X1235Y1431D01*
X458Y1430D02*
X535Y1430D01*
X1158Y1430D02*
X1235Y1430D01*
X459Y1429D02*
X535Y1429D01*
X1158Y1429D02*
X1235Y1429D01*
X459Y1428D02*
X535Y1428D01*
X1159Y1428D02*
X1235Y1428D01*
X459Y1427D02*
X535Y1427D01*
X1159Y1427D02*
X1235Y1427D01*
X459Y1426D02*
X535Y1426D01*
X1159Y1426D02*
X1234Y1426D01*
X459Y1425D02*
X534Y1425D01*
X1159Y1425D02*
X1234Y1425D01*
X459Y1424D02*
X534Y1424D01*
X1159Y1424D02*
X1234Y1424D01*
X460Y1423D02*
X534Y1423D01*
X1160Y1423D02*
X1234Y1423D01*
X460Y1422D02*
X534Y1422D01*
X1160Y1422D02*
X1233Y1422D01*
X460Y1421D02*
X533Y1421D01*
X1160Y1421D02*
X1233Y1421D01*
X461Y1420D02*
X533Y1420D01*
X1161Y1420D02*
X1233Y1420D01*
X461Y1419D02*
X532Y1419D01*
X1161Y1419D02*
X1232Y1419D01*
X461Y1418D02*
X532Y1418D01*
X1161Y1418D02*
X1232Y1418D01*
X462Y1417D02*
X532Y1417D01*
X1162Y1417D02*
X1232Y1417D01*
X462Y1416D02*
X531Y1416D01*
X1162Y1416D02*
X1231Y1416D01*
X463Y1415D02*
X531Y1415D01*
X1163Y1415D02*
X1231Y1415D01*
X463Y1414D02*
X530Y1414D01*
X1163Y1414D02*
X1230Y1414D01*
X464Y1413D02*
X530Y1413D01*
X1164Y1413D02*
X1230Y1413D01*
X464Y1412D02*
X529Y1412D01*
X1164Y1412D02*
X1229Y1412D01*
X465Y1411D02*
X528Y1411D01*
X1165Y1411D02*
X1228Y1411D01*
X466Y1410D02*
X528Y1410D01*
X1165Y1410D02*
X1228Y1410D01*
X466Y1409D02*
X527Y1409D01*
X1166Y1409D02*
X1227Y1409D01*
X467Y1408D02*
X526Y1408D01*
X1167Y1408D02*
X1226Y1408D01*
X468Y1407D02*
X525Y1407D01*
X1168Y1407D02*
X1225Y1407D01*
X469Y1406D02*
X525Y1406D01*
X1169Y1406D02*
X1224Y1406D01*
X470Y1405D02*
X524Y1405D01*
X1170Y1405D02*
X1224Y1405D01*
X471Y1404D02*
X523Y1404D01*
X1171Y1404D02*
X1222Y1404D01*
X472Y1403D02*
X521Y1403D01*
X1172Y1403D02*
X1221Y1403D01*
X473Y1402D02*
X520Y1402D01*
X1173Y1402D02*
X1220Y1402D01*
X474Y1401D02*
X519Y1401D01*
X1174Y1401D02*
X1219Y1401D01*
X476Y1400D02*
X517Y1400D01*
X1176Y1400D02*
X1217Y1400D01*
X477Y1399D02*
X515Y1399D01*
X1177Y1399D02*
X1215Y1399D01*
X479Y1398D02*
X514Y1398D01*
X1179Y1398D02*
X1213Y1398D01*
X481Y1397D02*
X511Y1397D01*
X1181Y1397D02*
X1211Y1397D01*
X484Y1396D02*
X509Y1396D01*
X1184Y1396D02*
X1209Y1396D01*
X487Y1395D02*
X506Y1395D01*
X1187Y1395D02*
X1206Y1395D01*
X492Y1394D02*
X501Y1394D01*
X1192Y1394D02*
X1201Y1394D01*
X491Y1371D02*
X502Y1371D01*
X1191Y1371D02*
X1202Y1371D01*
X487Y1370D02*
X506Y1370D01*
X1187Y1370D02*
X1206Y1370D01*
X484Y1369D02*
X510Y1369D01*
X1184Y1369D02*
X1209Y1369D01*
X481Y1368D02*
X512Y1368D01*
X1181Y1368D02*
X1212Y1368D01*
X479Y1367D02*
X514Y1367D01*
X1179Y1367D02*
X1214Y1367D01*
X477Y1366D02*
X516Y1366D01*
X1177Y1366D02*
X1216Y1366D01*
X475Y1365D02*
X518Y1365D01*
X1175Y1365D02*
X1218Y1365D01*
X474Y1364D02*
X519Y1364D01*
X1174Y1364D02*
X1219Y1364D01*
X473Y1363D02*
X521Y1363D01*
X1172Y1363D02*
X1221Y1363D01*
X471Y1362D02*
X522Y1362D01*
X1171Y1362D02*
X1222Y1362D01*
X470Y1361D02*
X523Y1361D01*
X1170Y1361D02*
X1223Y1361D01*
X469Y1360D02*
X524Y1360D01*
X1169Y1360D02*
X1224Y1360D01*
X468Y1359D02*
X525Y1359D01*
X1168Y1359D02*
X1225Y1359D01*
X467Y1358D02*
X526Y1358D01*
X1167Y1358D02*
X1226Y1358D01*
X467Y1357D02*
X527Y1357D01*
X1167Y1357D02*
X1227Y1357D01*
X466Y1356D02*
X527Y1356D01*
X1166Y1356D02*
X1227Y1356D01*
X465Y1355D02*
X528Y1355D01*
X1165Y1355D02*
X1228Y1355D01*
X465Y1354D02*
X529Y1354D01*
X1165Y1354D02*
X1229Y1354D01*
X464Y1353D02*
X530Y1353D01*
X1164Y1353D02*
X1229Y1353D01*
X463Y1352D02*
X530Y1352D01*
X1163Y1352D02*
X1230Y1352D01*
X463Y1351D02*
X531Y1351D01*
X1163Y1351D02*
X1231Y1351D01*
X462Y1350D02*
X531Y1350D01*
X1162Y1350D02*
X1231Y1350D01*
X462Y1349D02*
X532Y1349D01*
X1162Y1349D02*
X1232Y1349D01*
X462Y1348D02*
X532Y1348D01*
X1161Y1348D02*
X1232Y1348D01*
X461Y1347D02*
X533Y1347D01*
X1161Y1347D02*
X1232Y1347D01*
X461Y1346D02*
X533Y1346D01*
X1161Y1346D02*
X1233Y1346D01*
X460Y1345D02*
X533Y1345D01*
X1160Y1345D02*
X1233Y1345D01*
X460Y1344D02*
X534Y1344D01*
X1160Y1344D02*
X1233Y1344D01*
X460Y1343D02*
X534Y1343D01*
X1160Y1343D02*
X1234Y1343D01*
X460Y1342D02*
X534Y1342D01*
X1160Y1342D02*
X1234Y1342D01*
X459Y1341D02*
X534Y1341D01*
X1159Y1341D02*
X1234Y1341D01*
X459Y1340D02*
X535Y1340D01*
X1159Y1340D02*
X1234Y1340D01*
X459Y1339D02*
X535Y1339D01*
X1159Y1339D02*
X1235Y1339D01*
X459Y1338D02*
X535Y1338D01*
X1159Y1338D02*
X1235Y1338D01*
X459Y1337D02*
X535Y1337D01*
X1159Y1337D02*
X1235Y1337D01*
X459Y1336D02*
X535Y1336D01*
X1158Y1336D02*
X1235Y1336D01*
X458Y1335D02*
X535Y1335D01*
X1158Y1335D02*
X1235Y1335D01*
X458Y1334D02*
X535Y1334D01*
X1158Y1334D02*
X1235Y1334D01*
X458Y1333D02*
X535Y1333D01*
X1158Y1333D02*
X1235Y1333D01*
X458Y1332D02*
X535Y1332D01*
X1158Y1332D02*
X1235Y1332D01*
X458Y1331D02*
X535Y1331D01*
X1158Y1331D02*
X1235Y1331D01*
X458Y1330D02*
X535Y1330D01*
X1158Y1330D02*
X1235Y1330D01*
X459Y1329D02*
X535Y1329D01*
X1158Y1329D02*
X1235Y1329D01*
X459Y1328D02*
X535Y1328D01*
X1159Y1328D02*
X1235Y1328D01*
X459Y1327D02*
X535Y1327D01*
X1159Y1327D02*
X1235Y1327D01*
X459Y1326D02*
X535Y1326D01*
X1159Y1326D02*
X1234Y1326D01*
X459Y1325D02*
X534Y1325D01*
X1159Y1325D02*
X1234Y1325D01*
X459Y1324D02*
X534Y1324D01*
X1159Y1324D02*
X1234Y1324D01*
X460Y1323D02*
X534Y1323D01*
X1160Y1323D02*
X1234Y1323D01*
X460Y1322D02*
X534Y1322D01*
X1160Y1322D02*
X1233Y1322D01*
X460Y1321D02*
X533Y1321D01*
X1160Y1321D02*
X1233Y1321D01*
X461Y1320D02*
X533Y1320D01*
X1161Y1320D02*
X1233Y1320D01*
X461Y1319D02*
X532Y1319D01*
X1161Y1319D02*
X1232Y1319D01*
X461Y1318D02*
X532Y1318D01*
X1161Y1318D02*
X1232Y1318D01*
X462Y1317D02*
X532Y1317D01*
X1162Y1317D02*
X1232Y1317D01*
X462Y1316D02*
X531Y1316D01*
X1162Y1316D02*
X1231Y1316D01*
X463Y1315D02*
X531Y1315D01*
X1163Y1315D02*
X1231Y1315D01*
X463Y1314D02*
X530Y1314D01*
X1163Y1314D02*
X1230Y1314D01*
X464Y1313D02*
X530Y1313D01*
X1164Y1313D02*
X1230Y1313D01*
X464Y1312D02*
X529Y1312D01*
X1164Y1312D02*
X1229Y1312D01*
X465Y1311D02*
X528Y1311D01*
X1165Y1311D02*
X1228Y1311D01*
X466Y1310D02*
X528Y1310D01*
X1166Y1310D02*
X1228Y1310D01*
X466Y1309D02*
X527Y1309D01*
X1166Y1309D02*
X1227Y1309D01*
X467Y1308D02*
X526Y1308D01*
X1167Y1308D02*
X1226Y1308D01*
X468Y1307D02*
X525Y1307D01*
X1168Y1307D02*
X1225Y1307D01*
X469Y1306D02*
X525Y1306D01*
X1169Y1306D02*
X1224Y1306D01*
X470Y1305D02*
X524Y1305D01*
X1170Y1305D02*
X1223Y1305D01*
X471Y1304D02*
X522Y1304D01*
X1171Y1304D02*
X1222Y1304D01*
X472Y1303D02*
X521Y1303D01*
X1172Y1303D02*
X1221Y1303D01*
X473Y1302D02*
X520Y1302D01*
X1173Y1302D02*
X1220Y1302D01*
X474Y1301D02*
X519Y1301D01*
X1174Y1301D02*
X1219Y1301D01*
X476Y1300D02*
X517Y1300D01*
X1176Y1300D02*
X1217Y1300D01*
X477Y1299D02*
X515Y1299D01*
X1177Y1299D02*
X1215Y1299D01*
X479Y1298D02*
X514Y1298D01*
X1179Y1298D02*
X1213Y1298D01*
X481Y1297D02*
X511Y1297D01*
X1181Y1297D02*
X1211Y1297D01*
X484Y1296D02*
X509Y1296D01*
X1184Y1296D02*
X1209Y1296D01*
X487Y1295D02*
X506Y1295D01*
X1187Y1295D02*
X1206Y1295D01*
X492Y1294D02*
X501Y1294D01*
X1192Y1294D02*
X1201Y1294D01*
X491Y1271D02*
X502Y1271D01*
X1191Y1271D02*
X1202Y1271D01*
X487Y1270D02*
X507Y1270D01*
X1187Y1270D02*
X1206Y1270D01*
X484Y1269D02*
X510Y1269D01*
X1184Y1269D02*
X1209Y1269D01*
X481Y1268D02*
X512Y1268D01*
X1181Y1268D02*
X1212Y1268D01*
X479Y1267D02*
X514Y1267D01*
X1179Y1267D02*
X1214Y1267D01*
X477Y1266D02*
X516Y1266D01*
X1177Y1266D02*
X1216Y1266D01*
X475Y1265D02*
X518Y1265D01*
X1175Y1265D02*
X1218Y1265D01*
X474Y1264D02*
X519Y1264D01*
X1174Y1264D02*
X1219Y1264D01*
X473Y1263D02*
X521Y1263D01*
X1172Y1263D02*
X1221Y1263D01*
X471Y1262D02*
X522Y1262D01*
X1171Y1262D02*
X1222Y1262D01*
X470Y1261D02*
X523Y1261D01*
X1170Y1261D02*
X1223Y1261D01*
X469Y1260D02*
X524Y1260D01*
X1169Y1260D02*
X1224Y1260D01*
X468Y1259D02*
X525Y1259D01*
X1168Y1259D02*
X1225Y1259D01*
X467Y1258D02*
X526Y1258D01*
X1167Y1258D02*
X1226Y1258D01*
X467Y1257D02*
X527Y1257D01*
X1167Y1257D02*
X1227Y1257D01*
X466Y1256D02*
X527Y1256D01*
X1166Y1256D02*
X1227Y1256D01*
X465Y1255D02*
X528Y1255D01*
X1165Y1255D02*
X1228Y1255D01*
X465Y1254D02*
X529Y1254D01*
X1164Y1254D02*
X1229Y1254D01*
X464Y1253D02*
X530Y1253D01*
X1164Y1253D02*
X1229Y1253D01*
X463Y1252D02*
X530Y1252D01*
X1163Y1252D02*
X1230Y1252D01*
X463Y1251D02*
X531Y1251D01*
X1163Y1251D02*
X1231Y1251D01*
X462Y1250D02*
X531Y1250D01*
X1162Y1250D02*
X1231Y1250D01*
X462Y1249D02*
X532Y1249D01*
X1162Y1249D02*
X1232Y1249D01*
X462Y1248D02*
X532Y1248D01*
X1161Y1248D02*
X1232Y1248D01*
X461Y1247D02*
X533Y1247D01*
X1161Y1247D02*
X1232Y1247D01*
X461Y1246D02*
X533Y1246D01*
X1161Y1246D02*
X1233Y1246D01*
X460Y1245D02*
X533Y1245D01*
X1160Y1245D02*
X1233Y1245D01*
X460Y1244D02*
X534Y1244D01*
X1160Y1244D02*
X1233Y1244D01*
X460Y1243D02*
X534Y1243D01*
X1160Y1243D02*
X1234Y1243D01*
X460Y1242D02*
X534Y1242D01*
X1160Y1242D02*
X1234Y1242D01*
X459Y1241D02*
X534Y1241D01*
X1159Y1241D02*
X1234Y1241D01*
X459Y1240D02*
X535Y1240D01*
X1159Y1240D02*
X1234Y1240D01*
X459Y1239D02*
X535Y1239D01*
X1159Y1239D02*
X1235Y1239D01*
X459Y1238D02*
X535Y1238D01*
X1159Y1238D02*
X1235Y1238D01*
X459Y1237D02*
X535Y1237D01*
X1159Y1237D02*
X1235Y1237D01*
X459Y1236D02*
X535Y1236D01*
X1158Y1236D02*
X1235Y1236D01*
X458Y1235D02*
X535Y1235D01*
X1158Y1235D02*
X1235Y1235D01*
X458Y1234D02*
X535Y1234D01*
X1158Y1234D02*
X1235Y1234D01*
X458Y1233D02*
X535Y1233D01*
X1158Y1233D02*
X1235Y1233D01*
X458Y1232D02*
X535Y1232D01*
X1158Y1232D02*
X1235Y1232D01*
X458Y1231D02*
X535Y1231D01*
X1158Y1231D02*
X1235Y1231D01*
X458Y1230D02*
X535Y1230D01*
X1158Y1230D02*
X1235Y1230D01*
X459Y1229D02*
X535Y1229D01*
X1158Y1229D02*
X1235Y1229D01*
X459Y1228D02*
X535Y1228D01*
X1159Y1228D02*
X1235Y1228D01*
X459Y1227D02*
X535Y1227D01*
X1159Y1227D02*
X1235Y1227D01*
X459Y1226D02*
X535Y1226D01*
X1159Y1226D02*
X1234Y1226D01*
X459Y1225D02*
X534Y1225D01*
X1159Y1225D02*
X1234Y1225D01*
X459Y1224D02*
X534Y1224D01*
X1159Y1224D02*
X1234Y1224D01*
X460Y1223D02*
X534Y1223D01*
X1160Y1223D02*
X1234Y1223D01*
X460Y1222D02*
X534Y1222D01*
X1160Y1222D02*
X1233Y1222D01*
X460Y1221D02*
X533Y1221D01*
X1160Y1221D02*
X1233Y1221D01*
X461Y1220D02*
X533Y1220D01*
X1161Y1220D02*
X1233Y1220D01*
X461Y1219D02*
X532Y1219D01*
X1161Y1219D02*
X1232Y1219D01*
X461Y1218D02*
X532Y1218D01*
X1161Y1218D02*
X1232Y1218D01*
X462Y1217D02*
X532Y1217D01*
X1162Y1217D02*
X1232Y1217D01*
X462Y1216D02*
X531Y1216D01*
X1162Y1216D02*
X1231Y1216D01*
X463Y1215D02*
X531Y1215D01*
X1163Y1215D02*
X1231Y1215D01*
X463Y1214D02*
X530Y1214D01*
X1163Y1214D02*
X1230Y1214D01*
X464Y1213D02*
X530Y1213D01*
X1164Y1213D02*
X1229Y1213D01*
X464Y1212D02*
X529Y1212D01*
X1164Y1212D02*
X1229Y1212D01*
X465Y1211D02*
X528Y1211D01*
X1165Y1211D02*
X1228Y1211D01*
X466Y1210D02*
X528Y1210D01*
X1166Y1210D02*
X1228Y1210D01*
X466Y1209D02*
X527Y1209D01*
X1166Y1209D02*
X1227Y1209D01*
X467Y1208D02*
X526Y1208D01*
X1167Y1208D02*
X1226Y1208D01*
X468Y1207D02*
X525Y1207D01*
X1168Y1207D02*
X1225Y1207D01*
X469Y1206D02*
X525Y1206D01*
X1169Y1206D02*
X1224Y1206D01*
X470Y1205D02*
X524Y1205D01*
X1170Y1205D02*
X1223Y1205D01*
X471Y1204D02*
X522Y1204D01*
X1171Y1204D02*
X1222Y1204D01*
X472Y1203D02*
X521Y1203D01*
X1172Y1203D02*
X1221Y1203D01*
X473Y1202D02*
X520Y1202D01*
X1173Y1202D02*
X1220Y1202D01*
X474Y1201D02*
X519Y1201D01*
X1174Y1201D02*
X1219Y1201D01*
X476Y1200D02*
X517Y1200D01*
X1176Y1200D02*
X1217Y1200D01*
X478Y1199D02*
X515Y1199D01*
X1177Y1199D02*
X1215Y1199D01*
X479Y1198D02*
X513Y1198D01*
X1179Y1198D02*
X1213Y1198D01*
X481Y1197D02*
X511Y1197D01*
X1181Y1197D02*
X1211Y1197D01*
X484Y1196D02*
X509Y1196D01*
X1184Y1196D02*
X1209Y1196D01*
X487Y1195D02*
X506Y1195D01*
X1187Y1195D02*
X1206Y1195D01*
X492Y1194D02*
X501Y1194D01*
X1192Y1194D02*
X1201Y1194D01*
X491Y1171D02*
X502Y1171D01*
X1191Y1171D02*
X1202Y1171D01*
X487Y1170D02*
X507Y1170D01*
X1187Y1170D02*
X1206Y1170D01*
X484Y1169D02*
X510Y1169D01*
X1184Y1169D02*
X1209Y1169D01*
X481Y1168D02*
X512Y1168D01*
X1181Y1168D02*
X1212Y1168D01*
X479Y1167D02*
X514Y1167D01*
X1179Y1167D02*
X1214Y1167D01*
X477Y1166D02*
X516Y1166D01*
X1177Y1166D02*
X1216Y1166D01*
X475Y1165D02*
X518Y1165D01*
X1175Y1165D02*
X1218Y1165D01*
X474Y1164D02*
X519Y1164D01*
X1174Y1164D02*
X1219Y1164D01*
X472Y1163D02*
X521Y1163D01*
X1172Y1163D02*
X1221Y1163D01*
X471Y1162D02*
X522Y1162D01*
X1171Y1162D02*
X1222Y1162D01*
X470Y1161D02*
X523Y1161D01*
X1170Y1161D02*
X1223Y1161D01*
X469Y1160D02*
X524Y1160D01*
X1169Y1160D02*
X1224Y1160D01*
X468Y1159D02*
X525Y1159D01*
X1168Y1159D02*
X1225Y1159D01*
X467Y1158D02*
X526Y1158D01*
X1167Y1158D02*
X1226Y1158D01*
X467Y1157D02*
X527Y1157D01*
X1167Y1157D02*
X1227Y1157D01*
X466Y1156D02*
X527Y1156D01*
X1166Y1156D02*
X1227Y1156D01*
X465Y1155D02*
X528Y1155D01*
X1165Y1155D02*
X1228Y1155D01*
X465Y1154D02*
X529Y1154D01*
X1164Y1154D02*
X1229Y1154D01*
X464Y1153D02*
X530Y1153D01*
X1164Y1153D02*
X1229Y1153D01*
X463Y1152D02*
X530Y1152D01*
X1163Y1152D02*
X1230Y1152D01*
X463Y1151D02*
X531Y1151D01*
X1163Y1151D02*
X1231Y1151D01*
X462Y1150D02*
X531Y1150D01*
X1162Y1150D02*
X1231Y1150D01*
X462Y1149D02*
X532Y1149D01*
X1162Y1149D02*
X1232Y1149D01*
X462Y1148D02*
X532Y1148D01*
X1161Y1148D02*
X1232Y1148D01*
X461Y1147D02*
X533Y1147D01*
X1161Y1147D02*
X1232Y1147D01*
X461Y1146D02*
X533Y1146D01*
X1161Y1146D02*
X1233Y1146D01*
X460Y1145D02*
X533Y1145D01*
X1160Y1145D02*
X1233Y1145D01*
X460Y1144D02*
X534Y1144D01*
X1160Y1144D02*
X1233Y1144D01*
X460Y1143D02*
X534Y1143D01*
X1160Y1143D02*
X1234Y1143D01*
X460Y1142D02*
X534Y1142D01*
X1159Y1142D02*
X1234Y1142D01*
X459Y1141D02*
X534Y1141D01*
X1159Y1141D02*
X1234Y1141D01*
X459Y1140D02*
X535Y1140D01*
X1159Y1140D02*
X1234Y1140D01*
X459Y1139D02*
X535Y1139D01*
X1159Y1139D02*
X1235Y1139D01*
X459Y1138D02*
X535Y1138D01*
X1159Y1138D02*
X1235Y1138D01*
X459Y1137D02*
X535Y1137D01*
X1159Y1137D02*
X1235Y1137D01*
X459Y1136D02*
X535Y1136D01*
X1158Y1136D02*
X1235Y1136D01*
X458Y1135D02*
X535Y1135D01*
X1158Y1135D02*
X1235Y1135D01*
X458Y1134D02*
X535Y1134D01*
X1158Y1134D02*
X1235Y1134D01*
X458Y1133D02*
X535Y1133D01*
X1158Y1133D02*
X1235Y1133D01*
X458Y1132D02*
X535Y1132D01*
X1158Y1132D02*
X1235Y1132D01*
X458Y1131D02*
X535Y1131D01*
X1158Y1131D02*
X1235Y1131D01*
X458Y1130D02*
X535Y1130D01*
X1158Y1130D02*
X1235Y1130D01*
X459Y1129D02*
X535Y1129D01*
X1158Y1129D02*
X1235Y1129D01*
X459Y1128D02*
X535Y1128D01*
X1159Y1128D02*
X1235Y1128D01*
X459Y1127D02*
X535Y1127D01*
X1159Y1127D02*
X1235Y1127D01*
X459Y1126D02*
X535Y1126D01*
X1159Y1126D02*
X1234Y1126D01*
X459Y1125D02*
X534Y1125D01*
X1159Y1125D02*
X1234Y1125D01*
X459Y1124D02*
X534Y1124D01*
X1159Y1124D02*
X1234Y1124D01*
X460Y1123D02*
X534Y1123D01*
X1160Y1123D02*
X1234Y1123D01*
X460Y1122D02*
X534Y1122D01*
X1160Y1122D02*
X1233Y1122D01*
X460Y1121D02*
X533Y1121D01*
X1160Y1121D02*
X1233Y1121D01*
X461Y1120D02*
X533Y1120D01*
X1161Y1120D02*
X1233Y1120D01*
X461Y1119D02*
X532Y1119D01*
X1161Y1119D02*
X1232Y1119D01*
X461Y1118D02*
X532Y1118D01*
X1161Y1118D02*
X1232Y1118D01*
X462Y1117D02*
X532Y1117D01*
X1162Y1117D02*
X1232Y1117D01*
X462Y1116D02*
X531Y1116D01*
X1162Y1116D02*
X1231Y1116D01*
X463Y1115D02*
X531Y1115D01*
X1163Y1115D02*
X1231Y1115D01*
X463Y1114D02*
X530Y1114D01*
X1163Y1114D02*
X1230Y1114D01*
X464Y1113D02*
X530Y1113D01*
X1164Y1113D02*
X1229Y1113D01*
X464Y1112D02*
X529Y1112D01*
X1164Y1112D02*
X1229Y1112D01*
X465Y1111D02*
X528Y1111D01*
X1165Y1111D02*
X1228Y1111D01*
X466Y1110D02*
X528Y1110D01*
X1166Y1110D02*
X1228Y1110D01*
X466Y1109D02*
X527Y1109D01*
X1166Y1109D02*
X1227Y1109D01*
X467Y1108D02*
X526Y1108D01*
X1167Y1108D02*
X1226Y1108D01*
X468Y1107D02*
X525Y1107D01*
X1168Y1107D02*
X1225Y1107D01*
X469Y1106D02*
X525Y1106D01*
X1169Y1106D02*
X1224Y1106D01*
X470Y1105D02*
X524Y1105D01*
X1170Y1105D02*
X1223Y1105D01*
X471Y1104D02*
X522Y1104D01*
X1171Y1104D02*
X1222Y1104D01*
X472Y1103D02*
X521Y1103D01*
X1172Y1103D02*
X1221Y1103D01*
X473Y1102D02*
X520Y1102D01*
X1173Y1102D02*
X1220Y1102D01*
X474Y1101D02*
X519Y1101D01*
X1174Y1101D02*
X1219Y1101D01*
X476Y1100D02*
X517Y1100D01*
X1176Y1100D02*
X1217Y1100D01*
X478Y1099D02*
X515Y1099D01*
X1177Y1099D02*
X1215Y1099D01*
X479Y1098D02*
X513Y1098D01*
X1179Y1098D02*
X1213Y1098D01*
X481Y1097D02*
X511Y1097D01*
X1181Y1097D02*
X1211Y1097D01*
X484Y1096D02*
X509Y1096D01*
X1184Y1096D02*
X1209Y1096D01*
X487Y1095D02*
X506Y1095D01*
X1187Y1095D02*
X1205Y1095D01*
X492Y1094D02*
X501Y1094D01*
X1192Y1094D02*
X1201Y1094D01*
D02*
G04 End of Mask0*
M02*